<?xml version="1.0" encoding="utf-8"?>
<!-- Generator: Adobe Illustrator 19.2.0, SVG Export Plug-In . SVG Version: 6.00 Build 0)  -->
<svg version="1.1" id="Слой_1" xmlns="http://www.w3.org/2000/svg" xmlns:xlink="http://www.w3.org/1999/xlink" x="0px" y="0px"
	 viewBox="0 0 200 100" style="enable-background:new 0 0 200 100;" xml:space="preserve">
<style type="text/css">
	.st0{fill:#FFFFFF;}
	.st1{fill:none;stroke:#FFFFFF;stroke-width:1.5226;stroke-miterlimit:10;}
	.st2{fill:none;stroke:#FFFFFF;stroke-width:1.2751;stroke-miterlimit:10;}
	.st3{fill:none;stroke:#FFFFFF;stroke-width:1.0452;stroke-miterlimit:10;}
	.st4{fill:none;stroke:#FFFFFF;stroke-width:0.8225;stroke-miterlimit:10;}
</style>
<g>
	<path class="st0" d="M159.7,59.1c-1.6-1.4-3.2-2.9-4.8-4.3c-1.3-1.2-1.3-1-0.3-2.6c2.5-4.3,3.4-8.8,2.7-13.7
		c-0.8-4.9-3.1-9-6.8-12.2c-2.3-2-4.9-3.5-8.1-3.8c-0.7-0.1-1.5,0-2.2-0.2c-1.2,0-2.3,0-3.5,0c0,0.1-0.1,0.2-0.2,0.1
		c-0.9-0.1-1.7,0.2-2.5,0.4c-1.9,0.5-3.7,1.2-5.3,2.3c-1.5,1-3,2.2-4.2,3.6c-0.8,0.9-1.5,1.9-2.1,2.9c-1.5,2.6-2.4,5.4-2.7,8.3
		c-0.1,1.6-0.1,3.2,0.2,4.8c0.3,1.4,0.6,2.7,1.1,4.1c0.8,2.1,1.8,3.9,3.3,5.6c2,2.3,4.4,4.2,7.3,5.4c2.1,0.8,4.3,1.2,6.5,1.4
		c1,0.1,2.1-0.2,3.1-0.3c1.9-0.2,3.7-0.9,5.3-1.7c1.2-0.6,2.3-1.3,3.3-2.2c0.2-0.2,0.4-0.2,0.5,0c0.9,0.9,1.9,1.7,2.8,2.5
		c1.2,1.2,2.5,2.3,3.8,3.4c0.3,0.3,0.6,0.6,0.9,0.9c0.3,0.3,0.7,0.4,1.1,0.7c0.3,0,0.6,0,0.8,0c0.9-0.1,1.6-0.5,1.7-1.5
		c0-0.4,0-0.9,0-1.3C161.4,60.5,160.5,59.8,159.7,59.1z M151.9,47.2c-0.5,1.4-1.2,2.6-2.1,3.8c-1.4,1.9-3.2,3.4-5.4,4.4
		c-1.4,0.7-2.9,1.2-4.5,1.2c-0.4,0-0.9,0.2-1.3,0.2c-2.8-0.1-5.5-0.8-7.8-2.3s-4-3.4-5.2-5.9c-0.7-1.3-1.2-2.8-1.4-4.2
		c-0.1-0.9-0.3-1.9-0.2-2.5c0-3,0.7-5.5,2-7.8c1-1.8,2.4-3.4,4.1-4.7c1.2-0.8,2.4-1.5,3.8-2c0.8-0.3,1.7-0.5,2.6-0.6
		c0.9-0.2,1.8-0.2,2.6-0.1c1.5,0,3,0.4,4.5,0.9c2.4,0.9,4.3,2.4,6,4.3c1.5,1.8,2.6,3.9,3.1,6.2c0.3,1.3,0.5,2.5,0.5,3.8
		C153,43.6,152.6,45.4,151.9,47.2z"/>
	<path class="st0" d="M50.5,35.4c-5.2,0-10.4,0-15.6,0c-0.4,0-0.7,0.1-1,0.3c0,1.1,0,2.2,0,3.3c0.3,0.2,0.6,0.4,1,0.3
		c1.6,0,3.2,0,4.8,0c0.8,0,0.7-0.1,0.7,0.7c0,6.5,0,13.1,0,19.6c0,0.2,0,0.4,0,0.6c0,0.6,0.2,0.8,0.8,0.8c1,0,2,0,3,0
		c0.6,0,0.8-0.2,0.8-0.8c0-0.2,0-0.4,0-0.6c0-6.4,0-12.9,0-19.3c0-0.1,0-0.2,0-0.3c0-0.8-0.1-0.7,0.7-0.7c1.3,0,2.5,0,3.8,0
		c0.4,0,0.9,0,1.3,0c0.3,0,0.5-0.1,0.6-0.4c0.1-0.2,0.1-0.4,0.1-0.6c0-0.7,0-1.3,0-2C51.5,35.6,51.2,35.4,50.5,35.4z"/>
	<path class="st0" d="M113.6,60.2c-0.8-1.2-1.7-2.4-2.5-3.6c-0.8-1.2-1.7-2.4-2.5-3.6c-0.4-0.6-0.8-1.2-1.2-1.8
		c-0.3-0.4-0.4-0.4,0-0.9c0.7-0.8,1.4-1.7,2.1-2.6c1.1-1.4,2.2-2.9,3.3-4.3c0.3-0.4,0.6-0.8,0.9-1.2c0.3-0.5,0.2-0.7-0.4-0.8
		c-1.2,0-2.4,0-3.6,0c-0.4,0-0.7,0.1-0.9,0.4c-0.6,0.9-1.3,1.7-1.9,2.6c-1.1,1.6-2.3,3.2-3.4,4.8c-0.1,0.1-0.1,0.2-0.2,0.2
		c-0.1,0.1-0.1,0-0.2,0c0-0.2,0-0.4,0-0.7c0-4.3,0-8.5,0-12.8c0-0.2,0-0.4,0-0.6c0-0.4-0.3-0.7-0.7-0.7c-1,0-2,0-3,0
		c-0.4,0-0.7,0.3-0.7,0.7c0,0.2,0,0.4,0,0.6c0,4,0,7.9,0,11.9s0,7.9,0,11.9c0,0.2,0,0.4,0,0.6c0,0.4,0.3,0.7,0.7,0.7c1,0,2,0,3,0
		c0.4,0,0.6-0.3,0.6-0.6c0-0.2,0-0.4,0-0.6c0-2.1,0-4.3,0-6.4c0-0.2,0-0.4,0-0.7c0-0.1,0-0.1,0.1-0.2l0.1,0.1
		c0.1,0.2,0.2,0.3,0.3,0.5c1.6,2.4,3.1,4.7,4.7,7.1c0.2,0.2,0.4,0.4,0.5,0.6c0.1,0.1,0.3,0.2,0.5,0.2c1.3,0,2.7,0,4,0
		C113.6,61,113.8,60.7,113.6,60.2C113.7,60.3,113.6,60.3,113.6,60.2z"/>
	<path class="st0" d="M78.6,45.9c-0.4-1.7-1.4-3-3-3.8c-1-0.5-2.2-0.7-3.3-0.7c-1.1,0-2.3,0-3.4,0.1c-1,0.1-1.9,0.3-2.8,0.4
		c-0.5,0.1-0.8,0.3-0.8,0.9c0,0.7,0,1.3,0,2c0,0.5,0.1,0.6,0.6,0.6c0.7,0,1.5-0.1,2.2-0.1c1.4-0.1,2.9-0.1,4.3,0
		c1,0.1,1.6,0.5,1.8,1.6c0.2,0.7,0.1,1.5,0.1,2.2c0,0.6,0,0.5-0.5,0.5c-1.4,0-2.9-0.1-4.3,0.1c-0.8,0.1-1.6,0.3-2.3,0.6
		c-1.6,0.7-2.7,1.9-3.1,3.6C64,54.5,64,55.1,64,55.6s0,1.1,0.1,1.6c0.1,0.6,0.3,1.2,0.6,1.7c0.9,1.6,2.4,2.3,4.1,2.5
		c1.9,0.2,3.6-0.3,5.3-1.3c0.2-0.1,0.3-0.3,0.4,0.1c0.1,0.7,0.2,0.8,1,0.8s1.6,0,2.4,0c0.5,0,0.7-0.2,0.8-0.8c0-0.2,0-0.3,0-0.5
		c0-2.1,0-4.1,0-6.2l0,0c0-2,0-4.1,0-6.1C78.8,47,78.7,46.5,78.6,45.9z M74.1,57c-1.3,0.6-2.6,0.9-4.1,0.8c-0.8-0.1-1.4-0.7-1.5-1.6
		c0-0.7-0.1-1.3,0.2-2c0.3-0.8,0.9-1.2,1.7-1.4c1.2-0.3,2.5-0.2,3.8-0.2c0.2,0,0.2,0.1,0.2,0.3c0,0.6,0,1.3,0,1.9c0,0.6,0,1.2,0,1.7
		C74.5,56.8,74.3,56.9,74.1,57z"/>
	<path class="st0" d="M94.2,57.3c-1.4,0.2-2.9,0.3-4.4,0.3c-1.5-0.1-2.4-1.1-2.7-2.3c-0.2-0.8-0.4-1.7-0.3-2.6c0-0.9,0-1.8,0-2.7
		c0-0.8,0.1-1.6,0.3-2.4c0.3-1.3,1-2.1,2.3-2.4c0.3-0.1,0.5-0.1,0.7-0.1c1.4,0,2.8,0.1,4.1,0.3c0.4,0.1,0.7-0.2,0.7-0.6
		c0-0.8,0-1.6,0-2.3c0-0.4-0.2-0.6-0.5-0.7c-0.4-0.1-0.8-0.3-1.3-0.3c-1.2-0.2-2.4-0.2-3.6-0.2c-0.7,0-1.5,0.1-2.2,0.4
		c-2,0.6-3.4,1.9-4.2,3.8c-0.5,1.1-0.7,2.3-0.8,3.5c0,0.8,0,1.6,0,2.3l0,0c0,0.5,0,1.1,0,1.6c0,1,0.1,2,0.3,3
		c0.3,1.2,0.8,2.2,1.6,3.1c1.3,1.6,3.1,2.3,5.2,2.3c1,0,2,0.1,3-0.1c0.6-0.1,1.2-0.2,1.8-0.4c0.5-0.2,0.6-0.3,0.6-0.8
		c0-0.8,0-1.5,0-2.3C95,57.4,94.7,57.2,94.2,57.3z"/>
	<path class="st0" d="M62,41.4c-0.3,0-0.5,0-0.8,0c-1.3,0.3-2.5,0.6-3.5,1.4c-0.2,0.1-0.3,0.1-0.3-0.1c0-0.2,0-0.3,0-0.5
		c0-0.3-0.3-0.6-0.6-0.6c-1,0-2,0-3,0c-0.3,0-0.6,0.3-0.6,0.6c0,0.2,0,0.4,0,0.6c0,2.8,0,5.7,0,8.5c0,2.9,0,5.7,0,8.6
		c0,0.2,0,0.4,0,0.6c0,0.4,0.3,0.7,0.7,0.7c1,0,2,0,3,0c0.4,0,0.6-0.3,0.6-0.6c0-0.2,0-0.4,0-0.6c0-4.2,0-8.4,0-12.6
		c0-0.2,0-0.4,0-0.6c0-0.1,0-0.2,0.2-0.3c0.6-0.3,1.3-0.6,2-0.8c0.8-0.2,1.5-0.4,2.3-0.3c0.5,0,0.8-0.3,0.8-0.7c0-0.8,0-1.6,0-2.3
		C62.9,41.6,62.6,41.4,62,41.4z"/>
	<path class="st0" d="M149.5,39.6c-0.3-1.5-1-2.6-2.6-3.1c-1-0.3-1.9-0.4-2.9-0.1c-1.2,0.3-2.1,0.9-2.6,2c-0.3,0.6-0.5,1.3-0.5,2
		c-0.1,1.4-0.2,2.8,0.1,4.1c0.3,1.4,1.1,2.5,2.6,3c0.9,0.3,1.9,0.3,2.8,0.1c1.5-0.3,2.4-1.2,2.9-2.6c0.3-1,0.4-2,0.3-2.9
		C149.7,41.2,149.7,40.4,149.5,39.6z M146.4,44.4c-0.2,0.5-0.6,0.6-1,0.7c-1,0.1-1.4-0.4-1.5-1.3c-0.1-1.2-0.1-2.3,0-3.5
		c0-1,0.8-1.5,1.8-1.3c0.5,0.1,1,0.7,1,1.4c0,0.6,0,1.2,0,1.7l0,0c0,0.5,0,0.9,0,1.4C146.7,43.8,146.5,44.1,146.4,44.4z"/>
	<path class="st0" d="M139.5,36.5c-0.3-0.2-0.6-0.1-0.9-0.2c-1-0.2-1.9-0.1-2.8,0.2c-1.2,0.4-1.9,1.3-2.3,2.5
		c-0.3,1-0.3,1.9-0.3,2.9c0,0.8-0.1,1.7,0.2,2.5c0.3,1.3,0.9,2.3,2.2,2.9c0.4,0.2,0.8,0.3,1.3,0.3c0.9,0.2,1.9,0.1,2.8-0.2
		c0.2-0.1,0.4-0.2,0.4-0.5c0-0.5,0-1.1,0-1.6s0-0.5-0.6-0.4c-0.5,0.1-0.9,0-1.4,0c-1.1,0-1.4-0.2-1.6-1.2c0-0.2,0-0.3-0.1-0.5
		c0-0.9,0-1.8,0-2.8c0-0.4,0.2-0.7,0.3-1.1c0.2-0.4,0.5-0.6,0.9-0.6c0.7,0,1.4-0.1,2.1,0.1c0.2,0.1,0.4,0,0.4-0.3c0-0.6,0-1.2,0-1.8
		C139.8,36.6,139.6,36.6,139.5,36.5z"/>
	<path class="st0" d="M131.4,36.8c0-0.3-0.1-0.4-0.5-0.5c-0.6,0-1.3,0-1.9,0c-0.5,0-0.5,0-0.5,0.5c0,1.7,0,3.4,0,5.1
		c0,1.1,0,2.3,0,3.4c0,0.7-0.1,1.4,0,2.1c0.7,0.2,1.5,0,2.2,0.1c0.1,0,0.1,0,0.2,0c0.3,0,0.4-0.1,0.4-0.4c0-0.2,0-0.3,0-0.5
		c0-3.1,0-6.3,0-9.4C131.4,37.1,131.4,37,131.4,36.8z"/>
</g>
<g>
	<g>
		<path class="st0" d="M186.6,75.5c0,0,3.9,2.8,3.8,0.8c0,0,1.2,0.4,1-0.6c0,0,0.2-0.7-0.5-1.1c1.3,0.5,3.2,1,2.5-0.1
			c0,0,4.8-1.4-0.5-2.6c0,0,1.3-2.2-3-1.3c0,0-0.4-2.2-2.8,0.2c0,0-1.9-0.9-2.3,1.8c0,0-2.3-0.5-2.1,1.9
			C182.7,74.5,186.6,77.8,186.6,75.5z M183.3,74.1c0.1-0.1,0.2-0.2,0.4-0.3c0.2-0.1,0.3-0.2,0.6-0.3c0.2-0.1,0.4-0.2,0.7-0.3
			c0.2-0.1,0.5-0.2,0.8-0.3c0.3-0.1,0.6-0.1,0.9-0.2c0.3,0,0.6-0.1,0.9-0.1c0.3,0,0.6,0,0.9-0.1c0.3,0,0.6,0,0.9,0
			c0.3,0,0.6,0,0.8,0.1c0.3,0,0.5,0.1,0.7,0.1c0.9,0.1,1.5,0.3,1.5,0.3s-0.2,0-0.4,0c-0.3,0-0.6,0-1.1,0c-0.2,0-0.5,0-0.7,0
			c-0.3,0-0.5,0-0.8,0s-0.6,0-0.9,0c-0.3,0-0.6,0-0.9,0.1c-0.3,0-0.6,0.1-0.9,0.1c-0.3,0.1-0.6,0.1-0.8,0.1
			c-0.3,0.1-0.5,0.1-0.8,0.2c-0.2,0.1-0.5,0.1-0.7,0.2s-0.4,0.1-0.6,0.2C183.6,74,183.5,74.1,183.3,74.1c-0.2,0.2-0.3,0.3-0.3,0.3
			S183.1,74.2,183.3,74.1z"/>
		<path class="st0" d="M175.9,79.2c0,0,0.1,4.8,1.7,3.5c0,0,0.4,1.2,1.1,0.5c0,0,0.6-0.3,0.6-1.1c0.4,1.3,1.1,3.2,1.6,2
			c0,0,4,3,1.8-2c0,0,2.5-0.3-0.8-3.2c0,0,1.6-1.6-1.8-2.2c0,0-0.4-2.1-2.8-0.8c0,0-1-2.1-2.8-0.6C174.5,75.5,174.2,80.6,175.9,79.2
			z M175.2,75.7c0.1,0,0.3,0.1,0.5,0.2s0.4,0.2,0.6,0.3c0.2,0.1,0.4,0.2,0.6,0.4c0.2,0.1,0.4,0.3,0.7,0.5c0.2,0.2,0.5,0.4,0.7,0.6
			s0.4,0.4,0.6,0.7c0.2,0.2,0.4,0.5,0.6,0.7c0.2,0.2,0.4,0.5,0.5,0.7c0.2,0.2,0.3,0.5,0.5,0.7c0.1,0.2,0.3,0.4,0.4,0.6
			c0.4,0.8,0.6,1.4,0.6,1.4s-0.1-0.1-0.2-0.3c-0.2-0.2-0.4-0.5-0.6-0.9c-0.1-0.2-0.3-0.4-0.4-0.6c-0.2-0.2-0.3-0.4-0.5-0.6
			s-0.4-0.4-0.6-0.7c-0.2-0.2-0.4-0.4-0.6-0.7c-0.2-0.2-0.4-0.4-0.6-0.6c-0.2-0.2-0.4-0.4-0.6-0.6c-0.2-0.2-0.4-0.4-0.6-0.5
			c-0.2-0.2-0.4-0.3-0.6-0.4c-0.2-0.1-0.4-0.2-0.5-0.3c-0.2-0.1-0.3-0.2-0.4-0.2c-0.2-0.1-0.4-0.2-0.4-0.2S174.9,75.6,175.2,75.7z"
			/>
		<path class="st0" d="M167.6,82.9c0,0,1.9,4.3,2.9,2.6c0,0,0.8,1,1.2,0c0,0,0.5-0.5,0.2-1.2c0.8,1,2.2,2.5,2.2,1.2
			c0,0,4.9,1.2,0.9-2.5c0,0,2.2-1.3-1.9-2.6c0,0,0.8-2.1-2.5-1.3c0,0-1.2-1.7-2.9,0.3c0,0-1.7-1.6-2.8,0.6
			C164.8,80,166.5,84.9,167.6,82.9z M165.5,80c0.1,0,0.3,0,0.5,0s0.4,0,0.6,0c0.2,0,0.5,0.1,0.7,0.1c0.3,0,0.5,0.1,0.8,0.2
			s0.6,0.2,0.9,0.3c0.3,0.1,0.6,0.2,0.9,0.4c0.3,0.1,0.6,0.3,0.8,0.4c0.3,0.1,0.5,0.3,0.8,0.5c0.2,0.2,0.5,0.3,0.7,0.5
			c0.2,0.1,0.4,0.3,0.6,0.5c0.7,0.6,1.1,1.1,1.1,1.1s-0.1-0.1-0.4-0.2c-0.2-0.1-0.6-0.3-0.9-0.6c-0.2-0.1-0.4-0.2-0.6-0.4
			c-0.2-0.1-0.5-0.3-0.7-0.4s-0.5-0.3-0.8-0.4s-0.5-0.3-0.8-0.4s-0.5-0.2-0.8-0.4c-0.3-0.1-0.5-0.2-0.8-0.3
			c-0.3-0.1-0.5-0.2-0.8-0.2c-0.2-0.1-0.5-0.1-0.7-0.2c-0.2,0-0.4-0.1-0.6-0.1c-0.2,0-0.3,0-0.5-0.1c-0.3,0-0.4-0.1-0.4-0.1
			S165.2,80,165.5,80z"/>
		<path class="st0" d="M174.7,74.9c2,1.4,2.8-0.8,2.8-0.8c2.4,1.1,2.7-1,2.7-1c3.4-0.8,1.6-2.3,1.6-2.3c3-3.1,0.5-3.2,0.5-3.2
			c1.8-5.1-2-1.8-2-1.8c-0.6-1.2-1.1,0.8-1.4,2.1c-0.1-0.8-0.7-1-0.7-1c-0.8-0.7-1,0.5-1,0.5c-1.7-1.1-1.3,3.7-1.3,3.7
			C173.9,69.8,174.7,74.9,174.7,74.9z M175,74.7c0,0,0.1-0.1,0.3-0.2c0.1-0.1,0.2-0.2,0.4-0.3c0.1-0.1,0.3-0.3,0.5-0.4
			s0.3-0.3,0.5-0.5s0.4-0.4,0.6-0.6c0.2-0.2,0.4-0.4,0.6-0.6c0.2-0.2,0.4-0.5,0.6-0.7c0.2-0.2,0.4-0.5,0.5-0.7
			c0.2-0.2,0.3-0.5,0.5-0.7s0.3-0.5,0.4-0.7c0.1-0.2,0.3-0.4,0.4-0.6c0.2-0.4,0.4-0.7,0.6-0.9c0.1-0.2,0.2-0.4,0.2-0.4
			s-0.1,0.6-0.5,1.5c-0.1,0.2-0.2,0.4-0.3,0.7c-0.1,0.2-0.2,0.5-0.4,0.7c-0.1,0.3-0.3,0.5-0.5,0.8s-0.4,0.5-0.5,0.8
			c-0.2,0.2-0.4,0.5-0.6,0.7c-0.2,0.2-0.4,0.4-0.6,0.6c-0.2,0.2-0.4,0.4-0.6,0.5c-0.2,0.2-0.4,0.3-0.6,0.4c-0.2,0.1-0.4,0.2-0.6,0.3
			c-0.2,0.1-0.3,0.1-0.4,0.2C175.1,74.7,175,74.7,175,74.7z"/>
		<path class="st0" d="M167.3,77.6c2.3,0.7,2.4-1.7,2.4-1.7c2.7,0.2,2.2-1.9,2.2-1.9c2.9-1.9,0.8-2.7,0.8-2.7
			c1.8-3.9-0.6-3.2-0.6-3.2c0-5.4-2.5-1.1-2.5-1.1c-0.9-0.9-0.8,1.1-0.6,2.4c-0.3-0.7-1-0.7-1-0.7c-0.9-0.4-0.8,0.9-0.8,0.9
			c-1.9-0.5-0.1,3.9-0.1,3.9C165,73.1,167.3,77.6,167.3,77.6z M167.5,77.4c0,0,0.1-0.1,0.2-0.3c0.1-0.1,0.2-0.2,0.3-0.4
			c0.1-0.2,0.2-0.3,0.3-0.5s0.2-0.4,0.3-0.6s0.2-0.5,0.3-0.7c0.1-0.3,0.2-0.5,0.3-0.8s0.2-0.6,0.3-0.8c0.1-0.3,0.2-0.6,0.3-0.9
			s0.2-0.6,0.2-0.8c0.1-0.3,0.1-0.5,0.2-0.8c0.1-0.3,0.1-0.5,0.2-0.7c0.1-0.4,0.2-0.8,0.2-1.1c0.1-0.3,0.1-0.4,0.1-0.4
			s0.1,0.6,0,1.5c0,0.2,0,0.5-0.1,0.7c0,0.3-0.1,0.5-0.1,0.8c-0.1,0.3-0.1,0.6-0.2,0.9c-0.1,0.3-0.2,0.6-0.3,0.9s-0.2,0.6-0.3,0.9
			s-0.2,0.6-0.4,0.8c-0.1,0.3-0.3,0.5-0.4,0.7c-0.2,0.2-0.3,0.4-0.4,0.6c-0.2,0.2-0.3,0.3-0.4,0.5c-0.1,0.1-0.3,0.2-0.4,0.3
			C167.6,77.3,167.5,77.4,167.5,77.4z"/>
		<path class="st1" d="M157.7,86.8c0,0,8.1-13.9,27.8-12.5"/>
	</g>
	<g>
		<path class="st0" d="M194,52.1c0,0,3.9,0.8,3.2-0.7c0,0,1.1-0.1,0.6-0.8c0,0-0.1-0.6-0.8-0.7c1.1-0.1,2.8-0.3,1.9-0.9
			c0,0,3.2-2.7-1.3-1.8c0,0,0.2-2.1-2.7,0c0,0-1-1.6-2.1,1.1c0,0-1.8,0-1.2,2.1c0,0-1.9,0.4-1,2.2C190.6,52.6,194.8,53.8,194,52.1z
			 M191,52.1c0.1-0.1,0.1-0.2,0.2-0.3c0.1-0.1,0.2-0.3,0.3-0.4c0.1-0.2,0.3-0.3,0.4-0.5c0.2-0.2,0.3-0.3,0.5-0.5s0.4-0.3,0.6-0.4
			c0.2-0.1,0.4-0.3,0.7-0.4c0.2-0.1,0.5-0.2,0.7-0.4c0.2-0.1,0.5-0.2,0.7-0.3s0.4-0.2,0.7-0.2c0.2-0.1,0.4-0.1,0.6-0.2
			c0.7-0.2,1.3-0.2,1.3-0.2s-0.1,0.1-0.3,0.1c-0.2,0.1-0.5,0.2-0.8,0.4c-0.2,0.1-0.4,0.2-0.6,0.3c-0.2,0.1-0.4,0.2-0.6,0.3
			c-0.2,0.1-0.4,0.2-0.6,0.3c-0.2,0.1-0.4,0.2-0.7,0.4c-0.2,0.1-0.4,0.2-0.6,0.4c-0.2,0.1-0.4,0.3-0.6,0.4c-0.2,0.1-0.4,0.3-0.5,0.4
			c-0.2,0.1-0.3,0.3-0.5,0.4c-0.1,0.1-0.3,0.2-0.4,0.3C191.2,51.9,191.1,52,191,52.1c-0.1,0.2-0.2,0.3-0.2,0.3S190.8,52.3,191,52.1z
			"/>
		<path class="st0" d="M188,57.6c0,0,1.7,3.6,2.5,2.2c0,0,0.7,0.8,1,0c0,0,0.4-0.4,0.1-1c0.7,0.9,1.9,2.1,1.9,1c0,0,4.1,0.9,0.7-2.1
			c0,0,1.8-1.1-1.7-2.2c0,0,0.7-1.8-2.1-1c0,0-1-1.4-2.4,0.3c0,0-1.5-1.3-2.4,0.5C185.6,55.2,187.1,59.3,188,57.6z M186.2,55.2
			c0.1,0,0.2,0,0.4,0s0.3,0,0.5,0s0.4,0,0.6,0.1c0.2,0,0.4,0.1,0.7,0.1c0.2,0.1,0.5,0.1,0.7,0.2c0.2,0.1,0.5,0.2,0.7,0.3
			s0.5,0.2,0.7,0.3s0.4,0.2,0.6,0.4c0.2,0.1,0.4,0.3,0.6,0.4c0.2,0.1,0.3,0.3,0.5,0.4c0.6,0.5,1,0.9,1,0.9s-0.1-0.1-0.3-0.2
			c-0.2-0.1-0.5-0.3-0.8-0.5c-0.2-0.1-0.3-0.2-0.5-0.3s-0.4-0.2-0.6-0.3c-0.2-0.1-0.4-0.2-0.6-0.3c-0.2-0.1-0.5-0.2-0.7-0.3
			s-0.5-0.2-0.7-0.3s-0.5-0.2-0.7-0.2c-0.2-0.1-0.4-0.1-0.6-0.2c-0.2,0-0.4-0.1-0.6-0.1c-0.2,0-0.4-0.1-0.5-0.1
			C186.5,55.3,186.3,55.3,186.2,55.2c-0.2,0.1-0.3,0-0.3,0S186,55.2,186.2,55.2z"/>
		<path class="st0" d="M181.9,63.8c0,0,3,2.7,3.1,1c0,0,1,0.5,0.9-0.4c0,0,0.2-0.5-0.3-1c1,0.5,2.6,1.2,2.1,0.2c0,0,4.1-0.7-0.1-2.2
			c0,0,1.3-1.7-2.4-1.4c0,0-0.1-1.9-2.4-0.1c0,0-1.5-0.9-2.1,1.2c0,0-1.9-0.6-2,1.4C178.8,62.6,181.8,65.7,181.9,63.8z M179.4,62.3
			c0.1-0.1,0.2-0.1,0.4-0.2c0.1-0.1,0.3-0.1,0.5-0.2c0.2-0.1,0.4-0.1,0.6-0.2c0.2-0.1,0.4-0.1,0.7-0.1c0.2,0,0.5-0.1,0.7-0.1
			c0.3,0,0.5,0,0.8,0s0.5,0,0.8,0s0.5,0.1,0.7,0.1s0.5,0.1,0.7,0.1s0.4,0.1,0.6,0.1c0.7,0.2,1.2,0.4,1.2,0.4s-0.1,0-0.3,0
			s-0.5-0.1-0.9-0.1c-0.2,0-0.4,0-0.6-0.1c-0.2,0-0.4,0-0.7-0.1c-0.2,0-0.5,0-0.7,0s-0.5,0-0.7,0s-0.5,0-0.7,0s-0.5,0-0.7,0
			s-0.5,0-0.7,0.1c-0.2,0-0.4,0.1-0.6,0.1c-0.2,0-0.4,0.1-0.5,0.1C179.6,62.3,179.5,62.3,179.4,62.3c-0.2,0.1-0.3,0.2-0.3,0.2
			S179.2,62.4,179.4,62.3z"/>
		<path class="st0" d="M183.8,56c2,0.4,1.9-1.6,1.9-1.6c2.2,0,1.7-1.7,1.7-1.7c2.3-1.8,0.5-2.3,0.5-2.3c1.2-3.4-0.7-2.6-0.7-2.6
			c-0.4-4.5-2.1-0.7-2.1-0.7c-0.9-0.7-0.6,1-0.4,2.1c-0.3-0.6-0.9-0.5-0.9-0.5c-0.8-0.3-0.6,0.8-0.6,0.8c-1.6-0.3,0.2,3.3,0.2,3.3
			C181.5,52.4,183.8,56,183.8,56z M183.9,55.8c0,0,0.1-0.1,0.2-0.3c0.1-0.1,0.1-0.2,0.2-0.3c0.1-0.1,0.1-0.3,0.2-0.5
			c0.1-0.2,0.1-0.4,0.2-0.6c0.1-0.2,0.1-0.4,0.2-0.6c0.1-0.2,0.1-0.5,0.2-0.7c0.1-0.2,0.1-0.5,0.2-0.7c0.1-0.2,0.1-0.5,0.2-0.7
			c0-0.2,0.1-0.5,0.1-0.7s0.1-0.5,0.1-0.7s0.1-0.4,0.1-0.6c0-0.4,0.1-0.7,0.1-0.9s0-0.3,0-0.3s0.1,0.5,0.1,1.3c0,0.2,0,0.4,0,0.6
			c0,0.2,0,0.5,0,0.7s-0.1,0.5-0.1,0.7c0,0.3-0.1,0.5-0.1,0.8c-0.1,0.3-0.1,0.5-0.2,0.7c-0.1,0.2-0.2,0.5-0.3,0.7s-0.2,0.4-0.3,0.6
			c-0.1,0.2-0.2,0.4-0.3,0.5c-0.1,0.2-0.2,0.3-0.3,0.4c-0.1,0.1-0.2,0.2-0.3,0.3C184,55.7,183.9,55.8,183.9,55.8z"/>
		<path class="st0" d="M180,60.5c2-0.3,1.3-2.1,1.3-2.1c2.1-0.7,1.1-2.2,1.1-2.2c1.6-2.4-0.3-2.4-0.3-2.4c0.1-3.6-1.5-2.3-1.5-2.3
			c-1.8-4.1-2.2,0-2.2,0c-1-0.4-0.2,1.1,0.3,2.1c-0.5-0.5-1-0.2-1-0.2c-0.9,0-0.3,0.9-0.3,0.9c-1.6,0.3,1.3,3,1.3,3
			C176.6,57.8,180,60.5,180,60.5z M180.1,60.2c0,0,0-0.1,0.1-0.3c0-0.1,0.1-0.2,0.1-0.4s0-0.3,0.1-0.5c0-0.2,0-0.4,0-0.6
			c0-0.2,0-0.4,0-0.7c0-0.2,0-0.5,0-0.7s0-0.5-0.1-0.7c0-0.2,0-0.5-0.1-0.7c0-0.2-0.1-0.5-0.1-0.7s-0.1-0.5-0.1-0.7
			s-0.1-0.4-0.1-0.6c-0.1-0.4-0.1-0.7-0.2-0.9c0-0.2-0.1-0.3-0.1-0.3s0.3,0.4,0.5,1.2c0.1,0.2,0.1,0.4,0.2,0.6
			c0.1,0.2,0.1,0.4,0.2,0.7c0.1,0.2,0.1,0.5,0.1,0.7c0,0.3,0.1,0.5,0.1,0.8s0,0.5,0,0.8s0,0.5,0,0.8c0,0.2,0,0.5-0.1,0.7
			c0,0.2-0.1,0.4-0.1,0.6c-0.1,0.2-0.1,0.4-0.2,0.5C180.3,59.9,180.2,60.1,180.1,60.2C180.1,60.1,180.1,60.2,180.1,60.2z"/>
		<path class="st2" d="M175.8,70.4c0,0,1.5-13.4,17.1-19"/>
	</g>
	<g>
		<path class="st0" d="M188.8,29.7c0,0,3-1.2,1.9-1.9c0,0,0.7-0.5,0-0.8c0,0-0.3-0.3-0.8-0.1c0.7-0.6,1.8-1.5,0.9-1.5
			c0,0,0.9-3.3-1.7-0.7c0,0-0.8-1.5-1.9,1.3c0,0-1.4-0.6-0.9,1.7c0,0-1.2,0.8,0.2,2c0,0-1.1,1.2,0.3,2
			C186.8,31.5,190.1,30.5,188.8,29.7z M186.7,31c0-0.1,0-0.2,0-0.3c0-0.1,0-0.3,0-0.4c0-0.2,0.1-0.3,0.1-0.5s0.1-0.4,0.1-0.6
			c0.1-0.2,0.1-0.4,0.2-0.6c0.1-0.2,0.2-0.4,0.3-0.6s0.2-0.4,0.3-0.6s0.2-0.4,0.3-0.5c0.1-0.2,0.2-0.3,0.3-0.5
			c0.1-0.1,0.2-0.3,0.3-0.4c0.4-0.5,0.7-0.7,0.7-0.7s-0.1,0.1-0.2,0.2c-0.1,0.2-0.2,0.4-0.4,0.6c-0.1,0.1-0.2,0.3-0.3,0.4
			c-0.1,0.2-0.2,0.3-0.3,0.5s-0.2,0.3-0.3,0.5s-0.2,0.4-0.3,0.5c-0.1,0.2-0.2,0.4-0.3,0.6S187,29,187,29.1c-0.1,0.2-0.1,0.4-0.2,0.5
			c0,0.2-0.1,0.3-0.1,0.5c0,0.1-0.1,0.3-0.1,0.4C186.8,30.8,186.8,30.9,186.7,31c0,0.2,0,0.3,0,0.3S186.8,31.2,186.7,31z"/>
		<path class="st0" d="M187.6,36.4c0,0,2.8,1.7,2.7,0.3c0,0,0.8,0.2,0.7-0.5c0,0,0.1-0.5-0.4-0.8c0.9,0.3,2.2,0.5,1.7-0.2
			c0,0,3.2-1.2-0.5-1.8c0,0,0.7-1.6-2.1-0.7c0,0-0.4-1.5-1.9,0.3c0,0-1.4-0.5-1.5,1.3c0,0-1.6-0.2-1.4,1.4
			C184.9,35.8,187.7,37.9,187.6,36.4z M185.3,35.5c0.1-0.1,0.2-0.1,0.3-0.2c0.1-0.1,0.2-0.2,0.4-0.2c0.1-0.1,0.3-0.2,0.5-0.2
			c0.2-0.1,0.3-0.1,0.5-0.2c0.2-0.1,0.4-0.1,0.6-0.2c0.2,0,0.4-0.1,0.6-0.1c0.2,0,0.4-0.1,0.6-0.1c0.2,0,0.4,0,0.6,0
			c0.2,0,0.4,0,0.6,0c0.2,0,0.4,0,0.5,0c0.6,0,1,0.2,1,0.2s-0.1,0-0.3,0s-0.4,0-0.8,0.1c-0.2,0-0.3,0-0.5,0s-0.4,0-0.6,0.1
			c-0.2,0-0.4,0.1-0.6,0.1c-0.2,0-0.4,0.1-0.6,0.1c-0.2,0-0.4,0.1-0.6,0.1c-0.2,0.1-0.4,0.1-0.6,0.1c-0.2,0.1-0.4,0.1-0.5,0.2
			c-0.2,0.1-0.3,0.1-0.5,0.2c-0.1,0.1-0.3,0.1-0.4,0.2C185.5,35.5,185.4,35.6,185.3,35.5c-0.1,0.1-0.2,0.2-0.2,0.2
			S185.1,35.6,185.3,35.5z"/>
		<path class="st0" d="M186,43.4c0,0,3.2,0.5,2.6-0.7c0,0,0.9-0.1,0.4-0.7c0,0-0.1-0.5-0.7-0.5c0.9-0.1,2.3-0.4,1.5-0.8
			c0,0,2.5-2.4-1.1-1.5c0,0,0.1-1.7-2.2,0.1c0,0-0.9-1.2-1.7,1c0,0-1.5,0.1-0.9,1.8c0,0-1.6,0.4-0.7,1.9
			C183.3,44,186.8,44.8,186,43.4z M183.6,43.6c0-0.1,0.1-0.2,0.2-0.3c0.1-0.1,0.2-0.2,0.2-0.4c0.1-0.1,0.2-0.3,0.3-0.4
			c0.1-0.1,0.3-0.3,0.4-0.4c0.1-0.1,0.3-0.3,0.5-0.4c0.2-0.1,0.3-0.2,0.5-0.4c0.2-0.1,0.4-0.2,0.5-0.3c0.2-0.1,0.4-0.2,0.5-0.3
			c0.2-0.1,0.4-0.2,0.5-0.2c0.2-0.1,0.3-0.1,0.5-0.2c0.6-0.2,1-0.3,1-0.3s-0.1,0-0.3,0.1s-0.4,0.2-0.7,0.3c-0.1,0.1-0.3,0.2-0.4,0.2
			c-0.2,0.1-0.3,0.2-0.5,0.3s-0.3,0.2-0.5,0.3s-0.3,0.2-0.5,0.3s-0.3,0.2-0.5,0.3s-0.3,0.2-0.5,0.4c-0.1,0.1-0.3,0.2-0.4,0.4
			c-0.1,0.1-0.3,0.2-0.4,0.3c-0.1,0.1-0.2,0.2-0.3,0.3C183.8,43.4,183.7,43.5,183.6,43.6c-0.1,0.2-0.1,0.3-0.1,0.3
			S183.5,43.7,183.6,43.6z"/>
		<path class="st0" d="M184,36.4c1.5-0.6,0.6-1.9,0.6-1.9c1.5-1,0.4-1.9,0.4-1.9c0.7-2.3-0.7-1.8-0.7-1.8c-0.7-2.9-1.7-1.5-1.7-1.5
			c-2.3-2.9-1.8,0.5-1.8,0.5c-0.9-0.1,0,0.9,0.7,1.6c-0.5-0.3-0.9,0-0.9,0c-0.7,0.2-0.1,0.8-0.1,0.8c-1.2,0.6,1.6,2.1,1.6,2.1
			C180.8,35,184,36.4,184,36.4z M184,36.2c0,0,0-0.1,0-0.3c0-0.1,0-0.2,0-0.3s0-0.3-0.1-0.4c0-0.2-0.1-0.3-0.1-0.5s-0.1-0.4-0.1-0.5
			c0-0.2-0.1-0.4-0.2-0.6c-0.1-0.2-0.1-0.4-0.2-0.6c-0.1-0.2-0.1-0.4-0.2-0.6c-0.1-0.2-0.2-0.4-0.2-0.5c-0.1-0.2-0.2-0.3-0.2-0.5
			c-0.1-0.2-0.1-0.3-0.2-0.5c-0.1-0.3-0.3-0.5-0.3-0.7c-0.1-0.2-0.1-0.3-0.1-0.3s0.3,0.3,0.7,0.8c0.1,0.1,0.2,0.3,0.3,0.4
			c0.1,0.2,0.2,0.3,0.3,0.5s0.2,0.4,0.3,0.5c0.1,0.2,0.2,0.4,0.2,0.6c0.1,0.2,0.1,0.4,0.2,0.6c0.1,0.2,0.1,0.4,0.1,0.6
			c0,0.2,0.1,0.4,0.1,0.6c0,0.2,0,0.4,0,0.5c0,0.2,0,0.3,0,0.4c0,0.1,0,0.2-0.1,0.3C184,36.1,184,36.2,184,36.2z"/>
		<path class="st0" d="M183.2,41.5c1.3-1.1-0.1-2-0.1-2c1.1-1.5-0.3-2-0.3-2c0-2.4-1.3-1.5-1.3-1.5c-1.6-2.5-2.1-0.8-2.1-0.8
			c-3.1-2-1.5,1-1.5,1c-0.9,0.2,0.3,0.9,1.2,1.3c-0.5-0.1-0.8,0.3-0.8,0.3c-0.6,0.4,0.2,0.8,0.2,0.8c-1,0.9,2.2,1.5,2.2,1.5
			C179.7,41.2,183.2,41.5,183.2,41.5z M183.2,41.3c0,0,0-0.1-0.1-0.3c0-0.1-0.1-0.2-0.1-0.3c-0.1-0.1-0.1-0.2-0.2-0.4
			c-0.1-0.1-0.2-0.3-0.2-0.4c-0.1-0.2-0.2-0.3-0.3-0.5s-0.2-0.3-0.3-0.5s-0.2-0.3-0.4-0.5c-0.1-0.2-0.3-0.3-0.4-0.5
			c-0.1-0.1-0.3-0.3-0.4-0.4c-0.1-0.1-0.3-0.3-0.4-0.4c-0.1-0.1-0.2-0.2-0.4-0.4s-0.4-0.4-0.5-0.5s-0.2-0.2-0.2-0.2s0.4,0.2,0.9,0.6
			c0.1,0.1,0.3,0.2,0.4,0.3c0.1,0.1,0.3,0.2,0.4,0.4c0.1,0.1,0.3,0.3,0.4,0.4c0.1,0.2,0.3,0.3,0.4,0.5c0.1,0.2,0.3,0.3,0.4,0.5
			c0.1,0.2,0.2,0.3,0.3,0.5s0.2,0.3,0.3,0.5s0.1,0.3,0.2,0.5c0,0.2,0.1,0.3,0.1,0.4c0,0.1,0,0.2,0.1,0.3
			C183.2,41.2,183.2,41.3,183.2,41.3z"/>
		<path class="st3" d="M184.9,50.4c0,0-5.1-9.8,3-20.7"/>
	</g>
	<g>
		<path class="st0" d="M176.5,18c0,0,1.5-2.1,0.5-2.1c0,0,0.2-0.6-0.3-0.6c0,0-0.4-0.1-0.6,0.3c0.3-0.7,0.6-1.7,0-1.4
			c0,0-0.7-2.6-1.4,0.2c0,0-1.2-0.7-0.7,1.6c0,0-1.2,0.2,0.1,1.5c0,0-0.5,1,0.9,1.3c0,0-0.3,1.2,1,1.2C175.9,20.1,177.7,18,176.5,18
			z M175.7,19.7c0-0.1-0.1-0.1-0.1-0.2s-0.1-0.2-0.2-0.3c-0.1-0.1-0.1-0.2-0.1-0.4c-0.1-0.1-0.1-0.3-0.1-0.4c0-0.2-0.1-0.3-0.1-0.5
			s0-0.3-0.1-0.5c0-0.2,0-0.3,0-0.5s0-0.3,0-0.5s0-0.3,0-0.4s0-0.3,0.1-0.4c0.1-0.5,0.2-0.8,0.2-0.8s0,0.1,0,0.2c0,0.1,0,0.3,0,0.6
			c0,0.1,0,0.3,0,0.4c0,0.1,0,0.3,0,0.4c0,0.2,0,0.3,0,0.5s0,0.3,0,0.5s0,0.3,0,0.5s0,0.3,0.1,0.5c0,0.1,0,0.3,0.1,0.4
			c0,0.1,0.1,0.3,0.1,0.4s0.1,0.2,0.1,0.3C175.7,19.6,175.7,19.6,175.7,19.7c0.1,0.1,0.1,0.2,0.1,0.2S175.8,19.9,175.7,19.7z"/>
		<path class="st0" d="M178.4,23c0,0,2.6,0,1.9-0.9c0,0,0.7-0.2,0.3-0.6c0,0-0.1-0.3-0.6-0.4c0.7-0.2,1.7-0.5,1.1-0.8
			c0,0,1.7-2.1-1-1c0,0-0.1-1.4-1.7,0.4c0,0-0.8-0.9-1.2,1c0,0-1.1,0.2-0.5,1.5c0,0-1.2,0.5-0.3,1.5C176.4,23.7,179.1,24,178.4,23z
			 M176.5,23.4c0-0.1,0-0.2,0.1-0.2c0-0.1,0.1-0.2,0.2-0.3c0.1-0.1,0.1-0.2,0.2-0.3c0.1-0.1,0.2-0.2,0.3-0.4
			c0.1-0.1,0.2-0.2,0.3-0.4c0.1-0.1,0.2-0.2,0.4-0.3c0.1-0.1,0.3-0.2,0.4-0.3c0.1-0.1,0.3-0.2,0.4-0.3c0.1-0.1,0.3-0.2,0.4-0.2
			c0.1-0.1,0.2-0.1,0.4-0.2c0.4-0.2,0.8-0.3,0.8-0.3s-0.1,0-0.2,0.1c-0.1,0.1-0.3,0.2-0.5,0.3c-0.1,0.1-0.2,0.1-0.3,0.2
			s-0.2,0.2-0.4,0.3c-0.1,0.1-0.2,0.2-0.4,0.3c-0.1,0.1-0.2,0.2-0.4,0.3c-0.1,0.1-0.2,0.2-0.4,0.3c-0.1,0.1-0.2,0.2-0.3,0.3
			c-0.1,0.1-0.2,0.2-0.3,0.3c-0.1,0.1-0.2,0.2-0.2,0.3c-0.1,0.1-0.1,0.2-0.2,0.3C176.6,23.3,176.6,23.3,176.5,23.4
			c0,0.1-0.1,0.2-0.1,0.2S176.5,23.5,176.5,23.4z"/>
		<path class="st0" d="M180.2,28.4c0,0,2.4-1,1.5-1.5c0,0,0.5-0.4,0-0.6c0,0-0.3-0.3-0.7-0.1c0.6-0.4,1.4-1.2,0.7-1.2
			c0,0,0.7-2.6-1.3-0.5c0,0-0.7-1.2-1.5,1c0,0-1.1-0.5-0.7,1.4c0,0-1,0.6,0.1,1.6c0,0-0.9,0.9,0.3,1.5
			C178.6,29.9,181.2,29,180.2,28.4z M178.6,29.5c0-0.1,0-0.2,0-0.3c0-0.1,0-0.2,0-0.3c0-0.1,0-0.3,0.1-0.4c0-0.1,0.1-0.3,0.1-0.4
			c0-0.2,0.1-0.3,0.2-0.5c0.1-0.2,0.1-0.3,0.2-0.5c0.1-0.1,0.2-0.3,0.2-0.4c0.1-0.1,0.2-0.3,0.3-0.4s0.2-0.3,0.3-0.4
			s0.2-0.2,0.3-0.3c0.3-0.4,0.6-0.6,0.6-0.6s0,0.1-0.1,0.2s-0.2,0.3-0.3,0.5c-0.1,0.1-0.1,0.2-0.2,0.3c-0.1,0.1-0.1,0.2-0.2,0.4
			c-0.1,0.1-0.1,0.3-0.2,0.4c-0.1,0.1-0.1,0.3-0.2,0.4c-0.1,0.1-0.1,0.3-0.2,0.4c-0.1,0.1-0.1,0.3-0.2,0.4c0,0.1-0.1,0.3-0.1,0.4
			s-0.1,0.3-0.1,0.4S179,29,179,29.1C178.7,29.3,178.7,29.4,178.6,29.5c0,0.1,0,0.2,0,0.2S178.6,29.6,178.6,29.5z"/>
		<path class="st0" d="M176,24.5c0.8-1.1-0.4-1.5-0.4-1.5c0.6-1.3-0.5-1.5-0.5-1.5c-0.4-1.8-1.2-0.9-1.2-0.9
			c-1.7-1.7-1.7-0.3-1.7-0.3c-2.7-1-1,1-1,1c-0.6,0.3,0.4,0.6,1.1,0.8c-0.4,0-0.6,0.4-0.6,0.4c-0.4,0.4,0.3,0.6,0.3,0.6
			c-0.6,0.9,2,0.8,2,0.8C173.2,24.9,176,24.5,176,24.5z M175.9,24.4c0,0,0-0.1-0.1-0.2c0-0.1-0.1-0.1-0.1-0.2
			c-0.1-0.1-0.1-0.2-0.2-0.3c-0.1-0.1-0.2-0.2-0.3-0.3c-0.1-0.1-0.2-0.2-0.3-0.3c-0.1-0.1-0.2-0.2-0.3-0.3c-0.1-0.1-0.2-0.2-0.4-0.3
			c-0.1-0.1-0.3-0.2-0.4-0.3c-0.1-0.1-0.3-0.2-0.4-0.3c-0.1-0.1-0.2-0.2-0.4-0.2c-0.1-0.1-0.2-0.2-0.3-0.2c-0.2-0.1-0.4-0.2-0.5-0.3
			C172.1,21,172,21,172,21s0.3,0.1,0.8,0.3c0.1,0.1,0.2,0.1,0.4,0.2c0.1,0.1,0.3,0.1,0.4,0.2c0.1,0.1,0.3,0.2,0.4,0.3
			c0.1,0.1,0.3,0.2,0.4,0.3c0.1,0.1,0.3,0.2,0.4,0.3c0.1,0.1,0.2,0.2,0.3,0.3c0.1,0.1,0.2,0.2,0.3,0.4c0.1,0.1,0.2,0.2,0.2,0.3
			c0.1,0.1,0.1,0.2,0.2,0.3c0,0.1,0.1,0.2,0.1,0.2C175.9,24.3,175.9,24.4,175.9,24.4z"/>
		<path class="st0" d="M177.5,28.2c0.4-1.2-0.9-1.3-0.9-1.3c0.2-1.4-1-1.2-1-1.2c-1-1.6-1.5-0.5-1.5-0.5c-2.1-1-1.7,0.3-1.7,0.3
			c-2.9-0.1-0.6,1.3-0.6,1.3c-0.5,0.5,0.6,0.5,1.3,0.4c-0.4,0.2-0.4,0.5-0.4,0.5c-0.2,0.5,0.4,0.4,0.4,0.4c-0.3,1,2.1,0.1,2.1,0.1
			C175,29.4,177.5,28.2,177.5,28.2z M177.4,28.1c0,0-0.1,0-0.2-0.1c-0.1,0-0.1-0.1-0.2-0.2c-0.1-0.1-0.2-0.1-0.3-0.2
			s-0.2-0.1-0.3-0.2s-0.3-0.1-0.4-0.2c-0.1-0.1-0.3-0.1-0.4-0.2c-0.1-0.1-0.3-0.1-0.4-0.2c-0.2-0.1-0.3-0.1-0.5-0.2
			c-0.2,0-0.3-0.1-0.4-0.1c-0.1,0-0.3-0.1-0.4-0.1c-0.1,0-0.3-0.1-0.4-0.1c-0.2-0.1-0.4-0.1-0.6-0.1c-0.1,0-0.2-0.1-0.2-0.1
			s0.3,0,0.8,0c0.1,0,0.3,0,0.4,0.1c0.1,0,0.3,0,0.4,0.1c0.2,0,0.3,0.1,0.5,0.1s0.3,0.1,0.5,0.2s0.3,0.1,0.5,0.2
			c0.1,0.1,0.3,0.1,0.4,0.2c0.1,0.1,0.3,0.2,0.4,0.2c0.1,0.1,0.2,0.2,0.3,0.2c0.1,0.1,0.2,0.2,0.3,0.2c0.1,0.1,0.1,0.1,0.2,0.2
			C177.4,28,177.4,28.1,177.4,28.1z"/>
		<path class="st4" d="M182.3,33.5c0,0-7.4-4.6-6.4-15.2"/>
	</g>
</g>
<g>
	<g>
		<path class="st0" d="M17.3,74.5c0.1-2.4-2.1-1.9-2.1-1.9c-0.4-2.6-2.3-1.8-2.3-1.8c-2.5-2.4-2.8-0.2-2.8-0.2c-4.2-0.9-3,1.3-3,1.3
			c-5.3,1.2-0.5,2.6-0.5,2.6c-0.7,1.1,1.3,0.5,2.5,0.1c-0.6,0.5-0.5,1.1-0.5,1.1c-0.2,1,1,0.6,1,0.6c0,2,3.8-0.8,3.8-0.8
			C13.4,77.8,17.3,74.5,17.3,74.5z M17,74.3c0,0-0.1-0.1-0.4-0.2c-0.1,0-0.3-0.1-0.4-0.2c-0.2-0.1-0.4-0.1-0.6-0.2
			c-0.2-0.1-0.5-0.1-0.7-0.2s-0.5-0.1-0.8-0.2s-0.6-0.1-0.8-0.1c-0.3,0-0.6-0.1-0.9-0.1c-0.3,0-0.6-0.1-0.9-0.1c-0.3,0-0.6,0-0.9,0
			c-0.3,0-0.6,0-0.8,0c-0.3,0-0.5,0-0.7,0c-0.5,0-0.8,0-1.1,0s-0.4,0-0.4,0s0.6-0.2,1.5-0.3c0.2,0,0.5-0.1,0.7-0.1
			c0.3,0,0.5-0.1,0.8-0.1s0.6,0,0.9,0c0.3,0,0.6,0,0.9,0.1c0.3,0,0.6,0.1,0.9,0.1c0.3,0.1,0.6,0.1,0.9,0.2c0.3,0.1,0.6,0.2,0.8,0.3
			c0.2,0.1,0.5,0.2,0.7,0.3c0.2,0.1,0.4,0.2,0.6,0.3c0.2,0.1,0.3,0.2,0.4,0.3C16.9,74.2,17,74.3,17,74.3z"/>
		<path class="st0" d="M25.5,75.5c-1.8-1.6-2.8,0.6-2.8,0.6c-2.3-1.3-2.8,0.8-2.8,0.8c-3.4,0.5-1.8,2.2-1.8,2.2
			c-3.3,2.9-0.8,3.2-0.8,3.2c-2.2,4.9,1.8,2,1.8,2c0.5,1.2,1.2-0.7,1.6-2c0,0.8,0.6,1.1,0.6,1.1c0.7,0.8,1.1-0.5,1.1-0.5
			c1.6,1.2,1.7-3.5,1.7-3.5C25.9,80.6,25.5,75.5,25.5,75.5z M25.3,75.6c0,0-0.1,0.1-0.4,0.2c-0.1,0.1-0.3,0.1-0.4,0.2
			c-0.2,0.1-0.3,0.2-0.5,0.3c-0.2,0.1-0.4,0.3-0.6,0.4c-0.2,0.2-0.4,0.3-0.6,0.5s-0.4,0.4-0.6,0.6s-0.4,0.4-0.6,0.6
			s-0.4,0.4-0.6,0.7c-0.2,0.2-0.4,0.4-0.6,0.7c-0.2,0.2-0.3,0.4-0.5,0.6s-0.3,0.4-0.4,0.6c-0.3,0.4-0.5,0.7-0.6,0.9
			c-0.2,0.2-0.2,0.3-0.2,0.3s0.2-0.6,0.6-1.4c0.1-0.2,0.2-0.4,0.4-0.6c0.1-0.2,0.3-0.5,0.5-0.7s0.3-0.5,0.5-0.7s0.4-0.5,0.6-0.7
			s0.4-0.4,0.6-0.7c0.2-0.2,0.4-0.4,0.7-0.6c0.2-0.2,0.5-0.4,0.7-0.5s0.4-0.3,0.6-0.4s0.4-0.2,0.6-0.3c0.2-0.1,0.3-0.1,0.5-0.2
			C25.1,75.6,25.3,75.6,25.3,75.6z"/>
		<path class="st0" d="M35.2,80c-1.1-2.2-2.8-0.6-2.8-0.6c-1.7-2.1-2.9-0.3-2.9-0.3c-3.4-0.8-2.5,1.3-2.5,1.3
			c-4.1,1.4-1.9,2.6-1.9,2.6c-3.9,3.7,0.9,2.5,0.9,2.5c0,1.3,1.4-0.2,2.2-1.2c-0.3,0.7,0.2,1.2,0.2,1.2c0.3,1,1.2,0,1.2,0
			c1,1.7,2.9-2.6,2.9-2.6C33.5,84.9,35.2,80,35.2,80z M34.9,80c0,0-0.2,0-0.4,0.1c-0.1,0-0.3,0-0.5,0.1c-0.2,0-0.4,0.1-0.6,0.1
			c-0.2,0-0.5,0.1-0.7,0.2s-0.5,0.2-0.8,0.2c-0.3,0.1-0.5,0.2-0.8,0.3c-0.3,0.1-0.5,0.2-0.8,0.4c-0.3,0.1-0.5,0.3-0.8,0.4
			s-0.5,0.3-0.8,0.4c-0.2,0.1-0.5,0.3-0.7,0.4s-0.4,0.3-0.6,0.4c-0.4,0.2-0.7,0.4-0.9,0.6c-0.2,0.1-0.4,0.2-0.4,0.2s0.4-0.5,1.1-1.1
			c0.2-0.1,0.4-0.3,0.6-0.5s0.4-0.3,0.7-0.5c0.2-0.2,0.5-0.3,0.8-0.5c0.3-0.1,0.5-0.3,0.8-0.4s0.6-0.2,0.9-0.4
			c0.3-0.1,0.6-0.2,0.9-0.3c0.3-0.1,0.6-0.1,0.8-0.2c0.3,0,0.5-0.1,0.7-0.1s0.4,0,0.6,0c0.2,0,0.4,0,0.5,0C34.8,80,34.9,80,34.9,80z
			"/>
		<path class="st0" d="M24.2,71c0,0,0.3-4.8-1.3-3.7c0,0-0.3-1.2-1-0.5c0,0-0.6,0.2-0.7,1c-0.3-1.3-0.8-3.3-1.4-2.1
			c0,0-3.7-3.3-2,1.8c0,0-2.5,0.1,0.5,3.2c0,0-1.7,1.5,1.6,2.3c0,0,0.3,2.1,2.7,1c0,0,0.8,2.2,2.8,0.8C25.3,74.9,26.1,69.8,24.2,71z
			 M24.7,74.6c-0.1-0.1-0.3-0.1-0.4-0.2c-0.2-0.1-0.4-0.2-0.6-0.3c-0.2-0.1-0.4-0.3-0.6-0.4c-0.2-0.2-0.4-0.4-0.6-0.5
			c-0.2-0.2-0.4-0.4-0.6-0.6s-0.4-0.5-0.6-0.7c-0.2-0.3-0.4-0.5-0.5-0.8c-0.2-0.3-0.3-0.5-0.5-0.8c-0.1-0.2-0.3-0.5-0.4-0.7
			s-0.2-0.5-0.3-0.7C19.2,68,19,67.4,19,67.4s0.1,0.1,0.2,0.4c0.1,0.2,0.3,0.6,0.6,0.9c0.1,0.2,0.3,0.4,0.4,0.6s0.3,0.4,0.4,0.7
			c0.1,0.2,0.3,0.5,0.5,0.7s0.4,0.5,0.5,0.7c0.2,0.2,0.4,0.5,0.6,0.7s0.4,0.4,0.6,0.6s0.4,0.4,0.6,0.6s0.4,0.3,0.5,0.5
			c0.2,0.1,0.3,0.3,0.5,0.4C24.5,74.3,24.6,74.4,24.7,74.6c0.3,0.1,0.4,0.2,0.4,0.2S24.9,74.7,24.7,74.6z"/>
		<path class="st0" d="M32.9,73.6c0,0,1.8-4.4-0.1-3.9c0,0,0.1-1.3-0.8-0.9c0,0-0.7,0-1,0.7c0.2-1.3,0.3-3.3-0.6-2.4
			c0,0-2.5-4.3-2.5,1.1c0,0-2.4-0.7-0.6,3.2c0,0-2.1,0.8,0.8,2.7c0,0-0.4,2.1,2.2,1.9c0,0,0.1,2.3,2.4,1.7
			C32.7,77.6,35.1,73.1,32.9,73.6z M32.2,77.1c-0.1-0.1-0.2-0.2-0.4-0.3c-0.1-0.1-0.3-0.3-0.4-0.5c-0.2-0.2-0.3-0.4-0.4-0.6
			c-0.2-0.2-0.3-0.5-0.4-0.7c-0.1-0.3-0.3-0.5-0.4-0.8s-0.2-0.6-0.3-0.9c-0.1-0.3-0.2-0.6-0.3-0.9c-0.1-0.3-0.1-0.6-0.2-0.9
			s-0.1-0.6-0.1-0.8c0-0.3-0.1-0.5-0.1-0.7c-0.1-0.9,0-1.5,0-1.5s0,0.1,0.1,0.4s0.1,0.6,0.2,1.1c0.1,0.2,0.1,0.5,0.2,0.7
			c0.1,0.3,0.1,0.5,0.2,0.8s0.2,0.5,0.2,0.8c0.1,0.3,0.2,0.6,0.3,0.9c0.1,0.3,0.2,0.6,0.3,0.8c0.1,0.3,0.2,0.5,0.3,0.8
			c0.1,0.2,0.2,0.5,0.3,0.7c0.1,0.2,0.2,0.4,0.3,0.6c0.1,0.2,0.2,0.4,0.3,0.5C32.1,76.8,32.2,76.9,32.2,77.1
			c0.2,0.1,0.3,0.3,0.3,0.3S32.4,77.3,32.2,77.1z"/>
		<path class="st1" d="M42.3,86.8c0,0-8.1-13.9-27.8-12.5"/>
	</g>
	<g>
		<path class="st0" d="M9.4,52.6c0.9-1.8-1-2.2-1-2.2c0.6-2.2-1.2-2.1-1.2-2.1c-1.1-2.7-2.1-1.1-2.1-1.1c-2.9-2.1-2.7,0-2.7,0
			C-2,46.2,1.1,49,1.1,49c-0.9,0.6,0.8,0.8,1.9,0.9c-0.7,0.1-0.8,0.7-0.8,0.7c-0.5,0.7,0.6,0.8,0.6,0.8C2.1,52.9,6,52.1,6,52.1
			C5.3,53.8,9.4,52.6,9.4,52.6z M9.2,52.4c0,0-0.1-0.1-0.2-0.3c-0.1-0.1-0.2-0.2-0.3-0.3s-0.2-0.2-0.4-0.3c-0.1-0.1-0.3-0.2-0.5-0.4
			c-0.2-0.1-0.4-0.3-0.5-0.4c-0.2-0.1-0.4-0.3-0.6-0.4c-0.2-0.1-0.4-0.3-0.6-0.4c-0.2-0.1-0.4-0.2-0.7-0.4c-0.2-0.1-0.4-0.2-0.6-0.3
			C4.6,49.1,4.4,49,4.2,49c-0.2-0.1-0.4-0.2-0.6-0.3c-0.4-0.2-0.6-0.3-0.8-0.4c-0.2-0.1-0.3-0.1-0.3-0.1s0.5,0,1.3,0.2
			c0.2,0.1,0.4,0.1,0.6,0.2c0.2,0.1,0.4,0.1,0.7,0.2c0.2,0.1,0.5,0.2,0.7,0.3s0.5,0.2,0.7,0.4c0.2,0.1,0.4,0.3,0.7,0.4
			c0.2,0.1,0.4,0.3,0.6,0.4c0.2,0.2,0.4,0.3,0.5,0.5c0.2,0.2,0.3,0.3,0.4,0.5c0.1,0.2,0.2,0.3,0.3,0.4c0,0.1,0,0.3,0.1,0.4
			C9.2,52.3,9.2,52.4,9.2,52.4z"/>
		<path class="st0" d="M14.4,55.2c-0.9-1.8-2.4-0.5-2.4-0.5c-1.4-1.8-2.4-0.3-2.4-0.3c-2.8-0.7-2.1,1-2.1,1
			c-3.5,1.1-1.7,2.2-1.7,2.2c-3.4,3,0.7,2.1,0.7,2.1c0,1.1,1.2-0.1,1.9-1c-0.3,0.6,0.1,1,0.1,1c0.3,0.8,1,0,1,0
			c0.8,1.5,2.5-2.2,2.5-2.2C12.9,59.3,14.4,55.2,14.4,55.2z M14.1,55.2c0,0-0.1,0-0.3,0c-0.1,0-0.2,0-0.4,0s-0.3,0.1-0.5,0.1
			s-0.4,0.1-0.6,0.1c-0.2,0-0.4,0.1-0.6,0.2c-0.2,0.1-0.4,0.2-0.7,0.2c-0.2,0.1-0.5,0.2-0.7,0.3s-0.5,0.2-0.7,0.3S9.2,56.6,9,56.7
			c-0.2,0.1-0.4,0.2-0.6,0.3c-0.2,0.1-0.4,0.2-0.5,0.3C7.5,57.7,7.2,57.9,7,58s-0.3,0.2-0.3,0.2s0.3-0.4,1-0.9
			c0.2-0.1,0.3-0.2,0.5-0.4c0.2-0.1,0.4-0.3,0.6-0.4c0.2-0.1,0.4-0.3,0.6-0.4c0.2-0.1,0.5-0.2,0.7-0.3s0.5-0.2,0.7-0.3
			s0.5-0.2,0.7-0.2c0.2-0.1,0.5-0.1,0.7-0.1s0.4-0.1,0.6-0.1c0.2,0,0.4,0,0.5,0c0.2,0,0.3,0,0.4,0C14,55.2,14.1,55.2,14.1,55.2z"/>
		<path class="st0" d="M21.2,62.6c-0.1-2-2-1.4-2-1.4C18.6,59,17.1,60,17.1,60c-2.3-1.8-2.4,0.1-2.4,0.1c-3.6-0.3-2.4,1.4-2.4,1.4
			c-4.3,1.5-0.1,2.2-0.1,2.2c-0.4,1,1.1,0.3,2.1-0.2c-0.5,0.5-0.3,1-0.3,1c0,0.8,1,0.3,1,0.3c0.2,1.6,3.1-1,3.1-1
			C18.3,65.7,21.2,62.6,21.2,62.6z M21,62.5c0,0-0.1,0-0.3-0.1c-0.1,0-0.2-0.1-0.4-0.1c-0.2,0-0.3-0.1-0.5-0.1s-0.4-0.1-0.6-0.1
			s-0.4,0-0.7-0.1c-0.2,0-0.5,0-0.7,0s-0.5,0-0.7,0c-0.3,0-0.5,0-0.7,0s-0.5,0-0.7,0s-0.5,0-0.7,0.1c-0.2,0-0.4,0-0.6,0.1
			c-0.4,0-0.7,0.1-0.9,0.1s-0.3,0-0.3,0s0.5-0.2,1.2-0.4c0.2,0,0.4-0.1,0.6-0.1c0.2,0,0.4-0.1,0.7-0.1c0.2,0,0.5-0.1,0.7-0.1
			c0.3,0,0.5,0,0.8,0s0.5,0,0.8,0s0.5,0,0.7,0.1c0.2,0,0.5,0.1,0.7,0.1c0.2,0.1,0.4,0.1,0.6,0.2c0.2,0.1,0.3,0.1,0.5,0.2
			c0.1,0.1,0.3,0.1,0.4,0.2C20.9,62.4,21,62.5,21,62.5z"/>
		<path class="st0" d="M16.7,52.6c0,0,1.9-3.5,0.2-3.3c0,0,0.2-1-0.6-0.8c0,0-0.6-0.1-0.9,0.5c0.2-1.1,0.5-2.8-0.4-2.1
			c0,0-1.7-3.8-2.1,0.7c0,0-2-0.8-0.7,2.6c0,0-1.8,0.5,0.5,2.3c0,0-0.5,1.7,1.7,1.7c0,0-0.1,2,1.9,1.6C16.2,56,18.5,52.4,16.7,52.6z
			 M15.8,55.5c-0.1-0.1-0.2-0.2-0.3-0.3s-0.2-0.3-0.3-0.4c-0.1-0.2-0.2-0.3-0.3-0.5s-0.2-0.4-0.3-0.6c-0.1-0.2-0.2-0.5-0.3-0.7
			s-0.1-0.5-0.2-0.7c0-0.3-0.1-0.5-0.1-0.8s-0.1-0.5-0.1-0.7s0-0.5,0-0.7s0-0.4,0-0.6c0-0.8,0.1-1.3,0.1-1.3s0,0.1,0,0.3
			s0.1,0.5,0.1,0.9c0,0.2,0.1,0.4,0.1,0.6c0,0.2,0.1,0.4,0.1,0.7c0,0.2,0.1,0.5,0.1,0.7s0.1,0.5,0.2,0.7c0.1,0.2,0.1,0.5,0.2,0.7
			c0.1,0.2,0.1,0.5,0.2,0.7c0.1,0.2,0.1,0.4,0.2,0.6c0.1,0.2,0.2,0.4,0.2,0.6c0.1,0.2,0.2,0.3,0.2,0.5
			C15.8,55.3,15.9,55.4,15.8,55.5c0.2,0.1,0.3,0.2,0.3,0.2S16,55.7,15.8,55.5z"/>
		<path class="st0" d="M21.5,57.4c0,0,2.9-2.8,1.3-3c0,0,0.5-0.9-0.3-0.9c0,0-0.5-0.2-1,0.2c0.6-1,1.4-2.5,0.3-2.1
			c0,0-0.4-4.2-2.2,0c0,0-1.6-1.4-1.5,2.3c0,0-1.9-0.1-0.3,2.4c0,0-1,1.4,1.1,2.2c0,0-0.8,1.8,1.3,2.1
			C20.1,60.5,23.4,57.8,21.5,57.4z M19.8,59.9c0-0.1-0.1-0.2-0.2-0.4c0-0.1-0.1-0.3-0.2-0.5s-0.1-0.4-0.1-0.6c0-0.2-0.1-0.5-0.1-0.7
			s0-0.5,0-0.8s0-0.5,0-0.8s0.1-0.5,0.1-0.8s0.1-0.5,0.1-0.7s0.1-0.5,0.2-0.7s0.1-0.4,0.2-0.6c0.3-0.7,0.5-1.2,0.5-1.2
			s0,0.1-0.1,0.3c0,0.2-0.1,0.5-0.2,0.9c0,0.2-0.1,0.4-0.1,0.6c0,0.2-0.1,0.4-0.1,0.7c0,0.2-0.1,0.5-0.1,0.7s-0.1,0.5-0.1,0.7
			s0,0.5-0.1,0.7c0,0.2,0,0.5,0,0.7s0,0.5,0,0.7s0,0.4,0,0.6c0,0.2,0.1,0.4,0.1,0.5C19.8,59.6,19.9,59.8,19.8,59.9
			c0.1,0.2,0.2,0.3,0.2,0.3S19.9,60.1,19.8,59.9z"/>
		<path class="st2" d="M24.2,70.4c0,0-1.5-13.4-17.1-19"/>
	</g>
	<g>
		<path class="st0" d="M13.3,31.5c1.5-0.8,0.3-2,0.3-2c1.4-1.2,0.2-2,0.2-2c0.5-2.3-0.9-1.7-0.9-1.7c-1-2.8-1.9-1.3-1.9-1.3
			c-2.6-2.6-1.7,0.7-1.7,0.7c-0.9,0,0.2,0.9,0.9,1.5c-0.5-0.2-0.8,0.1-0.8,0.1c-0.7,0.3,0,0.8,0,0.8c-1.2,0.7,1.9,1.9,1.9,1.9
			C9.9,30.5,13.3,31.5,13.3,31.5z M13.3,31.3c0,0,0-0.1-0.1-0.3c0-0.1,0-0.2-0.1-0.3c0-0.1-0.1-0.3-0.1-0.4s-0.1-0.3-0.1-0.5
			s-0.1-0.3-0.2-0.5c-0.1-0.2-0.2-0.4-0.2-0.5c-0.1-0.2-0.2-0.4-0.3-0.6s-0.2-0.4-0.3-0.5c-0.1-0.2-0.2-0.4-0.3-0.5
			c-0.1-0.2-0.2-0.3-0.3-0.5s-0.2-0.3-0.3-0.4c-0.2-0.3-0.3-0.5-0.4-0.6c-0.1-0.2-0.2-0.2-0.2-0.2s0.3,0.3,0.7,0.7
			c0.1,0.1,0.2,0.2,0.3,0.4c0.1,0.1,0.2,0.3,0.3,0.5s0.2,0.3,0.3,0.5s0.2,0.4,0.3,0.6s0.2,0.4,0.3,0.6s0.2,0.4,0.2,0.6
			c0.1,0.2,0.1,0.4,0.1,0.6s0.1,0.3,0.1,0.5s0,0.3,0,0.4s0,0.2,0,0.3C13.3,31.2,13.3,31.3,13.3,31.3z"/>
		<path class="st0" d="M15.1,35.8c0.2-1.6-1.4-1.4-1.4-1.4c-0.1-1.8-1.5-1.3-1.5-1.3c-1.6-1.8-1.9-0.3-1.9-0.3
			c-2.9-0.8-2.1,0.7-2.1,0.7c-3.7,0.5-0.5,1.8-0.5,1.8c-0.5,0.7,0.8,0.4,1.7,0.2C8.9,35.8,9,36.3,9,36.3c-0.2,0.7,0.7,0.5,0.7,0.5
			c-0.1,1.4,2.7-0.3,2.7-0.3C12.3,37.9,15.1,35.8,15.1,35.8z M15,35.7c0,0-0.1,0-0.3-0.1c-0.1,0-0.2-0.1-0.3-0.1s-0.2-0.1-0.4-0.2
			c-0.1-0.1-0.3-0.1-0.5-0.2C13.4,35,13.2,35,13,34.9s-0.4-0.1-0.6-0.1c-0.2,0-0.4-0.1-0.6-0.1c-0.2,0-0.4-0.1-0.6-0.1
			c-0.2,0-0.4-0.1-0.6-0.1c-0.2,0-0.4,0-0.6-0.1c-0.2,0-0.3,0-0.5,0c-0.3,0-0.6,0-0.8-0.1c-0.2,0-0.3,0-0.3,0s0.4-0.1,1-0.2
			c0.2,0,0.3,0,0.5,0s0.4,0,0.6,0c0.2,0,0.4,0,0.6,0c0.2,0,0.4,0.1,0.6,0.1c0.2,0,0.4,0.1,0.6,0.1c0.2,0.1,0.4,0.1,0.6,0.2
			c0.2,0.1,0.4,0.1,0.5,0.2c0.2,0.1,0.3,0.2,0.5,0.2c0.1,0.1,0.3,0.2,0.4,0.2c0.1,0.1,0.2,0.2,0.3,0.2C14.9,35.6,15,35.7,15,35.7z"
			/>
		<path class="st0" d="M16.7,44c0.9-1.4-0.7-1.9-0.7-1.9c0.6-1.7-0.9-1.8-0.9-1.8c-0.8-2.3-1.7-1-1.7-1c-2.3-1.9-2.2-0.1-2.2-0.1
			c-3.6-0.9-1.1,1.5-1.1,1.5c-0.8,0.5,0.6,0.7,1.5,0.8C11.1,41.6,11,42,11,42c-0.4,0.6,0.4,0.7,0.4,0.7c-0.6,1.2,2.6,0.7,2.6,0.7
			C13.3,44.8,16.7,44,16.7,44z M16.6,43.8c0,0-0.1-0.1-0.2-0.2c-0.1-0.1-0.1-0.2-0.2-0.2c-0.1-0.1-0.2-0.2-0.3-0.3s-0.2-0.2-0.4-0.3
			c-0.1-0.1-0.3-0.2-0.4-0.4c-0.1-0.1-0.3-0.2-0.5-0.4c-0.2-0.1-0.3-0.2-0.5-0.3s-0.3-0.2-0.5-0.3s-0.3-0.2-0.5-0.3
			s-0.3-0.2-0.5-0.3s-0.3-0.2-0.4-0.2c-0.3-0.1-0.5-0.3-0.7-0.3c-0.2-0.1-0.3-0.1-0.3-0.1s0.4,0.1,1,0.3c0.1,0.1,0.3,0.1,0.5,0.2
			c0.2,0.1,0.3,0.1,0.5,0.2c0.2,0.1,0.4,0.2,0.5,0.3c0.2,0.1,0.4,0.2,0.5,0.3c0.2,0.1,0.4,0.2,0.5,0.4c0.2,0.1,0.3,0.3,0.5,0.4
			c0.1,0.1,0.3,0.3,0.4,0.4c0.1,0.1,0.2,0.3,0.3,0.4c0.1,0.1,0.2,0.3,0.2,0.4c0.1,0.1,0.1,0.2,0.2,0.3
			C16.5,43.7,16.6,43.8,16.6,43.8z"/>
		<path class="st0" d="M17.9,34.4c0,0,2.9-1.6,1.6-2.1c0,0,0.6-0.6-0.1-0.8c0,0-0.4-0.3-0.9,0c0.7-0.6,1.6-1.7,0.7-1.6
			c0,0,0.6-3.4-1.8-0.5c0,0-1-1.4-1.7,1.5c0,0-1.5-0.5-0.7,1.8c0,0-1.1,0.9,0.4,1.9c0,0-1,1.3,0.6,1.9C16,36.4,19.3,35,17.9,34.4z
			 M16,35.9c0-0.1,0-0.2-0.1-0.3c0-0.1,0-0.3,0-0.4c0-0.2,0-0.3,0-0.5s0.1-0.4,0.1-0.6c0-0.2,0.1-0.4,0.1-0.6
			c0.1-0.2,0.1-0.4,0.2-0.6c0.1-0.2,0.2-0.4,0.2-0.6c0.1-0.2,0.2-0.4,0.3-0.5c0.1-0.2,0.2-0.3,0.3-0.5c0.1-0.2,0.2-0.3,0.3-0.4
			c0.4-0.5,0.7-0.8,0.7-0.8s0,0.1-0.1,0.3c-0.1,0.2-0.2,0.4-0.3,0.7c-0.1,0.1-0.1,0.3-0.2,0.5s-0.2,0.3-0.2,0.5
			c-0.1,0.2-0.2,0.4-0.2,0.5C17,32.8,17,33,16.9,33.2c-0.1,0.2-0.1,0.4-0.2,0.6c-0.1,0.2-0.1,0.4-0.2,0.6c0,0.2-0.1,0.4-0.1,0.5
			c0,0.2-0.1,0.3-0.1,0.5s0,0.3-0.1,0.4C16.1,35.7,16.1,35.8,16,35.9c0.1,0.2,0.1,0.3,0.1,0.3S16,36.1,16,35.9z"/>
		<path class="st0" d="M19.2,40.1c0,0,3.2-0.6,2.2-1.5c0,0,0.8-0.4,0.2-0.8c0,0-0.3-0.4-0.8-0.3c0.8-0.4,2.1-1.1,1.2-1.3
			c0,0,1.6-3-1.5-1c0,0-0.5-1.7-2.1,0.8c0,0-1.3-0.9-1.3,1.5c0,0-1.4,0.5-0.3,2c0,0-1.3,0.9-0.1,2C16.8,41.5,20.3,41.2,19.2,40.1z
			 M16.9,41c0-0.1,0-0.2,0.1-0.3c0-0.1,0.1-0.3,0.1-0.4c0-0.2,0.1-0.3,0.2-0.5s0.2-0.3,0.3-0.5c0.1-0.2,0.2-0.3,0.3-0.5
			c0.1-0.2,0.3-0.3,0.4-0.5s0.3-0.3,0.4-0.5s0.3-0.3,0.4-0.4c0.1-0.1,0.3-0.3,0.4-0.4c0.1-0.1,0.3-0.2,0.4-0.3
			c0.5-0.4,0.9-0.6,0.9-0.6s-0.1,0.1-0.2,0.2c-0.1,0.1-0.3,0.3-0.5,0.5c-0.1,0.1-0.2,0.2-0.4,0.4c-0.1,0.1-0.3,0.3-0.4,0.4
			c-0.1,0.1-0.3,0.3-0.4,0.4c-0.1,0.1-0.3,0.3-0.4,0.5s-0.3,0.3-0.4,0.5s-0.2,0.3-0.3,0.5c-0.1,0.2-0.2,0.3-0.3,0.5
			c-0.1,0.2-0.2,0.3-0.2,0.4c-0.1,0.1-0.1,0.3-0.2,0.4C17,40.8,17,40.9,16.9,41c0,0.2,0,0.3,0,0.3S16.8,41.2,16.9,41z"/>
		<path class="st3" d="M15.1,50.4c0,0,5.1-9.8-3-20.7"/>
	</g>
	<g>
		<g>
			<path class="st0" d="M24.1,20.1c1.3,0,1-1.2,1-1.2c1.4-0.2,0.9-1.3,0.9-1.3c1.3-1.4,0.1-1.5,0.1-1.5c0.4-2.3-0.7-1.6-0.7-1.6
				c-0.7-2.8-1.4-0.2-1.4-0.2c-0.6-0.3-0.3,0.7,0,1.4c-0.3-0.3-0.6-0.3-0.6-0.3c-0.5-0.1-0.3,0.6-0.3,0.6c-1.1,0,0.5,2.1,0.5,2.1
				C22.3,18,24.1,20.1,24.1,20.1z M24.3,19.7c0-0.1,0.1-0.1,0.1-0.2s0.1-0.2,0.1-0.3c0-0.1,0.1-0.2,0.1-0.4c0-0.1,0.1-0.3,0.1-0.4
				s0-0.3,0.1-0.5c0-0.2,0-0.3,0-0.5s0-0.3,0-0.5s0-0.3,0-0.5s0-0.3,0-0.4s0-0.3,0-0.4c0-0.2,0-0.5,0-0.6s0-0.2,0-0.2
				s0.1,0.3,0.2,0.8c0,0.1,0,0.3,0.1,0.4c0,0.1,0,0.3,0,0.4c0,0.2,0,0.3,0,0.5s0,0.3,0,0.5s0,0.3-0.1,0.5c0,0.2-0.1,0.3-0.1,0.5
				s-0.1,0.3-0.1,0.4c-0.1,0.1-0.1,0.3-0.1,0.4c-0.1,0.1-0.1,0.2-0.2,0.3C24.4,19.6,24.4,19.7,24.3,19.7c0,0.1-0.1,0.2-0.1,0.2
				S24.2,19.8,24.3,19.7z"/>
			<path class="st0" d="M20,21.2c-0.4,0-0.6,0.4-0.6,0.4c-0.4,0.4,0.3,0.6,0.3,0.6C19,23,21.6,23,21.6,23c-0.7,1,2,0.7,2,0.7
				c0.8-1-0.3-1.5-0.3-1.5c0.7-1.3-0.5-1.5-0.5-1.5c-0.3-1.8-1.2-1-1.2-1c-1.6-1.7-1.7-0.4-1.7-0.4c-2.7-1.1-1,1-1,1
				C18.3,20.7,19.3,21,20,21.2z M20.6,20.4c0.1,0.1,0.2,0.1,0.4,0.2c0.1,0.1,0.3,0.1,0.4,0.2s0.3,0.2,0.4,0.3
				c0.1,0.1,0.3,0.2,0.4,0.3c0.1,0.1,0.2,0.2,0.4,0.3c0.1,0.1,0.2,0.2,0.3,0.4c0.1,0.1,0.2,0.2,0.3,0.4c0.1,0.1,0.2,0.2,0.2,0.3
				c0.1,0.1,0.1,0.2,0.2,0.3c0,0.1,0.1,0.2,0.1,0.2c0,0.1,0.1,0.2,0.1,0.2s0-0.1-0.1-0.2c0-0.1-0.1-0.1-0.1-0.2
				c-0.1-0.1-0.1-0.2-0.2-0.3c-0.1-0.1-0.2-0.2-0.2-0.3c-0.1-0.1-0.2-0.2-0.3-0.3c-0.1-0.1-0.2-0.2-0.3-0.3
				c-0.1-0.1-0.2-0.2-0.4-0.3c-0.1-0.1-0.2-0.2-0.4-0.3c-0.1-0.1-0.2-0.2-0.4-0.3c-0.1-0.1-0.2-0.2-0.4-0.3
				c-0.1-0.1-0.2-0.2-0.3-0.2c-0.2-0.1-0.4-0.3-0.5-0.3c-0.1-0.1-0.2-0.1-0.2-0.1S20.1,20.2,20.6,20.4z"/>
			<path class="st0" d="M21.8,26.8c0.4-1.8-0.7-1.4-0.7-1.4c-0.8-2.2-1.5-1-1.5-1c-2-2.1-1.3,0.5-1.3,0.5c-0.7,0,0.1,0.7,0.7,1.2
				c-0.4-0.2-0.7,0.1-0.7,0.1c-0.5,0.2,0,0.6,0,0.6c-0.9,0.5,1.5,1.5,1.5,1.5c-1,0.6,1.6,1.5,1.6,1.5c1.2-0.6,0.3-1.5,0.3-1.5
				C22.8,27.4,21.8,26.8,21.8,26.8z M21.4,29.5c0,0.1,0,0.2,0,0.2S21.4,29.6,21.4,29.5c-0.1-0.1-0.1-0.2-0.1-0.3
				c0-0.1-0.1-0.2-0.1-0.3c0-0.1-0.1-0.2-0.1-0.4c0-0.1-0.1-0.3-0.1-0.4s-0.1-0.3-0.2-0.4s-0.1-0.3-0.2-0.4s-0.1-0.3-0.2-0.4
				s-0.1-0.3-0.2-0.4S20,26.2,20,26.1c-0.1-0.1-0.1-0.2-0.2-0.3c-0.1-0.2-0.2-0.4-0.3-0.5c-0.1-0.1-0.1-0.2-0.1-0.2s0.3,0.2,0.6,0.6
				c0.1,0.1,0.2,0.2,0.3,0.3c0.1,0.1,0.2,0.2,0.3,0.4c0.1,0.1,0.2,0.3,0.3,0.4c0.1,0.1,0.2,0.3,0.2,0.4c0.1,0.2,0.1,0.3,0.2,0.5
				s0.1,0.3,0.2,0.5c0,0.2,0.1,0.3,0.1,0.4s0.1,0.3,0.1,0.4s0,0.2,0,0.3C21.5,29.3,21.4,29.4,21.4,29.5z"/>
			<path class="st0" d="M28.9,21.4c0,0,1.7-2.1-1-1c0,0-0.1-1.4-1.7,0.3c0,0-0.8-0.9-1.2,0.9c0,0-1.1,0.2-0.5,1.5
				c0,0-1.2,0.5-0.4,1.5c0,0,2.7,0.3,2.1-0.7c0,0,2.6,0.1,2-0.8c0,0,0.7-0.2,0.3-0.6c0,0-0.1-0.3-0.6-0.4
				C28.5,22,29.5,21.7,28.9,21.4z M27.8,21.1c-0.1,0.1-0.3,0.2-0.5,0.3c-0.1,0.1-0.2,0.1-0.3,0.2c-0.1,0.1-0.2,0.2-0.4,0.2
				c-0.1,0.1-0.2,0.2-0.4,0.3c-0.1,0.1-0.3,0.2-0.4,0.3c-0.1,0.1-0.2,0.2-0.4,0.3c-0.1,0.1-0.2,0.2-0.3,0.3
				c-0.1,0.1-0.2,0.2-0.3,0.3c-0.1,0.1-0.2,0.2-0.3,0.3c-0.1,0.1-0.1,0.2-0.2,0.3c-0.1,0.1-0.1,0.2-0.1,0.2
				c-0.1,0.1-0.1,0.2-0.1,0.2s0-0.1,0.1-0.2c0-0.1,0.1-0.2,0.1-0.2c0-0.1,0.1-0.2,0.2-0.3c0.1-0.1,0.1-0.2,0.2-0.3
				c0.1-0.1,0.2-0.2,0.3-0.4c0.1-0.1,0.2-0.2,0.3-0.3c0.1-0.1,0.2-0.2,0.4-0.3c0.1-0.1,0.3-0.2,0.4-0.3c0.1-0.1,0.3-0.2,0.4-0.3
				c0.1-0.1,0.3-0.2,0.4-0.2c0.1-0.1,0.2-0.1,0.4-0.2C27.7,21.1,28,21,28,21S27.9,21,27.8,21.1z"/>
			<path class="st0" d="M27.5,25.5c0,0,0.4-1.3-1.7-0.3c0,0-0.5-1.1-1.5,0.5c0,0-1.1-0.2-1,1.2c0,0-1.3,0.1-0.9,1.3
				c0,0,2.5,1.2,2.2,0c0,0,2.4,0.9,2.1-0.1c0,0,0.7,0.1,0.4-0.4c0,0,0-0.4-0.4-0.5c0.7,0.1,1.8,0.1,1.3-0.4
				C28.1,26.8,30.4,25.4,27.5,25.5z M27.2,26.2c-0.1,0-0.3,0.1-0.6,0.1c-0.1,0-0.2,0.1-0.4,0.1c-0.1,0-0.3,0.1-0.4,0.1
				s-0.3,0.1-0.4,0.1c-0.2,0-0.3,0.1-0.5,0.2s-0.3,0.1-0.4,0.2s-0.3,0.1-0.4,0.2s-0.3,0.1-0.4,0.2s-0.2,0.1-0.3,0.2
				c-0.1,0.1-0.2,0.1-0.3,0.2C23,27.9,23,27.9,22.9,28s-0.2,0.1-0.2,0.1s0-0.1,0.1-0.2c0-0.1,0.1-0.1,0.2-0.2s0.2-0.1,0.3-0.2
				c0.1-0.1,0.2-0.2,0.3-0.2c0.1-0.1,0.2-0.2,0.4-0.2c0.1-0.1,0.3-0.1,0.4-0.2c0.2-0.1,0.3-0.1,0.5-0.2s0.3-0.1,0.5-0.2
				c0.2,0,0.3-0.1,0.5-0.1s0.3-0.1,0.4-0.1s0.3,0,0.4-0.1c0.5-0.1,0.8,0,0.8,0S27.3,26.2,27.2,26.2z"/>
		</g>
		<path class="st4" d="M17.8,33.5c0,0,7.4-4.6,6.4-15.2"/>
	</g>
</g>
<g>
	<path class="st0" d="M69.6,79.2v0.9c-0.5-0.5-1-0.9-1.6-1.2c-0.6-0.3-1.3-0.4-2-0.4c-1.4,0-2.5,0.5-3.4,1.4c-0.9,1-1.4,2.1-1.4,3.5
		c0,0.8,0.1,1.5,0.4,2.1c0.3,0.6,0.7,1.1,1.2,1.5s1,0.7,1.5,0.9c0.6,0.2,1.1,0.3,1.7,0.3s1.2-0.1,1.9-0.4c0.6-0.3,1.2-0.7,1.7-1.2
		v0.9c-1,0.9-2.2,1.3-3.6,1.3c-1.6,0-2.9-0.5-4-1.6s-1.6-2.4-1.6-3.9s0.5-2.8,1.6-3.9s2.4-1.6,3.9-1.6
		C67.4,77.8,68.6,78.3,69.6,79.2z"/>
	<path class="st0" d="M72.2,83c0.7-0.7,1.5-1,2.4-1c1,0,1.8,0.3,2.4,1c0.7,0.7,1,1.5,1,2.4c0,1-0.3,1.8-1,2.4c-0.7,0.7-1.5,1-2.4,1
		c-1,0-1.8-0.3-2.4-1c-0.7-0.7-1-1.5-1-2.4C71.2,84.4,71.6,83.6,72.2,83z M72.7,87.4c0.5,0.5,1.2,0.8,2,0.8s1.4-0.3,2-0.8
		c0.5-0.5,0.8-1.2,0.8-2s-0.3-1.5-0.8-2s-1.2-0.8-2-0.8s-1.4,0.3-2,0.8c-0.5,0.5-0.8,1.2-0.8,2C71.9,86.2,72.2,86.9,72.7,87.4z"/>
	<path class="st0" d="M80,88.7v-6.5h0.6V83c0.4-0.6,0.9-1,1.7-1c0.9,0,1.5,0.4,1.8,1.2c0.4-0.8,1-1.2,1.9-1.2c0.6,0,1.1,0.2,1.5,0.5
		c0.4,0.4,0.6,1,0.6,1.8v4.4h-0.6v-4.4c0-0.6-0.1-1.1-0.4-1.3c-0.2-0.2-0.6-0.4-1-0.4c-0.3,0-0.6,0.1-0.8,0.2
		c-0.2,0.1-0.4,0.3-0.5,0.4c-0.1,0.2-0.2,0.4-0.3,0.6c-0.1,0.2-0.1,0.4-0.1,0.5s0,0.2,0,0.4v3.9h-0.6v-4.2c0-1.3-0.5-1.9-1.4-1.9
		c-0.5,0-1,0.2-1.2,0.6c-0.3,0.4-0.4,1-0.4,1.7v3.8L80,88.7L80,88.7z"/>
	<path class="st0" d="M91.2,80.4c-0.1,0.1-0.2,0.2-0.4,0.2s-0.3-0.1-0.4-0.2s-0.2-0.3-0.2-0.4c0-0.2,0.1-0.3,0.2-0.4
		s0.2-0.2,0.4-0.2s0.3,0.1,0.4,0.2s0.2,0.3,0.2,0.4C91.3,80.1,91.3,80.2,91.2,80.4z M90.4,82.1H91v6.5h-0.6V82.1z"/>
	<path class="st0" d="M93.4,88.7v-6.5H94v1c0.4-0.8,1.1-1.2,2-1.2c0.8,0,1.4,0.3,1.8,0.9c0.2,0.3,0.3,0.9,0.3,1.7v4.1h-0.6v-4.1
		c0-0.6-0.1-1-0.3-1.3c-0.3-0.4-0.7-0.6-1.3-0.6c-0.7,0-1.3,0.3-1.6,0.9c-0.2,0.4-0.4,1-0.4,1.8v3.4h-0.5V88.7z"/>
	<path class="st0" d="M105.9,82.1h0.6v6.4c0,1.2-0.3,2.2-0.9,2.9c-0.6,0.7-1.4,1-2.4,1c-0.9,0-1.6-0.2-2.2-0.7s-0.9-1.2-1-2.1h0.7
		c0.1,0.7,0.3,1.2,0.8,1.6s1,0.6,1.8,0.6c0.5,0,0.9-0.1,1.3-0.3c0.4-0.2,0.6-0.4,0.8-0.7c0.2-0.2,0.3-0.5,0.4-0.9s0.2-0.6,0.2-0.8
		s0-0.4,0-0.6v-1c-0.6,0.9-1.5,1.3-2.6,1.3c-0.9,0-1.6-0.3-2.3-0.9c-0.6-0.6-1-1.5-1-2.5s0.3-1.8,0.9-2.4c0.6-0.7,1.4-1,2.4-1
		c1.1,0,1.9,0.4,2.5,1.3C105.9,83.3,105.9,82.1,105.9,82.1z M105.2,83.4c-0.5-0.5-1.1-0.8-1.9-0.8s-1.4,0.3-1.9,0.8
		c-0.5,0.6-0.7,1.2-0.7,2s0.2,1.5,0.7,2s1.1,0.8,1.8,0.8c0.8,0,1.4-0.3,1.9-0.8s0.7-1.2,0.7-2.1C105.9,84.6,105.7,83.9,105.2,83.4z"
		/>
	<path class="st0" d="M116,83l-0.5,0.3c-0.2-0.5-0.6-0.7-1.1-0.7c-0.3,0-0.6,0.1-0.8,0.3c-0.2,0.2-0.3,0.5-0.3,0.7s0.1,0.4,0.2,0.6
		s0.3,0.3,0.4,0.3c0.1,0.1,0.3,0.1,0.7,0.3c0,0,0.1,0,0.3,0.1c0.1,0.1,0.2,0.1,0.3,0.1c0,0,0.1,0.1,0.3,0.1c0.1,0.1,0.2,0.1,0.3,0.2
		c0.1,0,0.1,0.1,0.2,0.2s0.2,0.2,0.2,0.2c0.2,0.3,0.3,0.6,0.3,1.1c0,0.7-0.2,1.2-0.6,1.6c-0.4,0.3-0.9,0.5-1.5,0.5s-1-0.2-1.4-0.5
		s-0.7-0.7-0.8-1.3l0.6-0.2c0.1,0.4,0.3,0.7,0.6,1c0.3,0.2,0.6,0.3,1,0.3s0.8-0.1,1-0.4c0.3-0.3,0.4-0.6,0.4-1
		c0-0.3-0.1-0.6-0.3-0.8c-0.2-0.2-0.5-0.4-1-0.5c0,0-0.1-0.1-0.2-0.1s-0.2-0.1-0.2-0.1s-0.1,0-0.2-0.1s-0.2-0.1-0.2-0.1
		s-0.1-0.1-0.2-0.1s-0.1-0.1-0.2-0.1l-0.1-0.1c-0.1,0-0.1-0.1-0.1-0.1l-0.1-0.1c-0.2-0.3-0.3-0.5-0.3-0.8c0-0.5,0.2-0.9,0.5-1.2
		c0.3-0.3,0.7-0.5,1.3-0.5C115.1,82,115.7,82.3,116,83z"/>
	<path class="st0" d="M118.6,83c0.7-0.7,1.5-1,2.4-1c1,0,1.8,0.3,2.4,1c0.7,0.7,1,1.5,1,2.4c0,1-0.3,1.8-1,2.4c-0.7,0.7-1.5,1-2.4,1
		c-1,0-1.8-0.3-2.4-1c-0.7-0.7-1-1.5-1-2.4C117.6,84.4,117.9,83.6,118.6,83z M119.1,87.4c0.5,0.5,1.2,0.8,2,0.8s1.4-0.3,2-0.8
		c0.5-0.5,0.8-1.2,0.8-2s-0.3-1.5-0.8-2s-1.2-0.8-2-0.8s-1.4,0.3-2,0.8c-0.5,0.5-0.8,1.2-0.8,2C118.3,86.2,118.6,86.9,119.1,87.4z"
		/>
	<path class="st0" d="M126.9,83c0.7-0.7,1.5-1,2.4-1c1,0,1.8,0.3,2.4,1c0.7,0.7,1,1.5,1,2.4c0,1-0.3,1.8-1,2.4c-0.7,0.7-1.5,1-2.4,1
		c-1,0-1.8-0.3-2.4-1c-0.7-0.7-1-1.5-1-2.4C126,84.4,126.3,83.6,126.9,83z M127.4,87.4c0.5,0.5,1.2,0.8,2,0.8c0.8,0,1.4-0.3,2-0.8
		c0.5-0.5,0.8-1.2,0.8-2s-0.3-1.5-0.8-2s-1.2-0.8-2-0.8s-1.4,0.3-2,0.8c-0.5,0.5-0.8,1.2-0.8,2C126.6,86.2,126.9,86.9,127.4,87.4z"
		/>
	<path class="st0" d="M134.7,88.7v-6.5h0.6v1c0.4-0.8,1.1-1.2,2-1.2c0.8,0,1.4,0.3,1.8,0.9c0.2,0.3,0.3,0.9,0.3,1.7v4.1h-0.6v-4.1
		c0-0.6-0.1-1-0.3-1.3c-0.3-0.4-0.7-0.6-1.3-0.6c-0.7,0-1.3,0.3-1.6,0.9c-0.2,0.4-0.4,1-0.4,1.8v3.4h-0.5V88.7z"/>
</g>
<circle class="st0" cx="55.9" cy="83.3" r="1"/>
<circle class="st0" cx="143.7" cy="82" r="1"/>
</svg>
