<?xml version="1.0" encoding="utf-8"?>
<!-- Generator: Adobe Illustrator 19.2.0, SVG Export Plug-In . SVG Version: 6.00 Build 0)  -->
<svg version="1.1" id="Слой_1" xmlns="http://www.w3.org/2000/svg" xmlns:xlink="http://www.w3.org/1999/xlink" x="0px" y="0px"
	 viewBox="0 0 200 100" style="enable-background:new 0 0 200 100;" xml:space="preserve">
<style type="text/css">
	.st0{fill:#015673;}
</style>
<g>
	<path class="st0" d="M0,26.5c6.2-0.8,18.7-2.6,26.4,1.2c7.7,3.9,11.1,9.5,11.5,12.7c0.4,3.2,0.3,3.4,0.8,3.8c0.4,0.2,0.9,0.2,1.3,0
		c0.1-0.1,0.2-0.1,0.5-0.3c0.2-0.1,0.6-0.1,0.6-0.1s-5.7,4.4-9.5,5.5c-2.3,0.6-4,1-4.8,0.7c-0.5-0.1-0.7-0.5-1-1.2
		c-0.9-1.8-2-2.8-3.7-2.9c-1.7-0.1-2.7-0.1-2.7-0.1S19,48.8,19,49.7c0,1-0.3,2,1.3,2.2c1.7,0.1,3.2,0,4.1-0.1c1-0.1,1.3-0.1,1.3-0.1
		s-2.2,1.5-9,1.6c-6.8,0.1-5.7,0.2-8.5,0c-2.9-0.2-6.8-0.9-7-2c-0.2-1.1-0.7-10-0.8-12.9S0,26.5,0,26.5z"/>
	<path class="st0" d="M41.2,42.1c0,0,0.4-0.5,0.6-0.4c0.2,0,0.8,0.3,0.9,0.2c0.1-0.1,1.2-1.4,1.6-1.7c0.8-0.6,1.6-0.8,2.6-0.8
		c-0.1,1.5-1.1,2.5-2.4,3.1c-0.8,0.4-0.6,0.3-0.7,0.3c-0.1,0.1-0.1,0-0.1,0.1c0,0.1,0,0.9-0.2,1c-0.2,0.1-0.5,0.3-0.5,0.3
		c-0.3-0.4-0.2-0.7-0.3-0.8c-0.2-0.1-0.6-0.2-0.6-0.2s0-0.6-0.1-0.7C41.8,42.5,41.4,42.3,41.2,42.1z"/>
	<path class="st0" d="M2.3,74.2l16.3,0l0.3-8.4c0,0,0.2-0.8,0.2-0.8c0,0,0.8-0.3,1.3-0.3c1.8-0.1,7.6-1.6,10.1-3.3
		c2.5-1.8,5-4.5,6.3-7.5c1.1-2.8,1.5-6.1,2.3-7.1c0.8-1,0.8-1,0.8-1s-7.5,3.9-9.7,5.3c-2.1,1.4-6.7,4.9-8.5,5.2
		c-1.9,0.3-3.8,0.6-1.7-0.6c2.1-1.2,6.5-3.6,6.5-3.6s-6.9,2.4-11,2.7c-4.1,0.2-12.3,0.5-12.3,0.5s-1.6-0.2-1.6,1
		C1.7,57.5,2.3,74.2,2.3,74.2z"/>
</g>
<g>
	<path class="st0" d="M57.6,61.4V37.1H70c1.1,0,2,0.2,2.9,0.5c0.9,0.3,1.6,0.8,2.2,1.4c0.6,0.6,1.1,1.3,1.4,2.2
		c0.3,0.9,0.5,1.8,0.5,2.9c0,1.1-0.2,2.1-0.5,2.9c-0.3,0.9-0.8,1.6-1.4,2.2c-0.6,0.6-1.4,1.1-2.2,1.4C72,50.9,71.1,51,70,51h-4.3
		c-0.8,0-1.6,0.1-2.3,0.2c-0.8,0.1-1.5,0.4-2.3,0.8v9.4H57.6z M70,47.5c2.4,0,3.6-1.1,3.6-3.4c0-1.2-0.3-2.1-0.9-2.6
		c-0.6-0.5-1.5-0.8-2.7-0.8h-8.9l0,7.8c0.7-0.4,1.5-0.7,2.3-0.8c0.8-0.1,1.6-0.2,2.4-0.2H70z"/>
	<path class="st0" d="M83.2,36.6h3.9l11.6,24.7h-4l-1.6-3.6h-7.4c-1.1,0-2.1,0.1-2.9,0.2c-0.9,0.2-1.6,0.3-2.2,0.6
		c-0.6,0.2-1.1,0.5-1.5,0.8c-0.4,0.3-0.6,0.6-0.7,0.8l-0.6,1.1H74l10.5-21.7L83.2,36.6z M91.6,54.2L86.3,44L81,55.6
		c0.4-0.4,1.1-0.7,2.1-1c1-0.3,2.3-0.4,4-0.4H91.6z"/>
	<path class="st0" d="M105.9,47.7c1.5-1.6,2.8-3.3,4-5.1c1.1-1.8,2.1-3.7,2.8-5.6h4.1c-1.2,2.7-2.5,5.2-4,7.5s-3.2,4.3-5,6.3v10.5
		h-3.5V50.8c-1.8-2-3.5-4.1-5-6.3c-1.5-2.2-2.8-4.7-4-7.5h4.1c0.7,1.9,1.6,3.8,2.8,5.6C103.1,44.5,104.4,46.2,105.9,47.7z"/>
	<path class="st0" d="M133.4,54.6l-8.2-9.9v16.7h-3.5V40.5l-2.8-3.4h4.6l9.9,11.9l10-11.9h4.6l-2.8,3.4v20.9h-3.5V44.6L133.4,54.6z"
		/>
	<path class="st0" d="M175.4,49.2c0,1.8-0.4,3.5-1.1,5c-0.7,1.5-1.7,2.9-2.8,4c-1.2,1.1-2.6,2-4.2,2.7c-1.6,0.7-3.2,1-5,1
		c-1.8,0-3.6-0.3-5.1-1c-1.6-0.7-3-1.6-4.1-2.8c-1.2-1.2-2.1-2.6-2.8-4.2c-0.7-1.6-1-3.3-1-5.1c0-1.8,0.4-3.4,1.1-5
		c0.7-1.5,1.7-2.9,2.9-4c1.2-1.1,2.6-2,4.2-2.6c1.6-0.6,3.2-0.9,5-0.9c1.8,0,3.5,0.3,5.1,1c1.6,0.7,3,1.6,4.1,2.7
		c1.2,1.2,2.1,2.5,2.8,4.1C175.1,45.7,175.4,47.4,175.4,49.2z M171.9,49c0-1.3-0.3-2.5-0.8-3.7c-0.5-1.1-1.2-2.1-2.1-2.9
		c-0.9-0.8-1.9-1.4-3-1.9c-1.1-0.4-2.4-0.7-3.7-0.7c-1.3,0-2.6,0.2-3.8,0.7c-1.2,0.5-2.2,1.1-3,1.9c-0.9,0.8-1.5,1.8-2,3
		c-0.5,1.1-0.7,2.4-0.7,3.8c0,1.3,0.3,2.5,0.8,3.6s1.2,2.1,2.1,2.9c0.9,0.8,1.9,1.4,3,1.9c1.1,0.5,2.4,0.7,3.6,0.7
		c1.3,0,2.5-0.2,3.7-0.7c1.2-0.5,2.2-1.1,3-2c0.9-0.8,1.5-1.8,2-2.9C171.6,51.6,171.9,50.4,171.9,49z"/>
	<path class="st0" d="M176.1,37.1h4.6l15.5,18.6V37.1h3.5v24.3h-3.5l-13.9-16.7v16.7h-3.5V40.5L176.1,37.1z"/>
</g>
</svg>
