<?xml version="1.0" encoding="utf-8"?>
<!-- Generator: Adobe Illustrator 19.2.0, SVG Export Plug-In . SVG Version: 6.00 Build 0)  -->
<svg version="1.1" id="Слой_1" xmlns="http://www.w3.org/2000/svg" xmlns:xlink="http://www.w3.org/1999/xlink" x="0px" y="0px"
	 viewBox="0 0 200 100" style="enable-background:new 0 0 200 100;" xml:space="preserve">
<style type="text/css">
	.st0{fill:#015673;}
</style>
<g>
	<g>
		<path class="st0" d="M0,49.8c0-6.3,0-12.6,0-18.9c0-0.8,0-0.8,0.8-0.8c4,0,7.9,0,11.9,0c2.8,0,5.6,0.2,8.3,1.1
			c5.7,1.8,9.4,5.6,10.9,11.4c1.3,5.1,1.1,10.2-0.6,15.1c-2.1,5.9-6.3,9.5-12.4,11c-1.9,0.5-3.8,0.7-5.7,0.7c-4.1,0-8.2,0-12.3,0
			c-0.7,0-0.8,0-0.8-0.7C0,62.4,0,56,0,49.8z M10.5,49.7c0,3.4,0,6.9,0,10.3c0,0.5,0.1,0.7,0.7,0.7c0.9-0.1,1.8,0,2.7-0.1
			c3.3-0.2,5.7-1.7,6.9-4.9c0.6-1.7,0.8-3.4,0.9-5.1c0.1-2.1,0-4.3-0.6-6.3c-0.8-2.7-2.5-4.5-5.3-5.1c-0.9-0.2-1.9-0.3-2.8-0.3
			c-0.8,0-1.9-0.3-2.3,0.1c-0.5,0.5-0.1,1.5-0.1,2.3C10.5,44.1,10.5,46.9,10.5,49.7z"/>
		<path class="st0" d="M94.7,39.6c3.5-0.1,6.7,0.9,9.3,3.1c2.3,1.9,3.6,4.3,4.3,7.1c0.9,4,0.9,7.9-0.6,11.8
			c-1.8,4.7-5.3,7.3-10.3,8.1c-2.5,0.4-5.1,0.3-7.5-0.4c-4.3-1.3-7.3-4.2-8.7-8.4c-1.4-4.3-1.4-8.6,0.1-12.9
			c1.7-4.7,5.2-7.4,10.1-8.2c0.5-0.1,1-0.2,1.5-0.2C93.7,39.6,94.2,39.6,94.7,39.6z M90.5,54.7c-0.1,0.8,0.1,1.5,0.1,2.3
			c0.1,1.1,0.3,2.2,0.8,3.2c0.7,1.5,1.8,2.2,3.4,2.1c1.6,0,2.7-0.8,3.2-2.3c0.1-0.3,0.2-0.5,0.3-0.9c0.6-2.3,0.6-4.7,0.4-7
			c-0.1-1-0.3-2.1-0.7-3s-1.1-1.5-2-1.9c-2.2-0.7-4,0.3-4.7,2.4C90.6,51.4,90.6,53,90.5,54.7z"/>
		<path class="st0" d="M54.2,57.6c-2.7,0-5.5,0-8.1,0c-0.7,0-0.7,0-0.5,0.7c0.5,2.5,2.3,4.2,4.9,4.4c2.9,0.2,5.8-0.2,8.6-1.3
			c0.5-0.2,0.7-0.1,0.7,0.4c0.4,1.9,0.8,3.7,1.3,5.5c0.1,0.4,0,0.7-0.4,0.8c-1.9,0.9-4,1.5-6.1,1.7c-1.6,0.1-3.3,0.3-4.9,0.2
			c-2.7-0.1-5.4-0.6-7.9-2c-3.2-1.9-5.1-4.7-5.9-8.2c-0.9-3.9-0.8-7.9,0.5-11.7c1.6-4.7,5-7.4,9.9-8.2c2.5-0.4,5-0.4,7.5,0.2
			c4.9,1.1,8.1,4.5,8.9,9.5c0.4,2.5,0.3,5,0.3,7.5c0,0.5-0.3,0.5-0.6,0.5C59.7,57.6,57,57.6,54.2,57.6z M49.8,51c1,0,2,0,3,0
			c1.3,0,1.3,0,1-1.3c-0.4-1.9-1.9-3.1-3.7-3.2c-2-0.1-3.5,1-4.1,2.9c-0.1,0.3-0.1,0.6-0.2,0.9C45.6,51,45.6,51,46.2,51
			C47.4,51.1,48.6,51,49.8,51z"/>
		<path class="st0" d="M191.3,57.6c-2.7,0-5.4,0-8.1,0c-0.7,0-0.7,0.1-0.6,0.7c0.5,2.5,2.3,4.1,4.9,4.3c2.9,0.2,5.8-0.2,8.6-1.3
			c0.5-0.2,0.6-0.1,0.7,0.4c0.4,1.9,0.8,3.7,1.3,5.5c0.1,0.5,0,0.7-0.5,0.9c-1.9,0.9-4,1.5-6.1,1.7c-1.6,0.1-3.2,0.3-4.8,0.2
			c-2.6-0.1-5.2-0.5-7.5-1.9c-3.3-1.8-5.4-4.7-6.2-8.3c-0.9-3.9-0.8-7.9,0.5-11.8c1.6-4.7,4.9-7.3,9.7-8.1c2.5-0.4,5-0.4,7.4,0.1
			c4.9,1.1,7.9,4.1,9,9.1c0.2,1,0.3,2.1,0.3,3.1c0,1.5,0,3.1,0,4.7c0,0.5-0.1,0.7-0.7,0.7C196.7,57.5,194,57.6,191.3,57.6z
			 M186.8,51c1.1,0,2.1,0,3.1,0c1.2,0,1.2,0,0.9-1.1c-0.3-1.5-1.1-2.7-2.7-3.1c-1.6-0.5-3.1-0.2-4.3,1.1c-0.7,0.8-1,1.7-1.1,2.8
			c-0.1,0.4,0.2,0.5,0.5,0.5C184.5,51,185.6,51,186.8,51z"/>
		<path class="st0" d="M162.8,54c0,1.7,0,3.5,0,5.3c0,1.8,0.9,2.6,2.7,2.6c1.4,0,2.8-0.3,4.1-0.8c0.6-0.2,0.7-0.1,0.7,0.5
			c0,2.1,0,4.2,0,6.3c0,0.3-0.1,0.5-0.4,0.7c-3.6,1.5-7.3,1.9-11.1,1.1c-3.2-0.7-4.9-2.9-5.6-6c-0.3-1.1-0.3-2.2-0.3-3.3
			c0-3.9,0-7.9,0-11.7c0-0.5-0.1-0.7-0.7-0.7c-0.7,0.1-1.5,0-2.2,0c-0.4,0-0.6-0.1-0.6-0.5c0-2.2,0-4.5,0-6.7c0-0.3,0.1-0.5,0.5-0.5
			c0.7,0,1.5,0,2.1,0c0.8,0,0.8,0,0.8-0.8c0-2,0-4.1,0-6.1c0-0.5,0.2-0.7,0.7-0.8c2.9-0.5,5.8-0.9,8.7-1.4c0.6-0.1,0.7,0,0.7,0.6
			c0,2.6,0,5.2,0,7.7c0,0.7,0,0.7,0.7,0.7c1.6,0,3.2,0,4.8,0c0.5,0,0.7,0.1,0.7,0.7c0,2.1,0,4.3,0,6.4c0,0.5-0.2,0.7-0.7,0.7
			c-1.7,0-3.3,0-4.9,0c-0.5,0-0.6,0.1-0.6,0.6C162.8,50.2,162.8,52.1,162.8,54L162.8,54z"/>
		<path class="st0" d="M130,54.4c0-1.9,0-3.9,0-5.7c0-0.9,0-0.9-0.9-0.9c-0.7,0-1.4,0-2.1,0c-0.4,0-0.5-0.1-0.5-0.5
			c0-2.2,0-4.5,0-6.7c0-0.4,0.2-0.5,0.6-0.5c0.7,0,1.5,0,2.3,0c0.5,0,0.6-0.1,0.6-0.6c0-2,0-4.1,0-6.1c0-0.5,0.2-0.7,0.7-0.9
			c2.9-0.5,5.7-1,8.6-1.5c0.7-0.1,0.7-0.1,0.7,0.5c0,2.6,0,5.2,0,7.7c0,0.7,0,0.7,0.7,0.7c1.6,0,3.3,0,4.9,0c0.5,0,0.7,0.2,0.7,0.7
			c0,2.1,0,4.2,0,6.3c0,0.5-0.2,0.7-0.7,0.7c-1.7,0-3.3,0-5.1,0c-0.4,0-0.6,0.1-0.6,0.6c0,3.5,0,7,0,10.5c0,0.4,0.1,0.8,0.1,1.1
			c0.2,1.1,1,1.7,2.1,1.8c1.6,0.1,3.1-0.3,4.7-0.8c0.5-0.2,0.6-0.1,0.6,0.5c0,2.1,0,4.2,0,6.3c0,0.3-0.1,0.6-0.5,0.7
			c-2.9,1.3-5.9,1.7-9.1,1.4c-1.7-0.1-3.3-0.5-4.8-1.6c-1.7-1.3-2.5-3.1-2.8-5.1c-0.3-1.8-0.3-3.5-0.3-5.3
			C130,56.7,130,55.5,130,54.4z"/>
		<path class="st0" d="M66.7,49.7c0-6.3,0-12.5,0-18.7c0-0.9,0-0.9,0.9-0.9c2.8,0,5.6,0,8.4,0c0.5,0,0.7,0.2,0.7,0.7
			c0,12.7,0,25.4,0,38c0,0.5-0.2,0.7-0.7,0.7c-2.9,0-5.7,0-8.6,0c-0.5,0-0.7-0.2-0.7-0.7C66.7,62.4,66.7,56,66.7,49.7z"/>
		<path class="st0" d="M112.7,54.8c0-4.7,0-9.3,0-13.9c0-0.8,0-0.8,0.8-0.8c2.8,0,5.7,0,8.5,0c0.7,0,0.7,0,0.7,0.7
			c0,9.3,0,18.6,0,27.9c0,0.7,0,0.7-0.7,0.7c-2.8,0-5.6,0-8.4,0c-0.8,0-0.9,0-0.9-0.8C112.7,64,112.7,59.4,112.7,54.8z"/>
		<path class="st0" d="M117.8,30.1c1.5,0,2.9,0,4.3,0c0.5,0,0.7,0.2,0.7,0.7c0,1.8,0,3.6,0,5.4c0,0.5-0.1,0.6-0.6,0.6
			c-2.9,0-5.9,0-8.8,0c-0.4,0-0.6-0.1-0.6-0.5c0-1.8,0-3.7,0-5.5c0-0.4,0.1-0.6,0.6-0.6C114.8,30.1,116.3,30.1,117.8,30.1z"/>
	</g>
</g>
</svg>
