<?xml version="1.0" encoding="utf-8"?>
<!-- Generator: Adobe Illustrator 19.2.0, SVG Export Plug-In . SVG Version: 6.00 Build 0)  -->
<svg version="1.1" id="Слой_1" xmlns="http://www.w3.org/2000/svg" xmlns:xlink="http://www.w3.org/1999/xlink" x="0px" y="0px"
	 viewBox="0 0 200 100" style="enable-background:new 0 0 200 100;" xml:space="preserve">
<style type="text/css">
	.st0{fill:#015673;}
</style>
<g>
	<g>
		<path class="st0" d="M0,18.6c4.3-1.1,8.4-2.5,12.7-3.7c1.2-0.3,2.4-0.6,3.5-1.1c2.5-1,5.1-1.1,7.8-1.1c1.1,0,1.4,0.4,1.4,1.5
			c-0.1,1.4,0,2.7,0,4.1c0,0.9,0.3,0.9,1,0.5c2.6-1.6,5.3-3.1,8.1-4.3c9.2-3.8,18.9-1,24.1,8.4c2.9,5.2,3.8,10.8,3.4,16.7
			c-0.3,5.6-1.9,10.7-5.4,15.1c-4.5,5.8-10.5,8.8-17.6,9.9c-4.1,0.7-8.2,0.4-12.3,0.1c-1-0.1-1.4,0.1-1.4,1.3c0.1,4.5,0.1,9,0,13.5
			c0,1,0.3,1.4,1.3,1.5c2,0.4,4,0.9,6,1.3c0.7,0.1,1.1,0.5,1.1,1.3c-0.1,1.3-0.1,2.5-0.1,3.8c-11,0-21.9,0-32.9,0
			c0-1.3,0-2.5-0.1-3.8c-0.1-0.8,0.3-1.1,1.1-1.3c1.7-0.4,3.4-0.9,5.1-1.2c1.1-0.2,1.6-0.7,1.5-1.9c-0.1-0.9,0-1.8,0-2.7
			c0-17.1,0-34.2,0-51.2c0-1.5,0-1.5-1.5-1.5c-2.3,0-4.5,0-6.7,0C0,22,0,20.3,0,18.6z M25.3,41.3c0,5.2,0,10.5,0,15.7
			c0,1,0.3,1.3,1.3,1.3c1.1-0.1,2.2,0,3.3-0.1c5.5-0.4,9.8-2.8,11.9-8c2.7-6.3,2.7-12.9,0.4-19.3c-1.4-3.8-4.3-6.1-8.3-6.9
			c-2.5-0.5-4.9-0.2-7.3,0.2c-1,0.1-1.3,0.6-1.3,1.5C25.3,30.9,25.3,36.1,25.3,41.3z"/>
		<path class="st0" d="M105.3,34c-0.4,0.3-0.6,0.7-0.8,1.1C98.6,44.6,92.8,54.2,87,63.8c-0.5,0.9-1.1,1.1-2.1,1.1
			c-3.3-0.1-6.6,0-9.9,0c-1.7,0-1.7,0-1.7-1.7c0-12.5,0-25.1,0-37.6c0-1.7,0-1.8-1.7-2c-2.2-0.3-4.5-0.4-6.7-0.6
			c-1.6-0.1-1.6-0.2-1.6-1.7c0-0.4,0-0.8,0-1.2c0.1-2.4-0.4-2.1,2.1-2.7c4.7-1.1,9.5-2.1,14.2-3.2c2.8-0.7,5.6-0.3,8.3-0.4
			c0.5,0,0.7,0.3,0.7,0.7c0,0.4,0,0.7,0,1.1c0,9.7,0,19.3,0,29c0,0.4-0.1,0.9,0.1,1.3c0.4-0.2,0.5-0.5,0.7-0.9
			c6-9.9,12.1-19.9,18-29.8c0.7-1.1,1.4-1.6,2.7-1.6c3.1,0.1,6.1,0.1,9.2,0c1.1,0,1.4,0.3,1.4,1.4c0,11.8,0,23.7,0,35.5
			c0,0.3,0,0.7,0,1.1c0.4,0.1,0.5-0.3,0.6-0.5c3.7-4.9,7.3-9.9,11.1-14.8c0.5-0.7,0.8-1.5,0.8-2.4c0-5.7,0-11.5-0.1-17.3
			c0-1.1,0.4-1.8,1.2-2.5c4.9-3.7,11.4-2.6,14.2,2.5c1.9,3.5,1.2,7-0.5,10.3c-1.9,3.5-4.4,6.6-6.8,9.7c-7,9-14,18-20.9,27
			c-0.5,0.7-1.1,1-1.9,1c-3.9-0.1-7.9,0-11.7,0c-1.4,0-1.4-0.1-1.4-1.5c0-9.5,0-18.9,0-28.3C105.4,34.8,105.6,34.4,105.3,34z"/>
		<path class="st0" d="M181.7,25c0-1.9-0.1-3.8,0-5.7c0-0.9-0.3-1-1.1-0.8c-4.4,1.1-7.8,3.5-9.6,7.7c-3,7.1-3.2,14.3-0.1,21.3
			c3.2,7.3,10.3,10.2,17.9,7.8c3.4-1.1,6.6-2.6,9.8-4.1c1.3-0.6,1.3-0.5,1.3,0.9c0,2.3,0,4.6,0,6.9c0,0.7-0.2,1.1-0.9,1.5
			c-5.1,2.3-10.3,4.3-15.9,4.9c-5.9,0.7-11.9,0.9-17.5-1.4c-8.6-3.4-13.5-10.1-15.3-19c-1.3-6.7-0.5-13.2,3.1-19.1
			c4.3-7.3,10.9-11.3,19.1-12.9c5.3-1.1,10.5-1,15.7,0.5c3.7,1.1,6.9,2.7,9.3,5.9c1.9,2.6,2.5,5.5,1.8,8.6c-1.2,4.9-5.5,6.7-9.7,6.5
			c-2.5-0.1-4.8-1.1-7-2.3c-0.6-0.3-0.8-0.7-0.8-1.4C181.7,28.8,181.7,26.9,181.7,25z"/>
	</g>
</g>
</svg>
