<?xml version="1.0" encoding="utf-8"?>
<!-- Generator: Adobe Illustrator 19.2.0, SVG Export Plug-In . SVG Version: 6.00 Build 0)  -->
<svg version="1.1" id="Слой_1" xmlns="http://www.w3.org/2000/svg" xmlns:xlink="http://www.w3.org/1999/xlink" x="0px" y="0px"
	 viewBox="0 0 200 100" style="enable-background:new 0 0 200 100;" xml:space="preserve">
<style type="text/css">
	.st0{fill:#155773;}
</style>
<path class="st0" d="M101.7,34.6c-1.3-0.6-2.3-1.6-3.4-2.4c-0.6-0.5-1.4-0.8-2.2-0.8c-1.2,0-2.2-0.1-3.2-0.9
	c-0.1-0.1-0.3-0.1-0.5-0.1c0.3,0.9,0.3,0.9-0.6,1.2c-0.7,0.3-1.5,0.6-2.2,1c0.3,0.1,0.7,0.1,0.2,0.5c-0.7,0.5-0.6,0.6-0.6,1.2
	c0.5,0,0.7-0.6,1.3-0.5c0.1,0.4-0.2,0.5-0.4,0.6c-2,1.8-4.3,3.2-6.5,4.8c-1.2,0.9-1.2,3.1,0.2,3.7c1.5,0.9,1.6,0.9,2.9-0.3
	c0.4-0.3,0.9-0.5,1.4-0.6c1.7-0.2,3.3,0.1,5.1-0.2c0.6-0.1,0.6,0.4,0.6,0.9c-0.1,1-0.5,2-1,2.8c-0.7,1.2-1.6,2.2-2.1,3.5
	c-0.9,1.8-1.2,3.9-1.2,5.9c0,0.7-0.2,0.8-0.9,0.8c-3.3,0-6.6,0-9.9,0c-0.6,0-0.8,0.2-1,0.7c-0.9,3.6-1.8,7.1-2.8,10.7
	c-1,3.6-2,7.2-2.9,10.8c-0.1,0.5-0.3,0.7-0.9,0.7c-5.9,0-11.9,0-17.8,0c-0.6,0-0.7-0.1-0.6-0.7c1.5-5.6,2.9-11.2,4.4-16.8
	c1.2-4.4,2.4-8.8,3.6-13.2c1.4-5.5,2.8-11,4.3-16.5c0.9-3.3,1.8-6.5,2.6-9.8c0.1-0.5,0.3-0.6,0.9-0.6c13.1,0,26.2,0,39.3,0
	c0.7,0,0.8,0.2,0.6,0.9c-1.2,4.4-2.4,8.8-3.5,13.1c-0.1,0.4-0.3,0.6-0.7,0.6c-0.9-0.1-1.8,0.2-2.7-0.5V35l0.1-0.1
	C102.1,34.8,101.8,34.7,101.7,34.6z"/>
<g>
	<path class="st0" d="M13.7,21h12.5c5.8,0,8.8,2.3,8.8,7c0,0.8-0.3,2.4-0.8,5l-2,8.5c-0.4,2-1.1,3.5-2.1,4.5c-1,1-1.8,1.7-2.7,1.9
		c-0.8,0.2-1.9,0.4-3.4,0.4c0.7,0.1,1.3,0.2,1.6,0.4c0.4,0.1,0.9,0.4,1.6,0.7c0.7,0.4,1.2,0.9,1.5,1.6c0.3,0.7,0.5,1.6,0.5,2.7
		c0,0.8-0.3,2.4-0.8,4.8l-2.9,12.4c-0.7,3-1.8,5.1-3.2,6.2c-1.4,1.1-3.7,1.7-6.7,1.7H0.2L13.7,21z M14.1,51.6L9.5,71.8h3.1
		c2.5,0,4.1-0.4,4.8-1.2c0.8-0.8,1.4-2.5,2-5.2l1.5-6.3c0.5-2.2,0.7-3.6,0.7-4.2c0-1.5-0.3-2.4-1-2.8c-0.7-0.4-2-0.6-3.8-0.6H14.1z
		 M19.7,27.7l-4.2,17.7h2.8c2.5,0,4.2-0.4,5.1-1.1s1.5-2.1,2-4.1l1.7-7.4c0.3-1.2,0.4-2,0.4-2.5c0-1.7-1.1-2.5-3.3-2.5H19.7z"/>
	<path class="st0" d="M60.5,21L59,27.7H48.1L44,45.4h10l-1.6,6.9h-9.9l-4.5,19.4h12.6l-1.6,7H28.6L41.9,21H60.5z"/>
</g>
<g>
	<path class="st0" d="M120,21l-13.4,57.6h-7.5L112.4,21H120z"/>
	<path class="st0" d="M123.6,21h12.5c0.7,0,1.4,0.1,2.1,0.2c0.7,0.1,1.6,0.4,2.7,0.8c1.1,0.4,2,1.2,2.6,2.2c0.7,1.1,1,2.4,1,4.1
		c0,1.3-0.2,2.7-0.7,4.5l-1.7,7.4c-0.8,3.5-1.8,5.9-2.9,7c-1.3,1.4-3.2,2-6,2c3.4,1.3,5.1,3.6,5.1,6.8c0,0.7-0.2,1.9-0.6,3.8
		l-1.2,5.3c-1.1,4.8-1.6,9.3-1.6,13.5h-7.7c0-3.8,0.5-8.1,1.5-12.9l0.9-4.3c0.5-2.7,0.8-4.3,0.8-4.8c0-1-0.2-1.8-0.5-2.4
		c-0.3-0.7-0.8-1.1-1.4-1.4c-0.6-0.3-1.2-0.5-1.7-0.5c-0.5-0.1-1.1-0.1-1.8-0.1h-1.1l-6.1,26.5h-7.5L123.6,21z M129.5,27.7
		l-4.2,17.9h1.4c3,0,5-0.4,6-1.1c1-0.7,1.8-2.5,2.4-5.4l1.1-4.9c0.4-1.7,0.6-3,0.6-3.8c0-1.3-0.4-2-1.2-2.3
		c-0.8-0.3-1.9-0.4-3.3-0.4H129.5z"/>
	<path class="st0" d="M167.1,40.2h-6.8l1.8-7.7c0.4-1.6,0.6-2.7,0.6-3.3c0-2-1-3-2.9-3c-1.1,0-1.9,0.3-2.4,1c-0.5,0.7-1,1.9-1.6,3.7
		c-0.9,3-1.3,5.4-1.3,7.1c0,0.7,0.1,1.3,0.3,2.1c0.2,0.7,0.4,1.3,0.6,1.7c0.2,0.4,0.5,1,1,1.9c0.5,0.9,0.8,1.4,0.9,1.6
		c0.3,0.4,0.7,1.1,1.2,2c0.5,0.9,0.9,1.6,1,1.9c0.2,0.3,0.4,0.8,0.8,1.6c0.4,0.7,0.6,1.2,0.7,1.5c0.1,0.3,0.3,0.7,0.5,1.2
		c0.2,0.5,0.4,1,0.4,1.3c0.1,0.3,0.1,0.7,0.2,1.2c0.1,0.5,0.2,0.9,0.2,1.3c0,0.4,0,0.9,0,1.3c0,2.1-0.4,5.1-1.3,9.1
		c-0.9,3.9-2.2,6.8-4,8.5c-2.2,2.1-5.1,3.2-8.5,3.2c-3.3,0-5.7-0.7-7.3-2.2c-1.6-1.5-2.4-3.6-2.4-6.2c0-1.3,0.3-3.1,0.8-5.5l1.7-7.7
		h6.8l-2,8.6c-0.4,1.9-0.6,3.1-0.6,3.5c0,2.3,1.1,3.5,3.3,3.5c1.7,0,3-1.1,3.7-3.3c0.4-1.2,0.9-3.1,1.3-5.5c0.5-2.4,0.7-4.2,0.7-5.4
		c0-1.1-0.2-2.1-0.6-3.1c-0.4-1-1.2-2.4-2.4-4.4c-0.2-0.3-0.5-0.9-1.1-1.8c-0.6-0.9-1-1.6-1.2-2c-0.2-0.4-0.5-1-1-1.8
		c-0.4-0.8-0.7-1.5-0.9-2.1c-0.2-0.5-0.3-1.2-0.5-2c-0.2-0.8-0.2-1.5-0.2-2.2c0-2.2,0.5-5.3,1.5-9.4c1.6-6.7,5.5-10.1,11.8-10.1
		c3.4,0,5.7,0.7,7.1,2.2c1.4,1.5,2.1,3.3,2.1,5.4c0,0.9-0.2,2.4-0.7,4.3L167.1,40.2z"/>
	<path class="st0" d="M200,21l-2,6.9h-8.4l-11.7,50.7h-7.8l11.7-50.7h-8.6l2.1-6.9H200z"/>
</g>
</svg>
