<?xml version="1.0" encoding="utf-8"?>
<!-- Generator: Adobe Illustrator 19.2.0, SVG Export Plug-In . SVG Version: 6.00 Build 0)  -->
<svg version="1.1" id="Слой_1" xmlns="http://www.w3.org/2000/svg" xmlns:xlink="http://www.w3.org/1999/xlink" x="0px" y="0px"
	 viewBox="0 0 200 100" style="enable-background:new 0 0 200 100;" xml:space="preserve">
<style type="text/css">
	.st0{fill:#015673;}
</style>
<g>
	<path class="st0" d="M26.5,51.8c-0.1-0.7-0.6-1.1-1.2-1.4l0,0c-0.1-0.4-0.4-0.6-0.8-0.6c-1.3-1.4-3.2-1.9-4.9-2.5
		c-0.5-0.2-1-0.5-1.6-0.6c-1.7-0.2-3.2-0.9-4.8-1.3c-1.1-0.3-2.2-0.7-3.2-1.3C10,44,10,43.8,9.9,43.7c-1.5-1.6-1.2-3.6,0.7-4.7
		c0.2-0.1,0.6-0.1,0.6-0.4c0.2,0,0.4,0,0.6,0c1.2,0,2.4,0,3.6,0c0.3,0,0.6-0.1,0.8,0c1,0.6,2.1,0.6,3.1,1.2c0.9,0.6,1.9,1,2.9,1.6
		c0.5,0.3,0.8,0.3,1.2-0.2c1.1-1.6,2.2-3.2,3.3-4.8c0.2-0.3,0.3-0.6-0.2-0.8c-2.4-2-5.2-3.2-8.2-3.8c-0.7-0.2-1.5-0.1-2.2-0.3
		c-1.6-0.4-3.2-0.3-4.8,0.1c-0.5-0.1-1,0.1-1.5,0.3c-2,0.5-3.9,1.3-5.4,2.9c-0.2,0-0.3,0.1-0.3,0.3c-0.2,0-0.3,0.1-0.3,0.3l0,0
		c-0.2,0-0.3,0.1-0.3,0.3c-2.3,2.7-2.8,5.8-2,9.2c-0.3,0.8,0.3,1.3,0.6,1.9c0.4,0.9,0.9,1.9,1.7,2.5c1.2,0.8,2.4,1.8,3.8,2.2
		c1.5,0.5,2.9,1.2,4.5,1.4c0,0.2,0.1,0.3,0.3,0.3c0.7-0.1,1.3,0.3,2,0.4c0.6,0.1,1.1,0.5,1.7,0.5c0.2,0.4,0.6,0.5,0.9,0.5
		c0.8-0.1,1.3,0.5,1.9,0.8c0.8,0.4,1.2,1.2,1.3,2.2c0,0.7-0.4,1.2-0.3,1.9c-0.7,0.5-1.2,1.1-2,1.4c-0.5-0.1-0.9,0.3-1.3,0.3
		c-1.5,0-3,0.1-4.5-0.3c-2.2-0.6-4.2-1.4-6-2.8c-0.4-0.3-0.7-0.6-1.1-0.8c-0.3-0.2-0.6-0.3-0.8,0.2c-1.2,1.3-2.4,2.7-3.5,4
		c-0.7,0.9-0.7,1.1,0.3,1.8c0.2,0.1,0.3,0.3,0.4,0.4c0.8,0.5,1.5,1.3,2.5,1.5c0.2,0.6,0.7,0.6,1.2,0.6c0,0.2,0.1,0.3,0.3,0.3
		c0.1,0,0.2,0,0.3,0c0.1,0.3,0.4,0.3,0.6,0.3l0,0c0.7,0.4,1.4,0.9,2.3,0.8c1,0.3,2,0.5,3,0.7c0.9,0.1,1.8,0.2,2.7,0.2
		c0.5,0,0.9,0.5,1.4,0.2c0.6-0.3,1.1-0.2,1.7-0.2c0.6,0.1,1.2-0.4,1.8-0.3c1,0.1,1.7-0.7,2.7-0.7c1.7-1,3.4-1.9,4.5-3.6
		c1-1.6,1.9-3.2,1.9-5.2c0-0.9,0-1.7,0-2.6C27.9,54.4,27.4,53,26.5,51.8z"/>
	<path class="st0" d="M60.7,32.6c0,0-0.1,0-0.1,0c-8.2,0-16.4,0-24.6,0c-0.3,0-0.6,0-0.9,0c-0.2,0-0.4,0.1-0.4,0.3c0,0.3,0,0.7,0,1
		c0,10.9,0,21.7,0,32.6c0,0.4,0,0.9,0,1.3c0,0.2,0.1,0.4,0.3,0.4c0.1,0.1,0.1,0.2,0.2,0.2c2.3,0,4.6,0,6.9,0c0.5,0,0.8-0.3,0.7-0.8
		c0-0.3,0-0.6,0-0.9c0-3.6,0-7.2,0-10.7c0-0.3,0-0.7,0-1c0-0.2,0.1-0.4,0.3-0.4c1.1,0.1,2.1-0.3,3.2-0.3c4.2,0.1,8.4,0,12.6,0
		c0.8,0,0.8,0,0.8-0.8c0-1.9,0-3.7,0-5.6c0-0.2,0.1-0.5-0.3-0.6c-0.1-0.5-0.6-0.3-0.8-0.3c-5,0-10,0-14.9,0c-1.1,0-1.2-0.1-1.2-1.1
		c0-1.7,0-3.4,0-5.2c0-0.9,0.3-1.2,1.2-1.2c3.4,0.1,6.9,0,10.3,0c2.3,0,4.6,0,6.9,0c0.9,0,1-0.1,1.1-1.1c0-1.6,0-3.2,0-4.7
		C62.1,32.6,62,32.6,60.7,32.6z"/>
	<path class="st0" d="M109.2,32.9c0-0.3-0.2-0.5-0.5-0.6c-0.3,0-0.5,0.3-0.6,0.5c-0.1,0.2,0,0.5,0,0.7c0,11.2,0,22.5,0,33.7
		c0,0.3,0,0.6,0.1,0.8c0.1,0.3,0.4,0.5,0.8,0.4c0.3-0.1,0.2-0.4,0.2-0.6c0-0.3,0-0.6,0-0.9c0-5.5,0-11,0-16.5c0-5.5,0-11.1,0-16.6
		C109.2,33.6,109.2,33.2,109.2,32.9z"/>
	<path class="st0" d="M99.1,65.4c-0.3-0.6-0.2-1.5-1-1.9c0-0.3,0-0.6-0.2-0.9c-0.4-0.6-0.4-1.3-0.9-1.8c-0.1-1.4-1.1-2.5-1.5-3.8
		c-0.4-1.2-0.9-2.3-1.4-3.4c0.1-0.5,0-1-0.5-1.2c-0.1-0.7-0.8-1.2-0.7-1.9c-0.9-1.2-1.2-2.7-1.8-4c-0.5-0.9-0.8-2-1.2-2.9
		c-0.5-1-0.9-2-1.3-3c-0.9-2.4-2-4.7-3-7.1c-0.3-0.6-0.5-1.1-1.2-1.1c-2.1,0-4.1,0-6.2,0c-0.2,0-0.4,0.1-0.4,0.3l0,0
		c-0.4,0-0.3,0.3-0.3,0.5c-0.1,0-0.2,0.1-0.2,0.1c-1,2.4-1.9,4.9-3,7.3c-1.5,3.2-2.7,6.6-4.2,9.8c-1.4,3.1-2.7,6.3-4,9.4
		c-0.8,1.9-1.7,3.8-2.4,5.8c-0.5,0.6-0.6,1.3-0.9,1.9c-0.3,0.6-0.3,0.7,0.3,0.7c2.2,0,4.3,0,6.5,0c0.3,0,0.8,0.2,0.9-0.1
		c0.2-0.4,0.6-0.6,0.7-1.1c0.5-2,1.6-3.8,2.2-5.8c0.2-0.6,0.6-0.8,1.3-0.8c4.8,0,9.6,0,14.3,0c0,0.5,0.2,0.9,0.6,1.2
		c0,0.1,0,0.2,0,0.3c0,0.5,0.2,0.9,0.6,1.2c0,0.1,0,0.2,0,0.3c0,0.5,0.1,0.9,0.5,1.2c0.2,0.7,0.4,1.3,0.6,2c0.1,0.3,0.1,0.7,0.6,0.9
		c0,0.7,0.4,1.1,1.1,1.1c2.1,0,4.2,0,6.3,0c0.9,0,1-0.3,0.7-1.3C99.5,66.6,99.3,66,99.1,65.4z M80.6,43C80.6,43,80.6,43,80.6,43
		c0-0.1,0-0.1,0.1-0.1c0,0,0-0.1,0-0.1c0.1,0,0.1-0.1,0.1-0.2c0,0,0,0,0,0c0-0.1,0.1-0.2,0.1-0.2c0.1-0.1,0.2-0.1,0.4-0.1
		c0,0,0.1,0,0.1,0c0.2,0.1,0.2,0.2,0.2,0.4c0,0,0,0,0,0c0,0.2,0,0.3,0.2,0.4c0,0,0,0,0,0c0,0,0,0,0,0.1c0,0,0,0,0,0
		c0,0.1,0.1,0.1,0.1,0.2c0.2,0.9,0.6,1.7,1,2.6c0.6,1.6,1.3,3.2,1.9,4.8c0.1,0.3,0.3,0.6,0.5,0.9c0,0,0,0,0,0c0,0,0,0,0,0
		c0,0.1,0,0.2,0,0.3c0,0.2,0.1,0.3,0.2,0.3c-0.1,0.9-0.1,0.9-0.7,0.9c-2.5,0-5.1,0-7.6,0c-0.6,0-0.8-0.3-0.6-0.9
		c0.2-0.6,0.6-1.2,0.8-1.9c0.5-1.3,0.9-2.6,1.5-3.8c0.5-0.9,0.6-2,1.3-2.9c0.1-0.2,0.1-0.4,0.1-0.6C80.5,43.1,80.5,43.1,80.6,43z"/>
	<path class="st0" d="M137.7,38.7c0,0,0,0.1,0.1,0.1c0.9,1.1,1.6,2.4,3.2,2.8c0.7,0.2,1.3,0.1,2,0.2c1.5,0.1,2.5-0.6,3.4-1.7
		c0.5-0.6,0.9-1.3,0.8-2.2c0-0.4-0.2-0.7-0.7-0.8c-0.9,0-1.8,0-2.7,0c-0.4,0-0.4,0.4-0.3,0.6c0.1,0.3,0.4,0.5,0.8,0.5
		c0.4,0,0.9,0,1.3,0c0.2,0,0.4,0,0.5,0.2c0.1,0.2,0.1,0.5-0.1,0.7c-0.7,0.6-1.2,1.3-2.3,1.6c-1.1,0.2-2,0.1-2.9-0.4
		c-0.9-0.5-1.9-1.1-1.9-2.4c-0.6-0.9-0.1-1.7,0.2-2.5c0.4-0.8,0.9-1.5,1.9-1.7c1.5-0.4,2.9-0.4,4.3,0.5c0.2,0.2,0.4,0.4,0.7,0.4
		c0.2,0,0.5,0.1,0.6-0.2c0.1-0.2-0.1-0.3-0.2-0.5c-0.4-0.7-1.2-0.8-1.9-1.2c-0.5-0.3-1.2-0.1-1.8-0.2c-0.7,0-1.4,0-2,0.2
		c-1.2,0.4-2.1,1.2-2.7,2.4C137.4,36.2,137.7,37.5,137.7,38.7z"/>
	<path class="st0" d="M128.8,41.3c0,0.2,0.3,0.2,0.5,0.1c0.2,0,0.3-0.1,0.3-0.4c0-0.3,0-0.6,0-0.9c0-1.5,0-3,0-4.4
		c0-0.1,0.1-0.3,0.2-0.3c0.1,0,0.3,0,0.4,0.1c0.5,0.5,1,1,1.5,1.6c1.2,1.4,2.3,2.8,3.7,4.1c0.3,0.3,0.4,0,0.5-0.1
		c0.2-0.2,0.1-0.5,0.1-0.8c0-1.1,0-2.1,0-3.2c0,0,0,0,0,0c0-1.3,0-2.6,0-3.9c0-0.4-0.2-0.7-0.7-0.7c-0.6,0-0.4,0.4-0.4,0.7
		c0,1.7,0,3.3,0,5c0,0.2,0.1,0.5-0.2,0.6c-0.2,0.1-0.4-0.1-0.5-0.3c-0.6-1.2-1.8-1.9-2.5-3c-0.6-0.9-1.6-1.5-2.2-2.4
		c-0.1-0.1-0.4-0.3-0.6-0.2c-0.2,0.1-0.4,0.3-0.3,0.6c0.3,0.5,0,1.1,0,1.6c0,1.8,0,3.5,0,5.3C128.4,40.8,128.7,41,128.8,41.3z"/>
	<path class="st0" d="M168.7,41.7c1.8,0.3,3.6,0,4.9-1.5c1-1.2,1.4-2.6,1-4.2c-0.3-1.2-1.1-2-1.9-2.7c-0.8-0.7-1.7-0.9-2.7-0.7
		c-1.3-0.2-2.4,0.1-3.3,1c-1,0.9-1.5,2-1.5,3.5c0,0.9,0,1.8,0.6,2.5C166.6,40.6,167.5,41.5,168.7,41.7z M170.1,33.4
		c2.1,0.1,3.5,1.5,3.5,3.9c0.4,1.9-2.2,3.7-3.7,3.6c-2.2-0.1-3.8-1.7-3.8-3.9C166.2,35.1,167.8,33.3,170.1,33.4z"/>
	<path class="st0" d="M145.1,59.3c-0.5,0-1.1-0.1-1.6,0.1c-2.9,1.2-4.4,4.1-2.6,7c1.3,2.1,3.7,2.7,6.2,1.6c0.6-0.3,0.9-0.8,1.4-1.1
		c1.5-1,1.4-3.6,0.8-5C148.6,60.1,147.2,59.2,145.1,59.3z M144.9,67.6c-0.9,0.1-1.7-0.3-2.4-1c-0.7-0.8-1.3-1.6-1.1-2.7
		c-0.2-1.1,0.3-1.9,1-2.6c0.7-0.7,1.6-1.1,2.6-1.1c2.1-0.1,3.8,1.7,3.8,3.7C148.8,66.1,147.3,67.5,144.9,67.6z"/>
	<path class="st0" d="M186.5,59.3c-2.2-0.3-4.1,1.2-4.8,3.6c-0.5,1.8,0.5,3.9,2.3,5c1,0.6,2,0.6,3,0.5c1.4,0,3.4-1.4,3.8-2.7
		c0.5-1.4,0.5-2.8-0.1-4.1C189.9,60,188.4,59.1,186.5,59.3z M186.2,67.6c-0.9,0-1.7-0.3-2.4-1c-0.7-0.8-1.3-1.6-1.1-2.6
		c0-2.2,1.6-3.7,3.7-3.8c2-0.1,3.8,1.8,3.7,3.7C190.1,66,188.7,67.5,186.2,67.6z"/>
	<path class="st0" d="M181.8,41.4c0.2-0.4,0-0.7-0.3-1c-0.8-0.7-1.2-1.7-2-2.4c-0.3-0.3-0.2-0.5,0.2-0.6c0.1,0,0.3,0,0.4,0
		c0.9-0.3,1.8-0.9,2-1.8c0.5-1.8-1.1-3-2.5-3.1c-0.7,0-1.4,0-2.2,0c-1,0-1.1,0.1-1.1,1c0,1.2,0,2.4,0,3.6c0,0,0,0,0,0
		c0,1.3,0,2.6,0,3.9c0,0.3,0.4,0.6,0.7,0.4c0.2-0.2,0.4-0.3,0.4-0.7c0-0.6,0-1.2,0-1.7c0-0.4-0.3-1.1,0.2-1.3c0.5-0.1,0.7,0.5,1,0.8
		c0.7,0.8,1.2,1.6,1.9,2.4C181.2,41.6,181.7,41.7,181.8,41.4z M177.6,35.1c0-0.2,0-0.5,0-0.7c0-0.5,0.1-0.7,0.6-0.7
		c0.6,0,1.1,0,1.7,0c0.6,0,0.9,0.4,1.1,0.8c0.2,0.4,0.2,1-0.2,1.4c-0.4,0.5-0.9,0.7-1.6,0.7C177.6,36.6,177.6,36.6,177.6,35.1z"/>
	<path class="st0" d="M134.2,54.5c0.1,0.1,0.2,0.2,0.4,0.2c0.3-0.1,0.2-0.3,0.2-0.4c0-1.3,0-2.6,0-3.9c0,0,0,0,0,0
		c0-1.2,0-2.5,0-3.7c0-0.4-0.1-0.6-0.6-0.6c-0.4,0-0.6,0.1-0.6,0.6c0,1.8,0,3.5,0,5.3c0,0.1-0.1,0.3-0.1,0.4
		c-0.1-0.1-0.2-0.1-0.3-0.2c-0.8-0.6-1.2-1.5-1.8-2.1c-0.7-0.7-1.4-1.4-2-2.2c-0.3-0.5-0.8-0.9-1.3-1.3c-0.2-0.2-0.4-0.1-0.5,0.2
		c0,0.1,0,0.3,0,0.4c0,2.3,0,4.7,0,7c0,0.3-0.2,0.8,0.4,0.9c0.7,0,0.5-0.6,0.5-0.9c0-1.6,0-3.2,0-4.9c0-0.2,0-0.4,0.2-0.5
		c0.2-0.1,0.4,0.1,0.5,0.2c0.5,0.6,1,1.3,1.6,1.8c0.5,0.5,1,0.9,1.4,1.4C132.6,53.1,133.5,53.7,134.2,54.5z"/>
	<path class="st0" d="M200,59.8c0-0.2,0-0.5-0.3-0.5c-0.3,0-0.5,0-0.5,0.4c0,1.4,0,2.8,0,4.2c0,0.6,0.2,1.1-0.1,1.7
		c-0.8-0.1-1-0.8-1.5-1.2c0,0-0.1-0.1-0.1-0.1c-1.2-1.6-2.5-3.1-3.9-4.5c-0.1-0.1-0.3-0.3-0.5-0.2c-0.2,0.1-0.2,0.3-0.2,0.5
		c0,2.5,0,5,0,7.5c0,0.5,0.1,0.7,0.6,0.7c0.6,0,0.5-0.4,0.5-0.8c0-1.3,0-2.6,0-3.9c0-0.5-0.3-1.2,0.3-1.4c0.5-0.1,0.8,0.6,1.1,1
		c1.4,1.6,2.7,3.3,4.2,4.8c0.1,0.1,0.2,0.1,0.3,0.2c0-0.1,0.1-0.3,0.1-0.4c0-1.3,0-2.6,0-3.9C200,62.5,200,61.2,200,59.8z"/>
	<path class="st0" d="M183.9,40.4c0,0.9,0.3,1.1,1.2,1.2c1,0,2.1,0,3.2,0c0.3,0,0.6,0.1,0.8-0.1c0.1-0.1,0.3-0.2,0.3-0.5
		c0-0.3-0.2-0.3-0.4-0.3c-0.5,0-1,0-1.4,0c-0.8-0.1-1.6,0.2-2.4-0.1c0-0.8-0.1-1.6-0.1-2.4c0-0.7,0.2-0.9,1-0.9c1,0,1.9,0,2.9,0
		c0.2,0,0.4,0,0.4-0.2c0.1-0.3-0.2-0.4-0.4-0.6c-0.2-0.2-0.5-0.1-0.7-0.1c-0.8,0-1.6,0-2.4,0c-0.3,0-0.6-0.1-0.7-0.4
		c-0.2-0.7-0.2-1.4,0-2.1c0.1-0.4,0.8-0.1,1.2-0.1c0.5,0,1,0,1.6,0c0.3,0,0.6,0,0.9,0c0.3-0.1,0.5-0.2,0.5-0.6
		c0-0.3-0.3-0.5-0.6-0.6c-0.2,0-0.5,0-0.7,0c-1,0-1.9,0-2.9,0c-0.9,0-0.9,0-1.2,0.9c-0.1,0.3-0.1,0.6-0.1,0.8c0,1,0,1.9,0,2.9
		C183.9,38.3,183.9,39.3,183.9,40.4z"/>
	<path class="st0" d="M153.1,45.8c-1.4,0.1-2.5,0.7-3.4,1.6c-0.9,0.8-1.2,1.9-1.1,3c0,0.1,0,0.2,0,0.3c-0.3,2,2.1,4.6,4.6,4.5
		c1.3,0,2.6-0.3,3.6-1.3c0.2-0.2,0.7-0.2,0.4-0.7c-0.3-0.4-0.6-0.3-1-0.1c-0.2,0.1-0.4,0.4-0.7,0.5c-1.2,0.6-2.6,0.7-3.8,0.2
		c-1.6-0.7-3.1-2.9-1.6-5.3c0.6-0.9,1.4-1.5,2.4-1.8c0.8-0.2,1.6-0.1,2.4,0.3c0.6,0.3,1.1,0.5,1.5,1c0.2,0.2,0.6,0.2,0.7-0.1
		c0.1-0.2,0.1-0.5-0.1-0.6C155.9,46.3,154.7,45.7,153.1,45.8z"/>
	<path class="st0" d="M164.2,50.8c0.3,0.8,0.1,1.6,0.1,2.4c0,0.5,0,1,0.1,1.4c0,0.2,0.2,0.4,0.5,0.4c0.3,0,0.4-0.2,0.5-0.4
		c0.1-0.2,0-0.4,0-0.6c0-0.5,0-1,0-1.4c0-2,0-3.9,0-5.9c0-0.2,0.1-0.5-0.3-0.6c-0.4-0.1-0.7,0.1-0.8,0.4c-0.1,0.2,0,0.4,0,0.6
		c0,0.6,0,1.2,0,1.9c0,0.6-0.2,0.8-0.9,0.8c-0.8,0-1.5,0-2.3,0c-1.1,0-1.2-0.1-1.2-1.2c0-0.7,0-1.3,0-2c0-0.2-0.2-0.4-0.5-0.4
		c-0.3,0-0.3,0.2-0.3,0.5c0,1.3,0,2.6,0,3.9c0,0.7,0,1.3,0,2c0,0.7,0,1.4,0,2.2c0,0.2,0.1,0.3,0.2,0.3c0.1,0,0.3,0,0.4-0.1
		c0.2-0.1,0.3-0.3,0.3-0.6c0-0.5,0-1.1,0-1.6c0-0.6-0.3-1.4,0.1-1.8c0.4-0.4,1.2-0.1,1.8-0.2C162.7,50.7,163.5,50.7,164.2,50.8z"/>
	<path class="st0" d="M158.5,66.9c-0.8,0.6-1.7,0.8-2.6,0.8c-2.9-0.2-4.3-2.6-3.4-5.1c0.8-2.3,3.9-3.2,6-1.6
		c0.2,0.2,0.4,0.4,0.7,0.4c0.2,0,0.5,0.1,0.6-0.2c0.1-0.2-0.1-0.3-0.2-0.5c-1.3-1.8-4.9-1.8-6.4-0.6c-1.9,1.5-2.3,2.8-1.7,5.2
		c0.1,0.3-0.1,0.7,0.2,0.9c1.2,1.3,2.4,2.6,4.2,2.3c1.7,0,2.2-0.1,3.2-0.9c0.3-0.2,1.1-0.4,0.6-1C159.3,66.1,158.8,66.6,158.5,66.9z
		"/>
	<path class="st0" d="M158,38.9c0,0.7,0,1.3,0,2c0,0.3,0,0.6,0.4,0.6c0.4,0,0.6-0.2,0.7-0.4c0.1-0.2,0.1-0.5,0.1-0.7
		c0-0.8,0-1.6,0-2.4c0-0.4,0.1-0.5,0.5-0.5c0.8,0,1.7,0.1,2.5-0.3c0.7-0.3,1.3-0.8,1.6-1.5c0.4-1.4-0.8-3-2.3-3.1
		c-0.9,0-1.7,0-2.6,0c-0.7,0-0.8,0.2-0.8,0.9c0,1.2,0,2.4,0,3.6C158,37.7,158,38.3,158,38.9z M159.2,35.7c0-0.2,0-0.5,0-0.7
		c0-1.3,0-1.3,1.4-1.3c0.3,0,0.6,0,0.9,0c0.6-0.1,1,0.4,1.2,0.8c0.2,0.4,0.2,1-0.3,1.4c-0.4,0.4-0.8,0.8-1.5,0.7
		c-0.3-0.1-0.6,0-0.8,0C159.2,36.6,159.2,36.6,159.2,35.7z"/>
	<path class="st0" d="M169.6,62.1c-0.3-0.7-0.7-1.4-1-2.1c-0.2-0.4-0.5-0.4-0.8,0c-1.3,2.6-2.6,5.3-3.9,7.9c-0.1,0.3,0,0.3,0.4,0.3
		c0.3,0.1,0.7-0.1,0.9-0.6c0.2-0.5,0.5-0.9,0.6-1.4c0.2-0.7,0.6-1,1.4-1c0.6,0,1.2,0.1,1.7,0c0.7-0.1,1.2,0.2,1.5,0.8
		c0.2,0.4,0.7,0.6,0.6,1.2c0,0.2,0.4,0.5,0.6,0.7c0.2,0.2,0.5,0.1,0.7,0c0.2-0.1,0.1-0.3,0-0.5C171.4,65.8,170.5,63.9,169.6,62.1z
		 M169.4,64.3c-0.3,0.4-0.9,0.1-1.3,0.1c-0.3,0-0.6,0-0.8,0c-0.2,0-0.3-0.2-0.3-0.5c0.2-0.4,0.4-0.9,0.6-1.4
		c0.2-0.3,0.2-0.9,0.6-0.9c0.3,0,0.5,0.5,0.7,0.9c0.1,0.1,0,0.4,0.1,0.5C169.2,63.5,169.8,63.8,169.4,64.3z"/>
	<path class="st0" d="M148.8,41.5c0.3-0.1,0.5-0.3,0.6-0.5c0.1-0.5,0.5-0.9,0.6-1.4c0.2-0.8,0.5-0.9,1.3-1c0.6,0,1.1,0,1.7,0
		c0.8,0,1.5-0.1,1.6,1c0,0.3,0.4,0.6,0.5,1.1c0.1,0.3,0.4,0.6,0.8,0.8c0.3,0.1,0.6-0.1,0.6-0.5c0,0,0-0.2-0.1-0.3
		c-1.2-1.7-1.7-3.7-2.7-5.4c-0.3-0.6-0.7-1.2-0.9-1.9c-0.1-0.2-0.3-0.5-0.6-0.5c-0.4,0-0.2,0.4-0.3,0.6c-0.2,0.4-0.5,0.7-0.7,1.1
		c-0.9,1.9-1.8,3.7-2.7,5.6c-0.1,0.3-0.3,0.6-0.4,0.9C148.2,41.4,148.5,41.6,148.8,41.5z M151.5,36.4c0,0,0.1-0.1,0.1-0.1
		c0.3-0.5,0.4-1.3,0.9-1.3c0.5,0,0.7,0.8,0.7,1.3c0,0,0,0.1,0,0.1c0.2,0.3,0.8,0.6,0.5,1.1c-0.3,0.5-0.9,0.1-1.2,0.2
		C150.9,37.7,150.9,37.7,151.5,36.4z"/>
	<path class="st0" d="M125.1,64.7c-0.7-1.6-1.4-3.2-2.1-4.8c-0.2-0.4-0.5-0.5-0.9-0.2c-0.1,0.1-0.2,0.2-0.3,0.3
		c-0.3,1.3-1,2.5-1.6,3.7c-0.6,1.2-1,2.6-1.8,3.7c-0.2,0.2-0.2,0.6,0.1,0.7c0.2,0.1,0.6,0.1,0.8-0.2c0.2-0.4,0.4-0.7,0.5-1.1
		c0.5-1.4,0.7-1.5,2.1-1.5c0.5,0,1,0.1,1.4,0c0.7-0.1,1,0.2,1.3,0.7c0.1,0.1,0.3,0.3,0.2,0.3c-0.2,0.7,0.7,0.9,0.6,1.5
		c0,0.4,0.5,0.3,0.8,0.3c0.1,0,0.3-0.1,0.3-0.3c0-0.1,0-0.2-0.1-0.3C126.1,66.7,125.6,65.7,125.1,64.7z M123.3,64.5
		c-0.2,0-0.5,0-0.7,0c-1.5,0-1.6,0-0.9-1.4c0.2-0.3,0-0.8,0.4-1c0.3-0.2,0.8-0.2,0.8,0c0,0.7,0.7,1.1,0.8,1.8
		C123.8,64.5,123.9,64.4,123.3,64.5z"/>
	<path class="st0" d="M142.8,46.1c-0.4,0-0.6,0.2-0.6,0.6c0,1.2,0,2.4,0,3.6c0,1.3,0,2.6,0,3.9c0,0.4,0.1,0.8,0.4,0.8
		c1.5,0.1,2.9,0.2,4.4,0c0.2,0,0.4-0.3,0.3-0.5c-0.1-0.2-0.3-0.2-0.5-0.2c-1,0-2,0-3,0c-0.4,0-0.8-0.2-0.8-0.5
		c-0.1-0.9-0.1-1.9,0-2.8c0.6-0.3,1.3-0.1,2-0.1c0.3,0,0.7,0,1,0c0.3,0,0.6,0,0.8-0.1c0.2-0.1,0.4-0.2,0.4-0.5
		c0-0.3-0.2-0.4-0.4-0.5c-0.2-0.1-0.4,0-0.6,0c-0.6,0-1.1,0-1.7,0c-1.9,0-1.5,0.4-1.6-1.7c0-0.7,0.2-0.9,1-0.9c1,0,1.9,0,2.9,0
		c0.4,0,0.5-0.2,0.5-0.5c0-0.3-0.2-0.4-0.5-0.4C145.5,46.1,144.2,46.1,142.8,46.1z"/>
	<path class="st0" d="M119.9,41.4c1,0.7,2.8,0.5,3.5-0.5c0.7-1,0.7-2.7-0.5-3.5c-0.7-0.4-1.1-1.1-1.9-1.4c-0.4-0.2-0.6-0.6-0.8-1
		c-0.2-0.4-0.2-0.7,0.1-1c0.5-0.5,0.8-0.6,1.5-0.3c0.3,0.1,0.6,0.3,0.8,0.5c0.2,0.2,0.5,0.3,0.8,0.1c0.3-0.3,0.1-0.6-0.1-0.9
		c-0.5-0.6-1.1-0.9-1.8-0.8c-0.3,0-0.6,0-0.8,0c-0.5,0-1.3,0.7-1.5,1.2c-0.3,0.9,0.1,2.3,1,2.8c0.9,0.6,1.6,1.4,2.3,2.1
		c0.5,0.5,0.6,1,0.3,1.5c-0.5,0.6-1.2,0.9-1.8,0.7c-0.6-0.2-1-0.7-1.4-1.1c-0.2-0.2-0.4-0.2-0.6,0c-0.2,0.2-0.4,0.4-0.1,0.7
		C119.2,40.7,119.5,41.1,119.9,41.4z"/>
	<path class="st0" d="M131.7,64.2c-0.7-0.4-1.1-1.1-1.9-1.5c-0.3-0.2-0.6-0.5-0.8-0.8c-0.3-0.5-0.3-1,0.2-1.5
		c0.4-0.4,0.8-0.3,1.3-0.1c0.4,0.1,0.6,0.4,0.9,0.6c0.2,0.2,0.5,0.2,0.6,0c0.2-0.2,0.2-0.5,0-0.8c-0.5-0.7-1.2-1.1-2-0.9
		c-1.4,0-1.7,0.2-2.1,1.2c-0.4,1-0.1,2.2,1,2.8c0.9,0.6,1.6,1.5,2.4,2.2c0.3,0.3,0.3,0.6,0.2,0.9c-0.2,0.9-1.7,1.5-2.5,0.9
		c-0.4-0.3-0.7-0.7-1-1c-0.2-0.2-0.4-0.1-0.5,0.1c-0.2,0.2-0.4,0.3-0.2,0.6c0.7,0.8,1.4,1.7,2.7,1.6c1.1-0.1,1.9-0.5,2.3-1.5
		C132.7,66.2,132.4,64.7,131.7,64.2z"/>
	<path class="st0" d="M138,64.3c-0.4-0.3-0.6-0.8-1.1-1c-0.6-0.3-1-0.8-1.5-1.3c-0.5-0.4-0.5-1-0.2-1.4c0.4-0.5,0.9-0.7,1.5-0.4
		c0.3,0.1,0.7,0.3,0.9,0.6c0.3,0.3,0.5,0.1,0.7-0.2c0.2-0.2,0.2-0.4,0-0.6c-0.3-0.3-0.7-0.5-1-0.7c-0.5-0.3-2-0.1-2.4,0.2
		c-1,0.8-1,2.3-0.1,3.2c0.3,0.3,0.6,0.8,1,1c0.6,0.3,1,0.8,1.5,1.3c0.5,0.4,0.5,1.2,0.2,1.7c-0.6,0.8-1.1,1-1.9,0.6
		c-0.6-0.2-0.9-0.7-1.3-1.1c-0.3-0.3-0.4,0-0.5,0.2c-0.2,0.3-0.2,0.6,0.1,0.8c0.7,0.7,1.4,1.3,2.4,1.2c1.1,0,2.3-0.7,2.5-1.6
		C139,65.9,138.9,65,138,64.3z"/>
	<path class="st0" d="M118.9,55c0.3,0.1,0.6-0.3,0.6-0.8c0-0.5,0-1.1,0-1.6c0-0.6-0.3-1.4,0.1-1.8c0.4-0.4,1.2-0.1,1.8-0.1
		c0.4,0,0.9,0,1.3,0c0.3,0,0.5-0.3,0.5-0.6c0-0.2-0.3-0.4-0.5-0.5c-0.2-0.1-0.5,0-0.7,0c-0.7,0-1.3,0-2,0c-0.3,0-0.5-0.1-0.5-0.5
		c0-0.5,0-1,0-1.4c0-0.4,0.3-0.7,0.7-0.7c0.6,0,1.1,0,1.7,0c0.3,0,0.7,0.1,1-0.1c0.1-0.1,0.3-0.2,0.3-0.3c0-0.1-0.2-0.2-0.3-0.3
		c-0.2-0.2-0.4-0.1-0.7-0.1c-1,0-1.9,0-2.9,0c-0.8,0-1,0.2-1,1c0,1.1,0,2.3,0,3.4c0,1.2,0,2.5,0,3.7C118.4,54.6,118.6,54.9,118.9,55
		z"/>
	<path class="st0" d="M177.7,59.3c-0.1-0.1-0.3,0-0.4,0c-1.2,0-2.5,0-3.7,0c-0.4,0-0.6,0.2-0.6,0.6c0,0.4,0.2,0.6,0.6,0.6
		c0.3,0,0.6,0,0.9,0c0.4,0,0.6,0.1,0.6,0.6c0,1.1,0,2.2,0,3.3c0,1.1,0,2.3,0,3.4c0,0.2,0,0.4,0.2,0.5c0.2,0.1,0.5,0.1,0.7-0.1
		c0.3-0.3,0.3-0.6,0.3-0.9c0-1.9,0-3.8,0-5.7c0-0.9,0-0.9,0.9-1c0.2,0,0.5,0,0.7-0.1c0.2-0.1,0.4-0.2,0.4-0.5
		C178.1,59.6,177.9,59.5,177.7,59.3z"/>
	<path class="st0" d="M140.4,46.9c0.3,0,0.4-0.2,0.4-0.5c0-0.2-0.1-0.4-0.3-0.4c-0.3,0-0.6,0-0.9,0c-1.1,0-2.2,0-3.3,0
		c-0.3,0-0.4,0.1-0.4,0.4c0,0.3,0.1,0.5,0.4,0.4c0.2,0,0.4,0,0.6,0c0.9,0,1,0.1,1,1.1c0,1,0,1.9,0,2.9c0,0,0,0,0,0
		c0,1.1,0,2.1,0,3.2c0,0.4,0.1,0.6,0.4,0.8c0.2,0.1,0.4,0,0.4-0.2c0.1-0.3,0-0.6,0-0.9c0-1.8,0-3.5,0-5.3c0-1.3-0.2-1.7,1.5-1.6
		C140.4,47,140.4,46.9,140.4,46.9z"/>
	<path class="st0" d="M124.4,51.5c0,0.9,0,1.8,0,2.7c0,0.4,0.2,0.7,0.6,0.7c0.4,0,0.6-0.3,0.6-0.7c0-0.2,0-0.5,0-0.7
		c0-1.1,0-2.1,0-3.2c0-1.2,0-2.5,0-3.7c0-0.2,0.1-0.5-0.3-0.6c-0.4-0.1-0.7,0.1-0.8,0.4c-0.1,0.2,0,0.5,0,0.7
		C124.4,48.7,124.4,50.1,124.4,51.5z"/>
	<path class="st0" d="M162.5,59.6c-0.1-0.1-0.2-0.3-0.5-0.3c-0.3,0-0.3,0.2-0.3,0.4c0,2.7,0,5.3,0,8c0,0.3,0.1,0.4,0.4,0.5
		c0.4,0,0.5-0.1,0.5-0.5c0-1.2,0-2.5,0-3.7c0-1.2,0-2.4,0-3.6C162.6,60.1,162.7,59.8,162.5,59.6z"/>
	<path class="st0" d="M126.2,32.6c-0.3,0-0.7,0-0.7,0.5c0,2.6,0,5.3,0,7.9c0,0.4,0.2,0.6,0.5,0.8c0.2,0.1,0.4,0,0.4-0.3l0,0
		c0.2,0,0.3-0.1,0.3-0.2c0-2.7,0-5.5,0-8.2C126.7,32.7,126.6,32.6,126.2,32.6z"/>
	<path class="st0" d="M180.2,59.6c0-0.2-0.1-0.3-0.4-0.3c-0.6-0.1-0.8,0-0.8,0.6c0,2.6,0,5.3,0,7.9c0,0.2,0.1,0.4,0.3,0.4
		c0.2,0.4,0.4,0.4,0.6,0c0.2,0,0.3-0.2,0.3-0.4c0-2.6,0-5.3,0-7.9C180.2,59.8,180.2,59.7,180.2,59.6z"/>
</g>
</svg>
