<?xml version="1.0" encoding="utf-8"?>
<!-- Generator: Adobe Illustrator 19.2.0, SVG Export Plug-In . SVG Version: 6.00 Build 0)  -->
<svg version="1.1" id="Слой_1" xmlns="http://www.w3.org/2000/svg" xmlns:xlink="http://www.w3.org/1999/xlink" x="0px" y="0px"
	 viewBox="0 0 200 100" style="enable-background:new 0 0 200 100;" xml:space="preserve">
<style type="text/css">
	.st0{fill:#015673;}
	.st1{enable-background:new    ;}
</style>
<g>
	<g id="Layer_1">
		<path class="st0" d="M4,50c0-1.9,0.3-3.8,1-5.6l-3.5-2c-2.2,5.3-2,11.4,0.6,16.5l3.5-2C4.5,54.7,4,52.4,4,50z"/>
		<g transform="matrix(1, 0, 0, 1, -14.175438, -31.894735)">
			<path class="st0" d="M63.6,72.2c0-6,2.8-9.1,8.5-9.1c1.2,0,2.4,0.2,3.6,0.5c1.2,0.3,1.7,0.8,1.7,1.3c0,0.4-0.2,0.9-0.6,1.5
				c-0.4,0.6-0.8,0.9-1.1,0.9c-0.2,0-0.4-0.1-0.5-0.2c-1-0.4-2.1-0.6-3.2-0.6c-2.9,0-4.4,1.9-4.4,5.8c0,3.8,1.5,5.8,4.4,5.8
				c1.2,0,2.4-0.3,3.5-0.8c0.2-0.1,0.4-0.2,0.7-0.3c0.4,0,0.7,0.3,1,0.9c0.3,0.4,0.4,0.9,0.5,1.3c0,0.7-0.6,1.2-1.9,1.6
				c-1.2,0.4-2.5,0.6-3.8,0.6c-2.8,0-5-0.7-6.3-2.2S63.6,75.3,63.6,72.2z"/>
			<path class="st0" d="M79.8,80.4v-8.1c0-0.9,0-1.8-0.2-2.7c-0.1-0.3-0.1-0.6-0.2-0.9c0-0.3,0.3-0.5,1-0.6c0.5-0.1,1-0.2,1.5-0.2
				c0.2,0,0.5,0,0.7,0.1c0.1,0.1,0.2,0.2,0.3,0.3c0.1,0.1,0.1,0.3,0.2,0.4c0,0.2,0.1,0.3,0.1,0.5c0,0.2,0.1,0.4,0.1,0.4
				c0.7-1.3,1.6-1.9,2.8-1.9c0.5,0,0.9,0.1,1.1,0.4c0.2,0.3,0.3,0.6,0.3,1c0,0.5-0.1,0.9-0.2,1.3c-0.2,0.5-0.3,0.8-0.6,0.8
				c-0.2,0-0.4,0-0.5-0.1c-0.2-0.1-0.4-0.1-0.7-0.1c-0.8,0-1.5,0.4-2,1.3v8.2c0,0.5-0.5,0.8-1.5,0.8h-0.7
				C80.3,81.2,79.8,80.9,79.8,80.4z"/>
			<path class="st0" d="M87.8,68.3c0-0.4,0.5-0.6,1.6-0.6h0.8c0.8,0,1.3,0.2,1.4,0.5l1.5,4.7c0.2,0.5,0.4,1.5,0.7,3.1h0.1
				c0.3-1.6,0.6-2.7,0.7-3.1l1.5-4.7c0.1-0.4,0.6-0.5,1.4-0.5h0.6c1,0,1.5,0.2,1.5,0.6c0,0.2,0,0.3-0.1,0.5l-5.8,17.1
				c-0.1,0.4-0.6,0.5-1.4,0.5h-0.4c-1,0-1.5-0.2-1.5-0.5c0-0.2,0-0.3,0.1-0.5l1.6-4.3l-4.2-12.3C87.9,68.6,87.8,68.5,87.8,68.3z"/>
			<path class="st0" d="M101.6,85.6V72.3c0-0.9,0-1.8-0.2-2.7c-0.1-0.3-0.1-0.6-0.2-0.9c0-0.3,0.3-0.5,1-0.6c0.5-0.1,1-0.2,1.5-0.2
				c0.2,0,0.5,0,0.7,0.1c0.1,0.1,0.2,0.2,0.3,0.3c0.1,0.1,0.1,0.2,0.2,0.4c0,0.2,0.1,0.3,0.1,0.5c0,0.2,0.1,0.3,0.1,0.4
				c0.3-0.6,0.8-1,1.4-1.4c0.6-0.4,1.3-0.5,2-0.5c1.4,0,2.6,0.6,3.4,1.8s1.3,2.9,1.3,5c0,2.1-0.5,3.8-1.4,5c-0.9,1.2-2.3,1.8-4,1.8
				c-0.9,0-1.8-0.3-2.6-0.8v5c0,0.5-0.5,0.8-1.5,0.8h-0.7C102.1,86.4,101.6,86.1,101.6,85.6z M107.1,78.4c1.6,0,2.4-1.3,2.4-3.8
				c0-2.6-0.7-3.8-2.1-3.8c-0.8,0-1.5,0.5-2.1,1.5v5.7C105.9,78.2,106.5,78.3,107.1,78.4L107.1,78.4z"/>
			<path class="st0" d="M121,78.3l0.7-0.1c0.2,0,0.4,0.3,0.6,0.8c0.1,0.3,0.2,0.7,0.2,1.1c0,0.8-0.8,1.2-2.4,1.2
				c-2.5,0-3.7-1.4-3.7-4.1v-6.4h-0.4c-0.5,0-0.8-0.4-0.8-1.3v-0.4c0-0.8,0.3-1.3,0.8-1.3h0.4l0.3-2.4c0.1-0.5,0.5-0.8,1.4-0.8h0.8
				c0.8,0,1.3,0.3,1.3,0.8v2.4h1.2c0.5,0,0.8,0.4,0.8,1.3v0.4c0,0.8-0.3,1.3-0.8,1.3h-1.3v6.5C120.1,78,120.4,78.3,121,78.3z"/>
			<path class="st0" d="M125.7,79.6c-1.1-1.2-1.6-2.9-1.6-5.1s0.5-3.9,1.6-5.1c1.1-1.2,2.6-1.8,4.6-1.8c2,0,3.6,0.6,4.6,1.8
				c1,1.2,1.6,2.9,1.6,5.1c0,2.2-0.5,3.9-1.6,5.1c-1,1.2-2.6,1.8-4.6,1.8S126.8,80.7,125.7,79.6z M128,74.5c0,2.6,0.8,3.9,2.4,3.9
				s2.4-1.3,2.4-3.9c0-2.6-0.8-3.9-2.4-3.9S128,71.9,128,74.5L128,74.5z"/>
			<path class="st0" d="M143.8,63.8c0-0.4,0.5-0.6,1.6-0.6h0.8c0.8,0,1.3,0.2,1.5,0.7l3.7,11.9h0.1l3.8-11.9
				c0.2-0.5,0.7-0.7,1.5-0.7h0.8c1,0,1.5,0.2,1.5,0.6c0,0.2,0,0.3-0.1,0.5l-5.5,16.4c-0.1,0.4-0.6,0.5-1.4,0.5h-1.3
				c-0.8,0-1.3-0.2-1.4-0.5l-5.5-16.4C143.8,64.1,143.8,64,143.8,63.8z"/>
			<path class="st0" d="M160.4,77.6c0-0.4,0-0.9,0.1-1.3c0.1-0.5,0.3-0.9,0.6-1.3c0.3-0.5,0.7-0.8,1.2-1.1c1.2-0.7,3-1.1,5.4-1.1V72
				c0-1-0.7-1.5-2-1.5c-0.9,0-1.9,0.2-2.7,0.6c-0.2,0.1-0.4,0.2-0.5,0.2c-0.3,0-0.5-0.3-0.9-0.8c-0.3-0.4-0.4-0.8-0.5-1.2
				c0-0.5,0.5-0.9,1.4-1.2c1.1-0.4,2.3-0.6,3.4-0.5c3.6,0,5.5,1.4,5.5,4.2v4.8c0,0.9,0,1.8,0.2,2.6l0.2,1c0,0.3-0.3,0.5-1,0.6
				c-0.5,0.1-1,0.2-1.5,0.2c-0.2,0-0.5,0-0.7-0.1c-0.1-0.1-0.2-0.2-0.3-0.3c-0.1-0.2-0.1-0.3-0.2-0.4c-0.1-0.2-0.1-0.3-0.1-0.5
				c0-0.2-0.1-0.4-0.1-0.4c-0.4,0.6-0.9,1.1-1.6,1.4c-0.7,0.4-1.4,0.5-2.2,0.6c-1.3,0-2.3-0.3-2.9-1S160.4,78.7,160.4,77.6z
				 M164.2,77.2c0,0.3,0.1,0.6,0.3,0.8c0.3,0.2,0.6,0.3,1,0.3c0.5,0,0.9-0.2,1.3-0.5c0.4-0.3,0.7-0.7,0.9-1.1v-1.4
				C165.3,75.3,164.2,76,164.2,77.2z"/>
			<path class="st0" d="M179.5,78.3l0.7-0.1c0.2,0,0.4,0.3,0.6,0.8c0.1,0.3,0.2,0.7,0.2,1.1c0,0.8-0.8,1.2-2.4,1.2
				c-2.5,0-3.7-1.4-3.7-4.1V62.7c0-0.5,0.5-0.8,1.5-0.8h0.7c1,0,1.5,0.3,1.5,0.8v14.5C178.6,78,178.9,78.3,179.5,78.3z"/>
			<path class="st0" d="M187.1,78.3l0.7-0.1c0.2,0,0.4,0.3,0.6,0.8c0.1,0.3,0.2,0.7,0.2,1.1c0,0.8-0.8,1.2-2.4,1.2
				c-2.5,0-3.7-1.4-3.7-4.1V62.7c0-0.5,0.5-0.8,1.5-0.8h0.7c1,0,1.5,0.3,1.5,0.8v14.5C186.1,78,186.4,78.3,187.1,78.3z"/>
			<path class="st0" d="M191,79.5c-1.1-1.2-1.6-2.9-1.6-5.2c0-2.3,0.5-3.9,1.6-5.1c1.1-1.1,2.6-1.7,4.5-1.7s3.3,0.6,4.2,1.8
				c0.9,1.2,1.3,2.8,1.3,4.7c0,0.2-0.2,0.5-0.5,0.9s-0.6,0.6-0.8,0.6h-6.5c0.1,1,0.4,1.7,0.9,2.1c0.5,0.4,1.2,0.6,1.9,0.6
				c0.7,0,1.5-0.1,2.2-0.4c0.7-0.3,1.1-0.4,1.1-0.4c0.3,0,0.5,0.3,0.9,0.8c0.3,0.3,0.4,0.8,0.5,1.2c0,0.6-0.5,1-1.6,1.3
				c-1,0.3-2,0.5-3,0.5C193.8,81.3,192.1,80.7,191,79.5z M197.4,73.2c0-0.7-0.1-1.3-0.5-1.9c-0.3-0.5-0.8-0.7-1.4-0.7
				c-1.3,0-2,0.9-2.3,2.6H197.4z"/>
			<path class="st0" d="M202.3,68.3c0-0.4,0.5-0.6,1.6-0.6h0.8c0.8,0,1.3,0.2,1.4,0.5l1.5,4.7c0.2,0.5,0.4,1.5,0.7,3.1h0.1
				c0.3-1.6,0.6-2.7,0.7-3.1l1.5-4.7c0.1-0.4,0.6-0.5,1.4-0.5h0.6c1,0,1.5,0.2,1.5,0.6c0,0.2,0,0.3-0.1,0.5l-5.8,17.1
				c-0.1,0.4-0.6,0.5-1.4,0.5h-0.4c-1,0-1.5-0.2-1.5-0.5c0-0.2,0-0.3,0.1-0.5l1.6-4.2l-4.2-12.3C202.4,68.6,202.3,68.5,202.3,68.3z"
				/>
		</g>
		<path class="st0" d="M18,34.1v-4c-6,0.6-11.4,3.9-14.7,9l3.5,2C9.3,37.3,13.4,34.7,18,34.1z"/>
		<path class="st0" d="M21.7,65.9v4c5.6-0.5,10.8-3.3,14.2-7.7l-3.5-2C29.7,63.4,25.9,65.5,21.7,65.9z"/>
		<path class="st0" d="M35.9,49.7c0,2.4-0.6,4.8-1.6,7l3.5,2c2.7-5.3,2.9-11.4,0.6-16.9l-3.5,2C35.5,45.8,35.9,47.7,35.9,49.7z"/>
		<path class="st0" d="M33.2,40.9l3.5-2c-3.4-5.1-8.9-8.3-15-8.9v4C26.4,34.6,30.6,37.1,33.2,40.9z"/>
		<path class="st0" d="M7.6,60l-3.5,2c3.3,4.4,8.4,7.3,13.9,7.9v-4.1C13.9,65.4,10.2,63.3,7.6,60z"/>
		<path class="st0" d="M20.5,56.6c-3,0-5.6-2-6.4-4.9c-0.8-2.9,0.5-5.9,3.1-7.4c2.6-1.5,5.8-1.1,8,1.1l2.4-2.4
			C23.7,39,17.4,39,13.5,42.8c-3.9,3.8-4,10.1-0.2,14.1c3.8,4,10.1,4.1,14.1,0.4L25,54.9C23.7,56,22.2,56.6,20.5,56.6z"/>
	</g>
	<g class="st1">
		<path class="st0" d="M58.8,64.3l0.2-1.9h-0.1L58.4,64l-2,3.6h-0.6l-2.1-3.6L53,62.4h-0.1l0.3,1.9v5h-1.8v-9.6h1.7l2.6,4.4l0.5,1.1
			h0.1l0.4-1.1l2.4-4.3h1.7v9.6h-1.9V64.3z"/>
		<path class="st0" d="M67.8,68.7c-0.3,0.2-0.6,0.4-1.1,0.6c-0.5,0.2-1,0.2-1.5,0.2c-1.1,0-1.9-0.3-2.4-1C62.2,67.9,62,67,62,65.9
			c0-1.2,0.3-2.1,0.9-2.7c0.6-0.6,1.4-0.9,2.4-0.9c0.3,0,0.7,0,1,0.1c0.3,0.1,0.6,0.2,0.9,0.5c0.3,0.2,0.5,0.5,0.6,0.8
			C67.9,64,68,64.5,68,65c0,0.2,0,0.4,0,0.6c0,0.2-0.1,0.4-0.1,0.7h-4.1c0,0.6,0.2,1,0.4,1.3c0.3,0.3,0.7,0.4,1.3,0.4
			c0.4,0,0.7-0.1,1-0.2c0.3-0.1,0.5-0.2,0.7-0.3L67.8,68.7z M65.2,63.7c-0.5,0-0.8,0.1-1,0.4c-0.2,0.3-0.4,0.6-0.4,1.1h2.5
			c0-0.5,0-0.9-0.2-1.1C65.9,63.8,65.6,63.7,65.2,63.7z"/>
		<path class="st0" d="M73.1,69.3v-3.7c0-0.6-0.1-1.1-0.2-1.3c-0.1-0.3-0.4-0.4-0.7-0.4c-0.3,0-0.6,0.1-0.8,0.3
			c-0.2,0.2-0.3,0.4-0.4,0.6v4.6h-1.8v-6.8h1.4l0.2,0.9h0.1c0.2-0.3,0.5-0.5,0.8-0.8c0.3-0.2,0.7-0.3,1.3-0.3c0.4,0,0.8,0.1,1.1,0.3
			c0.3,0.2,0.5,0.5,0.6,0.9c0.2-0.4,0.5-0.6,0.8-0.8c0.3-0.2,0.7-0.3,1.2-0.3c0.4,0,0.7,0,1,0.1c0.3,0.1,0.5,0.2,0.7,0.5
			c0.2,0.2,0.3,0.5,0.4,0.9c0.1,0.4,0.1,0.8,0.1,1.4v4.1H77v-3.8c0-0.5-0.1-0.9-0.2-1.2c-0.1-0.3-0.4-0.4-0.8-0.4
			c-0.3,0-0.6,0.1-0.8,0.3c-0.2,0.2-0.3,0.4-0.4,0.7v4.5H73.1z"/>
		<path class="st0" d="M80.2,59.7H82V63h0.1c0.2-0.2,0.4-0.4,0.7-0.5c0.3-0.1,0.6-0.2,1-0.2c0.8,0,1.4,0.3,1.9,0.8
			c0.4,0.6,0.6,1.4,0.6,2.6c0,1.2-0.3,2.2-0.9,2.8c-0.6,0.6-1.4,1-2.5,1c-0.6,0-1.1,0-1.6-0.1c-0.5-0.1-0.8-0.2-1.1-0.3V59.7z
			 M83.3,63.8c-0.3,0-0.6,0.1-0.8,0.3s-0.4,0.4-0.5,0.7v3c0.1,0.1,0.3,0.1,0.5,0.2c0.2,0,0.3,0,0.5,0c0.5,0,0.8-0.2,1.1-0.5
			c0.3-0.4,0.4-0.9,0.4-1.7C84.5,64.4,84.1,63.8,83.3,63.8z"/>
		<path class="st0" d="M93,68.7c-0.3,0.2-0.6,0.4-1.1,0.6c-0.5,0.2-1,0.2-1.5,0.2c-1.1,0-1.9-0.3-2.4-1c-0.5-0.6-0.8-1.5-0.8-2.6
			c0-1.2,0.3-2.1,0.9-2.7c0.6-0.6,1.4-0.9,2.4-0.9c0.3,0,0.7,0,1,0.1c0.3,0.1,0.6,0.2,0.9,0.5c0.3,0.2,0.5,0.5,0.6,0.8
			c0.2,0.4,0.2,0.8,0.2,1.3c0,0.2,0,0.4,0,0.6c0,0.2-0.1,0.4-0.1,0.7H89c0,0.6,0.2,1,0.4,1.3c0.3,0.3,0.7,0.4,1.3,0.4
			c0.4,0,0.7-0.1,1-0.2c0.3-0.1,0.5-0.2,0.7-0.3L93,68.7z M90.5,63.7c-0.5,0-0.8,0.1-1,0.4c-0.2,0.3-0.4,0.6-0.4,1.1h2.5
			c0-0.5,0-0.9-0.2-1.1C91.2,63.8,90.9,63.7,90.5,63.7z"/>
		<path class="st0" d="M98.3,64.1C98,64,97.7,64,97.5,64c-0.3,0-0.6,0.1-0.8,0.3c-0.2,0.2-0.4,0.4-0.4,0.6v4.4h-1.8v-6.8h1.4
			l0.2,0.9h0.1c0.2-0.3,0.4-0.6,0.6-0.8c0.3-0.2,0.6-0.3,0.9-0.3c0.2,0,0.5,0.1,0.8,0.2L98.3,64.1z"/>
	</g>
</g>
</svg>
