<?xml version="1.0" encoding="utf-8"?>
<!-- Generator: Adobe Illustrator 19.2.0, SVG Export Plug-In . SVG Version: 6.00 Build 0)  -->
<svg version="1.1" id="Слой_1" xmlns="http://www.w3.org/2000/svg" xmlns:xlink="http://www.w3.org/1999/xlink" x="0px" y="0px"
	 viewBox="0 0 200 100" style="enable-background:new 0 0 200 100;" xml:space="preserve">
<style type="text/css">
	.st0{fill:#015673;}
</style>
<g>
	<g>
		<g>
			<path class="st0" d="M0,49.6c0,0,21.2-23.9,38-11.8c0,0-8-3.4-15.6,0.5c-1.7,0.9-3.2,2-4.5,3.4c-1.9,2-6.4,6.7-6.9,8H0z"/>
			<path class="st0" d="M0,50.1h11c0,0,2.6,5.9,13,12.9c0,0-6.3-0.2-13-4C11,59,3,54.5,0,50.1z"/>
		</g>
		<g>
			<path class="st0" d="M53.8,50.1c0,0-21.2,23.9-38,11.8c0,0,8,3.4,15.6-0.5c1.7-0.9,3.2-2,4.5-3.4c1.9-2,6.4-6.7,6.9-8H53.8z"/>
			<path class="st0" d="M53.8,49.6h-11c0,0-2.6-5.9-13-12.9c0,0,6.3,0.2,13,4C42.8,40.8,50.8,45.3,53.8,49.6z"/>
		</g>
	</g>
	<g>
		<g id="n_2_">
			<path class="st0" d="M32.7,44.3v11h-0.9l-6.1-9.5l-0.3-0.4l0.1-0.4l0.6-0.2l5.7,8.9v-8.3L32.7,44.3z"/>
		</g>
		<g id="t_2_">
			<path class="st0" d="M21.4,44.3h8.2L29,45.3h-3.3v8.6l-0.9,1.4V45.3h-3.9L21.4,44.3z"/>
		</g>
	</g>
	<g>
		<g>
			<path class="st0" d="M200,57.1c0,4.6-4.5,8.3-9.9,8.3c-4.3,0-8-2.2-9.4-5.6l2.4-1c1,2.4,3.8,4,7,4c4,0,7.3-2.5,7.3-5.7
				c0-3.6-3.6-5.3-7.8-7.2c-4-1.8-8.5-3.8-8.5-8.3c0-4,4-7.3,9-7.3c3.5,0,7,1.7,8.4,4.7l-2.4,1.1c-0.9-1.9-3.3-3.2-6-3.2
				c-3.5,0-6.4,2.1-6.4,4.6c0,2.8,3.2,4.2,6.9,5.9C194.9,49.4,200,51.7,200,57.1z"/>
		</g>
		<g>
			<path class="st0" d="M185.9,62.7l4.1,2.7h-24V34.3h17.3l-1.7,2.7h-12.9v14.2v11.5H185.9z M178.4,51.2h-9.7l1.8-2.7h9.7
				L178.4,51.2z"/>
		</g>
		<g>
			<path class="st0" d="M165.5,34.3v27l-2.6,4V40.8l-9.9,24.6H150l-9.9-24.6v24.6l-2.6,0V34.3h2.8l11.2,27.6l11.2-27.6H165.5z"/>
		</g>
		<g>
			<path class="st0" d="M127.9,34.4l11.3,28l1,2.4l-2.4,0.6h-0.3l-9.6-23.9l-5.7,14.1h11.4l-1.8,2.7h-10.7l-2.8,7.1h-2.9L127.9,34.4
				z"/>
		</g>
		<g>
			<path class="st0" d="M117.6,34.3v31.1h-2.7L97.5,38.4v22.9l-2.7,4V34.3H98l16.9,26.1V37L117.6,34.3z"/>
		</g>
	</g>
	<g>
		<path class="st0" d="M68,50.6v3.1h2.6v0.6H68v8.2c0,0.8,0.1,1.4,0.4,1.8c0.3,0.4,0.7,0.6,1.3,0.6c0.3,0,0.7,0,1.1-0.1l0.1,0.5
			c-0.2,0.1-0.6,0.1-1.2,0.1c-0.8,0-1.4-0.2-1.8-0.7c-0.4-0.5-0.5-1.2-0.6-2.2v-8.2h-2.1v-0.6h2.1v-3.1H68z"/>
		<path class="st0" d="M73.1,56.4c0.4-0.9,0.9-1.6,1.7-2.1c0.7-0.5,1.5-0.8,2.4-0.8c1.2,0,2.1,0.3,2.7,1c0.6,0.7,0.9,1.8,0.9,3.2
			v7.5h-0.6v-7.5c0-1.2-0.3-2.1-0.8-2.7C79,54.3,78.2,54,77.1,54c-1,0-1.9,0.4-2.6,1.1c-0.7,0.7-1.2,1.6-1.5,2.7v7.4h-0.6V48.9h0.6
			V56.4z"/>
		<path class="st0" d="M87.5,65.4c-0.9,0-1.8-0.2-2.6-0.7c-0.8-0.5-1.4-1.2-1.8-2.1c-0.4-0.9-0.7-1.8-0.7-2.9v-0.5
			c0-1.1,0.2-2,0.6-2.9c0.4-0.9,1-1.6,1.8-2.1c0.7-0.5,1.6-0.7,2.4-0.7c1.3,0,2.3,0.5,3.1,1.4c0.8,0.9,1.2,2.1,1.2,3.6v0.6H83v0.6
			c0,0.9,0.2,1.8,0.6,2.6c0.4,0.8,0.9,1.4,1.6,1.9c0.7,0.5,1.4,0.7,2.2,0.7c0.8,0,1.4-0.1,2-0.4c0.5-0.3,1-0.7,1.4-1.2l0.4,0.3
			C90.4,64.8,89.2,65.4,87.5,65.4z M87.3,54c-1.1,0-2.1,0.4-2.8,1.2c-0.8,0.8-1.2,1.9-1.4,3.2h8v-0.1c0-0.8-0.2-1.5-0.5-2.2
			c-0.3-0.7-0.8-1.2-1.4-1.6C88.6,54.2,88,54,87.3,54z"/>
	</g>
	<rect x="59.3" y="34.4" class="st0" width="0.3" height="31"/>
</g>
</svg>
