<?xml version="1.0" encoding="utf-8"?>
<!-- Generator: Adobe Illustrator 19.2.0, SVG Export Plug-In . SVG Version: 6.00 Build 0)  -->
<svg version="1.1" id="Слой_1" xmlns="http://www.w3.org/2000/svg" xmlns:xlink="http://www.w3.org/1999/xlink" x="0px" y="0px"
	 viewBox="0 0 200 100" style="enable-background:new 0 0 200 100;" xml:space="preserve">
<style type="text/css">
	.st0{fill:#015673;}
</style>
<g>
	<g>
		<g>
			<path class="st0" d="M6.1,83.1c-2-1.2-3.5-2.8-4.5-4.9C0.5,76,0,73.6,0,70.8c0-2.8,0.6-5.2,1.9-7.2c1.3-2,3-3.5,5-4.5
				s4.3-1.5,6.7-1.5c1.8,0,3.6,0.2,5.2,0.5c1.6,0.3,3,0.8,4.2,1.4c-0.3,1.5-0.4,3.5-0.4,6.1c-0.6,0.2-1.3,0.4-2.1,0.4
				c-0.1-2.5-0.7-4.3-1.8-5.2c-1.1-1-2.7-1.4-4.8-1.4c-2.1,0-4,0.5-5.4,1.5c-1.5,1-2.6,2.3-3.3,3.9c-0.7,1.6-1.1,3.4-1.1,5.4
				c0,2.4,0.4,4.6,1.1,6.6C6,78.5,7,80,8.5,81.2c1.4,1.1,3.2,1.7,5.2,1.7c0.8,0,1.6,0,2.2-0.1c0.6-0.1,1.2-0.3,1.8-0.5
				c0.5-0.2,0.8-0.5,1-0.9c0.2-0.4,0.3-1.1,0.3-2v-2c0-1.3-0.1-2.1-0.2-2.7c-0.1-0.5-0.4-0.8-0.9-1c-0.4-0.2-1.2-0.2-2.3-0.3
				c-0.2-0.4-0.2-1-0.2-1.8c1,0.1,2.6,0.1,4.8,0.1c2,0,3.5,0,4.6-0.1c0,0.8-0.1,1.3-0.2,1.8c-0.6,0-1,0.1-1.2,0.3
				c-0.2,0.2-0.4,0.5-0.5,1c-0.1,0.5-0.1,1.4-0.1,2.6v1.8c0,0.6,0,1.1,0.1,1.6c0.1,0.4,0.2,0.8,0.4,1.2c-1.2,0.9-2.7,1.6-4.5,2.1
				c-1.8,0.5-3.7,0.8-5.8,0.8C10.4,84.8,8.1,84.2,6.1,83.1z"/>
		</g>
		<g>
			<path class="st0" d="M35.4,78c0.6-0.2,1.1-0.6,1.4-1.1c0.4-0.5,0.7-1.2,1-2.1c0.5,0.2,0.9,0.4,1.2,0.7c-0.4,1.1-0.6,2.5-0.9,4.1
				c-1.4,0-3.2-0.1-5.4-0.1c-3.4,0-5.8,0-7.2,0.1c0-0.5,0-0.9,0.1-1.2c0.5,0,0.9-0.1,1.2-0.3c0.3-0.1,0.5-0.4,0.6-0.8
				c0.1-0.4,0.2-0.9,0.2-1.6V64.4c0-0.9-0.1-1.5-0.4-1.9c-0.3-0.3-0.8-0.5-1.5-0.5c-0.1-0.3-0.1-0.7-0.1-1.2
				c1.1,0.1,2.2,0.1,3.4,0.1c1.1,0,2.2,0,3.4-0.1c0,0.5,0,0.9-0.1,1.2c-0.5,0-0.9,0.1-1.2,0.3c-0.3,0.1-0.5,0.4-0.6,0.7
				c-0.1,0.4-0.2,0.8-0.2,1.5v11.3c0,0.7,0.1,1.3,0.2,1.6c0.1,0.4,0.4,0.6,0.7,0.7c0.4,0.1,0.9,0.2,1.6,0.2H33
				C34,78.4,34.8,78.3,35.4,78z"/>
		</g>
		<g>
			<path class="st0" d="M54,75.5c-0.4,1.1-0.6,2.5-0.9,4.1c-1.4,0-3.4-0.1-5.9-0.1c-3.4,0-5.8,0-7.2,0.1c0-0.5,0-0.9,0.1-1.2
				c0.5,0,0.9-0.1,1.2-0.3c0.3-0.1,0.5-0.4,0.6-0.8c0.1-0.4,0.2-0.9,0.2-1.7V64.4c0-0.9-0.1-1.5-0.4-1.9c-0.3-0.3-0.8-0.5-1.5-0.5
				c-0.1-0.3-0.1-0.7-0.1-1.2c1.1,0.1,2.6,0.1,4.7,0.1c3.4,0,6,0,7.8-0.1c0.2,2,0.4,3.5,0.6,4.4c-0.3,0.2-0.7,0.3-1.2,0.3
				c-0.1-1-0.5-1.9-1.1-2.5c-0.7-0.7-1.8-1-3.4-1h-2.6v7.6h1.7c1.2,0,2-0.2,2.4-0.5c0.4-0.3,0.7-0.9,0.7-1.8
				c0.4-0.1,0.9-0.2,1.3-0.2c0,0.6-0.1,1.6-0.1,3c0,1.5,0,2.6,0.1,3.2c-0.5,0-0.9,0-1.3-0.1c-0.1-1-0.3-1.6-0.8-2
				c-0.4-0.3-1.2-0.5-2.4-0.5h-1.7v5c0,0.7,0.1,1.2,0.2,1.6c0.1,0.4,0.4,0.6,0.7,0.8c0.4,0.1,0.9,0.2,1.6,0.2h0.2
				c1.3,0,2.3-0.1,2.9-0.4c0.7-0.3,1.2-0.6,1.5-1.1c0.3-0.5,0.6-1.1,1-2C53.3,75.1,53.7,75.3,54,75.5z"/>
		</g>
		<g>
			<path class="st0" d="M57.2,62.5C57,62.2,56.5,62,55.7,62c-0.1-0.3-0.1-0.7-0.1-1.2c1,0.1,2.1,0.1,3.4,0.1c1.1,0,2.2,0,3.4-0.1
				c0,0.5,0,0.9-0.1,1.2c-0.7,0-1.2,0.2-1.5,0.5c-0.3,0.3-0.4,0.9-0.4,1.9v11.7c0,0.9,0.1,1.5,0.4,1.9c0.3,0.3,0.8,0.5,1.5,0.5
				c0.1,0.3,0.1,0.7,0.1,1.2c-1.1-0.1-2.2-0.1-3.4-0.1c-1.3,0-2.4,0-3.4,0.1c0-0.5,0-0.9,0.1-1.2c0.7,0,1.2-0.2,1.5-0.5
				c0.3-0.3,0.4-0.9,0.4-1.9V64.4C57.6,63.5,57.5,62.9,57.2,62.5z"/>
		</g>
		<g>
			<path class="st0" d="M87.6,79.7c-0.8-0.1-2-0.1-3.3-0.1c-1.3,0-2.4,0-3.4,0.1c0-0.4,0.1-0.8,0.2-1.2c0.7-0.1,1.2-0.2,1.4-0.5
				c0.2-0.2,0.4-0.7,0.4-1.3c0-0.4,0-0.8-0.1-1.4l-1-9.5L76,79.7c-0.3,0.1-0.7,0.2-1.1,0.2l-6.5-14l-0.9,8.9c-0.1,0.6-0.1,1-0.1,1.4
				c0,0.8,0.1,1.4,0.4,1.8c0.3,0.3,0.8,0.5,1.5,0.6c0.1,0.3,0.1,0.7,0.1,1.2c-0.9-0.1-1.9-0.1-3-0.1c-1.1,0-2,0-2.8,0.1
				c0-0.5,0-0.9,0.1-1.2c0.5-0.1,0.9-0.2,1.2-0.4c0.3-0.2,0.5-0.6,0.7-1.1c0.2-0.5,0.3-1.4,0.4-2.5l0.9-9.9c0-0.2,0-0.4,0-0.7
				c0-0.7-0.1-1.2-0.4-1.5c-0.3-0.3-0.8-0.4-1.4-0.4C65,61.7,65,61.3,65,60.8c0.6,0.1,1.3,0.1,2.1,0.1c0.7,0,1.4,0,2.1-0.1l6.9,15.3
				l6-15.3c0.6,0.1,1.3,0.1,2.2,0.1c0.7,0,1.4,0,2.1-0.1c0,0.4,0,0.8-0.1,1.2c-0.6,0-1.1,0.2-1.4,0.5c-0.3,0.3-0.5,0.9-0.5,1.6
				c0,0.3,0,0.5,0,0.7l1,10.2c0.1,0.9,0.2,1.6,0.4,2.1c0.1,0.5,0.4,0.8,0.6,1c0.3,0.2,0.6,0.3,1.1,0.4
				C87.5,78.8,87.6,79.2,87.6,79.7z"/>
		</g>
		<g>
			<path class="st0" d="M97.1,78.6c-1.3-0.8-2.4-2-3.1-3.4c-0.7-1.5-1.1-3.2-1.1-5.1c0-2,0.4-3.8,1.3-5.2c0.9-1.4,2-2.5,3.4-3.2
				c1.4-0.7,2.9-1.1,4.6-1.1c1.1,0,2.2,0.1,3.1,0.3c1,0.2,2,0.6,3,1.1c-0.2,1-0.3,2.4-0.3,4.3c-0.4,0.2-0.9,0.2-1.5,0.2
				c-0.1-1.8-0.5-3.1-1.1-3.8c-0.7-0.7-1.7-1-3-1c-1.5,0-2.7,0.4-3.7,1.1c-1,0.7-1.7,1.6-2.2,2.8c-0.5,1.1-0.7,2.4-0.7,3.8
				c0,1.7,0.3,3.2,0.8,4.5c0.6,1.3,1.4,2.4,2.5,3.2c1.1,0.8,2.3,1.1,3.8,1.1c0.9,0,1.8-0.1,2.7-0.4c0.9-0.3,1.8-0.7,2.6-1.2
				c0.1,0.1,0.2,0.2,0.3,0.4c0.1,0.2,0.2,0.3,0.2,0.5c-1.1,0.9-2.2,1.5-3.3,1.9c-1.1,0.4-2.3,0.6-3.6,0.6
				C99.9,79.9,98.4,79.5,97.1,78.6z"/>
		</g>
		<g>
			<path class="st0" d="M127.1,79.7c-1.1-0.1-2.2-0.1-3.2-0.1c-1,0-2,0-3.1,0.1c0-0.5,0.1-0.9,0.2-1.2c0.5-0.1,0.9-0.1,1.1-0.2
				c0.2-0.1,0.3-0.3,0.3-0.6c0-0.2-0.1-0.7-0.4-1.4l-1.2-2.8c-2.9,0-5.4,0-7.3,0.1l-0.7,1.9c-0.3,0.8-0.4,1.4-0.4,1.8
				c0,0.4,0.1,0.6,0.3,0.8c0.2,0.2,0.6,0.3,1.1,0.3c0.1,0.3,0.2,0.7,0.2,1.2c-0.6-0.1-1.5-0.1-2.6-0.1c-0.5,0-1.2,0-2.3,0.1
				c0-0.5,0.1-0.8,0.2-1.2c0.5-0.1,0.9-0.3,1.1-0.7c0.3-0.4,0.6-1.1,1.1-2.3l5.7-14.7c0.3-0.1,0.7-0.1,1.1-0.1l6.6,15.1
				c0.5,1,0.8,1.7,1.1,2c0.3,0.3,0.6,0.5,1,0.6C127,78.9,127.1,79.3,127.1,79.7z M120.2,72.3l-2.1-4.9c-0.6-1.3-1-2.3-1.2-3
				c-0.2,0.6-0.6,1.6-1.1,3l-1.9,5H120.2z"/>
		</g>
		<g>
			<path class="st0" d="M140.3,62.3c1,1,1.5,2.3,1.5,3.9c0,1.1-0.2,2.1-0.7,3.1c-0.5,1-1.2,1.8-2.1,2.4c-1,0.6-2.1,0.9-3.4,0.9
				c-0.8,0-1.4-0.1-1.9-0.3c0-0.2-0.1-0.4-0.1-0.5c0-0.2,0-0.4,0.1-0.6c0.5,0.1,1,0.2,1.5,0.2c2.6,0,3.9-1.4,3.9-4.3
				c0-1.6-0.4-2.8-1.1-3.6c-0.8-0.9-1.9-1.3-3.5-1.3c-0.4,0-0.9,0.1-1.4,0.2v13.3c0,0.8,0.1,1.4,0.2,1.8s0.4,0.7,0.8,0.9
				c0.3,0.2,0.8,0.3,1.5,0.3c0.1,0.3,0.1,0.7,0.1,1.2c-0.8-0.1-2-0.1-3.5-0.1c-1.8,0-3,0-3.8,0.1c0-0.5,0-0.9,0.1-1.2
				c0.7,0,1.2-0.2,1.5-0.5c0.3-0.3,0.4-0.9,0.4-1.9V64.4c0-0.9-0.1-1.5-0.4-1.9c-0.3-0.3-0.8-0.5-1.5-0.5c-0.1-0.3-0.1-0.7-0.1-1.2
				c1,0.1,2.2,0.1,3.8,0.1l3.5-0.1C137.7,60.8,139.3,61.3,140.3,62.3z"/>
		</g>
		<g>
			<path class="st0" d="M144.9,62.5c-0.3-0.3-0.8-0.5-1.5-0.5c-0.1-0.3-0.1-0.7-0.1-1.2c1,0.1,2.1,0.1,3.4,0.1c1.1,0,2.2,0,3.4-0.1
				c0,0.5,0,0.9-0.1,1.2c-0.7,0-1.2,0.2-1.5,0.5c-0.3,0.3-0.4,0.9-0.4,1.9v11.7c0,0.9,0.1,1.5,0.4,1.9c0.3,0.3,0.8,0.5,1.5,0.5
				c0.1,0.3,0.1,0.7,0.1,1.2c-1.1-0.1-2.2-0.1-3.4-0.1c-1.3,0-2.4,0-3.4,0.1c0-0.5,0-0.9,0.1-1.2c0.7,0,1.2-0.2,1.5-0.5
				c0.3-0.3,0.4-0.9,0.4-1.9V64.4C145.3,63.5,145.1,62.9,144.9,62.5z"/>
		</g>
		<g>
			<path class="st0" d="M164.9,61.8c0,0.7,0.1,1.9,0.2,3.4c-0.4,0.2-0.8,0.3-1.4,0.2c0-1.1-0.3-1.9-0.8-2.5
				c-0.5-0.6-1.3-0.9-2.3-0.9h-1.5v14c0,0.6,0.1,1.1,0.2,1.5c0.1,0.3,0.3,0.6,0.6,0.7c0.3,0.1,0.8,0.2,1.4,0.3
				c0.1,0.3,0.1,0.7,0.1,1.2c-1.2-0.1-2.4-0.1-3.6-0.1c-1.4,0-2.6,0-3.6,0.1c0-0.5,0-0.9,0.1-1.2c0.6,0,1.1-0.1,1.4-0.3
				c0.3-0.1,0.5-0.4,0.7-0.7c0.1-0.3,0.2-0.8,0.2-1.4v-14h-1.4c-0.8,0-1.5,0.1-2,0.4c-0.5,0.3-0.8,0.6-1,1.1
				c-0.2,0.5-0.4,1.1-0.5,1.9c-0.6,0-1.1-0.1-1.3-0.2c0.3-1.7,0.4-3.1,0.4-4.4c1,0.1,3.4,0.1,7.1,0.1c3.7,0,6.1,0,7.1-0.1
				L164.9,61.8z"/>
		</g>
		<g>
			<path class="st0" d="M181.6,79.7c-1.1-0.1-2.2-0.1-3.2-0.1c-1,0-2,0-3.1,0.1c0-0.5,0.1-0.9,0.2-1.2c0.5-0.1,0.9-0.1,1.1-0.2
				c0.2-0.1,0.3-0.3,0.3-0.6c0-0.2-0.1-0.7-0.4-1.4l-1.2-2.8c-2.9,0-5.4,0-7.3,0.1l-0.7,1.9c-0.3,0.8-0.4,1.4-0.4,1.8
				c0,0.4,0.1,0.6,0.3,0.8c0.2,0.2,0.6,0.3,1.1,0.3c0.1,0.3,0.2,0.7,0.2,1.2c-0.6-0.1-1.5-0.1-2.6-0.1c-0.5,0-1.2,0-2.3,0.1
				c0-0.5,0.1-0.8,0.2-1.2c0.5-0.1,0.9-0.3,1.1-0.7c0.3-0.4,0.6-1.1,1.1-2.3l5.7-14.7c0.3-0.1,0.7-0.1,1.1-0.1l6.6,15.1
				c0.5,1,0.8,1.7,1.1,2c0.3,0.3,0.6,0.5,1,0.6C181.5,78.9,181.6,79.3,181.6,79.7z M174.8,72.3l-2.1-4.9c-0.6-1.3-1-2.3-1.2-3
				c-0.2,0.6-0.6,1.6-1.1,3l-1.9,5H174.8z"/>
		</g>
		<g>
			<path class="st0" d="M194.8,82.2c0.8-0.3,1.5-0.8,2-1.5c0.5-0.7,1-1.7,1.5-3c0.8,0.2,1.3,0.5,1.7,0.9c-0.5,1.5-0.9,3.5-1.2,5.9
				c-2-0.1-4.6-0.1-7.6-0.1c-4.8,0-8.2,0-10.2,0.1c0-0.8,0.1-1.3,0.2-1.7c0.7-0.1,1.3-0.2,1.7-0.4c0.4-0.2,0.7-0.6,0.8-1.1
				c0.2-0.5,0.3-1.3,0.3-2.3V62.9c0-1.3-0.2-2.2-0.6-2.7c-0.4-0.5-1.1-0.7-2.1-0.8c-0.1-0.4-0.2-0.9-0.2-1.7
				c1.5,0.1,3.1,0.1,4.8,0.1c1.6,0,3.2,0,4.8-0.1c0,0.8-0.1,1.3-0.2,1.7c-0.7,0.1-1.3,0.2-1.7,0.4c-0.4,0.2-0.6,0.5-0.8,1
				c-0.2,0.5-0.2,1.2-0.2,2.1v16c0,1,0.1,1.8,0.3,2.3c0.2,0.5,0.5,0.9,1,1.1c0.5,0.2,1.2,0.3,2.2,0.3h0.2
				C192.8,82.7,194,82.5,194.8,82.2z"/>
		</g>
	</g>
	<g>
		<path class="st0" d="M58.8,82v3h-0.2v-3H58.8z"/>
		<path class="st0" d="M64.1,84.7V82h0.2v3h-0.2l-1.7-2.7V85h-0.2v-3h0.2L64.1,84.7z"/>
		<path class="st0" d="M67.5,82h0.2l1,2.8l1-2.8h0.2l-1.1,3h-0.2L67.5,82z"/>
		<path class="st0" d="M73.3,82.2v1.3h1.4v0.2h-1.4v1.3h1.6V85h-1.8v-3h1.8v0.2H73.3z"/>
		<path class="st0" d="M80.2,82.8c-0.1-0.2-0.2-0.4-0.4-0.6c-0.1-0.1-0.3-0.1-0.5-0.1c-0.2,0-0.3,0-0.5,0.1
			c-0.2,0.1-0.3,0.3-0.3,0.5c0,0.1,0,0.3,0.1,0.4c0.1,0.1,0.3,0.2,0.5,0.2l0.6,0.2c0.2,0.1,0.4,0.1,0.5,0.3c0.1,0.1,0.2,0.3,0.2,0.5
			c0,0.2-0.1,0.5-0.3,0.6c-0.2,0.1-0.5,0.2-0.8,0.2c-0.4,0-0.7-0.1-0.9-0.4c-0.1-0.2-0.2-0.3-0.2-0.5l0.2-0.1c0,0.2,0.1,0.3,0.2,0.5
			c0.2,0.3,0.5,0.4,0.8,0.4c0.2,0,0.5-0.1,0.6-0.2c0.2-0.1,0.2-0.3,0.2-0.5c0-0.1-0.1-0.3-0.2-0.4c-0.1-0.1-0.3-0.2-0.5-0.2L79,83.5
			c-0.2-0.1-0.4-0.1-0.5-0.3c-0.1-0.1-0.2-0.3-0.2-0.5c0-0.2,0.2-0.5,0.4-0.6c0.2-0.1,0.4-0.1,0.6-0.1c0.2,0,0.5,0.1,0.6,0.2
			c0.2,0.1,0.4,0.4,0.5,0.7L80.2,82.8z"/>
		<path class="st0" d="M85.8,82.2h-1.1V85h-0.2v-2.9h-1.1V82h2.4V82.2z"/>
		<path class="st0" d="M91.9,85h-0.2v-2.6L90.6,85h-0.2l-1.2-2.6V85H89v-3h0.2l1.3,2.8l1.3-2.8h0.2V85z"/>
		<path class="st0" d="M95.6,82.2v1.3H97v0.2h-1.4v1.3h1.6V85h-1.8v-3h1.8v0.2H95.6z"/>
		<path class="st0" d="M102.6,84.7V82h0.2v3h-0.2l-1.7-2.7V85h-0.2v-3h0.2L102.6,84.7z"/>
		<path class="st0" d="M108.4,82.2h-1.1V85h-0.2v-2.9H106V82h2.4V82.2z"/>
		<path class="st0" d="M119.4,82.2v1.3h1.3v0.2h-1.3V85h-0.2v-3h1.7v0.2H119.4z"/>
		<path class="st0" d="M126.4,84c0,0.2-0.1,0.5-0.3,0.7c-0.2,0.3-0.6,0.4-0.9,0.4c-0.3,0-0.7-0.1-0.9-0.4c-0.2-0.2-0.3-0.5-0.3-0.7
			v-2h0.2v1.8c0,0.3,0,0.5,0.2,0.8c0.2,0.2,0.5,0.4,0.8,0.4c0.3,0,0.6-0.1,0.8-0.4c0.2-0.3,0.2-0.5,0.2-0.8V82h0.2V84z"/>
		<path class="st0" d="M131.9,84.7V82h0.2v3h-0.2l-1.7-2.7V85H130v-3h0.2L131.9,84.7z"/>
		<path class="st0" d="M137.8,83.5c0,0.3-0.1,0.5-0.2,0.7c-0.2,0.5-0.7,0.8-1.3,0.8h-0.9v-3h0.9c0.5,0,1,0.3,1.3,0.8
			C137.8,83,137.8,83.3,137.8,83.5z M137.6,83.5c0-0.2,0-0.5-0.1-0.7c-0.2-0.4-0.6-0.7-1.1-0.7h-0.7v2.7h0.7c0.5,0,0.9-0.3,1.1-0.7
			C137.6,84,137.6,83.7,137.6,83.5z"/>
	</g>
	<g>
		<g>
			<path class="st0" d="M120.5,41.1c-0.5,2.1-1.5,4.1-2.8,6c-2.9,3.9-7.5,5.7-12.5,5.7c-5,0-9.4-1.8-12.5-5.7
				c-2.9-3.8-3.9-8.7-3.8-13.2c0.1-4.5,0.9-9.3,3.8-13.2c2.9-3.9,7.5-5.7,12.5-5.7c5,0,9.7,1.9,12.5,5.7c1.6,2.1,2.5,4.4,3.1,6.8
				l-2.2,0.4c-0.5-2.1-1.3-4.1-2.6-5.9c-2.5-3.3-6.6-4.8-10.8-4.9c-4.1,0-8.3,1.6-10.7,4.9c-2.5,3.3-3.3,7.6-3.3,11.9
				s0.8,8.6,3.3,11.9c2.4,3.3,6.6,4.8,10.7,4.9c4.2,0.1,8.3-1.6,10.8-4.9c1.1-1.6,1.9-3.4,2.4-5.2L120.5,41.1z"/>
		</g>
	</g>
	<g>
		<g>
			<path class="st0" d="M87.3,50.3c-2.7-1.6-4.8-3.9-6.3-6.8c-1.5-3-2.2-6.4-2.2-10.2c0-3.9,0.9-7.3,2.7-10c1.8-2.8,4.1-4.9,7-6.3
				c2.9-1.4,6-2.1,9.3-2.1c2.6,0,5,0.2,7.2,0.7c2.3,0.5,4.2,1.1,5.9,1.9c-0.4,2.1-0.6,4.9-0.6,8.5c-0.9,0.3-1.8,0.5-2.9,0.5
				c-0.1-3.5-1-6-2.5-7.3c-1.6-1.3-3.8-2-6.6-2c-3,0-5.5,0.7-7.6,2.1c-2,1.4-3.6,3.2-4.6,5.5c-1,2.3-1.5,4.8-1.5,7.5
				c0,3.4,0.5,6.5,1.5,9.2c1,2.7,2.5,4.9,4.5,6.5c2,1.6,4.4,2.4,7.3,2.4c1.2,0,2.2-0.1,3-0.2c0.8-0.1,1.7-0.4,2.5-0.7
				c0.7-0.3,1.2-0.7,1.5-1.3s0.4-1.5,0.4-2.8v-2.7c0-1.8-0.1-3-0.3-3.7c-0.2-0.7-0.6-1.2-1.2-1.4c-0.6-0.2-1.7-0.3-3.2-0.4
				c-0.2-0.5-0.3-1.4-0.3-2.5c1.4,0.1,3.6,0.2,6.7,0.2c2.7,0,4.9,0,6.4-0.1c0,1.1-0.1,1.9-0.3,2.5c-0.8,0-1.4,0.2-1.7,0.4
				c-0.3,0.2-0.6,0.7-0.7,1.5c-0.1,0.7-0.2,1.9-0.2,3.6v2.5c0,0.8,0,1.6,0.1,2.2c0.1,0.6,0.3,1.2,0.6,1.7c-1.7,1.2-3.8,2.2-6.2,3
				c-2.5,0.7-5.2,1.1-8.1,1.1C93.2,52.7,90,51.9,87.3,50.3z"/>
		</g>
	</g>
</g>
</svg>
