<?xml version="1.0" encoding="utf-8"?>
<!-- Generator: Adobe Illustrator 19.2.0, SVG Export Plug-In . SVG Version: 6.00 Build 0)  -->
<svg version="1.1" id="Слой_1" xmlns="http://www.w3.org/2000/svg" xmlns:xlink="http://www.w3.org/1999/xlink" x="0px" y="0px"
	 viewBox="0 0 200 100" style="enable-background:new 0 0 200 100;" xml:space="preserve">
<style type="text/css">
	.st0{fill:#155773;}
</style>
<g>
	<path class="st0" d="M13.6,50.8c-0.3-0.4-0.6-0.6-1.1-0.7c-0.1,0-0.1-0.1-0.2-0.2c0.1,0,0.1-0.1,0.2-0.1c0.4,0,0.7-0.3,0.9-0.5
		c0.3-0.3,0.5-0.6,0.5-1.1c-0.1-0.9,0-1.8,0-2.6c0-0.6-0.2-1-0.8-1.4c-0.5-0.3-0.9-0.4-1.4-0.5c-3.7,0-7.5,0-11.2,0
		C0,43.6,0,43.6,0,44c0,2,0,4,0,6c0,2,0,4,0,6.1c0,0.2,0,0.4,0.3,0.4c0.1,0,0.3,0,0.4,0c3.2,0,6.4,0,9.6,0c0.6,0,1.2,0,1.7-0.2
		c0.5-0.1,1.1-0.4,1.5-0.8c0.1-0.2,0.5-1,0.5-1.3c0-0.7,0-1.5,0-2.2C14,51.5,13.8,51.1,13.6,50.8z M3.1,45.8c0-0.2,0.1-0.2,0.3-0.2
		c2.2,0,4.4,0,6.7,0c0.3,0,0.5,0.1,0.8,0.2c0.2,0.1,0.3,0.2,0.3,0.4c0,0.7,0,1.4,0,2.1c0,0.2-0.1,0.4-0.3,0.4c-0.3,0-0.6,0.2-1,0.2
		c-1,0-2.1,0-3.1,0c-1.1,0-2.3,0-3.4,0c-0.2,0-0.3,0-0.3-0.2C3.1,47.7,3.1,46.8,3.1,45.8z M11.1,53.6c-0.3,0.2-0.5,0.4-0.9,0.4
		c-1.2,0-2.3,0-3.5,0c-1.1,0-2.2,0-3.2,0c-0.4,0-0.4,0-0.4-0.5c0-0.8,0-1.5,0-2.3c0-0.2,0-0.3,0.3-0.3c2.3,0,4.6,0,6.9,0
		c0.4,0,0.6,0.2,0.9,0.4c0.3,0.2,0.2,0.5,0.2,0.7c0,0.3,0,0.6,0,0.9C11.3,53.2,11.3,53.4,11.1,53.6z"/>
	<path class="st0" d="M53.5,43.6c-0.5,0-1,0-1.5,0c-0.6,0-0.6,0-0.6,0.6c0,2.4,0,4.9,0,7.3c0,0.2,0,0.4,0,0.6c0,0,0,0.1-0.1,0.1
		c0,0-0.1,0-0.1-0.1c-0.5-0.4-0.9-0.9-1.4-1.3c-1-0.8-2-1.7-3.1-2.5c-0.7-0.6-1.4-1.1-2-1.7c-1-0.9-2.1-1.7-3.1-2.6
		c-0.5-0.4-0.9-0.6-1.4-0.5c-0.3,0-0.6,0-0.9,0c-0.3,0-0.3,0.1-0.3,0.3c0,2,0,4,0,6.1c0,2,0,4,0,6c0,0.4,0,0.4,0.5,0.4
		c0.7,0,1.3,0,2,0c0.3,0,0.3-0.1,0.3-0.3c0-2.6,0-5.2,0-7.8c0-0.1,0-0.3-0.1-0.4c0-0.1,0-0.1,0-0.2c0.1,0,0.2,0,0.2,0
		c0.5,0.5,1,0.9,1.5,1.3c0.8,0.6,1.5,1.2,2.2,1.9c1,0.9,2,1.7,3.1,2.5c0.9,0.8,1.8,1.6,2.7,2.3c0.4,0.4,0.8,0.7,1.5,0.6
		c0.3-0.1,0.7,0,1,0c0.4,0,0.4,0,0.4-0.4c0-3.1,0-6.2,0-9.2c0-0.8,0-1.7,0-2.5C54.2,43.6,54.2,43.6,53.5,43.6z"/>
	<path class="st0" d="M100.9,51.8c-0.7-0.1-1.4-0.2-2.1-0.4c-0.1,0-0.2-0.1-0.3-0.1c-0.2,0-0.4,0-0.4,0.3c0,0.7,0,1.4,0,2
		c0,0.4,0,0.4-0.4,0.4c-2.4,0-4.8,0-7.2,0c-0.4,0-0.4,0-0.4-0.5c0-2,0-3.9,0-5.9c0-0.5,0-0.9,0-1.4c0-0.2,0-0.3,0.3-0.3
		c2.5,0,5,0,7.5,0c0.3,0,0.3,0.1,0.3,0.3c0,0.6,0,1.1,0,1.7c0,0.4,0,0.4,0.4,0.4c0.1,0,0.2,0,0.3,0c0.3-0.2,0.7-0.1,0.9-0.2
		c0.3-0.1,0.6-0.1,1-0.2c0.3,0,0.5-0.2,0.5-0.5c0-0.4,0-0.9,0-1.3c0-0.4,0-0.7-0.2-1c-0.1-0.3-0.3-0.8-0.5-1c-0.5-0.3-1-0.6-1.6-0.6
		c-3.1,0-6.3,0-9.4,0c-0.4,0-0.8,0.1-1.2,0.3c-0.8,0.3-1.1,1-1.2,1.8c0,0.8,0,1.7,0,2.5c0,2,0,4.1,0,6.1c0,0.5,0.2,1,0.6,1.4
		c0.5,0.5,1,0.7,1.7,0.7c1.5,0,3.1,0,4.6,0c1.6,0,3.2,0,4.8,0c0.4,0,1.3-0.3,1.6-0.5c0.6-0.4,0.7-1.1,0.8-1.7c0.1-0.7,0-1.4,0-2.1
		C101.2,51.8,101.1,51.8,100.9,51.8z"/>
	<path class="st0" d="M140,45.1c-0.2-0.7-0.6-1.1-1.2-1.3c-0.4-0.2-0.9-0.2-1.4-0.2c-1.5,0-2.9,0-4.4,0c-2,0-4,0-6.1,0
		c-0.3,0-0.6,0-0.8,0c0,0.3-0.1,0.6-0.1,0.9c0,1.8,0,3.6,0,5.5c0,1.9,0,3.8,0,5.6c0,0.2,0,0.4,0,0.6c0,0.1,0.1,0.2,0.2,0.2
		c0.9,0,1.8,0,2.6,0c0.2,0,0.2-0.1,0.2-0.3c0-1.3,0-2.6,0-3.8c0-0.3-0.1-0.7,0.1-0.8c0.2-0.1,0.5-0.1,0.8-0.1c2.5,0,5,0,7.5,0
		c0.5,0,0.9-0.1,1.3-0.3c0.3-0.1,0.6-0.4,0.8-0.7c0.2-0.4,0.4-0.8,0.4-1.2C140.1,47.9,140.3,46.5,140,45.1z M137.1,48.5
		c-0.1,0.1,0,0.4-0.2,0.5c-0.2,0.1-0.4,0.3-0.8,0.3c-1.1,0-2.2,0-3.3,0c-1.1,0-2.2,0-3.2,0c-0.2,0-0.4,0-0.4-0.3c0-0.9,0-1.9,0-2.8
		c0-0.3,0.1-0.3,0.4-0.3c2.2,0,4.3,0,6.5,0c0.3,0,0.6,0.1,0.8,0.3c0.2,0.2,0.4,0.5,0.4,0.7C137.2,47.3,137.4,47.9,137.1,48.5z"/>
	<path class="st0" d="M69,48.7c1.2-1.2,2.4-2.4,3.6-3.6c0.2-0.2,0.3-0.4,0.3-0.7c0,0,0-0.1,0-0.1c0-0.8,0-0.8-0.8-0.8
		c-3.4,0-6.8,0-10.2,0c-0.6,0-1.3,0-1.9,0.1c0,0.7,0,1.3,0,2c0,0,0,0.1,0,0.1c0,0.2,0,0.3,0.3,0.3c0.2,0,0.4,0,0.6,0
		c2.3,0,4.6,0,6.9,0c0.1,0,0.2,0,0.2,0.1c0,0.1-0.1,0.1-0.1,0.2c-2.7,2.7-5.3,5.3-8,8C58.9,55,58.9,55,59,56.1
		c0,0.3,0.1,0.3,0.3,0.3c2.2,0,4.4,0,6.6,0c2.2,0,4.3,0,6.5,0c0.4,0,0.4,0,0.4-0.5c0-0.5,0-0.9,0-1.4c0-0.6,0-0.6-0.6-0.6
		c-2.7,0-5.5,0-8.2,0c-0.1,0-0.2,0-0.2-0.1c0-0.1,0.1-0.1,0.1-0.2C65.6,52.1,67.3,50.4,69,48.7z"/>
	<path class="st0" d="M178,47.3c-0.7-1.2-1.4-2.4-2.1-3.6c0-0.1-0.1-0.2-0.2-0.2c-0.9,0-1.7,0-2.6,0c-0.1,0-0.4,0.1-0.4,0.2
		c-0.4,1-1.1,1.9-1.6,2.8c-0.3,0.6-0.6,1.1-0.9,1.7c-0.7,1.1-1.3,2.3-2,3.4c-0.4,0.5-0.6,1.2-0.9,1.7c-0.6,0.9-1.1,1.7-1.5,2.7
		c-0.1,0.1-0.3,0.3,0.1,0.3c0.6,0,1.1,0,1.7,0c0.4,0,0.8,0.1,1.1-0.1c0.2-0.1,0.2-0.6,0.4-0.8c0.4-0.4,0.6-1,0.8-1.5
		c0.2-0.3,0.3-0.4,0.6-0.4c2.4,0,4.9,0,7.3,0c0.1,0,0.1,0,0.2,0c0.2,0,0.2,0.1,0.3,0.2c0.5,0.7,0.9,1.5,1.3,2.3
		c0.1,0.2,0.1,0.2,0.3,0.2c0.5,0,1,0,1.5,0c0.5,0,1,0,1.5,0c0.2,0,0.3-0.1,0.1-0.3c-0.4-0.7-0.8-1.4-1.2-2.1 M174.3,46.2
		 M174.3,46.2 M174.3,46.2c-0.1,0.1,2.4,5.1,2.3,5.1c-0.8,0-1.7,0-2.5,0c-0.8,0-1.6,0-2.4,0"/>
	<path class="st0" d="M121.7,55.8c-0.7-0.9-1.2-2-1.8-3c-0.5-0.8-0.9-1.8-1.5-2.6c-0.6-1-1.2-2.1-1.8-3.2c-0.5-0.8-0.9-1.7-1.4-2.5
		c-0.2-0.3-0.3-0.7-0.6-0.8c-0.3-0.1-0.7,0-1.1,0c-0.5,0-1,0-1.5,0c-0.3,0-0.4,0.1-0.5,0.3c-0.3,0.7-0.6,1.4-1,2
		c-0.6,0.9-1.1,1.9-1.7,2.8c-0.6,1.1-1.3,2.3-1.9,3.4c-0.3,0.5-0.5,1-0.8,1.4c-0.6,0.8-1.1,1.7-1.5,2.6c-0.1,0.1-0.3,0.3,0.1,0.3
		c0.6,0,1.1,0,1.7,0c0.3,0,0.7,0.1,1,0c0.2-0.1,0.3-0.5,0.4-0.8c0.2-0.4,0.5-0.9,0.7-1.3c0.2-0.4,0.4-0.6,0.9-0.6c2.2,0,4.5,0,6.7,0
		c0.9,0,0.9,0,1.3,0.9c0.1,0.2,0.2,0.3,0.3,0.5c0.3,0.4,0.6,0.8,0.7,1.3c0.5,0,1.1,0,1.6,0.1c0,0,0.1,0,0.1,0c0.5,0,1,0,1.5,0
		c0.3,0,0.3-0.1,0.2-0.4C121.7,56,121.7,55.9,121.7,55.8z M115.5,51.3c-0.9,0-1.7,0-2.6,0c-0.8,0-1.6,0-2.5,0
		c-0.2,0-0.2-0.1-0.1-0.2c0.4-0.6,0.6-1.3,1-1.9c0.4-0.6,0.5-1.3,1-1.9c0,0,0-0.1,0-0.1c0.3-0.3,0.2-0.8,0.6-1
		c0.2,0.3,0.3,0.7,0.5,1c0.6,1.1,1.3,2.3,1.8,3.4c0.1,0.1,0.2,0.2,0.2,0.3c0,0.1,0.1,0.2,0.1,0.3C115.7,51.2,115.6,51.3,115.5,51.3z
		"/>
	<path class="st0" d="M33.6,54c-0.4-0.7-0.8-1.4-1.2-2.1c-0.9-1.5-1.7-3.1-2.6-4.6c-0.7-1.2-1.4-2.3-2.1-3.5c0-0.1-0.1-0.2-0.2-0.2
		c-0.9,0-1.7,0-2.6,0c-0.2,0-0.4,0.1-0.5,0.3c-0.4,0.9-1,1.8-1.5,2.6c-0.3,0.6-0.6,1.2-1,1.8c-0.7,1.1-1.3,2.2-1.9,3.3
		c-0.3,0.6-0.7,1.2-1,1.8c-0.5,0.9-1.1,1.8-1.5,2.8c0,0.1-0.2,0.2,0,0.2c0.9,0,1.8,0,2.7,0c0.1,0,0.2-0.1,0.2-0.2
		c0.4-0.7,0.8-1.4,1.2-2.2c0.1-0.3,0.3-0.4,0.6-0.4c1.2,0,2.4,0,3.7,0c1.3,0,2.5,0,3.8,0c0.2,0,0.2,0,0.4,0.2
		c0.5,0.7,0.9,1.5,1.3,2.3c0.1,0.2,0.1,0.3,0.3,0.3c1,0,1.9,0,2.9,0c0.2,0,0.3-0.1,0.2-0.3C34.4,55.4,34,54.7,33.6,54z M28,51.3
		c-0.7,0-1.4,0-2,0c-0.8,0-1.6,0-2.5,0c-0.3,0-0.2-0.1-0.1-0.3c0.3-0.6,0.6-1.3,1-1.9c0.4-0.6,0.6-1.3,1-1.9c0.2-0.3,0.3-0.7,0.5-1
		c0-0.1,0.1-0.2,0.2,0c0.2,0.4,0.3,0.7,0.5,1.1c0.6,1.1,1.1,2.2,1.7,3.3c0.1,0.2,0.4,0.4,0.3,0.5C28.6,51.4,28.2,51.3,28,51.3z"/>
	<path class="st0" d="M166.2,44c0-0.4,0-0.4-0.5-0.4c-2.3,0-4.6,0-6.9,0c-1.8,0-3.7,0-5.5,0c-0.6,0-1.2,0-1.9,0c0,0.6,0,1.3-0.1,1.9
		c0,0.4,0,0.4,0.5,0.4c1.7,0,3.3,0,5,0c0.6,0,0.6,0,0.6,0.6c0,1.5,0,3.1,0,4.6c0,1.6,0,3.1,0,4.7c0,0.5,0,0.5,0.6,0.5
		c0.6,0,1.2,0,1.8,0c0.6,0,0.6,0,0.6-0.6c0-3,0-6.1,0-9.1c0-0.7,0-0.7,0.7-0.7c1.1,0,2.2,0,3.3,0c0.6,0,1.2,0,1.9,0
		C166.1,45.3,166.1,44.7,166.2,44z"/>
	<path class="st0" d="M199.9,54c-0.3,0-0.6,0-0.8,0c-2.6,0-5.2,0-7.8,0c-0.3,0-0.7,0.1-0.8-0.1c-0.1-0.1-0.1-0.5-0.1-0.8
		c0-1.5,0-3,0-4.4c0-1.6,0-3.1,0-4.7c0-0.4,0-0.4-0.4-0.4c-0.8,0-1.5,0-2.3,0c-0.4,0-0.4,0-0.4,0.4c0,2,0,4,0,6c0,2,0,4,0,6.1
		c0,0.2,0,0.4,0.3,0.3c0.2,0,0.4,0,0.6,0c3.4,0,6.9,0,10.3,0c0.5,0,0.9,0,1.4,0c0-0.5,0.1-1,0.1-1.4C200,54.7,200,54.3,199.9,54z"/>
	<path class="st0" d="M147.3,43.6c-0.8,0-1.5,0-2.3,0c-0.4,0-0.4,0-0.4,0.4c0,2,0,4,0,6c0,2,0,3.9,0,5.9c0,0.5,0,0.5,0.5,0.5
		c0.7,0,1.4,0,2.1,0c0.5,0,0.5,0,0.5-0.5c0-3.2,0-6.4,0-9.6c0-0.7,0-1.5,0-2.2C147.7,43.6,147.7,43.6,147.3,43.6z"/>
</g>
</svg>
