<?xml version="1.0" encoding="utf-8"?>
<!-- Generator: Adobe Illustrator 19.2.0, SVG Export Plug-In . SVG Version: 6.00 Build 0)  -->
<svg version="1.1" id="Слой_1" xmlns="http://www.w3.org/2000/svg" xmlns:xlink="http://www.w3.org/1999/xlink" x="0px" y="0px"
	 viewBox="0 0 200 100" style="enable-background:new 0 0 200 100;" xml:space="preserve">
<style type="text/css">
	.st0{fill:#015673;}
</style>
<g>
	<path class="st0" d="M58.4,47.1c-0.5-0.2-0.9-0.4-1.4-0.7c1.9-0.5,3-1.7,3.5-3.5c0.6-2.1,0.5-4.2-0.2-6.3c-0.5-1.6-1.6-2.7-3.1-3.3
		c-1.3-0.6-2.7-0.8-4.1-0.8c-1.9,0-3.8,0-5.7,0c-0.4,0-0.8,0-1.1,0c-0.3,0-0.5,0.1-0.5,0.5c0,0.2,0,0.3,0,0.5c0,9.4,0,18.7,0,28.1
		c0,0.2,0,0.4,0,0.6c0,0.4,0.1,0.5,0.5,0.5c3,0,6,0.1,9-0.1c2.5-0.2,4.5-1.4,5.5-3.8c1.2-2.8,1.2-5.7,0.2-8.6
		C60.6,48.7,59.7,47.7,58.4,47.1z M50.1,40.3c0-1.4,0-2.7,0-4.1c0-0.3,0-0.6,0.5-0.6c1.4,0,2.8,0,4.2,0.3c1.2,0.2,1.9,0.9,2.2,2.1
		c0.4,1.5,0.4,3,0,4.5c-0.4,1.6-1.3,2.4-3.1,2.5c-1.1,0.1-2.2,0-3.3,0.1c-0.4,0-0.5-0.2-0.5-0.6C50.1,43.1,50.1,41.7,50.1,40.3z
		 M57.3,56.9c-0.3,1.3-1.1,2.1-2.4,2.4c-1.5,0.4-2.9,0.2-4.4,0.2c-0.4,0-0.4-0.3-0.4-0.6c0-1.2,0-2.4,0-3.6c0-0.5,0-1,0-1.5
		c0-1.7,0-3.4,0-5.1c0-0.5,0.1-0.6,0.6-0.6c0.8,0,1.6,0,2.3,0c2.5,0.1,4,1.3,4.4,3.7C57.8,53.7,57.7,55.3,57.3,56.9z"/>
	<path class="st0" d="M115.3,57.1c-0.3-1.4-0.4-2.8-0.4-4.2c-0.2-1-0.6-1.9-1-2.8c-0.1-0.4-0.1-0.6,0.1-1c1.3-2.1,2.5-4.2,3.8-6.2
		c-0.2-0.6-0.1-1.3-0.3-2c-0.1,0.2-0.2,0.3-0.4,0.3c-0.5,0-1,0.1-1.5,0c-0.8-0.1-1.2,0.3-1.5,0.9c-1.5,2.5-3.1,4.9-4.6,7.4
		c-0.1,0.2-0.2,0.5-0.5,0.6c-0.1-0.3-0.1-0.6-0.1-0.9c0-5.2,0-10.5,0-15.7c0-0.2,0-0.4,0-0.6c0-0.2-0.1-0.3-0.4-0.3
		c-1.1,0-2.2,0-3.3,0c-0.2,0-0.4,0.1-0.3,0.3c0,0.2,0,0.4,0,0.6c0,9.4,0,18.9,0,28.3c0,0.1,0,0.3,0,0.4c0,0.4,0.1,0.5,0.5,0.5
		c0.9,0,1.8,0,2.8,0c0.8,0,0.8,0,0.8-0.8c0-2.3,0-4.5,0-6.8c0-0.3-0.1-0.6,0.1-0.8c0.5-0.8,1.1-1.6,1.6-2.4c0.2,0.1,0.2,0.3,0.3,0.5
		c1.2,3.2,2.4,6.5,3.6,9.7c0.2,0.4,0.4,0.6,0.9,0.6c0.9,0,1.9,0,2.8,0c0.5,0,0.5-0.2,0.5-0.6C116.7,60.9,115.8,59.1,115.3,57.1z"/>
	<path class="st0" d="M128.2,47.7c-0.9-0.7-1.9-1.3-2.8-1.9c-1.2-0.8-2.4-1.6-3.5-2.4c-1-0.8-1.5-1.7-1.6-3
		c-0.1-1.7,0.3-3.2,1.8-4.2c2.4-1.6,6-0.6,7.3,2c0.4,0.9,0.6,1.8,0.6,2.8c0,0.4,0.1,0.5,0.5,0.4c0.6-0.1,1.2-0.1,1.9-0.2
		c0.3,0,0.5-0.2,0.5-0.5c0-0.9-0.1-1.8-0.3-2.7c-0.8-2.7-2.3-4.8-5.1-5.6c-1.4-0.4-2.8-0.4-4.2-0.1c-1.7,0.4-3.1,1.3-4.1,2.7
		c-1.2,1.7-1.5,3.7-1.4,5.8c0.1,0.6,0.1,1.3,0.3,2c0.7,1.9,1.8,3.5,3.5,4.6c0.8,0.6,1.7,1.1,2.6,1.6c0.9,0.6,1.8,1.2,2.7,1.9
		c1.8,1.4,2.1,3.5,1.5,5.4c-0.6,1.9-2.2,3.2-4.3,3.4c-0.9,0.1-1.8,0-2.6-0.3c-1.5-0.5-2.6-1.5-3.1-3c-0.3-0.9-0.4-1.7-0.5-2.6
		c0-0.4,0-0.8,0-1.3c-1-0.1-1.8,0.3-2.7,0.2c0,1.4,0.1,2.8,0.4,4.2c0.5,2.1,1.4,3.8,3.2,4.9c1.7,1,3.6,1.2,5.6,1
		c1.8-0.2,3.3-0.9,4.5-2.1c2.1-2.1,2.8-4.7,2.5-7.6C130.9,51,130,49.1,128.2,47.7z"/>
	<path class="st0" d="M153.3,43.1c-1.3-0.3-2.6-0.1-3.7,0.6c-0.9,0.6-1.7,1.3-2.4,2.2c-0.1,0.2-0.2,0.4-0.5,0.5
		c-0.1-0.4-0.2-0.7-0.3-1c-0.7-1.8-2.4-2.7-4.3-2.3c-1,0.2-1.9,0.7-2.6,1.4c-0.6,0.5-1,1.2-1.6,1.7c0,0.1-0.1,0.2-0.2,0.2
		c-0.1-0.1-0.1-0.2,0-0.3c0.1-0.7,0.2-1.4,0.4-2.2c0.1-0.3,0-0.4-0.4-0.4c-0.6,0-1.2,0-1.9,0c-0.3,0-0.5,0.1-0.5,0.4
		c-0.2,1-0.3,2-0.5,3c-0.9,5.1-1.8,10.1-2.6,15.2c-0.1,0.4,0,0.6,0.4,0.6c0.6,0,1.1,0,1.7,0c0.4,0,0.5-0.1,0.6-0.5
		c0.5-2.8,0.9-5.5,1.4-8.3c0.3-1.7,0.7-3.4,1.5-4.9c0.6-1.2,1.5-2.2,2.7-2.8c0.8-0.4,1.7-0.7,2.6-0.1c0.9,0.6,0.9,1.6,0.7,2.5
		c-0.6,3.4-1.2,6.7-1.8,10.1c-0.2,1.3-0.5,2.6-0.7,4c0.7,0,1.3,0,1.9,0c0.8,0,0.8,0,0.9-0.8c0.5-3.1,1.1-6.1,1.6-9.1
		c0.3-1.4,0.6-2.8,1.3-4.1c0.8-1.4,1.9-2.4,3.5-2.8c1.7-0.4,2.8,0.5,2.6,2.2c0,0.1,0,0.2,0,0.2c-0.5,3.7-1.3,7.4-1.9,11.1
		c-0.2,1.1-0.4,2.2-0.6,3.3c0.8,0,1.5,0,2.2,0c0.5,0,0.6-0.2,0.6-0.6c0.8-4.4,1.6-8.8,2.3-13.1c0.2-1.2,0.3-2.4-0.1-3.5
		C155.4,44.1,154.6,43.4,153.3,43.1z"/>
	<path class="st0" d="M84.9,43.8c-0.5-1.1-1.2-1.9-2.4-2.4c-2-0.8-3.9-0.8-5.9,0c-0.9,0.3-1.6,1-2.2,1.9c-0.6,1-0.9,2-1,3.1
		c-0.3,1.8-0.1,3.7-0.2,5.2c0,1.3,0,2.4,0,3.4c0,1.2,0.1,2.3,0.4,3.5c0.5,2.1,1.6,3.8,3.9,4.3c1.3,0.3,2.6,0.3,3.9,0
		c1.7-0.3,2.9-1.3,3.6-2.9c0.4-0.9,0.7-1.9,0.7-2.9c0.2-3.2,0.2-6.5,0.1-9.7C85.7,46,85.4,44.9,84.9,43.8z M81.7,56.3
		c0,0.7,0,1.5-0.3,2.2c-0.4,1.1-1,1.5-2.2,1.4c-1,0-1.6-0.6-1.9-1.6c-0.2-0.8-0.2-1.6-0.2-2.3c0-1.4,0-2.8,0-4.1c0,0,0,0,0,0
		c0-1.7,0-3.5,0-5.2c0-0.4,0.1-0.9,0.2-1.3c0.3-1.1,1-1.6,2-1.6c1,0,1.7,0.4,2,1.5c0.2,0.7,0.3,1.4,0.3,2.1
		C81.8,50.3,81.8,53.3,81.7,56.3z"/>
	<path class="st0" d="M98,48.9c0.9,0,1.8,0,2.8,0c0.3,0,0.5-0.1,0.5-0.5c0-1.5,0-3-0.5-4.5c-0.4-1.4-1.4-2.3-2.7-2.7
		c-1.6-0.5-3.2-0.5-4.8-0.1c-2,0.4-3.2,1.7-3.7,3.6c-0.2,0.8-0.4,1.6-0.4,2.5c-0.2,2.6-0.1,5.2-0.1,7.8c0,1.3,0.1,2.6,0.4,3.8
		c0.5,2,1.7,3.4,3.9,3.9c1.2,0.3,2.4,0.3,3.5,0.1c1.7-0.2,3.1-1.1,3.7-2.8c0.6-1.7,0.6-3.4,0.6-5.2c0-0.3-0.2-0.3-0.4-0.3
		c-0.6,0-1.2,0-1.9,0c-1.4,0-1.4,0-1.4,1.3c0,1,0,1.9-0.3,2.9c-0.2,0.7-0.7,1.1-1.4,1.2c-1.5,0.2-2.3-0.4-2.6-1.8
		c0-0.2-0.1-0.3-0.1-0.5c-0.3-1.9-0.1-3.8-0.1-5.4c0-1.1,0-1.8,0-2.5c0-0.7,0-1.5,0-2.2c0-0.8,0.1-1.5,0.3-2.2
		c0.1-0.5,0.4-1,0.9-1.2c1.4-0.7,2.8,0,3.2,1.5c0.1,0.6,0.1,1.1,0.1,1.7c0,0.4,0,0.8,0,1.2C97.5,48.8,97.6,48.9,98,48.9z"/>
	<path class="st0" d="M168.3,43.4c-1-0.4-2-0.5-3.1-0.5c-4.1,0.1-5.9,2.6-7,5.4c-0.1,0.3-0.1,0.5,0.3,0.5c0.5,0,1.1,0.1,1.6,0.2
		c0.5,0.1,0.7-0.1,0.9-0.5c1-2.5,3.9-3.6,6.4-2.5c1,0.5,1.5,1.2,1.5,2.3c0,0.5-0.1,1.1-0.2,1.6c-0.1,0.5-0.3,0.7-0.8,0.8
		c-1,0.3-2,0.3-3,0.4c-1.2,0.1-2.5,0.1-3.7,0.4c-1.3,0.3-2.4,0.8-3.3,1.8c-1.7,2-1.8,4.4-0.9,6.8c0.7,1.9,2.5,3,4.5,2.9
		c1.4,0,2.7-0.6,3.8-1.4c0.5-0.4,0.9-0.8,1.5-1.3c0.1,0.6,0.2,1.1,0.2,1.6c0,0.5,0.2,0.7,0.7,0.7c0.5,0,1,0,1.5,0
		c0.7,0,0.7,0,0.6-0.7c-0.2-1.3-0.2-2.5,0-3.8c0.2-1.5,0.6-3,0.9-4.5c0.4-1.7,0.8-3.5,0.9-5.3C171.7,46,170.5,44.2,168.3,43.4z
		 M166.8,57.4c-0.7,1.5-1.8,2.5-3.4,3c-1.8,0.5-3.4-0.3-3.9-1.9c-0.6-1.9,0.3-3.7,2.1-4.3c0.5-0.2,1-0.3,1.5-0.3
		c1.7-0.2,3.3-0.3,5.1-0.9C167.8,54.5,167.5,56,166.8,57.4z"/>
	<path class="st0" d="M69,32.5c-1.1,0-2.2,0-3.2,0c-0.3,0-0.4,0.1-0.4,0.4c0,0.2,0,0.4,0,0.6c0,4.6,0,9.3,0,13.9c0,4.7,0,9.4,0,14.2
		c0,0.2,0,0.4,0,0.6c0,0.3,0.1,0.4,0.4,0.4c1.1,0,2.2,0,3.2,0c0.3,0,0.4-0.1,0.4-0.4c0-0.2,0-0.4,0-0.6c0-9.4,0-18.8,0-28.2
		c0-0.2,0-0.3,0-0.5C69.4,32.6,69.3,32.5,69,32.5z"/>
	<path class="st0" d="M191.8,43.4c-0.4,0-0.5-0.1-0.4-0.5c0.2-0.9,0.3-1.8,0.5-2.7c0.2-1.2,0.4-2.3,0.6-3.7
		c-0.9,0.7-1.7,1.3-2.5,1.8c-0.5,0.3-0.7,0.8-0.8,1.3c-0.2,1.1-0.4,2.2-0.5,3.3c-0.1,0.4-0.2,0.6-0.6,0.6c-0.5,0-1.2-0.3-1.5,0.1
		c-0.3,0.3-0.3,1-0.4,1.5c0,0.1,0,0.2,0,0.2c-0.1,0.6-0.1,0.6,0.5,0.7c0.3,0,0.5,0,0.8,0c0.7,0,0.7,0,0.6,0.7
		c-0.4,2.3-0.8,4.6-1.2,6.8c-0.3,2-0.7,4-1,6.1c-0.2,1.6,0.7,3,2.2,3.3c0.8,0.2,1.6,0.1,2.4-0.1c0.3-0.1,0.5-0.2,0.5-0.5
		c0.1-0.7,0.2-1.4,0.4-2.3c-0.6,0.2-1.1,0.2-1.6,0.2c-0.6-0.1-0.9-0.3-1-1c0-0.2,0-0.5,0-0.7c0.7-4,1.4-8,2-12
		c0.1-0.4,0.3-0.5,0.6-0.5c0.6,0,1.1,0,1.7,0c0.2,0,0.4,0,0.5-0.3c0.1-0.7,0.3-1.5,0.3-2.3C193.1,43.4,192.5,43.3,191.8,43.4z"/>
	<path class="st0" d="M184.5,43.3c-1.1-0.6-2.2-0.5-3.3,0.2c-0.9,0.7-1.6,1.6-2.3,2.5c-0.2,0.2-0.2,0.6-0.6,0.6
		c0.2-1.1,0.4-2.2,0.6-3.2c-0.1,0-0.1-0.1-0.2-0.1c-0.5,0-0.9,0-1.4,0c-0.8,0-0.8,0-1,0.8c-0.9,5-1.7,9.9-2.6,14.9
		c-0.2,1.1-0.4,2.3-0.6,3.5c0.7,0,1.4,0,2,0c0.4,0,0.6-0.1,0.7-0.6c0.2-1.5,0.5-3,0.8-4.5c0.4-2.3,0.7-4.6,1.4-6.8
		c0.5-1.4,1.1-2.7,2.2-3.7c1.2-1.1,2.1-1.2,3.6-0.4c0.3-0.8,0.6-1.7,0.9-2.5C185.1,43.7,184.9,43.5,184.5,43.3z"/>
	<g>
		<path class="st0" d="M20,41.1c5.1,1.9,10.2,3.8,15.4,5.7c0.7,0.3,1.4,0.6,2.2,0.8c0-1.1,0-2.2,0-3.3c0-0.3-0.2-0.4-0.3-0.5
			c-0.6-0.5-1.3-0.9-1.9-1.4c-2-1.5-4-3-6-4.6c-3.1-2.4-6.3-4.7-9.4-7.1c-0.1-0.1-0.2-0.3-0.5-0.2c0,3.3,0,6.6,0,9.9
			C19.4,40.9,19.7,41,20,41.1z"/>
		<path class="st0" d="M18.2,59.9c0-1.4,0.2-1.1-1.1-1.6c-4.8-1.8-9.7-3.6-14.5-5.4C1.7,52.6,1,52.2,0,52.1c0,1,0,1.8,0,2.7
			c0,0.5,0.2,0.8,0.6,1.1c2.8,2.1,5.7,4.3,8.5,6.4c2.8,2.1,5.5,4.1,8.3,6.2c0.2,0.2,0.5,0.3,0.8,0.6c0.1-0.4,0.1-0.7,0.1-0.9
			C18.2,65.5,18.2,62.7,18.2,59.9z"/>
		<path class="st0" d="M0,47.1c0,0.4,0.1,0.5,0.5,0.4c3.2-1.2,6.5-2.4,9.7-3.6c1.6-0.6,3.2-1.1,4.7-1.8c0.8-0.4,1.7-0.6,2.6-0.8
			c0.5-0.2,0.7-0.4,0.6-0.9c0-3.1,0-6.2,0-9.2c0-0.2,0-0.3-0.1-0.5c-0.2,0-0.3,0.2-0.5,0.3c-5.7,4.3-11.3,8.6-17.1,12.8
			C0.2,43.9,0,44.2,0,44.7C0.1,45.5,0,46.3,0,47.1z"/>
		<path class="st0" d="M37.6,52.1c-0.3,0.1-0.5,0.1-0.7,0.1c-1.5,0.6-3.1,1.1-4.6,1.7c-4.1,1.5-8.1,3-12.2,4.5
			c-0.5,0.2-0.7,0.4-0.7,1c0,3,0,6,0,9.1c0,0.2,0,0.4,0,0.6c0.3,0,0.4-0.2,0.6-0.3c1.7-1.4,3.5-2.7,5.3-4c1.4-1.1,2.9-2.1,4.3-3.2
			c2.5-1.9,5-3.8,7.5-5.7c0.2-0.2,0.4-0.3,0.4-0.6C37.6,54.2,37.6,53.2,37.6,52.1z"/>
		<path class="st0" d="M34.4,51.8c0-0.1,0-0.1,0-0.2c-0.3,0-0.7,0-1,0.1c-3,0.5-5.9,1-8.9,1.5c-1.4,0.2-2.9,0.5-4.3,0.7
			c-0.3,0-0.6,0-0.6,0.4c0,1,0,2,0,3.1C24.5,55.5,29.4,53.7,34.4,51.8z"/>
		<path class="st0" d="M3.3,47.9c0.4,0,0.8,0.1,1.2,0.1c2.5-0.4,5-0.8,7.5-1.2c1.9-0.3,3.8-0.6,5.7-0.9c0.4-0.1,0.6-0.2,0.6-0.6
			c0-0.9,0-1.9,0-3C13.1,44.1,8.2,46,3.3,47.9z"/>
		<path class="st0" d="M17.6,53.8c-2.8-0.3-5.5-0.9-8.3-1.3c-0.7-0.1-1.5-0.1-2.1-0.3c-1-0.3-2.1-0.3-3.1-0.6
			c-0.2-0.1-0.5-0.1-0.8,0.1c5,1.9,9.9,3.7,15,5.6c0-1,0-1.9,0-2.9C18.2,54,18,53.9,17.6,53.8z"/>
		<path class="st0" d="M20.2,45.8c1.9,0.3,3.8,0.6,5.7,0.9c2.3,0.4,4.5,0.7,6.8,1.1c0.6,0.1,1.2,0.1,1.7,0.1c0,0,0-0.1,0-0.1
			c-4.9-1.9-9.9-3.8-14.9-5.7c0,1,0,1.9,0,2.8C19.4,45.7,19.4,45.7,20.2,45.8z"/>
	</g>
	<path class="st0" d="M199.7,36.6c-0.3,0-0.5,0-0.6,0.4c-0.1,0.4-0.1,0.8-0.4,1.2c-0.3-0.4-0.3-0.9-0.4-1.3
		c-0.1-0.3-0.4-0.3-0.6-0.3c-0.3,0-0.3,0.1-0.3,0.4c0,0.7,0,1.3,0,2c0,0.2,0,0.3,0.2,0.3c0.2,0,0.3-0.1,0.3-0.3c0-0.4,0-0.8,0-1.3
		c0.4,0.5,0.3,0.9,0.5,1.3c0.1,0.2,0.1,0.3,0.3,0.3c0.2,0,0.3-0.1,0.4-0.3c0.1-0.3,0.1-0.7,0.4-0.9c0.1,0.3,0.1,0.6,0.1,0.9
		c0,0.2,0,0.3,0.3,0.3c0.2,0,0.2-0.2,0.2-0.3c0-0.6,0-1.2,0-1.9C200,36.9,200.1,36.6,199.7,36.6z"/>
	<path class="st0" d="M196.8,36.6c-0.5,0-1,0-1.5,0c-0.1,0-0.3,0-0.3,0.2c0,0.2,0.1,0.3,0.3,0.3c0.4-0.1,0.5,0.2,0.5,0.5
		c0,0.2,0,0.4,0,0.6c0,0.3,0,0.5,0,0.8c0,0.2,0,0.3,0.2,0.3c0.3,0,0.3-0.1,0.3-0.4c0-0.5,0-0.9,0-1.4c0-0.4,0-0.6,0.5-0.5
		c0.2,0,0.3,0,0.3-0.3C197.1,36.7,196.9,36.6,196.8,36.6z"/>
</g>
</svg>
