<?xml version="1.0" encoding="utf-8"?>
<!-- Generator: Adobe Illustrator 19.2.0, SVG Export Plug-In . SVG Version: 6.00 Build 0)  -->
<svg version="1.1" id="Слой_1" xmlns="http://www.w3.org/2000/svg" xmlns:xlink="http://www.w3.org/1999/xlink" x="0px" y="0px"
	 viewBox="0 0 200 100" style="enable-background:new 0 0 200 100;" xml:space="preserve">
<style type="text/css">
	.st0{fill:#015673;}
</style>
<g>
	<g>
		<path class="st0" d="M135.4,39.8c-2.5,3.9-4.9,7.8-7.4,11.7c-4.5,7.1-9,14.1-13.5,21.2c-0.3,0.5-0.7,0.7-1.3,0.7
			c-2.6,0-5.2-0.1-7.7,0c-0.9,0-1.1-0.3-1.1-1.2c0-10.9,0-21.7,0-32.5c0-0.3,0-0.7,0-0.9c-0.1,0-0.1,0-0.1,0c0,2.2,0,4.4,0,6.5
			c-0.1,0-0.1,0-0.2,0c0-1.9,0-3.8,0-5.7c-0.1,0-0.1,0-0.2,0c-0.7,2.7-1.5,5.3-2.3,8.1c-2.3,8.3-4.7,16.5-6.9,24.8
			c-0.2,0.8-0.6,1.1-1.4,1.1c-3.1-0.1-6.2,0-9.3,0c-1.2,0-1.3-0.1-0.9-1.3c2-6.9,4.1-13.9,6.1-20.8c2.1-7.3,4.2-14.5,6.2-21.8
			c0.2-0.7,0.5-1.1,1.3-1c5.3,0,10.7,0.1,16,0c0.9,0,1.1,0.3,1.1,1.2c0,7.6,0,15.3,0,22.9c0,0.3,0,0.5,0,0.8c0,0.3-0.1,0.7,0.4,0.7
			c0.4,0.1,0.7-0.1,0.9-0.5c0.3-0.6,0.7-1.2,1.1-1.8c4.8-7.5,9.6-15.1,14.3-22.7c0.3-0.5,0.7-0.7,1.4-0.7c5.5,0,10.9,0,16.4,0
			c1,0,1.1,0.1,0.9,1.1c-1.7,8-3.3,16.1-5.1,24.1c-1.4,6.3-2.7,12.5-3.9,18.8c-0.1,0.7-0.5,1-1.2,1c-3.2,0-6.3,0-9.5,0
			c-0.7,0-1-0.2-0.8-1c1.5-6.6,2.9-13.1,4.3-19.7C133.7,48.4,134.6,44.1,135.4,39.8C135.4,39.8,135.4,39.8,135.4,39.8z"/>
		<path class="st0" d="M186.8,46.9c3.3,0,6.5,0,9.8,0c1.1,0,1.1,0.1,0.9,1.1c-1.9,7.5-3.7,15.1-5.6,22.7c-0.1,0.7-0.3,1.1-1.1,1.3
			c-7.3,1.6-14.7,2.6-22.2,2.3c-3.7-0.1-7.4-0.8-10.8-2.5c-4.2-2.1-6.6-5.6-7.5-10.1c-0.3-1.3,0-2.8-0.1-4.2
			c-0.5-7.1,2.2-13.3,6.1-19c2.5-3.6,5.6-6.5,9.4-8.5c3.5-1.9,7.3-3,11.3-3.5c4.6-0.6,9.1-0.6,13.7,0.5c3,0.7,5.7,1.9,7.6,4.5
			c2.1,2.9,2.1,6.1,1.3,9.4c-0.1,0.6-0.7,0.5-1.1,0.5c-3.3,0-6.5,0-9.8,0c-0.7,0-1.3,0.2-1.9-0.1c-0.7-0.4-0.3-1.2-0.4-1.8
			c-0.5-2.7-2.5-4.2-5.7-4.3c-5.3-0.1-9.3,2.2-12.3,6.4c-2.1,2.9-3.3,6.1-4.1,9.5c-0.4,1.4-0.7,2.8-0.7,4.3c0,1.2,0.1,2.4,0.5,3.5
			c0.9,3.8,4,6.2,8.2,6.5c2.8,0.2,5.6-0.1,8.3-0.5c0.5-0.1,0.8-0.3,0.9-0.9c0.6-2.4,1.1-4.7,1.7-7.1c0.1-0.6,0-0.9-0.7-0.8
			c-2.5,0-4.9,0-7.3,0c-0.8,0-1.1-0.3-1.1-1.1c0-0.7,0.1-1.5,0.3-2.2c0.4-1.5,0.8-3.1,1.1-4.6c0.2-0.9,0.6-1.3,1.5-1.2h0.1
			C180.4,46.9,183.6,46.9,186.8,46.9z"/>
		<path class="st0" d="M18.6,46.3c2.5-2.6,4.9-5.3,7.3-7.9c2.9-3.1,5.9-6.3,8.8-9.5c0.3-0.3,0.7-0.5,1.1-0.5c4.2,0,8.4,0,12.6,0
			c0.2,0,0.5-0.1,0.6,0.1s-0.2,0.4-0.3,0.5c-2.5,2.5-4.9,5.1-7.4,7.6c-4.4,4.5-8.7,8.9-13.1,13.4c-0.5,0.5-0.5,0.9-0.3,1.5
			c3.3,6.8,6.5,13.7,9.9,20.5c0.5,1.1,0.5,1.1-0.7,1.1c-3.5,0-7,0-10.5,0c-0.7,0-1.2-0.3-1.5-0.9c-2.5-5.2-5.1-10.5-7.7-15.7
			c-0.2-0.3-0.3-0.8-0.8-0.9c-0.7-0.1-1.1,0.2-1.3,0.9c-1.5,4.9-2.9,9.8-4.4,14.7c-0.1,0.3-0.3,0.7-0.3,1.1c-0.1,0.6-0.5,0.7-1,0.7
			c-2.9,0-5.9,0-8.8,0c-0.9,0-0.9-0.3-0.7-1c2.5-8.1,4.9-16.1,7.3-24.3c1.9-6.2,3.7-12.4,5.6-18.7c0.2-0.7,0.5-1,1.3-1
			c2.9,0.1,5.7,0,8.5,0c1,0,1,0,0.7,1c-1.7,5.6-3.3,11.1-5,16.7C18.5,46.2,18.6,46.3,18.6,46.3z"/>
		<path class="st0" d="M68,28.5c3.1,0,6.3,0,9.5,0c1.7,0,3.3,0.3,4.9,0.8c3.1,1,4.9,3.1,5.3,6.3c0.5,4.3-0.1,8.5-2.5,12.1
			c-2.3,3.7-5.9,5.8-10,7.2c-2.3,0.8-4.7,0.9-7.1,0.9c-2.3-0.1-4.7,0-7.1,0c-0.7,0-1,0.2-1.1,0.9c-1.5,5.1-3.1,10.3-4.6,15.5
			c-0.4,1.3-0.4,1.3-1.7,1.3c-3,0-6.1,0-9.1,0c-1.1,0-1.1-0.1-0.8-1.1c3.9-13,7.9-26,11.8-39c0.4-1.4,0.9-2.7,1.2-4.1
			c0.1-0.6,0.5-0.7,1-0.7C61.1,28.5,64.6,28.5,68,28.5z M70.4,35.7c-1.5,0-2.5,0-3.6,0c-0.5,0-0.8,0.1-0.9,0.6
			c-1,3.7-1.9,7.4-2.9,11.1c-0.1,0.5,0,0.6,0.5,0.6c2,0,3.9,0.1,5.9-0.2c1.9-0.3,3.9-0.8,5.1-2.4c1.5-1.9,2.3-4.1,2.5-6.4
			c0.2-1.9-0.5-2.7-2.5-3.1C73,35.7,71.5,35.8,70.4,35.7z"/>
	</g>
</g>
</svg>
