<?xml version="1.0" encoding="utf-8"?>
<!-- Generator: Adobe Illustrator 19.2.0, SVG Export Plug-In . SVG Version: 6.00 Build 0)  -->
<svg version="1.1" id="Слой_1" xmlns="http://www.w3.org/2000/svg" xmlns:xlink="http://www.w3.org/1999/xlink" x="0px" y="0px"
	 viewBox="0 0 200 100" style="enable-background:new 0 0 200 100;" xml:space="preserve">
<style type="text/css">
	.st0{fill:#155773;}
</style>
<g>
	<g>
		<path class="st0" d="M76.3,77.4c-6.8,0-13.6,0-20.4,0c-1.6,0-1.6,0-1.6-1.6c0-17.3,0-34.7,0-52c0-1.5,0.1-1.5,1.5-1.5
			c9.5,0,19,0,28.5,0c0.9,0,1.6,0.3,2,1.1c2,3.6,4.1,7.1,6.2,10.7c0.6,1-0.2,0.9-0.8,0.9c-5.2,0-10.4,0-15.6,0c-1.2,0-2.4,0.1-3.6,0
			c-1.1-0.1-1.6,0.3-1.5,1.5c0.1,2.1,0.1,4.2,0,6.3c0,1,0.4,1.3,1.4,1.3c5.5,0,11.1,0,16.7,0c1.8,0,1.8,0,1.8,1.8c0,2.7,0,5.4,0,8
			c0,1.8,0,1.8-1.9,1.8c-5.5,0-10.9,0-16.3,0c-1.6,0-1.6,0-1.6,1.6c0,1.9,0,3.8,0,5.7c0,1.5,0.1,1.5,1.5,1.5c8,0,16,0,24,0
			c2,0,2,0,2,2c0,3,0,6.1,0,9.1c0,1.8,0,1.8-1.8,1.8C89.8,77.4,83.1,77.4,76.3,77.4z"/>
		<path class="st0" d="M110,66.3c0-3.1,0-6.2,0-9.3c0-0.8-0.2-1.5-0.6-2.2c-4.5-7.7-8.9-15.4-13.4-23.1c-1.5-2.7-3.1-5.3-4.6-8
			c-0.7-1.2-0.6-1.3,0.7-1.3c5.2,0,10.5,0,15.7,0c0.9,0,1.4,0.4,1.8,1.2c2.7,5.2,5.4,10.3,8.1,15.5c0.2,0.3,0.2,0.8,0.6,0.8
			c0.4,0,0.5-0.5,0.6-0.8c2.5-4.7,5-9.4,7.3-14.2c0.9-1.9,2-2.7,4.2-2.6c4.6,0.2,9.2,0.1,13.7,0.1c0.4,0,0.9-0.2,1.2,0.2
			c0.3,0.4-0.2,0.8-0.4,1.1c-3.6,6.2-7.1,12.4-10.7,18.6c-2.3,4-4.6,7.9-6.9,11.9c-0.5,0.9-0.8,1.9-0.8,3c0,6.2,0,12.4,0,18.5
			c0,1.7-0.1,1.8-1.7,1.8c-4.4,0-8.9,0-13.3,0c-1.5,0-1.6-0.1-1.6-1.6C110,72.7,110,69.5,110,66.3z"/>
	</g>
</g>
</svg>
