<?xml version="1.0" encoding="utf-8"?>
<!-- Generator: Adobe Illustrator 19.2.0, SVG Export Plug-In . SVG Version: 6.00 Build 0)  -->
<svg version="1.1" id="Capa_1" xmlns="http://www.w3.org/2000/svg" xmlns:xlink="http://www.w3.org/1999/xlink" x="0px" y="0px"
	 viewBox="0 0 512 512" style="enable-background:new 0 0 512 512;" xml:space="preserve">
<style type="text/css">
	.st0{fill:#FFFFFF;}
</style>
<g>
	<path class="st0" d="M283.3,221.5c0-15.8-19.1-17.4-28.8-17.4h-13.8v38.1h25.6C276.5,240.9,283.9,231.8,283.3,221.5z"/>
	<path class="st0" d="M255.9,107c-82.3,0-149,66.7-149,149s66.7,149,149,149s149-66.7,149-149C404.8,173.7,338.1,107,255.9,107z
		 M277.5,326.2h-4.2V358h-19v-31.8h-13V358h-19.5v-31.8h-37.6v-20.5H199c3.9,0,7.5-2.2,7.5-9.4v-86.2c0-5.3-3.2-7.2-9.7-7.2h-14.5
		v-20.1h39v-31.1h19.4v31.1h13v-31.1H273v31.4c19.7,1.7,44.6,9.5,47.3,30.4c2.2,13.5-4.2,27-16.2,33.8c15.3,3.7,26.1,17.1,26.4,32.8
		C330.6,306.7,317.3,326.2,277.5,326.2z"/>
	<path class="st0" d="M265.5,262.1h-24.9v41.5h21.5v0.1c20.8,0,31.1-8.7,31.1-24.2S271.4,262.1,265.5,262.1z"/>
	<path class="st0" d="M422.8,0H89.2C39.9,0,0,39.9,0,89.2v333.6C0,472.1,39.9,512,89.2,512h333.6c49.3,0,89.2-39.9,89.2-89.2V89.2
		C512,39.9,472.1,0,422.8,0z M255.9,434.8c-98.8-0.1-178.7-80.2-178.7-178.9c0.1-98.8,80.2-178.7,178.9-178.7
		c98.7,0.1,178.7,80.1,178.7,178.8C434.6,354.7,354.6,434.7,255.9,434.8z"/>
</g>
</svg>
