<?xml version="1.0" encoding="utf-8"?>
<!-- Generator: Adobe Illustrator 19.2.0, SVG Export Plug-In . SVG Version: 6.00 Build 0)  -->
<svg version="1.1" id="Layer_1" xmlns="http://www.w3.org/2000/svg" xmlns:xlink="http://www.w3.org/1999/xlink" x="0px" y="0px"
	 viewBox="0 0 512 512" style="enable-background:new 0 0 512 512;" xml:space="preserve">
<style type="text/css">
	.st0{fill:#FFFFFF;}
</style>
<g>
	<g>
		<path class="st0" d="M383.3,0.2h-255C57.7,0.2,0,57.9,0,128.5v255.4c0,70.2,57.7,127.9,128.3,127.9h255.4
			c70.6,0,128.3-57.7,128.3-128.3v-255C511.6,57.9,453.9,0.2,383.3,0.2z M170.5,414.4H97.4V203.2h73.1V414.4z M133.6,170.7
			c-20.7,0-37.4-16.6-37.4-37.4c0-20.7,16.6-37.4,37.4-37.4s37.4,16.6,37.4,37.4C170.5,154.1,153.9,170.7,133.6,170.7z M414.6,414.4
			h-0.4h-60.9V312c0-24.8-3.2-56.4-36.9-56.4c-34.5,0-40.2,26.8-40.2,54.8v103.9h-60.9V203.2H272v28.4h1.6
			c8.9-16.2,29.6-28.8,62.1-28.8c67,0,78.8,38.6,78.8,95.8L414.6,414.4L414.6,414.4z"/>
	</g>
</g>
</svg>
