<?xml version="1.0" encoding="utf-8"?>
<!-- Generator: Adobe Illustrator 19.2.0, SVG Export Plug-In . SVG Version: 6.00 Build 0)  -->
<svg version="1.1" id="Capa_1" xmlns="http://www.w3.org/2000/svg" xmlns:xlink="http://www.w3.org/1999/xlink" x="0px" y="0px"
	 viewBox="0 0 512 512" style="enable-background:new 0 0 512 512;" xml:space="preserve">
<style type="text/css">
	.st0{fill:#FFFFFF;}
</style>
<g>
	<path class="st0" d="M426.7,0H85.3C40.5,0,0,40.5,0,85.3v341.3C0,471.5,40.5,512,85.3,512H155h101h79.6h91
		c44.9,0,85.3-40.5,85.3-85.3V85.3C512,40.5,471.5,0,426.7,0z M199.3,422.6c0,1.1,0,2.2,0,3.6c-9.1-2.3-17.7-4.4-26.3-6.6
		c-27.9-7-55.8-14-83.7-20.8c-2.8-0.7-3.6-1.8-3.6-4.6c0.1-67.4,0.1-134.8,0.1-202.2c0-16.3,0-32.6,0-49.5
		c7.2,1.8,14.1,3.4,20.9,5.1c29.8,7.5,59.6,15,89.5,22.4c2.5,0.6,3.3,1.6,3.3,4.2C199.3,257,199.3,339.8,199.3,422.6z M311.6,340.7
		c-4.9-1.2-9.8-2.4-14.7-3.6c-24.6-6.2-49.1-12.4-73.7-18.4c-1.9-0.5-2.5-1.1-2.5-3c0.1-36.9,0-73.8,0.1-110.7
		c0-0.2,0.1-0.4,0.3-1.4c30.5,45.8,60.7,91.1,90.9,136.4C311.9,340.2,311.7,340.4,311.6,340.7z M426.3,369.4
		c-30.8-7.7-61.4-15.3-92.2-23C364.7,285,395.2,224,425.7,163c0.2,0,0.4,0.1,0.5,0.1C426.3,231.7,426.3,300.2,426.3,369.4z
		 M323.9,318.9c-0.7-0.9-1.2-1.4-1.6-2c-23.4-35-46.8-70.1-70.2-105.1c-0.9-1.4-1.2-2.5-0.3-4.2c20.2-40.2,40.3-80.5,60.5-120.8
		c0.1-0.3,0.4-0.5,0.7-1.1c37.5,9.4,75.1,18.8,113.3,28.3C392.1,182.5,358.1,250.5,323.9,318.9z"/>
</g>
</svg>
