<?xml version="1.0" encoding="utf-8"?>
<!-- Generator: Adobe Illustrator 19.2.0, SVG Export Plug-In . SVG Version: 6.00 Build 0)  -->
<svg version="1.1" id="Capa_1" xmlns="http://www.w3.org/2000/svg" xmlns:xlink="http://www.w3.org/1999/xlink" x="0px" y="0px"
	 viewBox="0 0 512 512" style="enable-background:new 0 0 512 512;" xml:space="preserve">
<style type="text/css">
	.st0{display:none;fill:#383838;}
	.st1{fill:#FFFFFF;}
</style>
<path class="st0" d="M422.8,512H89.2C39.9,512,0,472.1,0,422.8V89.2C0,39.9,39.9,0,89.2,0h333.6C472.1,0,512,39.9,512,89.2v333.6
	C512,472.1,472.1,512,422.8,512z"/>
<g>
	<path class="st1" d="M291.5,331.7c-22.2,16.1-52,16.1-74.3,0c-4.8-3.5-11.6-2.4-15,2.4c-3.5,4.8-2.4,11.6,2.4,15
		c14.9,10.8,32.3,16.1,49.8,16.1c17.4,0,34.9-5.4,49.8-16.1c4.8-3.5,5.9-10.2,2.4-15C303,329.3,296.3,328.2,291.5,331.7z"/>
	<path class="st1" d="M222,277.7c0-11.9-9.7-21.5-21.5-21.5c-11.9,0-21.5,9.7-21.5,21.5c0,11.9,9.7,21.5,21.5,21.5
		C212.4,299.2,222,289.6,222,277.7z"/>
	<path class="st1" d="M372.9,159.1c5.9,0,10.8-4.8,10.8-10.8s-4.8-10.8-10.8-10.8c-5.9,0-10.8,4.8-10.8,10.8S367,159.1,372.9,159.1z
		"/>
	<path class="st1" d="M422.8,0H89.2C39.9,0,0,39.9,0,89.2v333.6C0,472.1,39.9,512,89.2,512h333.6c49.3,0,89.2-39.9,89.2-89.2V89.2
		C512,39.9,472.1,0,422.8,0z M405,283.4c0.1,1.7,0.2,3.3,0.2,5c0,59.4-67.7,107.7-150.8,107.7c-83.2,0-150.8-48.3-150.8-107.7
		c0-2,0.1-3.9,0.2-5.8C90.6,275.3,82,261.1,82,245.3c0-23.8,19.3-43.1,43.1-43.1c9.4,0,18.2,2.9,25.3,8.2
		c26-17.8,60.5-27.9,96.7-29.2l25-58.6c2.1-4.8,7.2-7.5,12.4-6.3l61.5,14.4c5.8-8.8,15.7-14.7,27-14.7c17.8,0,32.3,14.5,32.3,32.3
		s-14.5,32.3-32.3,32.3c-16.7,0-30.3-12.8-32-29l-52.6-12.3l-18.1,42.4c33.5,2.5,65,12.5,89.1,29.2c7.4-5.6,16.4-8.7,25.9-8.7
		c23.8,0,43.1,19.3,43.1,43.1C428.3,261.7,419.1,276.3,405,283.4z"/>
	<path class="st1" d="M308.2,256.1c-11.9,0-21.5,9.7-21.5,21.5c0,11.9,9.7,21.5,21.5,21.5c11.9,0,21.5-9.7,21.5-21.5
		C329.8,265.8,320.1,256.1,308.2,256.1z"/>
</g>
</svg>
