<?xml version="1.0" encoding="utf-8"?>
<!-- Generator: Adobe Illustrator 19.2.0, SVG Export Plug-In . SVG Version: 6.00 Build 0)  -->
<svg version="1.1" id="Capa_1" xmlns="http://www.w3.org/2000/svg" xmlns:xlink="http://www.w3.org/1999/xlink" x="0px" y="0px"
	 viewBox="0 0 512 512" style="enable-background:new 0 0 512 512;" xml:space="preserve">
<style type="text/css">
	.st0{fill:#FFFFFF;}
</style>
<path class="st0" d="M342.7,181.6l-114,106c-4,3.7-6.6,8.7-7.3,14.1l-3.9,28.8c-0.5,3.8-5.9,4.2-7,0.5l-14.9-52.5
	c-1.7-6,0.8-12.4,6.1-15.7l138.2-85.1C342.3,176.2,344.9,179.6,342.7,181.6z M512,88.2v335.7c0,48.7-39.5,88.2-88.2,88.2H88.2
	C39.5,512,0,472.5,0,423.8V88.2C0,39.5,39.5,0,88.2,0h335.7C472.5,0,512,39.5,512,88.2z M398.1,123L107.9,234.9
	c-7.2,2.8-7.1,12.9,0.1,15.6l30.2,11.3c25.6,9.5,45.3,30.4,53.4,56.4l14.5,46.7c1.8,5.6,8.6,7.7,13.2,4l39.4-32.1
	c4.1-3.4,10-3.5,14.3-0.4l71.1,51.6c4.9,3.6,11.8,0.9,13.1-5l52.1-250.4C410.6,126,404.2,120.6,398.1,123z"/>
</svg>
