<?xml version="1.0" encoding="utf-8"?>
<!-- Generator: Adobe Illustrator 19.2.0, SVG Export Plug-In . SVG Version: 6.00 Build 0)  -->
<svg version="1.1" id="Capa_1" xmlns="http://www.w3.org/2000/svg" xmlns:xlink="http://www.w3.org/1999/xlink" x="0px" y="0px"
	 viewBox="0 0 512 512" style="enable-background:new 0 0 512 512;" xml:space="preserve">
<style type="text/css">
	.st0{fill:#FFFFFF;}
</style>
<g>
	<g>
		<g>
			<path class="st0" d="M416,0H96C43,0,0,43,0,96v320c0,53,43,96,96,96h320c53,0,96-43,96-96V96C512,43,469,0,416,0z M383.4,198.5
				l0.2,8.2c0,83.3-63.4,179.3-179.3,179.3c-35.6,0-68.7-10.4-96.6-28.3c4.9,0.6,10,0.9,15,0.9c29.5,0,56.7-10.1,78.3-27
				c-27.6-0.5-50.8-18.8-58.9-43.8c3.9,0.7,7.8,1.1,11.9,1.1c5.8,0,11.3-0.7,16.6-2.2c-28.8-5.8-50.6-31.3-50.6-61.8v-0.8
				c8.5,4.7,18.2,7.6,28.5,7.9c-16.9-11.3-28-30.6-28-52.4c0-11.6,3.1-22.4,8.5-31.7c31.1,38.1,77.5,63.2,129.9,65.9
				c-1.1-4.6-1.6-9.4-1.6-14.4c0-34.8,28.2-63,63-63c18.1,0,34.5,7.6,46,19.9c14.3-2.8,27.8-8.1,40-15.3
				c-4.7,14.7-14.7,27.1-27.7,34.9c12.7-1.5,24.9-4.9,36.2-9.9C406.4,178.6,395.7,189.7,383.4,198.5z"/>
		</g>
	</g>
</g>
</svg>
