<?xml version="1.0" encoding="utf-8"?>
<!-- Generator: Adobe Illustrator 19.2.0, SVG Export Plug-In . SVG Version: 6.00 Build 0)  -->
<svg version="1.1" id="Capa_1" xmlns="http://www.w3.org/2000/svg" xmlns:xlink="http://www.w3.org/1999/xlink" x="0px" y="0px"
	 viewBox="0 0 512 512" style="enable-background:new 0 0 512 512;" xml:space="preserve">
<style type="text/css">
	.st0{fill:#FFFFFF;}
</style>
<g>
	<g>
		<g>
			<g>
				<path class="st0" d="M416,0H96C43,0,0,43,0,96v320c0,53,43,96,96,96h320c53,0,96-43,96-96V96C512,43,469,0,416,0z M413.3,313.3
					c-1.7,21.3-17.9,48.5-40.5,52.4c-72.5,5.6-158.4,4.9-233.4,0c-23.4-2.9-38.8-31.2-40.5-52.4c-3.6-44.7-3.6-70.2,0-114.9
					c1.7-21.3,17.5-49.3,40.5-51.9c74.2-6.2,160.6-4.9,233.4,0c26,1,38.8,27.8,40.5,49.1C416.9,240.3,416.9,268.6,413.3,313.3z"/>
				<polygon class="st0" points="224,320 320,256 224,192 				"/>
			</g>
		</g>
	</g>
</g>
</svg>
