<?xml version="1.0" encoding="utf-8"?>
<!-- Generator: Adobe Illustrator 19.2.0, SVG Export Plug-In . SVG Version: 6.00 Build 0)  -->
<svg version="1.1" id="Слой_1" xmlns="http://www.w3.org/2000/svg" xmlns:xlink="http://www.w3.org/1999/xlink" x="0px" y="0px"
	 viewBox="0 0 238.9 116.5" style="enable-background:new 0 0 238.9 116.5;" xml:space="preserve">
<style type="text/css">
	.st0{fill:#155773;}
</style>
<g>
	<polygon class="st0" points="44.6,69.1 66.7,69.1 55.9,41.2 	"/>
	<path class="st0" d="M92,0H24.5C11,0,0,11,0,24.5V92c0,13.5,11,24.5,24.5,24.5H92c13.5,0,24.5-11,24.5-24.5V24.5
		C116.5,11,105.5,0,92,0z M78.1,98l-7.9-20H40.9l-8.1,20H22.6L56,18.5h0.6L89.9,98H78.1z"/>
	<path class="st0" d="M214.4,0h-67.5c-13.5,0-24.5,11-24.5,24.5V92c0,13.5,11,24.5,24.5,24.5h67.5c13.5,0,24.5-11,24.5-24.5V24.5
		C238.9,11,227.9,0,214.4,0z M217.8,97.9c-15.5-5.1-26.9-11.7-37.1-21.5c-10.6,9.8-22.9,16.8-37.5,21.4c-1.1-2.4-2.1-3.8-3.8-5.5
		c14.8-4,26.9-10.6,37.1-19.9c-4.3-4.7-7.7-9.2-10.8-14.7c-3.7-6.1-5.4-10.2-8.3-19.2h-6.6c-4.5,0-7.2,0.2-9.9,0.5v-6.3
		c2.8,0.4,5.8,0.6,10,0.6h25.7v-7c0-3-0.2-5.4-0.6-7.7h7.2c-0.4,2.1-0.6,4.6-0.6,7.6v7.1h27.9c4.4,0,7.5-0.2,10.2-0.6V39
		c-2.5-0.4-5.2-0.5-10-0.5h-7.2c-2.1,7.2-3.2,10-5.5,14.7c-3.4,7.1-7.4,13-13.1,19.1c4.9,4.6,10,8.1,16.2,11.5
		c6.9,3.8,11.8,5.7,20.7,8.1C219.9,93.8,218.9,95.4,217.8,97.9z"/>
	<path class="st0" d="M163.6,38.5c2.4,7.8,3.9,11.4,7.3,17.1c3,4.8,5.6,8.3,9.7,12.8c7.8-8.5,12.7-17.5,16.2-29.9H163.6z"/>
</g>
</svg>
