<?xml version="1.0" encoding="utf-8"?>
<!-- Generator: Adobe Illustrator 19.2.0, SVG Export Plug-In . SVG Version: 6.00 Build 0)  -->
<svg version="1.1" id="Слой_1" xmlns="http://www.w3.org/2000/svg" xmlns:xlink="http://www.w3.org/1999/xlink" x="0px" y="0px"
	 viewBox="0 0 300 300" style="enable-background:new 0 0 300 300;" xml:space="preserve">
<style type="text/css">
	.st0{display:none;}
	.st1{display:inline;fill:#FFFFFF;}
	.st2{fill:#FFFFFF;}
	.st3{display:inline;}
</style>
<g class="st0">
	<path class="st1" d="M123,300c-3.6-2.3-4.4-4.1-2.1-7.7c6.1-9.5,7.4-19.7,7.2-30.8c-0.5-24.7-0.1-49.5-0.2-74.2
		c0-1.5-0.5-3.4-1.4-4.5c-5.1-6.3-7.5-13.3-7.3-21.3c0-2.1,0.1-4.3,0-6.4c-0.1-3.2-1.8-5.2-4.3-5.2c-2.6,0-4.3,1.9-4.4,5.1
		c-0.1,6.9,0,13.8,0,20.8c0,4,0,8,0,12c-0.1,10.4-6.7,16-17.5,14.1c0,1.2,0,2.3,0,3.4c-0.1,10.4-6.8,16-17.2,14.2
		c-0.1,0.6-0.3,1.2-0.4,1.9c-0.4,12.3-5.2,16.7-17.4,15.9c-0.1,2.1-0.2,4.2-0.4,6.3C56.8,250,51.2,255,44.6,255
		c-6.6,0-12.2-5-12.9-11.5c-0.1-1.3-0.2-2.5-0.2-3.8c0-44.4,0-88.9,0-133.3c0-18.6,7.4-33.3,23.3-43.1c26-16,60.1-3.7,70.4,25.1
		c0.3,0.8,0.6,1.6,0.9,2.7c7.6-4.3,15.8-2.5,23.8-2.5c7.9,0,16-1.8,23.6,2.5c1.1-2.7,2.1-5.4,3.4-8c9.1-18.1,29-29,48.1-26.5
		c21.5,2.9,37.9,17.4,42.2,38c0.8,3.9,1.1,7.9,1.1,11.9c0.1,44.4,0.1,88.9,0,133.3c0,8-3.3,13-9.7,14.8c-7.7,2.1-15.5-3.1-16.4-11
		c-0.2-2.1-0.3-4.2-0.4-6.5c-5.4,1.3-10,0.2-13.8-3.7c-3.8-3.8-3.5-8.8-3.7-13.9c-5.5,1.3-10.1,0.2-13.9-3.6
		c-3.7-3.8-3.6-8.8-3.6-13.4c-2.1,0-4,0.2-5.7,0c-6.2-0.7-11.3-5.4-11.5-11.7c-0.4-11.2-0.2-22.4-0.3-33.6c0-1.3,0-2.5-0.2-3.8
		c-0.4-2.2-2-3.4-4.1-3.4c-2.2,0-3.8,1.2-4.1,3.4c-0.3,2-0.3,4.1-0.2,6.1c0.4,8.9-1.8,17-7.7,23.8c-0.7,0.8-1,2.1-1,3.2
		c-0.1,29.9-0.1,59.8,0,89.7c0,1.3,0.4,2.7,0.9,3.9c2,4.1,4.1,8.2,6.1,12.3c1.9,3.8,1.4,5.5-2.1,7.8c-0.8,0-1.6,0-2.3,0
		c-1.2-1.4-2.6-2.6-3.5-4.2c-2.2-3.9-4.3-7.9-6-12c-1-2.5-1.9-5.4-1.9-8.1c-0.1-27.1-0.1-54.2-0.1-81.2c0-1.1,0-2.3,0-3.5
		c-13.3,3.4-13,3.5-26.3,0c0,1.2,0,2.4,0,3.5c0,26.8,0,53.6,0,80.3c0,9.3-6,16-9.6,23.7c-0.3,0.6-1.2,0.9-1.8,1.4
		C124.5,300,123.7,300,123,300z M118.9,141.4c0.1-0.5,0.3-1.1,0.3-1.7c0-12.8,0.3-25.5-0.3-38.3c-1-23.5-24.6-40.9-47.6-35.6
		c-18.9,4.4-31,19.8-31.1,39.9c-0.1,32.9,0,65.8,0,98.8c0,1.1,0,2.2,0.3,3.2c0.5,2.2,2.2,3.6,4.2,3.2c1.5-0.3,2.9-1.8,3.9-3.2
		c0.6-0.8,0.3-2.3,0.3-3.4c0-9.3,0-18.5,0-27.8c0-1.8,0-3.7,0.2-5.5c0.3-2.4,1.9-3.7,4.2-3.6c2.3,0,3.8,1.3,4.2,3.7
		c0.1,1,0.2,1.9,0.2,2.9c0,4.6,0,9.2,0,13.7c0,3.7,1.6,5.8,4.3,5.8c2.7,0,4.4-2,4.4-5.7c0-0.8,0-1.6,0-2.3c0-12.6,0-25.1,0-37.7
		c0-1.2,0-2.4,0.3-3.5c0.5-2.2,2.2-3.6,4.2-3.2c1.5,0.3,2.9,1.8,3.9,3.2c0.6,0.8,0.3,2.3,0.3,3.4c0,7.1,0,14.2,0,21.3
		c0,1.1,0,2.1,0.2,3.2c0.4,2.4,1.9,3.6,4.2,3.6c2.3,0,3.8-1.3,4.2-3.7c0.1-1,0.2-1.9,0.2-2.9c0-6.5,0-13.1,0-19.6
		c0-6.5,1.1-8.7,4.3-8.7c3.3-0.1,4.4,2.2,4.5,8.6c0,1.7,0,3.3,0.2,5c0.2,2.4,1.8,3.7,4.1,3.8c2.3,0.1,3.9-1.1,4.3-3.5
		c0.3-1.4,0.4-2.9,0.8-4.3C104.1,143.6,110,140.3,118.9,141.4z M180.8,141.1c2.2,0,4.2-0.2,6.2,0c6.1,0.9,10,5.3,11,11.9
		c0.5,3.7,2.3,5.6,4.9,5.4c2.6-0.2,3.9-2.2,4-5.8c0.1-2.7,0-5.5,0.3-8.2c0.2-2.2,1.9-3.4,4.1-3.4c2.2,0,3.7,1.1,4.2,3.4
		c0.2,1,0.2,2.1,0.2,3.2c0,7.2,0,14.4,0,21.6c0,1.1,0,2.1,0.2,3.2c0.4,2.3,1.9,3.4,4,3.5c2.3,0,3.9-1.2,4.3-3.6
		c0.2-1,0.2-2.1,0.2-3.2c0-7.1,0-14.2,0-21.3c0-4.7,1.4-6.9,4.5-6.8c2.9,0.1,4.3,2.2,4.3,6.7c0,13.2,0,26.3,0,39.5
		c0,4.2,1.5,6.3,4.4,6.4c2.9,0,4.4-2.1,4.4-6.3c0-0.7,0-1.4,0-2c0-12.5,0-24.9,0-37.4c0-4.5,1.3-6.7,4.3-6.7c3-0.1,4.5,2.1,4.5,6.8
		c0,18.7,0,37.4,0,56.1c0,1.1,0,2.1,0.1,3.2c0.3,2.5,1.9,3.9,4.3,3.9c2.4,0,3.9-1.5,4.2-4c0.1-1.2,0.1-2.3,0.1-3.5
		c0-24.1,0-48.1,0-72.2c0-9.8,0.2-19.7-0.2-29.5C258.3,81.3,240.8,65,220.1,65c-20.8,0-38.5,16.3-39.3,37c-0.5,12.6-0.2,25.3-0.2,38
		C180.6,140.4,180.7,140.9,180.8,141.1z M128.1,158.3c4.9,0.4,4.9,0.4,7.7-3c3.3-4,6.6-7.9,9.9-11.9c2.9-3.3,5.4-3.4,8.2,0
		c3.5,4.1,7.1,8.1,10.2,12.4c2,2.8,4.3,3.1,7.2,2.5c0.1-0.2,0.3-0.4,0.3-0.6c0-17.8,0.1-35.6-0.1-53.4c0-1.9-1.5-3.9-2.8-5.5
		c-1.1-1.5-2.6-1.6-4,0.3c-3.4,4.4-7,8.6-10.6,12.8c-3.1,3.6-5.5,3.6-8.6,0c-3.6-4.2-7.2-8.4-10.6-12.8c-1.4-1.8-2.5-1.6-4.1-0.4
		c-2.5,2-2.9,4.7-2.9,7.6c0,16.5,0,32.9,0,49.4C127.9,156.5,128,157.3,128.1,158.3z M128.7,167.3c1.5,10.2,11.6,18.1,22.2,17.5
		c10.2-0.5,19.6-8.7,20-17.5c-0.6,0-1.2,0-1.7,0C155.7,167.3,142.3,167.3,128.7,167.3z M250.8,219.6c0,7.5-0.1,15,0.1,22.4
		c0,1.2,1.1,2.8,2.2,3.5c2.8,1.9,6.2-0.3,6.3-4.1c0.2-5.6,0.1-11.3,0.1-16.9c0-1.7,0-3.4,0-4.9C256.4,219.6,253.8,219.6,250.8,219.6
		z M40.2,219.6c0,2.9,0,5.7,0,8.5c0,4.3-0.1,8.6,0,12.8c0.1,3.3,1.7,5.2,4.3,5.2c2.6,0.1,4.3-1.9,4.5-5.1c0-0.2,0-0.4,0-0.6
		c0-6.4,0-12.8,0-19.2c0-0.6-0.2-1.2-0.3-1.6C45.8,219.6,43.3,219.6,40.2,219.6z M233.3,202.1c0,7.5-0.1,15,0,22.4
		c0,2.4,1.6,3.7,3.9,4c2.6,0.4,4.7-1.7,4.7-5c0.1-6.8,0-13.6,0-20.4c0-0.4-0.2-0.9-0.3-1.1C238.8,202.1,236.2,202.1,233.3,202.1z
		 M57.8,202.1c0,7,0,14.1,0,21.2c0,3.4,1.8,5.4,4.4,5.4c2.6,0,4.3-2,4.3-5.5c0.1-5.8,0-11.7,0-17.5c0-1.2,0-2.4,0-3.5
		C63.5,202.1,60.9,202.1,57.8,202.1z M215.8,184.6c0,7.5-0.1,15.2,0.1,22.8c0,2.4,1.9,3.7,4.2,3.7c2.3,0,4-1.3,4.2-3.7
		c0.2-3.4,0.2-6.8,0.2-10.2c0-4.2,0-8.5,0-12.6C221.3,184.6,218.7,184.6,215.8,184.6z M75.6,184.6c-0.1,0.3-0.2,0.8-0.2,1.2
		c0,6.7-0.1,13.4,0,20.1c0,3.2,1.8,5.2,4.3,5.2c2.6,0,4.4-2,4.4-5.4c0.1-6.5,0-13,0-19.5c0-0.6-0.2-1.2-0.3-1.6
		C80.9,184.6,78.3,184.6,75.6,184.6z M198.1,167c0,2.9,0,5.7,0,8.5c0,4.3-0.1,8.6,0,12.8c0.1,3.3,1.7,5.2,4.3,5.2
		c2.6,0.1,4.3-1.9,4.5-5.1c0-0.2,0-0.4,0-0.6c0-6.4,0-12.8,0-19.2c0-0.6-0.2-1.2-0.3-1.6C203.7,167,201.1,167,198.1,167z M92.8,167
		c0,1.6,0,3.3,0,5c0,5.7,0,11.5,0.1,17.2c0.1,2.6,1.6,4.1,4.2,4.3c2.3,0.2,4-1.6,4.4-4.2c0.1-0.5,0.1-1,0.1-1.5c0-6.3,0-12.6,0-19
		c0-0.7-0.2-1.4-0.3-1.9C98.5,167,95.9,167,92.8,167z M149.9,152.2c-1.8,2.1-3.3,4-5,6c3.6,0,6.6,0,10.1,0
		C153.1,156.2,151.7,154.4,149.9,152.2z M154.9,97.3c-3.6,0-6.6,0-10.2,0c1.9,2.2,3.5,4,5.2,6C151.7,101.2,153.1,99.5,154.9,97.3z"
		/>
	<path class="st1" d="M180.5,49.2c-0.3,17-14.4,30.6-31.3,30.3c-16.6-0.3-30.3-14.5-30-31c0.3-17,14.4-30.6,31.3-30.3
		C167.1,18.5,180.8,32.7,180.5,49.2z M128.7,53.1c1.2,8.9,9,16.3,18.5,17.5c9.5,1.3,19.1-4.3,22.9-13.2c3.3-7.8,1.4-18.4-4.3-22.9
		C155.8,45.4,143.3,51.5,128.7,53.1z M158.7,29.2c-12-6.1-28.3,2-29.9,15C140.7,42.8,150.5,37.8,158.7,29.2z"/>
	<path class="st1" d="M149.8,0.6c5,0,9.9,0,14.9,0c3.5,0,5.5,1.6,5.6,4.2c0.1,2.8-2,4.5-5.6,4.5c-9.9,0-19.9,0-29.8,0
		c-3.4,0-5.4-1.7-5.4-4.4c0-2.7,2-4.3,5.5-4.4C139.9,0.6,144.8,0.6,149.8,0.6z"/>
	<path class="st1" d="M95.3,121.6c-1.6-0.8-4.5-2-7.1-3.8c-1.9-1.4-2.2-3.6-0.7-5.7c1.4-1.9,3.8-2.5,5.9-1c2.7,2,5,1.9,7.7-0.1
		c2-1.4,4.1-1,5.7,0.9c1.6,2,1.3,4-0.4,5.8C103.8,120.4,100.5,121.5,95.3,121.6z"/>
	<path class="st1" d="M60.3,121.7c-1.6-0.8-4.6-2-7.1-3.8c-1.9-1.4-2.2-3.6-0.7-5.7c1.4-1.9,3.8-2.5,5.9-1c2.7,2,5,1.9,7.7-0.1
		c2-1.4,4.1-1,5.7,0.9c1.6,2,1.3,4-0.4,5.8C68.7,120.4,65.4,121.5,60.3,121.7z"/>
	<path class="st1" d="M77.8,95.4c-1.6-0.8-4.6-2-7.1-3.8c-1.9-1.3-2.2-3.6-0.7-5.7c1.3-1.9,3.8-2.5,5.9-1c2.7,2,5,1.9,7.7,0
		c2-1.4,4.1-1.1,5.7,0.9c1.6,2,1.3,4-0.4,5.8C86.3,94.1,83,95.2,77.8,95.4z"/>
	<path class="st1" d="M57.9,149.6c-0.1,1.9-0.1,3.7-0.4,5.4c-0.4,2.2-2,3.4-4.1,3.4c-2.2,0-3.9-1.1-4.1-3.4c-0.3-3.6-0.3-7.2,0-10.7
		c0.2-2.2,2.1-3.6,4.2-3.1c1.5,0.3,3.2,1.8,3.9,3.2C58.1,145.9,57.7,147.9,57.9,149.6z"/>
	<path class="st1" d="M237.6,122.5c-3.3-1.6-6.3-2.8-9-4.6c-2.1-1.4-2.2-4.1-0.7-5.9c1.7-2,3.9-2.3,5.9-0.8c2.6,2,4.8,1.8,7.4-0.1
		c2.1-1.5,4.5-1,5.9,1c1.5,2.1,1.2,4.4-0.7,5.7C243.9,119.7,240.9,120.9,237.6,122.5z"/>
	<path class="st1" d="M202.5,122.5c-3.2-1.6-6.2-2.8-8.9-4.5c-2.2-1.5-2.2-4-0.7-5.9c1.4-1.9,3.8-2.4,5.9-0.8c2.6,1.9,4.8,1.8,7.4,0
		c2.1-1.5,4.5-1,5.9,0.9c1.4,1.9,1.3,4.4-0.9,5.9C208.7,119.8,205.7,120.9,202.5,122.5z"/>
	<path class="st1" d="M220,96.2c-3.1-1.5-6.1-2.6-8.7-4.4c-2.3-1.5-2.5-4.2-0.9-6.1c1.7-2,3.9-2.3,5.9-0.7c2.5,1.8,4.6,1.9,7.1,0
		c2.2-1.6,4.8-1.2,6.1,0.9c1.5,2.2,1.1,4.5-1,5.9C226.2,93.5,223.2,94.6,220,96.2z"/>
	<path class="st1" d="M154.1,127.8c0,2.3-1.9,4.3-4.2,4.3c-2.4,0-4.4-2.1-4.3-4.5c0.1-2.3,2.1-4.2,4.4-4.2
		C152.2,123.5,154.1,125.5,154.1,127.8z"/>
</g>
<g>
	<path class="st2" d="M299.9,92c0,2,0,3.9,0,5.9c-0.3,0.7-0.6,1.4-0.9,2.1c-2,5.3-5.8,8.6-11.5,9.7c-0.8,0.2-1.7,0.4-2.7,0.6
		c0,1,0,1.9,0,2.8c0.3,7-2.4,12.3-8.7,15.6c-0.7,0.4-1.2,1.7-1.2,2.6c-0.1,32.6-0.1,65.2,0,97.7c0,0.9,0.8,2.2,1.6,2.6
		c5.5,3.1,8.3,7.7,8.4,14.1c0,1.4,0,2.8,0,4.4c3.1,0,5.8,0.1,8.4,0c3-0.2,5.3,0.8,6.6,3.7c0,15.4,0,30.9,0,46.3
		c-100,0-199.9,0-299.9,0c0-15.4,0-30.9,0-46.3c1.3-2.8,3.6-3.8,6.6-3.7c2.7,0.1,5.4,0,7.9,0c0.3-0.6,0.4-0.8,0.4-0.9
		c0.1-0.8,0.1-1.6,0.1-2.3c-0.2-6.9,2.4-12.1,8.6-15.4c0.7-0.4,1.3-1.8,1.3-2.8c0.1-32.4,0-64.8,0.1-97.2c0-1.7-0.5-2.5-2-3.3
		c-5-2.7-7.7-7-7.9-12.8c-0.1-1.7,0-3.4,0-5.2c-0.3,0.2-0.5,0.4-0.8,0.6c-3.1-1.6-6.7-2.7-9.3-5c-2.3-2-3.4-5.3-5-8c0-2,0-3.9,0-5.9
		c2.7-7.3,7.4-11.9,15.7-12c1.9,0,4-0.7,5.7-1.7c36.4-22.3,72.7-44.7,109.1-67.1c5.9-3.7,11.8-7.4,17.8-11.1c1.2,0,2.3,0,3.5,0
		c0.1,0.2,0.2,0.4,0.3,0.5c42.4,26.1,84.8,52.2,127.3,78.2c1.4,0.9,3.3,1.2,4.9,1.3c6.5,0.2,11.4,3,14.3,8.9
		C299,89.9,299.4,90.9,299.9,92z M80.1,80c60.5,0,120.7,0,181.8,0c-1.4-1-2.1-1.5-2.8-1.9c-35.6-21.9-71.3-43.8-106.8-65.8
		c-1.8-1.1-3-1-4.7,0C112,34.3,76.3,56.2,40.7,78.1c-0.7,0.4-1.3,0.9-2,1.4c0,0.2,0.1,0.4,0.1,0.6c3.6,0,7.3,0,10.9,0
		c0,3.5,0,6.6,0,9.7c-1,0.1-1.7,0.2-2.5,0.2c-10.4,0-20.9,0-31.3,0c-3.6,0-5.8,1.9-5.9,4.8c-0.1,3,2.2,5,5.8,5.2c0.5,0,1,0,1.5,0
		c88.4,0,176.8,0,265.2,0c1.2,0,2.3-0.1,3.5-0.3c2.6-0.6,3.8-2.4,3.7-4.9c-0.1-2.5-1.5-4.2-4.1-4.6c-1.3-0.2-2.7-0.2-4.1-0.2
		c-65.8,0-131.5,0-197.3,0c-1.3,0-2.7,0-4.1,0C80.1,86.6,80.1,83.6,80.1,80z M174.8,249.9c0.1-1.1,0.2-1.9,0.1-2.7
		c-0.3-7.1,2.3-12.5,8.8-15.9c0.7-0.4,1.2-1.9,1.2-2.9c0.1-32.3,0-64.6,0.1-96.9c0-1.6-0.4-2.5-2-3.4c-5.1-2.7-7.9-7.1-8-13
		c0-1.6,0-3.2,0-4.9c-16.9,0-33.3,0-49.7,0c-0.2,0.4-0.3,0.5-0.3,0.7c0,0.8-0.1,1.6-0.1,2.3c0.2,6.9-2.5,12.1-8.7,15.3
		c-0.7,0.4-1.3,1.7-1.3,2.5c-0.1,32.6-0.1,65.2,0,97.8c0,0.9,0.8,2.1,1.6,2.6c5.5,3.1,8.3,7.7,8.3,14.1c0,1.4,0,2.8,0,4.3
		C141.8,249.9,158.2,249.9,174.8,249.9z M234.9,249.9c0-1.1,0-1.9,0-2.6c-0.3-7.1,2.3-12.5,8.8-15.9c0.6-0.3,1.2-1.5,1.2-2.3
		c0.1-32.7,0.1-65.4,0-98.1c0-0.9-0.8-2.1-1.6-2.6c-5.5-3.1-8.2-7.8-8.3-14.1c0-1.3,0-2.7,0-4c-3.5,0-6.7,0-9.8,0
		c-0.1,0.4-0.2,0.6-0.2,0.8c0,0.9,0,1.8,0,2.6c0.1,6.6-2.6,11.6-8.6,14.8c-0.8,0.4-1.4,2-1.4,3c-0.1,32.3,0,64.6-0.1,96.9
		c0,1.6,0.3,2.6,1.9,3.4c5.3,2.8,7.9,7.4,8,13.3c0,1.5,0,3.1,0,4.7C228.3,249.9,231.4,249.9,234.9,249.9z M65,110.2c0,1,0,1.7,0,2.4
		c0.3,7.2-2.2,12.7-8.9,16.1c-0.7,0.3-1.1,1.7-1.1,2.6c-0.1,32.5-0.1,65,0,97.5c0,1,0.8,2.3,1.7,2.8c5.4,3.1,8.1,7.7,8.2,13.9
		c0,1.4,0,2.8,0,4.3c3.5,0,6.7,0,9.8,0c0.1-0.4,0.2-0.6,0.2-0.8c0-0.6,0-1.2,0-1.8c-0.3-7.1,2.3-12.5,8.8-15.9
		c0.7-0.4,1.1-1.9,1.1-2.9c0.1-32.3,0-64.6,0.1-96.9c0-1.6-0.3-2.5-1.9-3.4c-5.3-2.8-7.9-7.3-8.1-13.3c0-1.5,0-3.1,0-4.7
		C71.5,110.2,68.4,110.2,65,110.2z M194.9,280.1c-40.1,0-79.9,0-119.6,0c0,3.5,0,6.7,0,9.8c50,0,99.7,0,149.5,0c0-10,0-19.8,0-29.6
		c-50,0-99.8,0-149.5,0c0,3.4,0,6.5,0,10c40,0,79.8,0,119.6,0C194.9,273.5,194.9,276.5,194.9,280.1z M289.8,260.3
		c-18.4,0-36.6,0-54.7,0c0,10,0,19.8,0,29.6c18.3,0,36.4,0,54.7,0C289.8,280,289.8,270.2,289.8,260.3z M64.8,289.9
		c0-10.1,0-19.9,0-29.7c-18.4,0-36.5,0-54.6,0c0,10,0,19.8,0,29.7C28.5,289.9,46.5,289.9,64.8,289.9z M44.8,229.8
		c0-33.3,0-66.4,0-99.5c-3.4,0-6.5,0-9.7,0c0,33.3,0,66.3,0,99.5C38.5,229.8,41.6,229.8,44.8,229.8z M95,130.2c0,33.3,0,66.4,0,99.6
		c3.3,0,6.4,0,9.7,0c0-33.3,0-66.4,0-99.6C101.5,130.2,98.4,130.2,95,130.2z M204.8,229.8c0-33.3,0-66.4,0-99.5c-3.4,0-6.5,0-9.7,0
		c0,33.3,0,66.3,0,99.5C198.4,229.8,201.6,229.8,204.8,229.8z M264.6,229.8c0-33.4,0-66.5,0-99.6c-3.4,0-6.5,0-9.6,0
		c0,33.3,0,66.3,0,99.6C258.2,229.8,261.3,229.8,264.6,229.8z M114.9,249.9c0-1.9,0.1-3.4,0-5c-0.2-2.9-1.9-4.7-4.8-4.8
		c-6.7-0.1-13.4-0.1-20.2,0c-2.7,0-4.4,1.7-4.7,4.3c-0.3,1.8,0,3.6,0,5.5C95.1,249.9,104.8,249.9,114.9,249.9z M214.8,249.9
		c0-1.9,0.2-3.7,0-5.4c-0.4-2.6-1.9-4.3-4.7-4.4c-6.8-0.1-13.6-0.1-20.5,0c-2.5,0-4.2,1.6-4.6,4.1c-0.2,1.8,0,3.6,0,5.6
		C195.1,249.9,204.9,249.9,214.8,249.9z M25.1,249.9c10.1,0,19.8,0,29.8,0c0-1.9,0.2-3.7,0-5.4c-0.4-2.6-1.9-4.3-4.7-4.4
		c-6.8-0.1-13.6-0.1-20.4,0c-2.8,0.1-4.4,1.8-4.6,4.7C25,246.4,25.1,248.1,25.1,249.9z M244.9,249.8c10,0,19.9,0,30,0
		c0-1.1,0-1.9,0-2.8c0-5.4-1.5-7-6.9-7c-5.7,0-11.5-0.1-17.2,0c-3.9,0.1-5.7,1.9-5.8,5.7C244.8,247,244.9,248.1,244.9,249.8z
		 M55,110.2c-10.1,0-19.9,0-30,0c0,1.5,0,2.8,0,4.2c0.1,3.6,1.9,5.5,5.4,5.6c6.4,0.1,12.8,0.1,19.3,0c3.3-0.1,5.1-2.1,5.3-5.4
		C55.1,113.2,55,111.9,55,110.2z M274.8,110.3c-10.1,0-20,0-30,0c0,1.4,0,2.6,0,3.7c0.1,4,1.9,6,5.9,6c6.1,0.1,12.3,0.1,18.4,0
		c3.7-0.1,5.5-1.9,5.7-5.6C274.9,113.1,274.8,111.7,274.8,110.3z M214.9,110.2c-10.2,0-19.9,0-30,0c0,1.2,0,2.3,0,3.3
		c0.1,4.7,1.8,6.4,6.6,6.5c5.7,0,11.5,0.1,17.2,0c4.2,0,6-1.9,6.1-6.1C215,112.8,214.9,111.6,214.9,110.2z M114.9,110.3
		c-10.2,0-20,0-29.9,0c0,1.6-0.1,2.9,0,4.3c0.2,3.4,1.9,5.4,5.3,5.4c6.5,0.2,13,0.2,19.6,0c3.2-0.1,4.9-2,5.1-5.2
		C115,113.3,114.9,111.9,114.9,110.3z"/>
	<path class="st2" d="M149.9,69.9c-11,0-19.9-9-19.9-20c0-10.9,9.1-20,20-20c10.9,0.1,19.9,9.1,19.9,20.1
		C169.8,61,160.9,70,149.9,69.9z M159.9,50.1c0.1-5.5-4.5-10.1-10-10.1c-5.4,0-9.9,4.5-9.9,9.9c-0.1,5.5,4.2,9.9,9.7,10
		C155.3,60,159.8,55.7,159.9,50.1z"/>
	<path class="st2" d="M69.9,80c0,3,0.1,5.7-0.1,8.4c0,0.6-1.1,1.5-1.8,1.5c-7.9,0.8-8.9-0.2-8.1-8.1c0.1-0.7,1-1.7,1.5-1.8
		C64.2,79.9,66.9,80,69.9,80z"/>
	<path class="st2" d="M205.1,270.2c3.2,0,6.3,0,9.6,0c0,3.1,0,6.3,0,9.6c-3.1,0-6.2,0-9.6,0C205.1,276.6,205.1,273.5,205.1,270.2z"
		/>
</g>
<g class="st0">
	<path class="st3" d="M155.8,625.9c3.8-14.4,15.9-21.3,26.8-28.9c9.8-6.9,20.2-12.9,30.5-19c2.6-1.5,4-3.1,3.7-6.2
		c-0.3-3.6-0.1-7.3-0.1-11c0.1-6.6,0.4-13-4.3-18.8c-2.2-2.7-3-7.2-3-10.8c-0.2-14.1-0.3-28.3,0.3-42.4c0.8-21,18.2-39.6,42.8-40.6
		c16.9-0.6,31.7,3.4,42.4,17.5c6.2,8.2,8.8,17.5,8.9,27.5c0.1,11.8,0,23.7,0,35.5c0,6.5-1.8,12.4-5.7,17.7c-1.1,1.5-1.8,3.6-1.8,5.4
		c-0.2,6.7,0.1,13.3-0.2,20c-0.1,3.2,1.4,4.6,3.8,6.2c14.9,9.7,29.8,19.5,44.5,29.5c8.6,5.8,12.7,14.2,12.6,24.7
		c-0.1,7.8,0.1,15.7,0,23.5c-0.1,6.5-3.8,10.8-9.2,10.9c-5.3,0.1-9.5-4.2-9.7-10.6c-0.2-7.5-0.2-15,0-22.5c0.1-4.8-1.5-8.5-5.4-11.1
		c-15.3-10-30.4-20.3-46.1-29.8c-6.5-3.9-9.8-8.4-9.5-15.9c0.3-9.8,0.2-19.7,0-29.5c0-4.6,1.2-8.2,4.5-11.7c1.8-1.9,3-5.2,3.1-8
		c0.3-11.5,0.3-23,0.1-34.5c-0.2-15.1-9.9-25.1-24.9-25.6c-4.5-0.1-9.1-0.1-13.4,0.9c-11,2.5-18.1,12.2-18.3,24.9
		c-0.2,11.3-0.3,22.7,0.1,34c0.1,3.1,2.5,6.2,3.8,9.3c1.2,3,3.4,5.9,3.5,8.9c0.4,11.1,0.1,22.3,0.2,33.5c0,6-2.8,9.7-7.9,12.8
		c-15.9,9.9-31.6,20.3-47.4,30.5c-4.2,2.7-5.9,6.5-5.8,11.4c0.2,6.7,0.1,13.3,0,20c0,7.2-2.1,10.9-6.9,12.4
		c-4.6,1.5-7.9-0.3-12.1-6.3C155.8,648.5,155.8,637.2,155.8,625.9z"/>
	<path class="st3" d="M667.8,659.9c-0.4,0.5-0.8,1-1.1,1.6c-2.4,3.9-5.8,6.1-10.4,4.9c-4.8-1.2-7.2-4.7-7.4-9.5
		c-0.2-7.7-0.2-15.3,0-23c0.1-4.9-1.5-8.8-5.7-11.5c-15.3-10-30.5-20.3-46.1-29.7c-6.3-3.8-9.5-8.1-9.3-15.5
		c0.3-10.3-0.2-20.7,0.3-31c0.2-3.3,2.5-6.5,3.9-9.8c1.2-3,3.3-5.9,3.5-8.9c0.4-11.1,0.3-22.3,0.1-33.5
		c-0.2-16.5-10.2-26.3-26.7-26.4c-3.8,0-7.7,0-11.4,0.8c-10.8,2.4-18.2,11.9-18.5,23.8c-0.3,12-0.3,24,0.1,36c0.1,2.7,2.1,5.3,3.2,8
		c1.4,3.4,3.9,6.7,4.1,10.2c0.5,10.6,0.1,21.3,0.2,32c0.1,6.3-2.6,10.3-8.1,13.7c-15.8,9.8-31.3,20.1-47,30.3
		c-4.3,2.8-6.1,6.7-5.9,11.8c0.2,7.5,0.2,15,0,22.5c-0.2,5.7-3.3,9.3-8.1,10c-4.5,0.6-7.8-1.4-9.7-5.3c-0.7-1.4-1-3.2-1-4.8
		c-0.1-8.5-0.1-17,0-25.5c0.1-9.5,4-17.3,11.7-22.6c14.8-10.2,29.7-20.2,44.8-29.9c3-2,4.6-3.8,4.3-7.4c-0.3-3.6-0.1-7.3-0.1-11
		c0.1-6.1,0.3-12-4.1-17.4c-2.1-2.6-3.1-6.8-3.2-10.3c-0.3-14.3-1-28.7,0.1-42.9c2-24.5,18.7-39.9,43.3-41.1
		c20.5-1.1,37.1,5.8,46.4,25.2c2.4,5,3.9,10.8,4,16.3c0.5,14.6,0.3,29.3-0.1,43.9c-0.1,3.2-1.2,6.9-3.1,9.3
		c-3.9,4.9-3.4,10.3-4.1,15.9c-1.7,12.4,2.4,19.7,14,25.6c12.7,6.4,23.7,15.9,35.5,24.1c6.1,4.3,9.2,10.7,11.6,17.5
		C667.8,637.2,667.8,648.5,667.8,659.9z"/>
	<path class="st3" d="M458.9,271.4c0,6-0.1,12,0,18c0.1,6.6-1.7,12.5-5.7,17.7c-0.7,0.9-1.5,2-1.5,3c-0.1,8.3-0.2,16.7,0.1,25
		c0,1.2,2.2,2.6,3.6,3.6c14.7,9.8,29.4,19.5,44,29.3c8.4,5.7,12.7,13.9,12.9,24.1c0.1,8.2,0.1,16.3,0,24.5c0,1.6-0.2,3.4-0.9,4.9
		c-1.8,4-5.1,6.2-9.6,5.6c-4.7-0.6-7.8-3.3-8.1-8.1c-0.4-7.8-0.5-15.6-0.3-23.5c0.1-5.6-1.5-10-6.4-13.2
		c-15.1-9.7-29.9-19.9-45.3-29.1c-6.4-3.8-9.5-8.1-9.2-15.5c0.4-10.2,0.2-20.3,0.1-30.5c-0.1-4.2,1.1-7.6,4.2-10.8
		c1.8-1.8,3-4.9,3.1-7.4c0.3-12.2,0.3-24.3,0.1-36.5c-0.3-13.5-9.7-23.3-23.1-24.2c-4-0.3-8-0.2-12,0.2c-11.4,1.2-20.6,10.4-21,21.9
		c-0.5,13.1-0.4,26.3-0.1,39.5c0,2.3,2.1,4.6,3.2,7c1.4,3.2,3.7,6.4,3.8,9.7c0.5,11,0.1,22,0.2,33c0.1,6-2.8,9.7-7.8,12.8
		c-15.7,9.8-31,20-46.6,29.9c-5,3.2-6.9,7.7-6.6,13.5c0.3,6.8,0.1,13.7,0,20.5c-0.1,6.7-3.7,10.7-9.3,10.8c-5.3,0.1-9.5-3.8-9.6-10
		c-0.2-9.5,0-19,0.4-28.5c0.4-8.3,4.6-15.1,11.3-19.7c14.9-10.3,30-20.3,45.3-30.2c2.7-1.8,4.1-3.3,3.9-6.6c-0.3-3.8-0.2-7.7,0-11.5
		c0.2-6.3,0-12.3-4.1-17.9c-2.2-3-2.9-7.5-3-11.3c-0.4-13.2-0.6-26.3-0.1-39.5c1.1-24.7,17.3-41,41.9-43.1c22-1.9,39,6.5,47.6,24.7
		c2.9,6.1,3.7,13.4,4.6,20.2C459.5,259.6,458.9,265.5,458.9,271.4z"/>
	<path class="st3" d="M421.8,445.5c0,6.5,0.1,13,0,19.5c-0.1,2.8,0.5,4.4,3.4,5.7c13.7,6.2,20.9,18.9,19,34
		c-0.4,3.1,1.1,4.1,3.2,5.3c10.8,6.2,21.6,12.5,32.3,18.9c1.8,1.1,3.7,2.3,5.2,3.8c3,3.2,3,8.5,0.4,12c-2.8,3.6-7.6,4.8-12.1,2.3
		c-7-3.8-13.9-8-20.8-12c-5-2.9-10-6.1-15.2-8.7c-1.5-0.7-4.2-0.5-5.5,0.4c-12.2,8.4-26.5,8.7-38.1,0.1c-2.4-1.8-4-1.9-6.6-0.4
		c-11.4,6.8-23,13.5-34.5,20.2c-3.8,2.2-8.1,2.9-11.1-0.4c-2.1-2.3-3.8-6.3-3.3-9.1c0.5-2.9,3.4-6,6.1-7.7
		c10.9-6.8,22-13.1,33.1-19.5c2.2-1.3,3.5-2.4,3.1-5.4c-1.8-14.7,5.3-27.6,18.7-33.7c3-1.4,3.7-3,3.7-6c-0.1-12.8-0.2-25.6,0.1-38.5
		c0.1-3,1.1-6.3,2.7-8.7c2.3-3.3,6.2-3.8,10-2.4c4,1.5,6,4.7,6.1,8.9C421.9,431.1,421.8,438.3,421.8,445.5
		C421.8,445.5,421.8,445.5,421.8,445.5z M412.5,487.1c-7.3,0-13.3,6.1-13.3,13.4c0,7.3,6,13.3,13.3,13.3c7.4,0,13.2-5.8,13.2-13.3
		C425.7,493,419.8,487.1,412.5,487.1z"/>
</g>
</svg>
