<?xml version="1.0" encoding="utf-8"?>
<!-- Generator: Adobe Illustrator 19.2.0, SVG Export Plug-In . SVG Version: 6.00 Build 0)  -->
<svg version="1.1" id="Слой_1" xmlns="http://www.w3.org/2000/svg" xmlns:xlink="http://www.w3.org/1999/xlink" x="0px" y="0px"
	 viewBox="0 0 300 300" style="enable-background:new 0 0 300 300;" xml:space="preserve">
<style type="text/css">
	.st0{fill:#FFFFFF;}
	.st1{display:none;}
	.st2{display:inline;}
</style>
<g>
	<path class="st0" d="M123,300c-3.6-2.3-4.4-4.1-2.1-7.7c6.1-9.5,7.4-19.7,7.2-30.8c-0.5-24.7-0.1-49.5-0.2-74.2
		c0-1.5-0.5-3.4-1.4-4.5c-5.1-6.3-7.5-13.3-7.3-21.3c0-2.1,0.1-4.3,0-6.4c-0.1-3.2-1.8-5.2-4.3-5.2c-2.6,0-4.3,1.9-4.4,5.1
		c-0.1,6.9,0,13.8,0,20.8c0,4,0,8,0,12c-0.1,10.4-6.7,16-17.5,14.1c0,1.2,0,2.3,0,3.4c-0.1,10.4-6.8,16-17.2,14.2
		c-0.1,0.6-0.3,1.2-0.4,1.9c-0.4,12.3-5.2,16.7-17.4,15.9c-0.1,2.1-0.2,4.2-0.4,6.3C56.8,250,51.2,255,44.6,255
		c-6.6,0-12.2-5-12.9-11.5c-0.1-1.3-0.2-2.5-0.2-3.8c0-44.4,0-88.9,0-133.3c0-18.6,7.4-33.3,23.3-43.1c26-16,60.1-3.7,70.4,25.1
		c0.3,0.8,0.6,1.6,0.9,2.7c7.6-4.3,15.8-2.5,23.8-2.5c7.9,0,16-1.8,23.6,2.5c1.1-2.7,2.1-5.4,3.4-8c9.1-18.1,29-29,48.1-26.5
		c21.5,2.9,37.9,17.4,42.2,38c0.8,3.9,1.1,7.9,1.1,11.9c0.1,44.4,0.1,88.9,0,133.3c0,8-3.3,13-9.7,14.8c-7.7,2.1-15.5-3.1-16.4-11
		c-0.2-2.1-0.3-4.2-0.4-6.5c-5.4,1.3-10,0.2-13.8-3.7c-3.8-3.8-3.5-8.8-3.7-13.9c-5.5,1.3-10.1,0.2-13.9-3.6
		c-3.7-3.8-3.6-8.8-3.6-13.4c-2.1,0-4,0.2-5.7,0c-6.2-0.7-11.3-5.4-11.5-11.7c-0.4-11.2-0.2-22.4-0.3-33.6c0-1.3,0-2.5-0.2-3.8
		c-0.4-2.2-2-3.4-4.1-3.4c-2.2,0-3.8,1.2-4.1,3.4c-0.3,2-0.3,4.1-0.2,6.1c0.4,8.9-1.8,17-7.7,23.8c-0.7,0.8-1,2.1-1,3.2
		c-0.1,29.9-0.1,59.8,0,89.7c0,1.3,0.4,2.7,0.9,3.9c2,4.1,4.1,8.2,6.1,12.3c1.9,3.8,1.4,5.5-2.1,7.8c-0.8,0-1.6,0-2.3,0
		c-1.2-1.4-2.6-2.6-3.5-4.2c-2.2-3.9-4.3-7.9-6-12c-1-2.5-1.9-5.4-1.9-8.1c-0.1-27.1-0.1-54.2-0.1-81.2c0-1.1,0-2.3,0-3.5
		c-13.3,3.4-13,3.5-26.3,0c0,1.2,0,2.4,0,3.5c0,26.8,0,53.6,0,80.3c0,9.3-6,16-9.6,23.7c-0.3,0.6-1.2,0.9-1.8,1.4
		C124.5,300,123.7,300,123,300z M118.9,141.4c0.1-0.5,0.3-1.1,0.3-1.7c0-12.8,0.3-25.5-0.3-38.3c-1-23.5-24.6-40.9-47.6-35.6
		c-18.9,4.4-31,19.8-31.1,39.9c-0.1,32.9,0,65.8,0,98.8c0,1.1,0,2.2,0.3,3.2c0.5,2.2,2.2,3.6,4.2,3.2c1.5-0.3,2.9-1.8,3.9-3.2
		c0.6-0.8,0.3-2.3,0.3-3.4c0-9.3,0-18.5,0-27.8c0-1.8,0-3.7,0.2-5.5c0.3-2.4,1.9-3.7,4.2-3.6c2.3,0,3.8,1.3,4.2,3.7
		c0.1,1,0.2,1.9,0.2,2.9c0,4.6,0,9.2,0,13.7c0,3.7,1.6,5.8,4.3,5.8c2.7,0,4.4-2,4.4-5.7c0-0.8,0-1.6,0-2.3c0-12.6,0-25.1,0-37.7
		c0-1.2,0-2.4,0.3-3.5c0.5-2.2,2.2-3.6,4.2-3.2c1.5,0.3,2.9,1.8,3.9,3.2c0.6,0.8,0.3,2.3,0.3,3.4c0,7.1,0,14.2,0,21.3
		c0,1.1,0,2.1,0.2,3.2c0.4,2.4,1.9,3.6,4.2,3.6c2.3,0,3.8-1.3,4.2-3.7c0.1-1,0.2-1.9,0.2-2.9c0-6.5,0-13.1,0-19.6
		c0-6.5,1.1-8.7,4.3-8.7c3.3-0.1,4.4,2.2,4.5,8.6c0,1.7,0,3.3,0.2,5c0.2,2.4,1.8,3.7,4.1,3.8c2.3,0.1,3.9-1.1,4.3-3.5
		c0.3-1.4,0.4-2.9,0.8-4.3C104.1,143.6,110,140.3,118.9,141.4z M180.8,141.1c2.2,0,4.2-0.2,6.2,0c6.1,0.9,10,5.3,11,11.9
		c0.5,3.7,2.3,5.6,4.9,5.4c2.6-0.2,3.9-2.2,4-5.8c0.1-2.7,0-5.5,0.3-8.2c0.2-2.2,1.9-3.4,4.1-3.4c2.2,0,3.7,1.1,4.2,3.4
		c0.2,1,0.2,2.1,0.2,3.2c0,7.2,0,14.4,0,21.6c0,1.1,0,2.1,0.2,3.2c0.4,2.3,1.9,3.4,4,3.5c2.3,0,3.9-1.2,4.3-3.6
		c0.2-1,0.2-2.1,0.2-3.2c0-7.1,0-14.2,0-21.3c0-4.7,1.4-6.9,4.5-6.8c2.9,0.1,4.3,2.2,4.3,6.7c0,13.2,0,26.3,0,39.5
		c0,4.2,1.5,6.3,4.4,6.4c2.9,0,4.4-2.1,4.4-6.3c0-0.7,0-1.4,0-2c0-12.5,0-24.9,0-37.4c0-4.5,1.3-6.7,4.3-6.7c3-0.1,4.5,2.1,4.5,6.8
		c0,18.7,0,37.4,0,56.1c0,1.1,0,2.1,0.1,3.2c0.3,2.5,1.9,3.9,4.3,3.9c2.4,0,3.9-1.5,4.2-4c0.1-1.2,0.1-2.3,0.1-3.5
		c0-24.1,0-48.1,0-72.2c0-9.8,0.2-19.7-0.2-29.5C258.3,81.3,240.8,65,220.1,65c-20.8,0-38.5,16.3-39.3,37c-0.5,12.6-0.2,25.3-0.2,38
		C180.6,140.4,180.7,140.9,180.8,141.1z M128.1,158.3c4.9,0.4,4.9,0.4,7.7-3c3.3-4,6.6-7.9,9.9-11.9c2.9-3.3,5.4-3.4,8.2,0
		c3.5,4.1,7.1,8.1,10.2,12.4c2,2.8,4.3,3.1,7.2,2.5c0.1-0.2,0.3-0.4,0.3-0.6c0-17.8,0.1-35.6-0.1-53.4c0-1.9-1.5-3.9-2.8-5.5
		c-1.1-1.5-2.6-1.6-4,0.3c-3.4,4.4-7,8.6-10.6,12.8c-3.1,3.6-5.5,3.6-8.6,0c-3.6-4.2-7.2-8.4-10.6-12.8c-1.4-1.8-2.5-1.6-4.1-0.4
		c-2.5,2-2.9,4.7-2.9,7.6c0,16.5,0,32.9,0,49.4C127.9,156.5,128,157.3,128.1,158.3z M128.7,167.3c1.5,10.2,11.6,18.1,22.2,17.5
		c10.2-0.5,19.6-8.7,20-17.5c-0.6,0-1.2,0-1.7,0C155.7,167.3,142.3,167.3,128.7,167.3z M250.8,219.6c0,7.5-0.1,15,0.1,22.4
		c0,1.2,1.1,2.8,2.2,3.5c2.8,1.9,6.2-0.3,6.3-4.1c0.2-5.6,0.1-11.3,0.1-16.9c0-1.7,0-3.4,0-4.9C256.4,219.6,253.8,219.6,250.8,219.6
		z M40.2,219.6c0,2.9,0,5.7,0,8.5c0,4.3-0.1,8.6,0,12.8c0.1,3.3,1.7,5.2,4.3,5.2c2.6,0.1,4.3-1.9,4.5-5.1c0-0.2,0-0.4,0-0.6
		c0-6.4,0-12.8,0-19.2c0-0.6-0.2-1.2-0.3-1.6C45.8,219.6,43.3,219.6,40.2,219.6z M233.3,202.1c0,7.5-0.1,15,0,22.4
		c0,2.4,1.6,3.7,3.9,4c2.6,0.4,4.7-1.7,4.7-5c0.1-6.8,0-13.6,0-20.4c0-0.4-0.2-0.9-0.3-1.1C238.8,202.1,236.2,202.1,233.3,202.1z
		 M57.8,202.1c0,7,0,14.1,0,21.2c0,3.4,1.8,5.4,4.4,5.4c2.6,0,4.3-2,4.3-5.5c0.1-5.8,0-11.7,0-17.5c0-1.2,0-2.4,0-3.5
		C63.5,202.1,60.9,202.1,57.8,202.1z M215.8,184.6c0,7.5-0.1,15.2,0.1,22.8c0,2.4,1.9,3.7,4.2,3.7c2.3,0,4-1.3,4.2-3.7
		c0.2-3.4,0.2-6.8,0.2-10.2c0-4.2,0-8.5,0-12.6C221.3,184.6,218.7,184.6,215.8,184.6z M75.6,184.6c-0.1,0.3-0.2,0.8-0.2,1.2
		c0,6.7-0.1,13.4,0,20.1c0,3.2,1.8,5.2,4.3,5.2c2.6,0,4.4-2,4.4-5.4c0.1-6.5,0-13,0-19.5c0-0.6-0.2-1.2-0.3-1.6
		C80.9,184.6,78.3,184.6,75.6,184.6z M198.1,167c0,2.9,0,5.7,0,8.5c0,4.3-0.1,8.6,0,12.8c0.1,3.3,1.7,5.2,4.3,5.2
		c2.6,0.1,4.3-1.9,4.5-5.1c0-0.2,0-0.4,0-0.6c0-6.4,0-12.8,0-19.2c0-0.6-0.2-1.2-0.3-1.6C203.7,167,201.1,167,198.1,167z M92.8,167
		c0,1.6,0,3.3,0,5c0,5.7,0,11.5,0.1,17.2c0.1,2.6,1.6,4.1,4.2,4.3c2.3,0.2,4-1.6,4.4-4.2c0.1-0.5,0.1-1,0.1-1.5c0-6.3,0-12.6,0-19
		c0-0.7-0.2-1.4-0.3-1.9C98.5,167,95.9,167,92.8,167z M149.9,152.2c-1.8,2.1-3.3,4-5,6c3.6,0,6.6,0,10.1,0
		C153.1,156.2,151.7,154.4,149.9,152.2z M154.9,97.3c-3.6,0-6.6,0-10.2,0c1.9,2.2,3.5,4,5.2,6C151.7,101.2,153.1,99.5,154.9,97.3z"
		/>
	<path class="st0" d="M180.5,49.2c-0.3,17-14.4,30.6-31.3,30.3c-16.6-0.3-30.3-14.5-30-31c0.3-17,14.4-30.6,31.3-30.3
		C167.1,18.5,180.8,32.7,180.5,49.2z M128.7,53.1c1.2,8.9,9,16.3,18.5,17.5c9.5,1.3,19.1-4.3,22.9-13.2c3.3-7.8,1.4-18.4-4.3-22.9
		C155.8,45.4,143.3,51.5,128.7,53.1z M158.7,29.2c-12-6.1-28.3,2-29.9,15C140.7,42.8,150.5,37.8,158.7,29.2z"/>
	<path class="st0" d="M149.8,0.6c5,0,9.9,0,14.9,0c3.5,0,5.5,1.6,5.6,4.2c0.1,2.8-2,4.5-5.6,4.5c-9.9,0-19.9,0-29.8,0
		c-3.4,0-5.4-1.7-5.4-4.4c0-2.7,2-4.3,5.5-4.4C139.9,0.6,144.8,0.6,149.8,0.6z"/>
	<path class="st0" d="M95.3,121.6c-1.6-0.8-4.5-2-7.1-3.8c-1.9-1.4-2.2-3.6-0.7-5.7c1.4-1.9,3.8-2.5,5.9-1c2.7,2,5,1.9,7.7-0.1
		c2-1.4,4.1-1,5.7,0.9c1.6,2,1.3,4-0.4,5.8C103.8,120.4,100.5,121.5,95.3,121.6z"/>
	<path class="st0" d="M60.3,121.7c-1.6-0.8-4.6-2-7.1-3.8c-1.9-1.4-2.2-3.6-0.7-5.7c1.4-1.9,3.8-2.5,5.9-1c2.7,2,5,1.9,7.7-0.1
		c2-1.4,4.1-1,5.7,0.9c1.6,2,1.3,4-0.4,5.8C68.7,120.4,65.4,121.5,60.3,121.7z"/>
	<path class="st0" d="M77.8,95.4c-1.6-0.8-4.6-2-7.1-3.8c-1.9-1.3-2.2-3.6-0.7-5.7c1.3-1.9,3.8-2.5,5.9-1c2.7,2,5,1.9,7.7,0
		c2-1.4,4.1-1.1,5.7,0.9c1.6,2,1.3,4-0.4,5.8C86.3,94.1,83,95.2,77.8,95.4z"/>
	<path class="st0" d="M57.9,149.6c-0.1,1.9-0.1,3.7-0.4,5.4c-0.4,2.2-2,3.4-4.1,3.4c-2.2,0-3.9-1.1-4.1-3.4c-0.3-3.6-0.3-7.2,0-10.7
		c0.2-2.2,2.1-3.6,4.2-3.1c1.5,0.3,3.2,1.8,3.9,3.2C58.1,145.9,57.7,147.9,57.9,149.6z"/>
	<path class="st0" d="M237.6,122.5c-3.3-1.6-6.3-2.8-9-4.6c-2.1-1.4-2.2-4.1-0.7-5.9c1.7-2,3.9-2.3,5.9-0.8c2.6,2,4.8,1.8,7.4-0.1
		c2.1-1.5,4.5-1,5.9,1c1.5,2.1,1.2,4.4-0.7,5.7C243.9,119.7,240.9,120.9,237.6,122.5z"/>
	<path class="st0" d="M202.5,122.5c-3.2-1.6-6.2-2.8-8.9-4.5c-2.2-1.5-2.2-4-0.7-5.9c1.4-1.9,3.8-2.4,5.9-0.8c2.6,1.9,4.8,1.8,7.4,0
		c2.1-1.5,4.5-1,5.9,0.9c1.4,1.9,1.3,4.4-0.9,5.9C208.7,119.8,205.7,120.9,202.5,122.5z"/>
	<path class="st0" d="M220,96.2c-3.1-1.5-6.1-2.6-8.7-4.4c-2.3-1.5-2.5-4.2-0.9-6.1c1.7-2,3.9-2.3,5.9-0.7c2.5,1.8,4.6,1.9,7.1,0
		c2.2-1.6,4.8-1.2,6.1,0.9c1.5,2.2,1.1,4.5-1,5.9C226.2,93.5,223.2,94.6,220,96.2z"/>
	<path class="st0" d="M154.1,127.8c0,2.3-1.9,4.3-4.2,4.3c-2.4,0-4.4-2.1-4.3-4.5c0.1-2.3,2.1-4.2,4.4-4.2
		C152.2,123.5,154.1,125.5,154.1,127.8z"/>
</g>
<g class="st1">
	<path class="st2" d="M18.5,232.1c0,3.3,0,6.7,0,10c-0.5,1.2-1.1,2.4-1.5,3.6c-3.5,9.1-9.9,14.7-19.6,16.6c-1.4,0.3-2.9,0.6-4.6,1
		c0,1.8,0,3.3,0,4.7c0.4,11.9-4,21-14.9,26.6c-1.2,0.6-2.1,2.9-2.1,4.4c-0.1,55.6-0.1,111.2,0,166.8c0,1.5,1.3,3.7,2.7,4.5
		c9.4,5.3,14.2,13.2,14.3,24c0,2.4,0,4.8,0,7.6c5.4,0,9.9,0.2,14.3,0c5.2-0.3,9.1,1.4,11.3,6.3c0,26.3,0,52.7,0,79
		c-170.7,0-341.3,0-512,0c0-26.3,0-52.7,0-79c2.3-4.9,6.2-6.6,11.3-6.3c4.6,0.2,9.2,0,13.4,0c0.5-1,0.7-1.3,0.7-1.6
		c0.1-1.3,0.2-2.7,0.1-4c-0.4-11.7,4.2-20.6,14.7-26.2c1.3-0.7,2.2-3.1,2.2-4.7c0.1-55.3,0.1-110.5,0.2-165.8c0-2.9-0.9-4.3-3.5-5.7
		c-8.5-4.6-13.2-12-13.5-21.8c-0.1-2.9,0-5.9,0-8.8c-0.4,0.3-0.9,0.7-1.3,1c-5.4-2.7-11.5-4.6-15.9-8.5c-3.9-3.4-5.8-9-8.5-13.6
		c0-3.3,0-6.7,0-10c4.6-12.5,12.7-20.2,26.8-20.6c3.3-0.1,6.9-1.2,9.7-2.9c62.1-38.1,124.2-76.3,186.2-114.5
		c10.2-6.3,20.2-12.7,30.3-19c2,0,4,0,6,0c0.2,0.3,0.3,0.6,0.5,0.8c72.4,44.5,144.8,89.1,217.3,133.5c2.4,1.5,5.6,2.1,8.4,2.2
		c11.2,0.3,19.4,5.1,24.5,15.1C17,228.5,17.7,230.3,18.5,232.1z M-356.7,211.6c103.2,0,206.1,0,310.4,0c-2.5-1.7-3.6-2.6-4.8-3.3
		C-112,170.9-172.8,133.5-233.6,96c-3-1.9-5.1-1.7-8,0.1C-302.4,133.6-363.2,171-424,208.4c-1.2,0.7-2.3,1.6-3.4,2.4
		c0.1,0.3,0.1,0.7,0.2,1c6.2,0,12.4,0,18.6,0c0,5.9,0,11.2,0,16.6c-1.6,0.1-2.9,0.3-4.2,0.3c-17.8,0-35.7,0-53.5,0.1
		c-6.2,0-9.8,3.2-10.1,8.1c-0.2,5.1,3.7,8.6,9.9,8.9c0.8,0,1.7,0,2.5,0c151,0,301.9,0,452.9,0c2,0,4-0.1,5.9-0.6
		c4.4-1,6.5-4.1,6.4-8.3c-0.2-4.2-2.6-7.2-7-7.8c-2.3-0.3-4.6-0.3-7-0.3c-112.3,0-224.6,0-336.9,0c-2.3,0-4.5,0-7,0
		C-356.7,222.9-356.7,217.7-356.7,211.6z M-195,501.6c0.1-1.9,0.3-3.2,0.2-4.5c-0.5-12.1,3.8-21.3,15-27.1c1.2-0.6,2-3.2,2-4.9
		c0.1-55.1,0.1-110.3,0.1-165.4c0-2.8-0.7-4.3-3.3-5.8c-8.8-4.7-13.4-12.2-13.7-22.2c-0.1-2.8,0-5.5,0-8.4c-28.8,0-56.9,0-84.9,0
		c-0.3,0.6-0.5,0.9-0.5,1.2c-0.1,1.3-0.2,2.7-0.1,4c0.4,11.8-4.2,20.6-14.8,26.2c-1.2,0.6-2.1,2.8-2.2,4.3
		c-0.1,55.6-0.1,111.3,0,166.9c0,1.5,1.4,3.7,2.7,4.4c9.4,5.4,14.2,13.2,14.2,24.1c0,2.4,0,4.8,0,7.3
		C-251.4,501.6-223.5,501.6-195,501.6z M-92.5,501.6c0-1.9,0-3.2,0-4.5c-0.4-12,3.9-21.4,15-27.1c1.1-0.6,2-2.6,2-3.9
		c0.1-55.8,0.1-111.6,0-167.4c0-1.5-1.4-3.6-2.7-4.4c-9.5-5.3-14-13.4-14.2-24.1c0-2.3,0-4.5,0-6.8c-6,0-11.4,0-16.7,0
		c-0.2,0.7-0.3,1-0.3,1.3c0,1.5-0.1,3,0,4.5c0.1,11.3-4.4,19.8-14.6,25.3c-1.3,0.7-2.3,3.4-2.3,5.1c-0.1,55.1-0.1,110.3-0.1,165.4
		c0,2.8,0.6,4.4,3.3,5.8c9.1,4.7,13.4,12.6,13.7,22.7c0.1,2.6,0,5.2,0,8.1C-103.7,501.6-98.4,501.6-92.5,501.6z M-382.6,263.1
		c0,1.7,0,2.9,0,4c0.5,12.2-3.8,21.7-15.1,27.5c-1.1,0.6-1.9,2.9-1.9,4.5c-0.1,55.5-0.1,111,0,166.4c0,1.6,1.4,4,2.9,4.8
		c9.2,5.3,13.8,13.2,14,23.7c0.1,2.4,0,4.9,0,7.3c6.1,0,11.4,0,16.7,0c0.2-0.7,0.3-1.1,0.3-1.4c0-1,0.1-2,0-3
		c-0.5-12.1,3.9-21.3,15-27.1c1.2-0.6,2-3.2,2-4.9c0.1-55.1,0.1-110.3,0.1-165.4c0-2.7-0.5-4.3-3.3-5.8c-9-4.7-13.5-12.5-13.8-22.7
		c-0.1-2.6,0-5.2,0-8C-371.4,263.1-376.7,263.1-382.6,263.1z M-160.8,553.1c-68.4,0-136.4,0-204.3,0c0,6,0,11.4,0,16.7
		c85.3,0,170.2,0,255.3,0c0-17,0-33.7,0-50.5c-85.3,0-170.4,0-255.3,0c0,5.8,0,11.1,0,17c68.3,0,136.2,0,204.3,0
		C-160.8,541.9-160.8,547-160.8,553.1z M1.2,519.3c-31.4,0-62.4,0-93.3,0c0,17.1,0,33.8,0,50.5c31.3,0,62.2,0,93.3,0
		C1.2,552.9,1.2,536.3,1.2,519.3z M-382.9,569.9c0-17.2,0-33.9,0-50.6c-31.3,0-62.3,0-93.2,0c0,17.1,0,33.8,0,50.6
		C-444.9,569.9-414.1,569.9-382.9,569.9z M-417,467.3c0-56.9,0-113.4,0-169.9c-5.7,0-11.1,0-16.5,0c0,56.8,0,113.2,0,169.9
		C-427.9,467.3-422.5,467.3-417,467.3z M-331.3,297.3c0,56.9,0,113.3,0,170.1c5.6,0,11,0,16.6,0c0-56.8,0-113.3,0-170.1
		C-320.3,297.3-325.5,297.3-331.3,297.3z M-143.9,467.3c0-56.9,0-113.4,0-169.9c-5.7,0-11.1,0-16.5,0c0,56.8,0,113.2,0,169.9
		C-154.8,467.3-149.4,467.3-143.9,467.3z M-41.7,467.4c0-57,0-113.5,0-169.9c-5.8,0-11.1,0-16.4,0c0,56.8,0,113.2,0,169.9
		C-52.6,467.4-47.4,467.4-41.7,467.4z M-297.4,501.6c0-3.2,0.2-5.9,0-8.5c-0.4-5-3.2-8.1-8.3-8.2c-11.5-0.2-23-0.2-34.4,0
		c-4.6,0.1-7.5,2.9-8.1,7.3c-0.4,3-0.1,6.2-0.1,9.4C-331.2,501.6-314.6,501.6-297.4,501.6z M-126.7,501.5c0-3.2,0.3-6.2-0.1-9.1
		c-0.6-4.4-3.3-7.4-8-7.5c-11.6-0.2-23.3-0.2-34.9,0c-4.4,0.1-7.2,2.6-7.8,7c-0.4,3.1-0.1,6.2-0.1,9.6
		C-160.5,501.5-143.8,501.5-126.7,501.5z M-450.7,501.5c17.2,0,33.9,0,50.9,0c0-3.2,0.3-6.2-0.1-9.1c-0.6-4.4-3.3-7.4-8-7.5
		c-11.6-0.2-23.3-0.2-34.9,0c-4.8,0.1-7.6,3.1-7.9,8C-450.9,495.7-450.7,498.5-450.7,501.5z M-75.5,501.5c17.1,0,33.9,0,51.2,0
		c0-1.8,0-3.3,0-4.8c0-9.3-2.5-11.9-11.8-11.9c-9.8,0-19.6-0.1-29.4,0c-6.7,0.1-9.7,3.2-10,9.8C-75.5,496.6-75.5,498.6-75.5,501.5z
		 M-399.6,263.2c-17.3,0-34,0-51.2,0c0,2.6-0.1,4.8,0,7.1c0.2,6.1,3.2,9.4,9.2,9.5c11,0.2,21.9,0.2,32.9,0c5.7-0.1,8.7-3.5,9.1-9.2
		C-399.5,268.4-399.6,266-399.6,263.2z M-24.3,263.3c-17.3,0-34.1,0-51.2,0c0,2.4-0.1,4.4,0,6.3c0.2,6.9,3.3,10.2,10.1,10.3
		c10.5,0.1,20.9,0.2,31.4,0c6.4-0.1,9.4-3.3,9.7-9.6C-24.2,268.1-24.3,265.8-24.3,263.3z M-126.6,263.2c-17.4,0-34,0-51.2,0
		c0,2.1,0,3.9,0,5.7c0.1,8,3,11,11.2,11c9.8,0.1,19.6,0.1,29.4,0c7.2-0.1,10.3-3.3,10.5-10.4C-126.5,267.6-126.6,265.6-126.6,263.2z
		 M-297.4,263.3c-17.5,0-34.2,0-51.1,0c0,2.7-0.1,5,0,7.3c0.3,5.7,3.3,9.2,9,9.3c11.1,0.3,22.3,0.3,33.4,0c5.5-0.1,8.4-3.5,8.7-8.9
		C-297.3,268.5-297.4,266-297.4,263.3z"/>
	<path class="st2" d="M-237.6,194.4c-18.8-0.1-34-15.3-33.9-34.1c0.1-18.7,15.6-34.2,34.1-34.1c18.7,0.1,34,15.6,33.9,34.2
		C-203.6,179.3-218.9,194.5-237.6,194.4z M-220.5,160.6c0.1-9.4-7.7-17.3-17.1-17.3c-9.2,0-16.9,7.7-16.9,16.9
		c-0.1,9.3,7.2,16.9,16.6,17.1C-228.4,177.6-220.6,170.1-220.5,160.6z"/>
	<path class="st2" d="M-374.1,211.7c0,5.2,0.2,9.8-0.1,14.3c-0.1,1-1.9,2.5-3,2.6c-13.5,1.4-15.1-0.3-13.8-13.8c0.1-1.1,1.6-3,2.6-3
		C-383.9,211.5-379.3,211.7-374.1,211.7z"/>
	<path class="st2" d="M-143.3,536.2c5.4,0,10.7,0,16.3,0c0,5.3,0,10.7,0,16.4c-5.3,0-10.7,0-16.3,0
		C-143.3,547.2-143.3,541.9-143.3,536.2z"/>
</g>
<g class="st1">
	<path class="st2" d="M155.8,625.9c3.8-14.4,15.9-21.3,26.8-28.9c9.8-6.9,20.2-12.9,30.5-19c2.6-1.5,4-3.1,3.7-6.2
		c-0.3-3.6-0.1-7.3-0.1-11c0.1-6.6,0.4-13-4.3-18.8c-2.2-2.7-3-7.2-3-10.8c-0.2-14.1-0.3-28.3,0.3-42.4c0.8-21,18.2-39.6,42.8-40.6
		c16.9-0.6,31.7,3.4,42.4,17.5c6.2,8.2,8.8,17.5,8.9,27.5c0.1,11.8,0,23.7,0,35.5c0,6.5-1.8,12.4-5.7,17.7c-1.1,1.5-1.8,3.6-1.8,5.4
		c-0.2,6.7,0.1,13.3-0.2,20c-0.1,3.2,1.4,4.6,3.8,6.2c14.9,9.7,29.8,19.5,44.5,29.5c8.6,5.8,12.7,14.2,12.6,24.7
		c-0.1,7.8,0.1,15.7,0,23.5c-0.1,6.5-3.8,10.8-9.2,10.9c-5.3,0.1-9.5-4.2-9.7-10.6c-0.2-7.5-0.2-15,0-22.5c0.1-4.8-1.5-8.5-5.4-11.1
		c-15.3-10-30.4-20.3-46.1-29.8c-6.5-3.9-9.8-8.4-9.5-15.9c0.3-9.8,0.2-19.7,0-29.5c0-4.6,1.2-8.2,4.5-11.7c1.8-1.9,3-5.2,3.1-8
		c0.3-11.5,0.3-23,0.1-34.5c-0.2-15.1-9.9-25.1-24.9-25.6c-4.5-0.1-9.1-0.1-13.4,0.9c-11,2.5-18.1,12.2-18.3,24.9
		c-0.2,11.3-0.3,22.7,0.1,34c0.1,3.1,2.5,6.2,3.8,9.3c1.2,3,3.4,5.9,3.5,8.9c0.4,11.1,0.1,22.3,0.2,33.5c0,6-2.8,9.7-7.9,12.8
		c-15.9,9.9-31.6,20.3-47.4,30.5c-4.2,2.7-5.9,6.5-5.8,11.4c0.2,6.7,0.1,13.3,0,20c0,7.2-2.1,10.9-6.9,12.4
		c-4.6,1.5-7.9-0.3-12.1-6.3C155.8,648.5,155.8,637.2,155.8,625.9z"/>
	<path class="st2" d="M667.8,659.9c-0.4,0.5-0.8,1-1.1,1.6c-2.4,3.9-5.8,6.1-10.4,4.9c-4.8-1.2-7.2-4.7-7.4-9.5
		c-0.2-7.7-0.2-15.3,0-23c0.1-4.9-1.5-8.8-5.7-11.5c-15.3-10-30.5-20.3-46.1-29.7c-6.3-3.8-9.5-8.1-9.3-15.5
		c0.3-10.3-0.2-20.7,0.3-31c0.2-3.3,2.5-6.5,3.9-9.8c1.2-3,3.3-5.9,3.5-8.9c0.4-11.1,0.3-22.3,0.1-33.5
		c-0.2-16.5-10.2-26.3-26.7-26.4c-3.8,0-7.7,0-11.4,0.8c-10.8,2.4-18.2,11.9-18.5,23.8c-0.3,12-0.3,24,0.1,36c0.1,2.7,2.1,5.3,3.2,8
		c1.4,3.4,3.9,6.7,4.1,10.2c0.5,10.6,0.1,21.3,0.2,32c0.1,6.3-2.6,10.3-8.1,13.7c-15.8,9.8-31.3,20.1-47,30.3
		c-4.3,2.8-6.1,6.7-5.9,11.8c0.2,7.5,0.2,15,0,22.5c-0.2,5.7-3.3,9.3-8.1,10c-4.5,0.6-7.8-1.4-9.7-5.3c-0.7-1.4-1-3.2-1-4.8
		c-0.1-8.5-0.1-17,0-25.5c0.1-9.5,4-17.3,11.7-22.6c14.8-10.2,29.7-20.2,44.8-29.9c3-2,4.6-3.8,4.3-7.4c-0.3-3.6-0.1-7.3-0.1-11
		c0.1-6.1,0.3-12-4.1-17.4c-2.1-2.6-3.1-6.8-3.2-10.3c-0.3-14.3-1-28.7,0.1-42.9c2-24.5,18.7-39.9,43.3-41.1
		c20.5-1.1,37.1,5.8,46.4,25.2c2.4,5,3.9,10.8,4,16.3c0.5,14.6,0.3,29.3-0.1,43.9c-0.1,3.2-1.2,6.9-3.1,9.3
		c-3.9,4.9-3.4,10.3-4.1,15.9c-1.7,12.4,2.4,19.7,14,25.6c12.7,6.4,23.7,15.9,35.5,24.1c6.1,4.3,9.2,10.7,11.6,17.5
		C667.8,637.2,667.8,648.5,667.8,659.9z"/>
	<path class="st2" d="M458.9,271.4c0,6-0.1,12,0,18c0.1,6.6-1.7,12.5-5.7,17.7c-0.7,0.9-1.5,2-1.5,3c-0.1,8.3-0.2,16.7,0.1,25
		c0,1.2,2.2,2.6,3.6,3.6c14.7,9.8,29.4,19.5,44,29.3c8.4,5.7,12.7,13.9,12.9,24.1c0.1,8.2,0.1,16.3,0,24.5c0,1.6-0.2,3.4-0.9,4.9
		c-1.8,4-5.1,6.2-9.6,5.6c-4.7-0.6-7.8-3.3-8.1-8.1c-0.4-7.8-0.5-15.6-0.3-23.5c0.1-5.6-1.5-10-6.4-13.2
		c-15.1-9.7-29.9-19.9-45.3-29.1c-6.4-3.8-9.5-8.1-9.2-15.5c0.4-10.2,0.2-20.3,0.1-30.5c-0.1-4.2,1.1-7.6,4.2-10.8
		c1.8-1.8,3-4.9,3.1-7.4c0.3-12.2,0.3-24.3,0.1-36.5c-0.3-13.5-9.7-23.3-23.1-24.2c-4-0.3-8-0.2-12,0.2c-11.4,1.2-20.6,10.4-21,21.9
		c-0.5,13.1-0.4,26.3-0.1,39.5c0,2.3,2.1,4.6,3.2,7c1.4,3.2,3.7,6.4,3.8,9.7c0.5,11,0.1,22,0.2,33c0.1,6-2.8,9.7-7.8,12.8
		c-15.7,9.8-31,20-46.6,29.9c-5,3.2-6.9,7.7-6.6,13.5c0.3,6.8,0.1,13.7,0,20.5c-0.1,6.7-3.7,10.7-9.3,10.8c-5.3,0.1-9.5-3.8-9.6-10
		c-0.2-9.5,0-19,0.4-28.5c0.4-8.3,4.6-15.1,11.3-19.7c14.9-10.3,30-20.3,45.3-30.2c2.7-1.8,4.1-3.3,3.9-6.6c-0.3-3.8-0.2-7.7,0-11.5
		c0.2-6.3,0-12.3-4.1-17.9c-2.2-3-2.9-7.5-3-11.3c-0.4-13.2-0.6-26.3-0.1-39.5c1.1-24.7,17.3-41,41.9-43.1c22-1.9,39,6.5,47.6,24.7
		c2.9,6.1,3.7,13.4,4.6,20.2C459.5,259.6,458.9,265.5,458.9,271.4z"/>
	<path class="st2" d="M421.8,445.5c0,6.5,0.1,13,0,19.5c-0.1,2.8,0.5,4.4,3.4,5.7c13.7,6.2,20.9,18.9,19,34
		c-0.4,3.1,1.1,4.1,3.2,5.3c10.8,6.2,21.6,12.5,32.3,18.9c1.8,1.1,3.7,2.3,5.2,3.8c3,3.2,3,8.5,0.4,12c-2.8,3.6-7.6,4.8-12.1,2.3
		c-7-3.8-13.9-8-20.8-12c-5-2.9-10-6.1-15.2-8.7c-1.5-0.7-4.2-0.5-5.5,0.4c-12.2,8.4-26.5,8.7-38.1,0.1c-2.4-1.8-4-1.9-6.6-0.4
		c-11.4,6.8-23,13.5-34.5,20.2c-3.8,2.2-8.1,2.9-11.1-0.4c-2.1-2.3-3.8-6.3-3.3-9.1c0.5-2.9,3.4-6,6.1-7.7
		c10.9-6.8,22-13.1,33.1-19.5c2.2-1.3,3.5-2.4,3.1-5.4c-1.8-14.7,5.3-27.6,18.7-33.7c3-1.4,3.7-3,3.7-6c-0.1-12.8-0.2-25.6,0.1-38.5
		c0.1-3,1.1-6.3,2.7-8.7c2.3-3.3,6.2-3.8,10-2.4c4,1.5,6,4.7,6.1,8.9C421.9,431.1,421.8,438.3,421.8,445.5
		C421.8,445.5,421.8,445.5,421.8,445.5z M412.5,487.1c-7.3,0-13.3,6.1-13.3,13.4c0,7.3,6,13.3,13.3,13.3c7.4,0,13.2-5.8,13.2-13.3
		C425.7,493,419.8,487.1,412.5,487.1z"/>
</g>
</svg>
