<?xml version="1.0" encoding="utf-8"?>
<!-- Generator: Adobe Illustrator 19.2.0, SVG Export Plug-In . SVG Version: 6.00 Build 0)  -->
<svg version="1.1" id="Слой_1" xmlns="http://www.w3.org/2000/svg" xmlns:xlink="http://www.w3.org/1999/xlink" x="0px" y="0px"
	 viewBox="0 0 200 100" style="enable-background:new 0 0 200 100;" xml:space="preserve">
<style type="text/css">
	.st0{fill:#015673;}
</style>
<g>
	<path class="st0" d="M9.8,39.6C4.4,39.5,0,44,0,49.4c0,6.3,5.5,10.2,9.7,9.7c4.8,0.4,9.6-4.3,9.7-9.5C19.6,45,15.9,39.6,9.8,39.6z
		 M13.8,51.7c-0.3,1.4-1.2,2.2-2.7,2.2c-0.9-0.3-1.5,0-1.5,1.1c0,0.5-0.4,0.5-0.7,0.4c-0.4-0.1-0.3-0.3-0.4-0.6c0-0.4,0.7-1,0-1.3
		c-0.9-0.3-0.6,0.7-0.8,1.1c-0.2,0.4-0.4,0.5-0.8,0.4c-0.4-0.1-0.5-0.4-0.3-0.7c0.6-1.1-0.1-1.4-1-1.6c-0.3,0-0.8,0-0.7-0.5
		C5,51.7,5,51,5.7,51.3c0.6,0.2,0.8-0.2,0.9-0.7c0.3-1.3,0.6-2.6,1-3.9c0.2-0.6,0.1-1-0.5-1.1c-0.5-0.1-0.6-0.3-0.5-0.8
		c0.1-0.5,0.5-0.5,0.9-0.3c0.2,0.1,0.3,0.1,0.5,0.1c0.7,0.3,1.1,0.1,1.2-0.7c0-0.2,0.1-0.3,0.1-0.5C9.3,43,9.6,43,9.8,43.1
		c0.2,0.1,0.5,0.1,0.5,0.5c0,0.3-0.1,0.6-0.2,0.9C10,44.8,10,45,10.4,45.1c0.4,0.1,0.4-0.2,0.5-0.4c0.2-0.4-0.1-1.4,0.9-1.1
		C12.8,44,12,44.6,12,45c-0.1,0.5,0.2,0.6,0.6,0.8c0.8,0.4,1.5,0.9,1.5,1.8c0,0.9-0.8,1.3-1,2C12.9,50,14,50.7,13.8,51.7z"/>
	<path class="st0" d="M56.9,49.5c-0.3-0.2-0.6-0.2-0.1-0.7c2-2.1,1.2-4.8-1.6-5.5c-1.9-0.5-3.8-0.3-5.7-0.1
		c-0.6,0.1-0.7,0.3-0.7,0.9c0,1.8,0,3.7,0,5.5c0,1.3,0,2.5,0,3.8c0,2.8,0,2.8,2.8,2.9c1.7,0,3.4,0.1,4.9-0.6c1.2-0.6,2-1.5,2.1-2.9
		C58.6,51.3,58.3,50.1,56.9,49.5z M51,46.9c0-2.1,0-2.2,2.1-1.9c0.5,0.1,1.1,0.1,1.6,0.4c0.6,0.3,0.9,0.8,0.8,1.4
		c0,0.6-0.3,1.1-0.9,1.4c-0.7,0.3-1.5,0.3-2.2,0.3C50.8,48.4,51,48.6,51,46.9z M55,54c-1.1,0.5-2.3,0.4-3.5,0.4
		c-0.4,0-0.5-0.3-0.5-0.7c0-0.7,0.1-1.4,0-2.1c-0.1-0.9,0.1-1.4,1.1-1.2c0.2,0,0.4,0,0.7,0c0.6,0,1.3,0,2,0.2
		c0.8,0.3,1.3,0.8,1.3,1.7C56.2,53,55.8,53.6,55,54z"/>
	<path class="st0" d="M33.9,43.1c-0.2,0-0.4,0-0.6,0c-0.6-0.1-0.9,0.1-0.8,0.8c0,0.3,0,0.7,0,1c0,2.2,0,4.4,0,6.5
		c-0.1,2.3-1.8,3.5-3.8,2.8c-1.4-0.5-1.6-1.7-1.6-3c0-2.2,0-4.4,0-6.5c0-1.6,0-1.6-1.7-1.5c-0.6,0-0.7,0.2-0.7,0.7
		c0,2.7,0,5.5,0.1,8.2c0,1.3,0.5,2.6,1.7,3.4c1.9,1.3,3.9,1.4,6,0.5c1.9-0.8,2.5-2.5,2.6-4.4c0-1.2,0-2.4,0-3.6c0-1.3,0-2.5,0-3.8
		C34.9,43.3,34.7,43,33.9,43.1z"/>
	<path class="st0" d="M151.9,49.2c1.5-0.8,2-2.1,1.6-3.6c-0.4-1.5-1.6-2.1-3-2.3c-1.5-0.3-3.1-0.2-4.6,0c-0.5,0.1-0.7,0.2-0.7,0.8
		c0,3.8,0,7.6,0,11.3c0,0.5,0.2,0.7,0.6,0.8c2.1,0.3,4.2,0.4,6.2-0.4c1-0.4,1.8-1.1,2.1-2.2C154.6,51.6,154,50.3,151.9,49.2z
		 M148.9,44.1c0.7,0,1.3,0.1,2,0.4c0.9,0.4,1.4,1,1.4,2c0,1-0.5,1.8-1.5,2.1c-1.3,0.4-2.6,0.2-3.9,0.3c-0.4,0-0.5-0.3-0.5-0.6
		c0-0.6,0-1.2,0-1.8C146.4,44,146.4,44,148.9,44.1z M151.9,54.4c-1.6,1-3.4,0.8-5.1,0.7c-0.4,0-0.3-0.4-0.3-0.7c0-0.7,0-1.3,0-2.1
		c0.1-0.7-0.4-1.8,0.2-2.3c0.5-0.5,1.6-0.1,2.4-0.1c0.7,0,1.4,0,2.1,0.2c1,0.3,1.6,0.9,1.7,1.9C153,53,152.8,53.9,151.9,54.4z"/>
	<path class="st0" d="M46,43.1c-2.9,0.1-5.8,0.1-8.7,0c-1,0-0.8,0.6-0.8,1.1c0,0.6,0,1.1,0.8,1c0.7-0.1,1.5,0,2.3,0
		c0.7,0,1,0.2,0.9,0.9c-0.1,1.5,0,3,0,4.5c0,1.6,0.1,3.1,0,4.7c-0.1,1.2,0.7,0.9,1.3,0.9c0.7,0,1.2,0.1,1.1-0.9c-0.1-3,0-6,0-9.1
		c0-0.8,0.2-1.1,1-1c0.7,0.1,1.4-0.1,2.1,0c0.9,0.1,0.9-0.4,0.9-1C46.9,43.6,47,43,46,43.1z"/>
	<path class="st0" d="M83.9,48.2c0-1.7,0-3.1,0-4.4c0-0.4,0-0.7-0.6-0.7c-0.6,0-0.7,0.2-0.7,0.7c0,0.2,0,0.5,0,0.8
		c0,2.3,0,4.6,0,6.9c0,1.9-0.9,3.2-2.3,3.6c-2.3,0.7-4.1-0.5-4.5-2.9c-0.1-0.5-0.1-1.1-0.1-1.6c0-2.3,0-4.5,0-6.8
		c0-0.4,0-0.8-0.6-0.7c-0.4,0-0.7,0-0.7,0.5c0.1,3.1-0.2,6.1,0.1,9.2c0.3,2.3,2,3.6,4.4,3.6c2.6,0,4.1-1.1,4.7-3.4
		C84.1,51.3,83.8,49.6,83.9,48.2z"/>
	<path class="st0" d="M138.2,49.7c-0.3-2.7-2.6-4.1-5.1-3.3c-1.8,0.6-2.9,2.5-3,4.8c0,2.5,1,4.2,2.8,4.8c1.3,0.4,2.6,0.4,3.8,0
		c0.5-0.1,0.9-0.2,0.7-0.9c-0.3-0.8-0.7-0.2-1-0.1c-0.6,0.1-1.2,0.2-1.8,0.1c-1.9-0.1-2.9-1-3.3-2.8c-0.1-0.6,0.1-0.8,0.7-0.8
		c0.9,0,1.8,0,2.6,0c0.8,0,1.7,0,2.5,0c0.8,0.1,1.1-0.3,0.9-1C138.2,50.3,138.2,50,138.2,49.7z M137,50.2c-0.1,0.3-0.3,0.4-0.5,0.4
		c-0.8,0-1.5,0-2.3,0c-0.7,0-1.3,0-2,0c-0.8,0.1-0.8-0.3-0.6-0.9c0.4-1.6,1.8-2.6,3.3-2.4C136.1,47.5,137.2,49,137,50.2z"/>
	<path class="st0" d="M100,46.3c-1.8-0.4-3.5,0.3-4.4,1.9c-0.9,1.5-1,3.2-0.6,4.9c0.7,2.8,4.4,4.4,6.9,2.9c0.4-0.3,0.2-0.6,0.2-0.9
		c-0.1-0.5-0.5-0.2-0.7-0.1c-0.7,0.3-1.4,0.3-2.1,0.2c-1.8-0.1-2.7-0.9-3.1-2.7c-0.2-0.7-0.1-1,0.7-1c0.8,0.1,1.7,0,2.5,0
		c0.6,0,1.2,0,1.8,0c1.9,0,1.9,0,1.7-1.9C102.6,47.9,101.6,46.6,100,46.3z M100.9,50.6c-0.7,0-1.3,0-2,0c-0.7,0-1.4,0-2.1,0
		c-0.5,0-0.7-0.1-0.6-0.6c0.2-1.5,1.4-2.6,2.9-2.7c1.5,0,2.4,0.9,2.6,2.5C101.7,50.5,101.5,50.6,100.9,50.6z"/>
	<path class="st0" d="M183.1,46.8c-1.5-0.9-3.5-0.8-4.8,0.3c-1.6,1.3-2.3,3.8-1.6,6.1c0.6,1.9,2,3.1,3.9,3.2
		c2.7,0.2,4.7-1.9,4.7-5.5C185.3,49.5,184.9,47.9,183.1,46.8z M183.6,53.6c-0.5,1.1-1.4,1.6-2.6,1.6c-1.2,0-2.1-0.5-2.7-1.6
		c-0.8-1.6-0.8-3.3,0.1-4.9c0.6-1,1.5-1.5,2.6-1.4c1.2,0,2,0.6,2.5,1.6c0.4,0.8,0.6,1.6,0.5,2.3C184.1,52.1,184,52.9,183.6,53.6z"/>
	<path class="st0" d="M127.4,48.9c-0.3-1.7-1.3-2.5-3-2.7c-0.8-0.1-1.7,0-2.5,0.2c-0.5,0.2-0.7,0-0.7-0.5c0-1.3,0-2.5,0-3.8
		c0-0.2,0.1-0.7-0.4-0.6c-0.3,0-0.7,0-0.8,0.5c0,0.2,0,0.5,0,0.8c0,2,0,4,0,6c0,2.2,0,4.4,0,6.5c0,0.4-0.1,0.7,0.5,0.8
		c0.6,0,0.6-0.3,0.6-0.8c0-2.1,0-4.1,0-6.2c0-1.6,0-1.6,1.6-1.9c0.2,0,0.5,0,0.8,0c1.6,0,2.4,0.6,2.6,2.2c0.1,0.6,0.1,1.2,0.1,1.9
		c0,1.4,0,2.8,0,4.2c0,0.4,0.2,0.6,0.6,0.6c0.3,0,0.6,0,0.6-0.4C127.5,53.5,127.8,51.2,127.4,48.9z"/>
	<path class="st0" d="M117.4,43.1c-2.8,0-5.5,0-8.3,0c-0.4,0-0.6,0.1-0.6,0.6c0,0.5,0.2,0.6,0.7,0.6c0.8,0,1.6,0.1,2.4,0
		c1-0.1,1.2,0.3,1.1,1.2c-0.1,1.5,0,3.1,0,4.7c0,1.8,0,3.6,0,5.4c0,0.2-0.1,0.6,0.2,0.6c0.3,0.1,0.6,0.1,0.9-0.1
		c0.3-0.2,0.2-0.6,0.2-0.9c0-3.3,0-6.5,0-9.8c0-0.9,0.3-1.2,1.1-1.1c0.8,0.1,1.6,0,2.4,0c0.4,0,0.6-0.1,0.6-0.5
		C118,43.2,117.9,43.1,117.4,43.1z"/>
	<path class="st0" d="M199.9,49.3c-0.2-2-1.4-3-3.4-3c-1.1,0-2.2,0.1-3.2,0.3c-0.6,0.1-0.8,0.4-0.8,0.9c0,1.3,0,2.7,0,4
		c0,1.3,0,2.6,0,3.9c0,0.4-0.1,0.8,0.6,0.8c0.7,0,0.6-0.5,0.6-0.9c0-2.3,0-4.6,0-6.9c0-0.6,0.2-0.9,0.8-1c3.4-0.4,4.2,0.4,4.3,3.5
		c0.1,1.3,0,2.7,0,4c0,0.3,0,0.5,0,0.8c0,0.5,0.3,0.5,0.6,0.5c0.4,0,0.5-0.1,0.5-0.5C199.9,53.5,200.1,51.4,199.9,49.3z"/>
	<path class="st0" d="M90.9,51.1c-0.7-0.3-1.4-0.6-2-1c-0.6-0.3-1.1-0.8-0.9-1.6c0.2-0.8,0.8-1.2,1.6-1.2c0.7-0.1,1.4-0.1,2.1,0.2
		c0.3,0.1,0.6,0.3,0.8-0.2c0.1-0.5,0-0.7-0.4-0.8c-0.9-0.2-1.8-0.3-2.7-0.2c-1.4,0.2-2.3,1-2.5,2.1c-0.2,1.3,0.2,2.1,1.6,2.8
		c0.9,0.4,1.7,0.8,2.6,1.2c0.6,0.3,0.9,0.9,0.8,1.6c-0.1,0.7-0.6,1-1.2,1.2c-1.1,0.3-2.1,0.2-3.1-0.2c-0.4-0.1-0.6-0.2-0.7,0.3
		c-0.2,0.5,0,0.7,0.4,0.8c0.7,0.2,1.4,0.4,2.3,0.3c0.1,0,0.4,0,0.7,0c1.7-0.2,2.7-1,2.9-2.3C93.1,52.8,92.5,51.8,90.9,51.1z"/>
	<path class="st0" d="M165.7,55.1c-2.2,0.6-3.1-0.2-3.1-2.4c0-1.5,0-3,0-4.5c0-0.6,0.2-0.8,0.8-0.8c0.8,0.1,1.7,0,2.5,0
		c0.3,0,0.6-0.1,0.5-0.5c0-0.3-0.1-0.6-0.5-0.5c-0.3,0-0.7,0-1,0c-0.7,0-1.6,0.2-2.1-0.1c-0.6-0.4-0.1-1.4-0.3-2.1
		c-0.1-0.3,0.3-0.9-0.4-0.8c-0.5,0-0.8,0.1-0.8,0.8c0.1,1.5,0,2.9,0,4.7c0.1,1.6-0.2,3.4,0.2,5.3c0.2,1.2,0.9,1.8,2.1,2
		c0.8,0.2,1.6,0,2.4-0.2c0.4-0.1,1-0.2,0.7-0.9C166.4,54.5,166,55,165.7,55.1z"/>
	<path class="st0" d="M174,55.1c-1.5,0.3-3,0.3-4-1c-1-1.2-1-3.9-0.1-5.3c1-1.6,2.5-1.6,4.1-1.2c0.1,0,0.2,0,0.2,0.1
		c0.4,0.1,0.5-0.1,0.6-0.4c0.2-0.7-0.4-0.7-0.7-0.7c-3.5-1-6.1,1.2-6.2,4.9c0,4.2,2.9,5.7,6.3,4.9c0.4-0.1,1-0.1,0.7-0.9
		C174.7,54.5,174.3,55,174,55.1z"/>
	<path class="st0" d="M66.8,42.5c0-0.2,0-0.4,0-0.6c0-0.4-0.2-0.5-0.6-0.5c-0.3,0-0.6,0.1-0.6,0.5c0,0.3,0,0.5,0,0.8
		c0,2.6,0,5.2,0,7.8c0,2.1,0,4.3,0,6.4c0,0.7,0,1.4,0,2.1c0,0.4,0.1,0.6,0.6,0.6c0.5,0,0.6-0.2,0.5-0.6c0-0.2,0-0.3,0-0.5
		C66.8,53.2,66.8,47.9,66.8,42.5z"/>
	<path class="st0" d="M189.4,47.2c0-0.4,0.1-0.8-0.5-0.8c-0.6,0-0.7,0.3-0.7,0.8c0,2.8,0,5.5,0,8.3c0,0.4,0,0.7,0.6,0.7
		c0.6,0,0.6-0.3,0.6-0.7c0-1.4,0-2.8,0-4.2C189.4,49.9,189.4,48.5,189.4,47.2z"/>
	<path class="st0" d="M157.5,46.4c-0.6,0-0.6,0.3-0.6,0.7c0,1.4,0,2.9,0,4.3c0,1.4,0,2.8,0,4.2c0,0.5,0.2,0.6,0.7,0.6
		c0.5,0,0.5-0.3,0.5-0.6c0-2.8,0-5.6,0-8.4C158.1,46.7,158.1,46.4,157.5,46.4z"/>
	<path class="st0" d="M188.9,42.6c-0.6,0-0.9,0.4-1,0.9c0,0.6,0.3,1,0.9,0.9c0.6,0,0.8-0.4,0.8-0.9C189.6,43,189.4,42.6,188.9,42.6z
		"/>
	<path class="st0" d="M157.5,42.6c-0.6,0-0.8,0.4-0.9,0.9c0,0.6,0.3,1,0.9,1c0.6,0,0.8-0.3,0.8-0.9
		C158.4,42.9,158.1,42.6,157.5,42.6z"/>
	<path class="st0" d="M9.3,49.6c-0.4,0-1.1,1.1-0.9,1.9c0.2,1,1.2,0.4,1.6,0.8c1,0,1.5-0.4,1.6-1C11.6,50.5,10.5,49.7,9.3,49.6z"/>
	<path class="st0" d="M10,46.4c-0.8,0.2-0.7,1.1-0.7,1.7c0,1,1,0.4,1.3,0.7c0.7,0,1.2-0.3,1.3-1C12,47.2,10.7,46.2,10,46.4z"/>
</g>
</svg>
