<?xml version="1.0" encoding="utf-8"?>
<!-- Generator: Adobe Illustrator 19.2.0, SVG Export Plug-In . SVG Version: 6.00 Build 0)  -->
<svg version="1.1" id="Слой_1" xmlns="http://www.w3.org/2000/svg" xmlns:xlink="http://www.w3.org/1999/xlink" x="0px" y="0px"
	 viewBox="0 0 200 100" style="enable-background:new 0 0 200 100;" xml:space="preserve">
<style type="text/css">
	.st0{fill:#015673;}
	.st1{fill:#383838;}
</style>
<g>
	<g>
		<g>
			<path class="st0" d="M28,22.2c14.8,0,27.8,12.7,27.4,28.3c-0.4,15.2-12.6,27.2-27.7,27C11.3,77.4,0.8,65.2,0.1,51.7
				C-1,34.1,13.2,21.9,28,22.2z M27,63.1c0.7,1.6,1.4,3.1,2.1,4.6c0.6-0.2,1-0.4,1.4-0.5c1.5-0.4,1.8-1.2,1.1-2.6
				c-0.5-1-0.9-2-1.3-3.1c0.8-0.2,1.3-0.4,1.9-0.6c0.7,1.6,1.4,3,2.1,4.5c3.2-1.2,3.2-1.2,2-4.2c-0.2-0.6-0.5-1.2-0.7-1.7
				c5.2-3.8,6.8-5.9,6.3-8.6c-0.7-3.6-2.3-6.3-6.6-6c1.1-3.4,0.6-5.9-1.8-7.6c-1.9-1.4-4.1-1.1-6.2-0.5c-0.9,0.2-1.4,0.3-1.8-0.8
				c-0.4-1.2-1-2.3-1.6-3.7c-1.1,0.5-2.1,0.9-3.2,1.4c0.7,1.5,1.3,2.9,1.9,4.3c-1.6,1.3-1.6,1.3-2.5-0.5c-1.4-3.1-1.4-3.1-4.2-1.8
				c-0.1,0-0.2,0.2-0.3,0.3c0.4,1,0.7,2.1,1.2,3.1c0.8,1.4,0.2,1.9-1,2.3c-1.4,0.5-2.6,1.1-4.1,1.7c0.5,1.3,1,2.3,1.5,3.4
				c0.3-0.1,0.6-0.2,0.8-0.3c2.8-1.2,3.1-1,4.3,1.8c1.4,3.3,2.7,6.7,4.3,10c0.8,1.6,0.3,2.3-1.2,2.7c-1.1,0.3-1.3,0.8-0.9,1.8
				c0.2,0.4,0.2,0.8,0.3,1.2c0.2,1.2,0.7,1.7,1.9,1C24.1,64.2,25.5,63.7,27,63.1z"/>
			<path class="st0" d="M28.9,58c-0.9-2-1.7-3.6-2.4-5.3c-0.1-0.3,0-1.1,0.3-1.2c2.1-1.1,4.3-2.2,6.8-1.5c2,0.6,2.6,2.9,0.9,4.3
				C32.9,55.7,30.9,56.7,28.9,58z"/>
			<path class="st0" d="M24.8,48.5c-0.9-2.1-1.6-3.7-2.5-5.7c1.7-0.5,3.3-1.2,4.9-1.3c0.8-0.1,1.9,0.7,2.5,1.4
				c1,1.1,0.2,2.4-0.6,3.1C27.9,47,26.4,47.7,24.8,48.5z"/>
		</g>
		<path class="st1" d="M43.7,59.9c2,1.2,3.6,2.2,5.3,3.3c-2.5,3.7-4.8,7.2-7.3,11c-4.6-7.3-8-12.6-8.7-13.6
			c-0.1-0.1-0.3-0.4-0.7-0.8c-0.7-0.7-1.4-1-1.9-1.2c-1,0.2-1.4,0.7-1.6,1c-0.1,0.2-0.3,0.5-0.6,1.2c0,0-0.3,0.7-0.5,1.1
			c-0.7,2-2.4,7.3-4.4,11.7c-1.1,2.4-2.5,3.8-4,4.1c-2,0.5-3.8-0.7-5.6-1.9C11.9,74.5,9,72.2,6.5,68c-0.1-0.2-0.3-0.3-0.5-0.6
			c0-0.1-0.2-0.3-0.5-0.6c-0.2-0.2-0.4-0.5-0.6-0.9c0.3,2.3,1,4,1.6,4.9C7.3,72.2,8,73,9.2,74.2c2.2,2.3,3.9,3.2,4.4,3.5
			c4.9,3.2,9.1,2.1,11.8-3c1.9-3.6,3.4-7.4,5.3-11.5c0.7,1,1.2,1.7,1.6,2.4c2.2,3.6,4.4,7.3,6.7,10.9c2.7,4.2,3.3,4.2,6-0.1
			c2.4-3.8,4.9-7.6,7.5-11.5c2.1,1.1,4,2.1,6,3.2c0-5.9,0-11.5,0-17.5C53.4,53.8,48.7,56.8,43.7,59.9z"/>
	</g>
</g>
<g>
	<g>
		<path class="st0" d="M77.6,50.6c-0.7,0.4-2.1,0.7-3.9,0.7c-4.2,0-7.3-2.6-7.3-7.5c0-4.7,3.2-7.8,7.8-7.8c1.9,0,3,0.4,3.5,0.7
			l-0.5,1.6c-0.7-0.4-1.8-0.6-3-0.6c-3.5,0-5.8,2.2-5.8,6.1c0,3.6,2.1,6,5.7,6c1.2,0,2.4-0.2,3.1-0.6L77.6,50.6z"/>
		<path class="st0" d="M79.9,43.8c0-1.3,0-2.3-0.1-3.3h1.7l0.1,2.1h0.1c0.5-1.4,1.7-2.3,3-2.3c0.2,0,0.4,0,0.6,0.1v1.8
			c-0.2,0-0.4-0.1-0.7-0.1c-1.4,0-2.3,1-2.6,2.5c0,0.3-0.1,0.6-0.1,0.9v5.7h-1.9V43.8z"/>
		<path class="st0" d="M89.3,37.5c0,0.7-0.5,1.2-1.2,1.2c-0.7,0-1.2-0.5-1.2-1.2c0-0.7,0.5-1.2,1.2-1.2
			C88.9,36.2,89.3,36.8,89.3,37.5z M87.2,51.1V40.4h1.9v10.7H87.2z"/>
		<path class="st0" d="M92.3,43.9c0-1.4,0-2.5-0.1-3.5H94l0.1,1.8h0c0.8-1.3,2.1-2.1,3.8-2.1c2.6,0,4.5,2.2,4.5,5.4
			c0,3.8-2.3,5.7-4.9,5.7c-1.4,0-2.6-0.6-3.3-1.7h0v5.8h-1.9V43.9z M94.3,46.8c0,0.3,0,0.6,0.1,0.8c0.4,1.3,1.5,2.3,2.9,2.3
			c2.1,0,3.2-1.7,3.2-4.1c0-2.1-1.1-4-3.2-4c-1.3,0-2.6,0.9-2.9,2.4c-0.1,0.2-0.1,0.5-0.1,0.8V46.8z"/>
		<path class="st0" d="M107.2,37.4v3.1h2.8v1.5h-2.8v5.8c0,1.3,0.4,2.1,1.5,2.1c0.5,0,0.9-0.1,1.1-0.1l0.1,1.5
			c-0.4,0.2-1,0.3-1.7,0.3c-0.9,0-1.6-0.3-2.1-0.8c-0.6-0.6-0.7-1.5-0.7-2.8v-5.8h-1.7v-1.5h1.7v-2.6L107.2,37.4z"/>
		<path class="st0" d="M121.7,45.7c0,3.9-2.7,5.7-5.3,5.7c-2.9,0-5.1-2.1-5.1-5.5c0-3.6,2.3-5.7,5.3-5.7
			C119.6,40.2,121.7,42.4,121.7,45.7z M113.2,45.8c0,2.3,1.3,4.1,3.2,4.1c1.9,0,3.2-1.7,3.2-4.1c0-1.8-0.9-4.1-3.2-4.1
			C114.2,41.7,113.2,43.8,113.2,45.8z"/>
		<path class="st0" d="M124.2,43.3c0-1.1,0-2-0.1-2.9h1.7l0.1,1.7h0.1c0.6-1,1.6-2,3.4-2c1.5,0,2.6,0.9,3,2.1h0
			c0.3-0.6,0.7-1.1,1.2-1.4c0.6-0.5,1.3-0.7,2.4-0.7c1.4,0,3.5,0.9,3.5,4.6v6.3h-1.9v-6c0-2.1-0.7-3.3-2.3-3.3c-1.1,0-2,0.8-2.3,1.8
			c-0.1,0.3-0.2,0.6-0.2,1v6.6h-1.9v-6.4c0-1.7-0.7-2.9-2.2-2.9c-1.2,0-2.1,1-2.4,1.9c-0.1,0.3-0.2,0.6-0.2,0.9v6.4h-1.9V43.3z"/>
		<path class="st0" d="M152.2,45.7c0,3.9-2.7,5.7-5.3,5.7c-2.9,0-5.1-2.1-5.1-5.5c0-3.6,2.3-5.7,5.3-5.7
			C150.1,40.2,152.2,42.4,152.2,45.7z M143.7,45.8c0,2.3,1.3,4.1,3.2,4.1c1.9,0,3.2-1.7,3.2-4.1c0-1.8-0.9-4.1-3.2-4.1
			C144.7,41.7,143.7,43.8,143.7,45.8z"/>
		<path class="st0" d="M155.7,46.1c0,2.6,1.7,3.7,3.7,3.7c1.4,0,2.2-0.2,3-0.6l0.3,1.4c-0.7,0.3-1.9,0.7-3.6,0.7
			c-3.3,0-5.2-2.2-5.2-5.4c0-3.2,1.9-5.8,5-5.8c3.5,0,4.4,3.1,4.4,5c0,0.4,0,0.7-0.1,0.9H155.7z M161.4,44.8c0-1.2-0.5-3.2-2.7-3.2
			c-2,0-2.8,1.8-3,3.2H161.4z"/>
		<path class="st0" d="M174.9,35.5v12.9c0,0.9,0,2,0.1,2.8h-1.7l-0.1-1.9h0c-0.6,1.2-1.9,2.1-3.6,2.1c-2.6,0-4.6-2.2-4.6-5.4
			c0-3.6,2.2-5.7,4.8-5.7c1.6,0,2.7,0.8,3.2,1.6h0v-6.4H174.9z M173,44.8c0-0.2,0-0.6-0.1-0.8c-0.3-1.2-1.3-2.2-2.8-2.2
			c-2,0-3.2,1.8-3.2,4.1c0,2.2,1.1,3.9,3.2,3.9c1.3,0,2.5-0.9,2.8-2.3c0.1-0.3,0.1-0.5,0.1-0.8V44.8z"/>
		<path class="st0" d="M184,51.1l-0.2-1.3h-0.1c-0.6,0.8-1.7,1.6-3.3,1.6c-2.2,0-3.3-1.5-3.3-3.1c0-2.6,2.3-4,6.4-4v-0.2
			c0-0.9-0.2-2.5-2.4-2.5c-1,0-2,0.3-2.8,0.8l-0.4-1.3c0.9-0.6,2.2-0.9,3.5-0.9c3.3,0,4.1,2.2,4.1,4.4v4c0,0.9,0,1.8,0.2,2.6H184z
			 M183.7,45.7c-2.1,0-4.5,0.3-4.5,2.4c0,1.3,0.8,1.9,1.8,1.9c1.4,0,2.3-0.9,2.6-1.8c0.1-0.2,0.1-0.4,0.1-0.6V45.7z"/>
		<path class="st0" d="M188.5,49.1c0.6,0.4,1.6,0.8,2.6,0.8c1.4,0,2.1-0.7,2.1-1.6c0-0.9-0.6-1.4-2-2c-1.9-0.7-2.8-1.7-2.8-3
			c0-1.7,1.4-3.1,3.7-3.1c1.1,0,2,0.3,2.6,0.7l-0.5,1.4c-0.4-0.3-1.2-0.6-2.2-0.6c-1.1,0-1.8,0.7-1.8,1.5c0,0.9,0.6,1.3,2,1.8
			c1.9,0.7,2.8,1.6,2.8,3.2c0,1.9-1.5,3.2-4,3.2c-1.2,0-2.2-0.3-3-0.7L188.5,49.1z"/>
	</g>
</g>
<g>
	<g>
		<path class="st0" d="M68.4,69.6v-9H67v-1.4h1.5v-0.5c0-1.5,0.3-2.8,1.2-3.6c0.7-0.7,1.7-1,2.5-1c0.7,0,1.2,0.2,1.6,0.3l-0.3,1.5
			c-0.3-0.1-0.7-0.2-1.2-0.2c-1.6,0-2,1.4-2,3v0.6h2.5v1.4h-2.5v9H68.4z"/>
		<path class="st0" d="M87.1,69.6L87,68.3h-0.1c-0.6,0.8-1.7,1.5-3.2,1.5c-2.1,0-3.2-1.5-3.2-3c0-2.5,2.2-3.9,6.3-3.9v-0.2
			c0-0.9-0.2-2.4-2.4-2.4c-1,0-2,0.3-2.7,0.8l-0.4-1.2c0.9-0.6,2.1-0.9,3.4-0.9c3.2,0,4,2.2,4,4.3v3.9c0,0.9,0,1.8,0.2,2.5H87.1z
			 M86.9,64.3c-2.1,0-4.4,0.3-4.4,2.3c0,1.2,0.8,1.8,1.8,1.8c1.4,0,2.2-0.9,2.5-1.7c0.1-0.2,0.1-0.4,0.1-0.6V64.3z"/>
		<path class="st0" d="M106,69.2c-0.5,0.3-1.6,0.6-3,0.6c-3.1,0-5.2-2.1-5.2-5.3c0-3.2,2.2-5.5,5.6-5.5c1.1,0,2.1,0.3,2.6,0.5
			l-0.4,1.5c-0.5-0.3-1.2-0.5-2.2-0.5c-2.4,0-3.7,1.8-3.7,3.9c0,2.4,1.5,3.9,3.6,3.9c1.1,0,1.8-0.3,2.3-0.5L106,69.2z"/>
		<path class="st0" d="M117.2,56.2c0,0.6-0.5,1.2-1.2,1.2c-0.7,0-1.1-0.5-1.1-1.2c0-0.7,0.5-1.2,1.2-1.2
			C116.8,55.1,117.2,55.6,117.2,56.2z M115.1,69.6V59.2h1.9v10.4H115.1z"/>
		<path class="st0" d="M127,54.3h1.9v15.3H127V54.3z"/>
		<path class="st0" d="M138.3,68.5c0-0.8,0.5-1.4,1.3-1.4c0.8,0,1.3,0.6,1.3,1.4c0,0.8-0.5,1.4-1.3,1.4
			C138.8,69.8,138.3,69.2,138.3,68.5z"/>
		<path class="st0" d="M157.5,69.2c-0.5,0.3-1.6,0.6-3,0.6c-3.1,0-5.2-2.1-5.2-5.3c0-3.2,2.2-5.5,5.6-5.5c1.1,0,2.1,0.3,2.6,0.5
			l-0.4,1.5c-0.5-0.3-1.2-0.5-2.2-0.5c-2.4,0-3.7,1.8-3.7,3.9c0,2.4,1.5,3.9,3.6,3.9c1.1,0,1.8-0.3,2.3-0.5L157.5,69.2z"/>
		<path class="st0" d="M175.9,64.3c0,3.8-2.7,5.5-5.2,5.5c-2.8,0-5-2.1-5-5.4c0-3.5,2.3-5.5,5.2-5.5
			C173.9,58.9,175.9,61.1,175.9,64.3z M167.6,64.4c0,2.3,1.3,4,3.2,4c1.8,0,3.2-1.7,3.2-4c0-1.8-0.9-4-3.1-4S167.6,62.4,167.6,64.4z
			"/>
		<path class="st0" d="M185.1,62c0-1.1,0-2-0.1-2.8h1.7l0.1,1.7h0.1c0.6-1,1.5-1.9,3.3-1.9c1.4,0,2.5,0.9,2.9,2.1h0
			c0.3-0.6,0.7-1,1.2-1.4c0.6-0.5,1.3-0.7,2.3-0.7c1.4,0,3.4,0.9,3.4,4.5v6.1h-1.8v-5.9c0-2-0.7-3.2-2.3-3.2c-1.1,0-1.9,0.8-2.2,1.7
			c-0.1,0.3-0.2,0.6-0.2,0.9v6.4h-1.8v-6.2c0-1.7-0.7-2.9-2.2-2.9c-1.2,0-2,0.9-2.3,1.9c-0.1,0.3-0.2,0.6-0.2,0.9v6.3h-1.8V62z"/>
	</g>
</g>
</svg>
