<?xml version="1.0" encoding="utf-8"?>
<!-- Generator: Adobe Illustrator 19.2.0, SVG Export Plug-In . SVG Version: 6.00 Build 0)  -->
<svg version="1.1" id="Слой_1" xmlns="http://www.w3.org/2000/svg" xmlns:xlink="http://www.w3.org/1999/xlink" x="0px" y="0px"
	 viewBox="0 0 200 100" style="enable-background:new 0 0 200 100;" xml:space="preserve">
<style type="text/css">
	.st0{fill:#015673;}
</style>
<g>
	<path class="st0" d="M16.2,50.1c-0.7-0.7-0.7-0.7,0-1.4c0.1-0.1,0.2-0.2,0.2-0.3c1.4-2.4,1.4-4.8,0.4-7.3c-0.1-0.1-0.2-0.3-0.3-0.4
		c-1.1-1.6-2.8-2.3-4.7-2.3c-3.6,0-7.3,0-10.9,0c-0.3,0-0.7,0-0.9,0.2c0,7.7,0,15.4,0,23.1c0.4,0.2,0.7,0.2,1.1,0.2
		c3.2,0,6.3,0,9.5,0c0.9,0,1.9,0,2.8-0.2c1.7-0.4,3.1-1.1,3.9-2.7c0.5-0.9,0.7-2,0.8-3c0.2-1.4,0.2-2.9-0.7-4.1
		C17,51.1,16.6,50.6,16.2,50.1z M4.6,43.2c0-0.5,0.2-0.7,0.7-0.7c1.8,0,3.6,0,5.5,0c1.2,0,2.2,0.7,2.3,2.4c0,0.5,0,0.9-0.2,1.3
		c-0.3,0.9-0.8,1.3-1.8,1.4c-1,0-1.9,0-2.9,0c0,0,0,0,0,0c-1,0-1.9,0-2.9,0c-0.5,0-0.6-0.1-0.6-0.6C4.6,45.8,4.6,44.5,4.6,43.2z
		 M13.1,56.7c-0.3,0.4-0.7,0.7-1.2,0.7c-2.2,0-4.4,0-6.6,0c-0.5,0-0.6-0.2-0.6-0.6c0-1.4,0-2.7,0-4.1c0-0.5,0.2-0.6,0.7-0.6
		c1.1,0,2.2,0,3.3,0c0,0,0,0,0,0c1.1,0,2.1,0,3.2,0c0.8,0,1.4,0.4,1.6,1.1C13.8,54.4,13.9,55.6,13.1,56.7z"/>
	<path class="st0" d="M199.7,60.8c-0.5-1.4-0.9-2.8-1.4-4.2c-0.5-1.4-0.9-2.8-1.7-4.1c-0.4-0.7-0.4-0.6,0.3-1.2
		c1.2-0.9,2.1-2,2.3-3.6c0.2-1.2,0.1-2.4,0.2-3.6c0.1-0.8-0.1-1.6-0.4-2.4c-0.8-1.8-1.9-3.1-4-3.4c-0.5-0.1-1-0.1-1.4-0.1
		c-3.6,0-7.2,0-10.7,0c-0.8,0-0.9,0.1-0.9,0.9c0,0.2,0,0.4,0,0.6c0,4.7,0,9.4,0,14.2c0,2.2,0,4.5,0,6.7c0,0.9,0.2,1,1,1
		c0.9,0,1.9,0,2.8,0c0.9,0,1-0.1,1-1c0-2.2,0-4.5,0-6.7c0-0.8,0-0.8,0.8-0.8c1.1,0,2.1,0,3.2,0c0.8,0,1.3,0.3,1.7,1
		c0.2,0.3,0.3,0.6,0.4,1c0.6,1.8,1.3,3.7,1.9,5.5c0.4,1,0.6,1.2,1.6,1.2c1,0,2,0,2.9,0c0.3,0,0.7,0,0.9-0.2c0-0.1,0-0.1,0-0.2
		C199.8,61.2,199.8,61,199.7,60.8z M194.4,47c-0.4,1-0.9,1.4-2,1.5c-0.8,0-1.6,0-2.4,0c-0.9,0-1.9,0-2.8,0c-0.5,0-0.7-0.2-0.7-0.7
		c0-1.5,0-3.1,0-4.6c0-0.4,0.2-0.6,0.7-0.6c2,0,3.9,0,5.9,0c0.8,0,1.5,0.7,1.7,1.6C194.7,45.1,194.7,46.1,194.4,47z"/>
	<path class="st0" d="M159.4,38.3c-0.9,0-1.9,0-2.8,0c-0.9,0-0.9,0-0.9,0.9c0,0.2,0,0.4,0,0.6c0,5.5,0,10.9,0,16.4
		c0,0.3,0.2,0.9-0.3,0.9c-0.4,0-0.4-0.5-0.5-0.8c-0.8-2.9-1.6-5.8-2.3-8.7c-0.6-2.3-1.2-4.5-1.9-6.8c-0.4-1.3-1.3-2-2.6-2.3
		c-1-0.3-2.1-0.1-3.1,0c-1.9,0.2-3,1.3-3.2,3.2c-0.2,1.4-0.1,2.9-0.2,4.3c0,4.9,0,9.8,0,14.8c0,0.8,0.1,1,0.7,1c1.1,0,2.3,0,3.4,0
		c0.4,0,0.6-0.2,0.6-0.6c0-0.2,0-0.5,0-0.7c0-5.4,0-10.9,0-16.3c0-0.3,0-0.6,0.1-0.9c0-0.1,0-0.4,0.3-0.3c0.1,0,0.2,0.1,0.3,0.3
		c0.1,0.1,0.1,0.2,0.2,0.4c0.8,3,1.6,5.9,2.4,8.9c0.6,2.2,1.2,4.5,1.8,6.7c0.5,1.6,1.8,2.6,3.4,2.6c0.6,0,1.2,0,1.9,0
		c0.7,0,1.4-0.1,1.9-0.5c1.1-0.8,1.7-1.8,1.7-3.1c0-3.1,0-6.3,0-9.4c0,0,0,0,0,0c0-3.2,0-6.4,0-9.6
		C160.2,38.3,160.2,38.3,159.4,38.3z"/>
	<path class="st0" d="M100.4,57.6c-0.7-1.8-1.1-3.7-2.2-5.3c-0.3-0.4,0-0.7,0.4-0.9c1.2-0.9,2.1-2,2.4-3.5c0.2-1.2,0.1-2.5,0.2-3.7
		c0.1-0.8-0.1-1.6-0.4-2.4c-0.6-1.5-1.6-2.7-3.3-3.2c-0.7-0.2-1.3-0.3-2-0.3c-3.5,0-7,0-10.6,0c-0.2,0-0.4,0-0.6,0
		c-0.4,0-0.6,0.2-0.6,0.6c0,0.2,0,0.4,0,0.6c0,3.5,0,7,0,10.5c0,3.6,0,7.2,0,10.8c0,0.9,0,0.9,0.9,0.9c0.8,0,1.7,0,2.5,0
		c1.2,0,1.2,0,1.2-1.2c0-2.2,0-4.5,0-6.7c0-0.5,0.1-0.7,0.7-0.7c1.1,0,2.1,0,3.2,0c1.1,0,1.7,0.4,2,1.5c0.3,0.9,0.6,1.8,1,2.6
		c0.5,1.2,0.8,2.5,1.3,3.7c0.2,0.5,0.6,0.8,1.2,0.8c0.8,0,1.6,0,2.4,0c0.4,0,0.8,0,1.2,0c0.3,0,0.4-0.1,0.3-0.5
		C101,60,100.8,58.8,100.4,57.6z M95.9,47.5c-0.3,0.6-0.9,1-1.7,0.9c-0.8-0.1-1.7,0-2.5,0c-0.9,0-1.8,0-2.7,0
		c-0.4,0-0.7-0.1-0.7-0.6c0-1.6,0-3.2,0-4.8c0-0.4,0.1-0.5,0.5-0.5c2,0,4,0,6.1,0c0.3,0,0.5,0.1,0.7,0.3c0.3,0.3,0.6,0.7,0.8,1.1
		C96.6,45.2,96.4,46.4,95.9,47.5z"/>
	<path class="st0" d="M62,50.3c-0.6-1.2-1.6-2.1-3-2.4c-0.7-0.2-1.4-0.3-2.1-0.3c-1.4,0-2.9,0-4.3,0c-1.4,0-2.3-0.5-2.3-2
		c0-0.1-0.1-0.2-0.1-0.4c-0.3-1.5,0.7-2.7,2.2-2.7c1.3,0,2.5,0,3.8,0c1.5,0,3.1,0,4.6,0c0.7,0,0.7,0,0.7-0.7c0-0.9,0-1.8,0-2.7
		c0-0.8-0.1-0.8-0.8-0.8c-1.5,0-2.9,0-4.4,0c-0.8,0-0.8,0-0.8-0.9c0-1,0-2.1,0-3.1c0-0.5-0.2-0.7-0.7-0.7c-0.5,0-0.9,0-1.4,0
		c-0.4,0-0.5,0.2-0.5,0.5c0,1,0,2.1,0,3.1c0,1.1,0.1,1.1-1.1,1c-1.3,0-2.6,0.2-3.7,0.9c-1.4,1-2.3,2.3-2.6,4c-0.2,1.2-0.3,2.4,0,3.7
		c0.3,1.4,0.8,2.8,1.9,3.8c1,0.9,2.3,1.2,3.6,1.2c1.4,0.1,2.7,0,4.1,0c0.6,0,1.2,0.2,1.7,0.3c0.5,0.1,0.9,0.4,1,0.9
		c0.3,1.2,0.5,2.4-0.3,3.5c-0.3,0.5-0.7,0.8-1.4,0.8c-1.6,0-3.2,0-4.8,0c-1.7,0-3.3,0-5,0c-0.7,0-0.7,0.1-0.8,0.7c0,0.8,0,1.6,0,2.4
		c0,1,0.1,1.1,1.1,1.1c1.8,0,3.6,0,5.4,0c0.5,0,0.7,0.1,0.7,0.7c0,0.7,0,1.4,0,2.1c0,0.6-0.3,1.4,0.1,1.8c0.4,0.4,1.2,0.1,1.8,0.1
		c0.5,0,0.6-0.1,0.6-0.6c0-1.1,0-2.3,0-3.4c0-0.5,0.1-0.7,0.6-0.7c0.3,0,0.6,0,0.9,0c0.8,0,1.5,0,2.2-0.4c1.9-0.9,3.1-2.3,3.6-4.3
		c0.3-1.2,0.2-2.4,0.2-3.6C62.9,52.3,62.5,51.2,62,50.3z"/>
	<path class="st0" d="M109.7,42.5c1.4,0,2.8,0,4.2,0c1.9,0,3.8,0,5.7,0c0.7,0,0.7-0.1,0.7-0.7c0-0.9,0-1.8,0-2.7
		c0-0.7-0.1-0.8-0.8-0.8c-3.6,0-7.3-0.1-10.9,0c-2,0-3.4,1-4.1,2.9c-0.3,0.7-0.4,1.5-0.4,2.3c0,2.3,0,4.7,0,7c0,2.4,0,4.8,0,7.1
		c0,0.6,0.1,1.2,0.3,1.8c0.6,1.5,1.8,2.2,3.4,2.2c3.9,0,7.8,0,11.6,0c0.1,0,0.3,0,0.4,0c0.3,0,0.5-0.2,0.5-0.5c0-1.1,0-2.1,0-3.2
		c0-0.4-0.2-0.5-0.6-0.5c-0.2,0-0.5,0-0.7,0c-3.1,0-6.2,0-9.3,0c-1,0-1,0-1-1c0-1.1,0-2.3,0-3.4c0-0.8,0.1-0.9,0.9-0.9
		c0.2,0,0.5,0,0.7,0c2.8,0,5.5,0,8.3,0c0.8,0,0.8-0.1,0.8-0.8c0-0.9,0-1.9,0-2.8c0-0.7-0.1-0.8-0.8-0.8c-1.4,0-2.7,0-4.1,0
		c-1.7,0-3.4,0-5.1,0c-0.5,0-0.7-0.1-0.7-0.7c0-1.2,0-2.4,0-3.6C108.8,42.7,109,42.5,109.7,42.5z"/>
	<path class="st0" d="M178.1,57.4c-2.2,0-4.5,0-6.7,0c-1,0-2,0-2.9,0c-0.4,0-0.7-0.1-0.7-0.6c0-1.4,0-2.8,0-4.2
		c0-0.3,0.2-0.5,0.6-0.5c0.4,0,0.8,0,1.2,0c2.7,0,5.3,0,8,0c0.9,0,1,0,1-1c0-0.8,0-1.6,0-2.3c0-1.1,0-1.1-1.1-1.1
		c-2.8,0-5.6,0-8.4,0c-0.2,0-0.5,0-0.7,0c-0.4,0-0.6-0.2-0.6-0.5c0-1.3,0-2.6,0-3.9c0-0.4,0.2-0.7,0.7-0.7c0.2,0,0.4,0,0.6,0
		c3.1,0,6.1,0,9.2,0c1,0,1,0,1-1c0-0.8,0-1.6,0-2.4c0-0.8-0.1-0.8-0.8-0.8c-3.6,0-7.2-0.1-10.8,0c-2,0-3.5,1.1-4.2,3.1
		c-0.2,0.7-0.4,1.4-0.4,2.2c0,2.3,0,4.6,0,6.9c0,2.4,0,4.8,0,7.1c0,2.3,1.5,4.1,4.1,4.1c1.7,0,3.5,0,5.2,0c2.1,0,4.1,0,6.2,0
		c0.7,0,0.8-0.1,0.8-0.8c0-0.8,0-1.6,0-2.3C179.2,57.4,179.2,57.4,178.1,57.4z"/>
	<path class="st0" d="M137.9,57.4c-3.2,0-6.3,0-9.5,0c-0.8,0-0.8-0.1-0.8-0.8c0-1.1,0-2.3,0-3.4c0-1,0-1,1-1c2.8,0,5.6,0,8.4,0
		c0.2,0,0.5,0,0.7,0c0.4-0.1,0.6-0.2,0.6-0.7c0-0.9,0-1.8,0-2.7c0-1,0-1-1-1c-2.8,0-5.7,0-8.5,0c-0.2,0-0.5,0-0.7,0
		c-0.4,0-0.6-0.2-0.6-0.5c0-1.3,0-2.6,0-3.9c0-0.4,0.2-0.7,0.7-0.7c0.2,0,0.4,0,0.6,0c3.1,0,6.1,0,9.2,0c1,0,1,0,1-1
		c0-0.8,0-1.6,0-2.3c0-0.9,0-0.9-0.9-0.9c-3.5,0-7.1,0-10.6,0c-2.1,0-3.7,1.3-4.3,3.2c-0.2,0.7-0.3,1.4-0.3,2.1c0,2.3,0,4.6,0,6.9
		c0,2.4,0,4.8,0,7.2c0,2.2,1.5,4,4,4c1.1,0,2.3,0,3.4,0c2.6,0,5.1,0,7.7,0c1.1,0,1.1,0,1.1-1.2c0-0.7,0-1.3,0-2
		C139.1,57.4,139.1,57.4,137.9,57.4z"/>
	<path class="st0" d="M72.9,42.5c0.5,0,1.1,0,1.7,0c1.9,0,3.7,0,5.6,0c0.7,0,0.7,0,0.7-0.7c0-0.9,0-1.8,0-2.7c0-0.8-0.1-0.8-0.8-0.8
		c-1.7,0-3.3,0-5,0c-1.4,0-2.8-0.1-4.2,0.1c-2.8,0.5-4.7,2-5.6,4.7c-0.3,0.9-0.4,1.8-0.4,2.8c0,2.6,0,5.1,0,7.7c0,0.7,0,1.5,0.2,2.2
		c0.3,1.7,1.2,3.1,2.5,4.2c1.2,1.1,2.7,1.5,4.3,1.6c2.8,0.1,5.6,0,8.4,0c0.5,0,0.7-0.2,0.7-0.7c0-0.8,0-1.6,0-2.4
		c0-1.1,0-1.1-1.1-1.1c-2.4,0-4.9-0.1-7.3,0c-1.5,0.1-2.9-1.2-2.8-2.7c0.1-1.5,0-2.9,0-4.4c0,0,0,0,0,0c0-1.6,0-3.1,0-4.7
		C69.7,44,70.9,42.4,72.9,42.5z"/>
	<path class="st0" d="M43.1,38.3c-0.2,0-0.4,0-0.6,0c-3.7,0-7.5,0-11.2,0c-1.1,0-2.2,0-3.3,0c-0.5,0-0.7,0.2-0.7,0.7c0,1,0,2,0,2.9
		c0,0.5,0.1,0.7,0.7,0.7c1.4,0,2.9,0,4.3,0c1,0,0.9-0.1,0.9,1c0,2.8,0,5.7,0,8.5c0,0.8,0,1.6,0,2.4c0,2.1,0,4.2,0,6.4
		c0,0.8,0.1,0.9,0.8,0.9c1,0,2.1,0,3.1,0c0.7,0,0.7-0.1,0.7-0.7c0-0.2,0-0.5,0-0.7c0-5.6,0-11.1,0-16.7c0-1,0-1,1-1
		c1.4,0,2.9,0,4.3,0c0.7,0,0.7-0.1,0.8-0.7c0-0.9,0-1.9,0-2.8C43.9,38.3,43.8,38.3,43.1,38.3z"/>
	<path class="st0" d="M25.2,39.5c0-0.1,0-0.3,0-0.4c0-0.7-0.1-0.8-0.8-0.8c-1.1,0-2.1,0-3.2,0c-0.5,0-0.7,0.2-0.7,0.7
		c0,0.2,0,0.4,0,0.6c0,3.5,0,7,0,10.4c0,2,0,4,0,6c0,1.7,0,3.3,0,5c0,0.7,0.1,0.8,0.7,0.8c1.1,0,2.1,0,3.2,0c0.7,0,0.7-0.1,0.8-0.7
		c0-0.2,0-0.3,0-0.5C25.2,53.5,25.2,46.5,25.2,39.5z"/>
</g>
</svg>
