<?xml version="1.0" encoding="utf-8"?>
<!-- Generator: Adobe Illustrator 19.2.0, SVG Export Plug-In . SVG Version: 6.00 Build 0)  -->
<svg version="1.1" id="Слой_1" xmlns="http://www.w3.org/2000/svg" xmlns:xlink="http://www.w3.org/1999/xlink" x="0px" y="0px"
	 viewBox="0 0 200 100" style="enable-background:new 0 0 200 100;" xml:space="preserve">
<style type="text/css">
	.st0{display:none;}
	.st1{display:inline;fill:#19689C;}
	.st2{fill:#015673;}
</style>
<g class="st0">
	<path class="st1" d="M129.4,53.4c-0.1-0.1-0.3-0.2-0.5-0.3c-2.6-1.5-5.3-3-7.9-4.6c-2-1.1-3.9-2.3-5.9-3.3c-0.3-0.1-0.6-0.6-1-0.1
		c-1,0.5-2,1-3,1.7c-0.1,0-0.1,0-0.2,0.1c-0.8,0.4-1.6,0.8-2.3,1.4c-0.6,0.1-0.9,0.7-1.5,0.9c-1.1,0.4-2.1,1.2-3.2,1.8
		c-0.3,0.1-0.6,0.3-0.9,0.5c-0.6,0.2-1.1,0.6-1.7,1c-0.3,0.1-0.2,0.4-0.2,0.6c0,5.4,0,10.9,0,16.3c0,0.7,0,0.7,0.6,0.3
		c2.7-1.5,5.3-3.1,8-4.6c1.8-1.1,3.7-2.1,5.5-3.2c0.3-0.1,0.5-0.2,0.7-0.4c3.9-2.2,7.7-4.5,11.6-6.7c0.5-0.3,1-0.6,1.5-0.9
		C129.6,53.8,129.7,53.6,129.4,53.4z"/>
	<path class="st1" d="M152.4,75.4c-0.1-0.1-1.3-0.1-1.9-0.1c-1,0-0.9-0.1-0.9,0.9c0,3.5,0,6.9,0,10.4c0,0.2,0,0.5,0,0.7
		c0,0.1,0,0.4-0.1,0.4c-0.2,0.1-0.2-0.1-0.3-0.2c-0.2-0.2-0.3-0.4-0.4-0.6c-2.5-3.3-5-6.6-7.4-9.9c-0.4-0.6-0.8-1.3-1.3-1.6
		c-0.6-0.3-1.4-0.1-2.2-0.1c-0.6,0-0.7,0.2-0.7,0.7c0,2.7,0,5.4,0,8.1c0,0.4,0,0.8,0,1.3c0,2.3,0,4.6,0,6.8c0,0.8-0.1,0.8,0.8,0.8
		c0.5,0,0.9,0,1.4,0c0.8,0,0.8,0.1,0.8-0.8c0-3.5,0-7.1,0-10.6c0-0.2,0-0.5,0-0.7s0.1-0.2,0.3-0.1c0.2,0.2,0.3,0.4,0.5,0.6
		c2.5,3.4,5,6.7,7.6,10.1c1.2,1.6,1.2,1.6,3.2,1.6c1,0,0.9,0.1,0.9-0.9c0-4.9,0-9.8,0-14.7C152.5,76.7,152.6,75.6,152.4,75.4z"/>
	<path class="st1" d="M38,79.5c-0.5,0-1.1,0-1.6,0s-0.8,0.2-1,0.7c-1,2.9-2.1,5.7-3.1,8.6c-0.1,0.3-0.2,0.5-0.3,0.8
		c-0.2-0.2-0.3-0.5-0.4-0.8c-1.1-2.8-2.2-5.6-3.3-8.4c-0.2-0.6-0.5-0.9-1.2-0.8c-0.9,0.1-1.7,0-2.6,0c-1.2,0.1-2.2,0.5-3.1,1.3
		c-0.4,0.3-0.6,0.9-1,1.1c0-0.5,0-1.1,0-1.6c0-0.1,0-0.1,0-0.2c0.1-0.4-0.1-0.6-0.6-0.6s-1.1,0-1.6,0c-0.8,0-0.8,0-0.8,0.8
		c0,2,0,3.9,0,5.9c0,1.5,0,3.1,0,4.6c0,0.7-0.3,1.6,0.2,2s1.3,0.1,2,0.1c0.5,0.1,0.7-0.1,0.7-0.7c0-2,0-4.1,0-6.1
		c0-1.9,1.2-3.3,3.1-3.8c0.4-0.1,0.7-0.2,1.1-0.2c0.3,0,0.4-0.1,0.4-0.4c0-0.6,0-1.2,0-1.8c0-0.1-0.1-0.2,0.1-0.2l0.1,0.1
		c0.1,0.3,0.2,0.5,0.3,0.8c1.5,3.6,3,7.3,4.6,10.9c0.5,1.1,0.2,2-0.4,2.8s-1.5,1-2.4,0.7c-0.3-0.1-0.7-0.5-0.9-0.4
		c-0.3,0.2-0.4,0.6-0.6,0.9c-0.1,0.2-0.2,0.4-0.4,0.6c-0.3,0.4-0.2,0.7,0.2,0.9c2,1.4,4.9,0.9,6.3-1.1c0.4-0.5,0.6-1.1,0.8-1.7
		c1.3-3.3,2.6-6.6,3.9-9.8c0.6-1.5,1.2-3.1,1.8-4.6C38.6,79.6,38.5,79.5,38,79.5z"/>
	<path class="st1" d="M98.4,51.9c-3.8-2.1-7.5-4.3-11.3-6.5c-0.8-0.5-1.4-0.5-2,0.2c-0.2,0.1-0.4,0.2-0.6,0.3
		c-2.8,1.6-5.5,3.2-8.3,4.8c-1.5,0.9-3.1,1.8-4.6,2.7c-0.6,0.4-0.6,0.4,0,0.8c0.4,0.3,0.8,0.5,1.3,0.7c4.1,2.3,8.1,4.7,12.2,7
		c0.1,0,0.1,0.1,0.2,0.1c0.2,0.2,0.4,0.3,0.7,0.5c3.9,2.2,7.7,4.5,11.6,6.7c0.5,0.3,1,0.8,1.7,0.8c0,0.1,0.1,0.1,0.1,0s0-0.1,0-0.2
		c0-5.4,0-10.7,0-16.1C99.5,52.7,99.1,52.3,98.4,51.9z"/>
	<path class="st1" d="M188,79.5c-0.8,0-0.8,0-1.1,0.9c-0.9,2.9-1.9,5.8-2.8,8.7c-0.1,0.2,0,0.7-0.3,0.7s-0.3-0.5-0.3-0.7
		c-0.8-2.5-1.6-5.1-2.4-7.6c-0.2-0.6-0.2-1.5-0.7-1.8s-1.3-0.1-2-0.1c-1,0-1,0-1.3,0.9c-0.9,3-1.9,5.9-2.8,8.9
		c-0.1,0.2-0.2,0.3-0.3,0.5c-0.1-0.2-0.2-0.3-0.2-0.5c-0.9-2.8-1.9-5.6-2.8-8.5c-0.5-1.4-0.5-1.4-1.9-1.4c-0.4,0-0.7,0-1.1,0
		c-0.3,0-0.5,0-0.3,0.4c0.1,0.2,0.1,0.4,0.2,0.6c1.3,3.5,2.5,7,3.8,10.4c0.2,0.7,0.3,1.5,0.8,1.9s1.4,0.1,2.1,0.2
		c0.7,0.1,0.9-0.2,1.1-0.8c0.9-2.8,1.8-5.5,2.8-8.2c0.1-0.2,0.2-0.5,0.3-0.7c0.2,0.2,0.3,0.5,0.3,0.8c0.9,2.7,1.8,5.4,2.7,8
		c0.3,0.9,0.3,0.9,1.3,1c0.3,0,0.6,0,0.9,0c1.3,0,1,0.2,1.5-1c1.3-3.5,2.5-7,3.8-10.4c0.2-0.6,0.4-1.3,0.6-1.9
		C189.3,79.4,188.6,79.6,188,79.5z"/>
	<path class="st1" d="M51,80.6c-2.2-1.5-6-1.5-7.8,0.7c-0.1,0.1-0.2,0.3-0.4,0.2c-0.1,0,0-0.3-0.1-0.4c-0.1-0.5,0.2-1.2-0.2-1.5
		s-1-0.1-1.5-0.1c-0.1,0-0.3,0-0.4,0c-0.8,0-0.8-0.1-0.8,0.8c0,2.8,0,5.5,0,8.3c0,0.2,0,0.4,0,0.5c0,2.7,0,5.3,0,8
		c0,0.5,0.1,0.8,0.7,0.7c0.5,0,1,0,1.5,0c0.6,0.1,0.8-0.2,0.8-0.8c0-1.9,0-3.7,0-5.6c0-0.2-0.1-0.5,0.1-0.5c0.2-0.1,0.3,0.2,0.4,0.3
		c2,2.4,6.6,2.3,8.8-0.2c1.5-1.7,1.9-3.7,1.7-5.9C53.5,83.3,52.7,81.7,51,80.6z M45.4,90.3c-0.9-0.3-1.5-0.9-2-1.7
		c-1.2-2.1-0.6-5.1,1.5-6.2c2.7-1.4,6.1,0.2,6,3.8C50.9,89.1,48.5,91.3,45.4,90.3z"/>
	<path class="st1" d="M70,25.2c0,3.4,0,6.7,0,10.1c0,4.2,0,8.5,0,12.7c0,1,0,2,0,2.9s0,0.9,0.7,0.5s1.5-0.8,2.2-1.3
		c3.9-2.2,7.7-4.5,11.6-6.7c0.5-0.3,0.7-0.6,0.7-1.2c0-4.6,0-9.2,0-13.8c0-0.6-0.2-1-0.8-1.1c-0.2-0.1-0.3-0.3-0.5-0.4
		c-2.3-1.3-4.7-2.7-7-4c-2-1.2-4-2.3-6.1-3.5c-0.2-0.1-0.5-0.4-0.7-0.3C70,19.2,70,19.6,70,19.9C70,21.8,70,23.5,70,25.2z"/>
	<path class="st1" d="M72.1,18c2.6,1.5,5.1,3,7.7,4.4c1.8,1,3.5,2.1,5.4,3c0.7,0.7,1.3,0.6,2.1,0.1c0.9-0.6,1.9-1.1,2.8-1.6
		c2.8-1.6,5.7-3.3,8.5-4.9c0.6-0.4,0.9-0.8,0.9-1.6c-0.1-2.6,0-5.1,0-7.7c0-2.9,0-5.9,0-8.8c-0.1,0-0.1,0-0.2,0c0,0.1,0,0.1,0,0.2
		c-0.2-0.1-0.4,0.1-0.6,0.2c-1,0.6-2,1.1-3,1.7c-3.4,2-7,3.9-10.4,6c-0.1,0-0.1,0-0.2,0.1c-4.4,2.5-8.8,5-13.1,7.5
		C71,17.4,71,17.4,72.1,18z"/>
	<path class="st1" d="M129.1,17c-2.4-1.4-4.7-2.7-7.1-4.1c-2-1.2-4.1-2.3-6.1-3.5c-0.1-0.2-0.2-0.2-0.4-0.2
		c-0.1-0.1-0.2-0.2-0.3-0.2c-2.5-1.4-5-2.9-7.5-4.4c-2-1.2-4.1-2.3-6.1-3.6c-0.1,0-0.1,0-0.2,0c0,0.3,0,0.7,0,1c0,5.2,0,10.3,0,15.5
		c0,0.4-0.2,0.8,0.2,1.1c4,2.3,8,4.6,12,7c0.8,0.5,1.5,0.5,2.1-0.2l0,0l0,0c0.1,0,0.2,0,0.3-0.1c4.4-2.5,8.8-5.1,13.1-7.6
		C129.8,17.4,129.8,17.4,129.1,17z"/>
	<path class="st1" d="M91.5,79.2c0.4,0.3,0.9,0.9,1.1,0.8c0.4-0.1,0.7-0.7,1-1.1c0.1-0.1,0.2-0.2,0.3-0.3c0.4-0.6,0.5-0.6-0.1-1.1
		c-3.9-3.2-9.5-2.8-12.8,0.4c-2.5,2.5-3.3,6.3-2,9.7c1.4,3.4,4.7,5.6,8.4,5.6c2.1,0,4-0.7,5.8-1.9c1.2-0.9,1.2-0.9,0.2-2
		c-0.1-0.1-0.2-0.2-0.3-0.3c-0.5-0.6-0.5-0.6-1.1-0.1c-1.7,1.3-3.6,1.9-5.8,1.4c-3.1-0.7-5.3-3.9-4.8-6.9
		C82.3,78.5,87.5,76.4,91.5,79.2z"/>
	<path class="st1" d="M14.9,89c-0.6-0.6-0.6-0.6-1.2-0.1c-1.7,1.3-3.6,1.9-5.8,1.4c-3.5-0.9-5.1-4.2-4.7-6.9
		c0.7-4.8,5.8-6.9,9.9-4.3c0.5,0.3,0.8,1.1,1.4,0.9c0.5-0.2,0.8-0.9,1.1-1.3c0.5-0.6,0.5-0.7-0.1-1.2c-3.6-3-9.3-2.9-12.6,0.3
		c-2.6,2.5-3.4,6.3-2.1,9.8c1.3,3.4,4.7,5.6,9.6,5.6c1.3,0,3.4-0.9,5.2-2.4c0.6-0.5,0.6-0.4,0-1C15.3,89.5,15.1,89.3,14.9,89z"/>
	<path class="st1" d="M162.7,79.6c-3.5-0.5-7.3,1-8,5.5c-0.4,2.6,0.5,5.6,3,6.9c2.8,1.5,5.7,1.3,8.3-0.4c1.1-0.7,1-0.8,0.1-1.7
		c-0.1-0.1-0.2-0.2-0.3-0.3c-0.3-0.4-0.5-0.4-0.9-0.1c-1,0.9-2.2,1.2-3.5,1.2c-1.8-0.1-3.2-1.2-3.8-2.8c-0.2-0.5,0-0.5,0.4-0.5
		c1.5,0,3,0,4.5,0c1.1,0,2.1,0,3.2,0c0.6,0,1.4,0.3,1.8-0.2c0.4-0.4,0.1-1.2,0.1-1.8C167.5,82.4,166.1,80.1,162.7,79.6z M164.6,85.2
		c-1.1,0-2.2,0-3.3,0s-2.2,0-3.3,0c-0.4,0-0.5-0.1-0.4-0.5c0.3-1.6,1.9-2.9,3.8-2.9c2,0,3.3,1,3.7,2.7
		C165.2,85.1,165.1,85.3,164.6,85.2z"/>
	<path class="st1" d="M70.2,79.5c-5.2,0.1-7.7,4.3-6.6,8.6c0.8,3,3.3,4.8,6.8,4.8c0.5,0,1.2-0.1,1.8-0.2c2.4-0.6,4.2-2,4.9-4.4
		c0.7-2.5,0.4-4.9-1.5-6.8C74.1,80,72.2,79.5,70.2,79.5z M70.4,90.6c-2.5,0-4.1-1.7-4.2-4.3c0-2.5,1.7-4.2,4.1-4.3
		c2.3-0.1,4.2,1.7,4.2,4.3C74.4,88.8,72.8,90.5,70.4,90.6z"/>
	<path class="st1" d="M101.5,79.5c-5.9,0.1-8,5.5-6.2,9.6c1.2,2.8,3.6,3.8,6.4,3.9c0.7,0.1,1.3-0.1,1.9-0.2c2.4-0.6,4.1-1.9,4.8-4.4
		c0.7-2.5,0.4-4.9-1.4-6.9C105.5,80,103.6,79.5,101.5,79.5z M101.7,90.6c-2.5,0-4.1-1.7-4.1-4.3c0-2.5,1.7-4.2,4.1-4.2
		c2.3-0.1,4.1,1.7,4.1,4.3C105.8,88.8,104.1,90.5,101.7,90.6z"/>
	<path class="st1" d="M129.2,84.2c0-2.2-1.3-4-3.2-4.4c-2.5-0.6-4.7-0.3-6.4,1.9c-0.1,0.1-0.1,0.2-0.2,0.2s-0.1-0.2-0.1-0.3
		c0-0.5,0-1.1,0-1.6c0-0.4-0.1-0.5-0.5-0.5c-0.5,0-1.1,0-1.6,0c-0.9,0-0.9,0-0.9,0.8c0,2,0,3.9,0,5.9c0,1.5,0,3.1,0,4.6
		c0,0.7-0.3,1.6,0.2,2s1.3,0.1,2,0.1c0.5,0,0.7-0.1,0.7-0.7c0-2,0-4.1,0-6.1c0-0.9,0.2-1.7,0.8-2.5c0.9-1.3,2.6-1.8,4.1-1.4
		c1.2,0.3,2.2,1.5,2.1,3.2s0,3.4,0,5.2c0,0.7-0.3,1.7,0.2,2.1s1.4,0.1,2.1,0.1c0.4,0,0.6-0.1,0.6-0.6
		C129.2,89.7,129.2,87,129.2,84.2z"/>
	<path class="st1" d="M197.8,85.6c-0.9-0.4-1.9-0.7-2.9-1c-0.4-0.1-0.7-0.2-1.1-0.4c-0.7-0.4-1-0.8-0.9-1.4s0.6-0.9,1.2-1.1
		c0.2-0.1,0.5-0.1,0.7-0.1c0.9,0,1.8,0.2,2.6,0.6c1.3,0.5,1.3,0.5,1.9-0.8c0-0.1,0.1-0.2,0.1-0.3c0.3-0.4,0.2-0.6-0.2-0.8
		c-2-1-4.1-1.4-6.3-0.7c-1.7,0.5-2.7,1.7-2.8,3.3c-0.1,1.8,0.6,3,2.4,3.7c0.9,0.4,1.8,0.6,2.7,0.9c0.5,0.2,1,0.4,1.4,0.7
		c0.8,0.7,0.7,1.8-0.3,2.2c-0.3,0.1-0.6,0.2-0.9,0.2c-1.3,0.1-2.5-0.2-3.6-0.8c-0.4-0.2-0.9-0.8-1.2-0.6c-0.4,0.2-0.5,0.9-0.8,1.3
		c-0.3,0.5-0.1,0.7,0.3,1c1.4,1,3,1.4,4.8,1.4c0.9,0,1.8-0.1,2.7-0.5c1.5-0.6,2.4-1.6,2.5-3.3C200.1,87.5,199.3,86.4,197.8,85.6z"/>
	<path class="st1" d="M62.9,91.3c-0.1-0.4-0.2-0.8-0.4-1.1c-0.3-0.3-0.7,0.2-1,0.2c-0.2,0-0.3,0.1-0.5,0.1c-1.3,0.2-1.9-0.3-1.9-1.6
		c0-2,0-4.1,0-6.1c0-0.5,0.2-0.6,0.6-0.6c0.6,0,1.3,0,1.9,0c1.6,0,1.6,0,1.5-1.6c0-0.4-0.2-0.5-0.6-0.5c-0.8,0-1.6,0-2.4,0
		c-1,0-1,0.2-1-0.9c0-0.7,0-1.5,0-2.2c0-0.5-0.2-0.6-0.6-0.6c-0.6,0-1.1,0-1.7,0c-0.5,0-0.7,0.2-0.6,0.7c0,0.8,0,1.6,0,2.4
		c0,0.5-0.2,0.7-0.7,0.6c-0.2,0-0.4,0-0.6,0c-0.5,0-0.6,0.2-0.6,0.6c0,1.4-0.1,1.4,1.4,1.5c0.4,0,0.6,0.1,0.5,0.5c0,1.1,0,2.2,0,3.4
		l0,0c0,1.1,0,2.1,0,3.2c0,0.1,0,0.1,0,0.2c0.1,1.9,0.9,3.1,2.6,3.5c1.5,0.4,2.8,0,4.1-0.6c0.2-0.1,0.3-0.2,0.2-0.5
		C63,91.7,63,91.5,62.9,91.3z"/>
	<path class="st1" d="M113,79.5c-0.5,0-1.1,0-1.6,0c-0.6,0-0.8,0.1-0.8,0.7c0,2,0,4,0,6c0,1.6,0,3.2,0,4.7c0,0.7-0.3,1.5,0.2,1.9
		c0.4,0.4,1.2,0.1,1.8,0.1c1.1,0,0.9,0,0.9-1c0-2.8,0-5.6,0-8.4c0-1.2,0-2.3,0-3.5C113.6,79.7,113.4,79.5,113,79.5z"/>
	<path class="st1" d="M112,74.1c-1,0-1.7,0.8-1.6,1.8c0,1,0.7,1.6,1.7,1.6s1.7-0.7,1.7-1.7C113.8,74.8,113,74,112,74.1z"/>
	<path class="st1" d="M133.1,89.9c-0.9,0-1.6,0.7-1.6,1.7c0,0.9,0.7,1.6,1.5,1.6c0.9,0,1.6-0.7,1.6-1.7
		C134.6,90.6,134,89.9,133.1,89.9z"/>
</g>
<g>
	<path class="st2" d="M14,49.4c2-0.9,3.4-2.3,3.2-4.4c-0.3-3.2-2.9-3.9-5.6-4.2c-0.1-0.7-0.2-1.4-0.2-2c-0.9,0-1.6,0-2.3,0
		C9,39.4,8.9,40,8.9,40.6c-0.7,0-1.4,0-2.1,0c-0.1-0.7-0.1-1.2-0.2-1.8c-0.9,0-1.6,0-2.4,0c-0.1,0.7-0.1,1.2-0.2,2c-1.3,0-2.6,0-4,0
		c0,1,0,1.7,0,2.3c0.8,0.2,1.6,0.4,2.3,0.6c0,4.3,0,8.4,0,12.6c-0.8,0.2-1.5,0.4-2.3,0.6c0,0.7,0,1.3,0,2.2c1.4,0,2.7,0,4,0
		c0.1,0.8,0.1,1.5,0.2,2.1c0.9,0,1.6,0,2.4,0c0.1-0.7,0.1-1.3,0.2-2.1c0.7,0,1.4,0.1,2.1,0.1c0.1,0.8,0.1,1.4,0.2,2.1
		c0.8,0,1.5-0.1,2.3-0.1c0.1-0.8,0.2-1.4,0.3-2.1c2.9-0.3,5.5-1.2,6.1-4.3C18.3,51.9,16.7,50.2,14,49.4z M7.1,43.9
		c1.8,0.1,3.7-0.7,5.2,0.9c0.4,0.4,0.5,1.7,0.2,2.2c-1.3,2-3.4,0.9-5.4,1.3C7.1,46.6,7.1,45.3,7.1,43.9z M12.6,54.8
		c-1.3,2.1-3.5,1.1-5.6,1.3c0-1.8,0-3.4,0-5.1c2,0.1,4.1-0.8,5.6,1.1C13.1,52.6,13,54.1,12.6,54.8z"/>
	<path class="st2" d="M96.4,41.3c-1.7,5.8-3.4,11.6-5.1,17.6c1.7,0,3.3,0,4.9,0c1-4.6,2.1-9.1,3.2-14.2c0.6,2.5,1.1,4.5,1.7,6.5
		c-0.8,0.1-1.5,0.1-2.2,0.2c-0.2,1.1-0.4,2.2-0.7,3.3c1.3,0.1,2.4,0.1,3.5,0.2c0.4,1.4,0.8,2.7,1.2,4c1.8,0,3.3,0,5.1,0
		c-1.8-5.9-3.5-11.8-5.2-17.6C100.6,41.3,98.6,41.3,96.4,41.3z"/>
	<path class="st2" d="M84.7,54.1c-0.6-1.3-0.2-0.6-0.4-0.9c0,0,0,0,0,0c-1.1-2.3-2.3-4.6-3.3-6.7c-1.5,0-2.8,0-4,0
		c0,4.2,0,8.2,0,12.3c1.1,0,2,0,2.9,0c0-2.7,0-5.2,0-8.3c1.6,3.1,3,5.8,4.3,8.4c1.3,0,2.4,0,3.5,0c0-4.2,0-8.3,0-12.3c-1,0-2,0-3,0
		c0,1.8,0,3.5,0,5.2"/>
	<path class="st2" d="M194.4,45.8c0,0.9,0,1.7,0,2.5c2.6,2.1,2.7,4.6,1,7.2c-0.7,1.1-2.3,1.2-3.1,0c-1.8-2.7-1.6-5.2,1-7.2
		c0-0.8,0-1.6,0-2.5c-4.5,0.8-5.9,3.7-5.5,7.6c0.4,3.9,2.8,6,6.8,5.5c3.9-0.5,5.4-3.2,5.3-6.7C199.9,48.7,198.3,46.3,194.4,45.8z"/>
	<path class="st2" d="M60.1,45.8c0,1,0,1.8,0,2.6c2.7,1.9,2.7,4.4,1.4,6.9c-0.7,1.3-2.2,1.6-3.1,0.5c-2.1-2.6-1.7-5.2,0.8-7.4
		c0-0.8,0-1.6,0-2.5c-4.3,0.7-5.7,3.5-5.5,7.1c0.3,4.1,2.6,6.5,6.9,5.9c4-0.5,5.4-3.3,5.2-7C65.6,48.4,63.7,46.3,60.1,45.8z"/>
	<path class="st2" d="M133.6,48.5c-1-2.1-3-2.1-5-2.3c0,0.9,0,1.6,0,2.4c1,0.3,2.3,0.6,1.8,2.1c-0.4,1.2-1.5,1.3-2.8,1
		c0-1.8,0-3.6,0-5.5c-1.2,0.1-2.2,0.2-3.3,0.3c0,4.2,0,8.2,0,12.3c1.1,0,2.2,0,3.4,0c0-1.6,0-3,0-4.5c0.6,0.1,1.1,0.1,1.7,0.2
		c0.5,1.5,1,3,1.4,4.4c1.2,0,2.3,0,3.6,0c-0.7-2.1-1.4-4-2.2-6.1C133.6,51.8,134.5,50.4,133.6,48.5z"/>
	<path class="st2" d="M162,46.5c-1.2,4.2-2.4,8.2-3.6,12.4c1.2,0,2.3,0,3.5,0c0.7-3.2,1.4-6.2,2.3-10c0.5,2,0.8,3.2,1.1,4.5
		c-0.6,0.1-1.1,0.2-1.5,0.3c-0.1,0.8-0.3,1.5-0.4,2.3c0.9,0,1.6,0.1,2.4,0.1c0.3,0.9,0.6,1.8,0.9,2.7c1.2,0,2.3,0,3.6,0
		c-1.3-4.2-2.5-8.3-3.7-12.4C164.9,46.5,163.5,46.5,162,46.5z"/>
	<path class="st2" d="M154.9,49.3c0.2-0.9,0.4-1.6,0.6-2.6c-3.7-0.8-7-0.8-9.1,2.6c-1.7,2.8-1.5,5.8,0.9,8.1
		c2.3,2.2,5.1,2.2,8.1,1.1c-0.2-0.9-0.3-1.6-0.5-2.4c-2.7,0.3-5.6,0.8-5.8-3C148.8,48.8,151.7,48.7,154.9,49.3z"/>
	<path class="st2" d="M50.1,49.3c0.2-0.9,0.4-1.7,0.6-2.6c-3.3-0.9-6.4-0.9-8.7,1.9c-2.1,2.5-2.2,5.6-0.2,8.2
		c2.2,2.8,5.3,2.8,8.6,1.8c-0.2-0.9-0.3-1.7-0.5-2.6c-2,0.4-3.8,0.7-5.1-0.9c-1.1-1.3-1.1-2.9-0.3-4.4C45.9,48.5,48,48.8,50.1,49.3z
		"/>
	<path class="st2" d="M112.6,58.8c1.1,0,2.1,0,3.3,0c0-1.6,0-3.1,0-4.8c1.5,0,2.9,0,4.2,0c0-0.9,0-1.7,0-2.6c-1.4,0-2.8,0-4.2,0
		c0-0.8,0-1.5,0-2.3c1.5,0,3,0,4.4,0c0-1,0-1.8,0-2.7c-2.6,0-5.1,0-7.7,0C112.6,50.7,112.6,54.8,112.6,58.8z"/>
	<path class="st2" d="M28.5,49.2c1.1,0,2,0.1,3.1,0.1c0,3.2,0,6.3,0,9.5c1.2,0,2.2,0,3.4,0c0-3.2,0-6.4,0-9.6c1.2,0,2.2,0,3.3,0
		c0-1,0-1.9,0-2.8c-3.3,0-6.5,0-9.7,0C28.5,47.4,28.5,48.3,28.5,49.2z"/>
	<path class="st2" d="M180.8,58.9c1.1,0,2.1,0,3.2,0c0-4.2,0-8.3,0-12.4c-1.2,0-2.2,0-3.2,0C180.8,50.7,180.8,54.8,180.8,58.9z"/>
	<path class="st2" d="M138.6,58.8c1.1,0,2.1,0,3.2,0c0-4.1,0-8.2,0-12.3c-1.2,0-2.2,0-3.2,0C138.6,50.7,138.6,54.7,138.6,58.8z"/>
	<path class="st2" d="M69.5,58.8c1.1,0,2.1,0,3.2,0c0-4.2,0-8.3,0-12.4c-1.1,0-2.2,0-3.2,0C69.5,50.6,69.5,54.7,69.5,58.8z"/>
	<path class="st2" d="M21.9,58.8c1.1,0,2.1,0,3.1,0c0-4.2,0-8.3,0-12.4c-1.1,0-2.1,0-3.1,0C21.9,50.7,21.9,54.8,21.9,58.8z"/>
	<path class="st2" d="M175.4,55.2c-1.3,0-1.9,0.7-1.9,1.9c-0.1,1.3,0.6,2,1.8,2c1.2,0,1.9-0.6,1.9-1.9
		C177.3,56,176.7,55.3,175.4,55.2z"/>
</g>
</svg>
