<?xml version="1.0" encoding="utf-8"?>
<!-- Generator: Adobe Illustrator 19.2.0, SVG Export Plug-In . SVG Version: 6.00 Build 0)  -->
<svg version="1.1" id="Слой_1" xmlns="http://www.w3.org/2000/svg" xmlns:xlink="http://www.w3.org/1999/xlink" x="0px" y="0px"
	 viewBox="0 0 200 100" style="enable-background:new 0 0 200 100;" xml:space="preserve">
<style type="text/css">
	.st0{fill:#015673;}
</style>
<g>
	<path class="st0" d="M13.8,52.5c0-0.8,0-1.5,0-2.3c0-0.5,0.2-0.7,0.7-0.8c2.1-0.3,4.1-1.1,5.8-2.5c0.3-0.2,0.6-0.5,1-0.2
		c0.2,0.1,0.4,0,0.5-0.1c0.1-0.1,0-0.3,0-0.4c-0.8-1-1.6-2-2.4-3.1c-0.1-0.1-0.2-0.2-0.4-0.1c-0.2,0.1-0.2,0.2-0.1,0.4
		c0.2,0.5-0.1,0.8-0.4,1.1c-1,1.1-2.4,1.7-3.8,2.2c-0.6,0.2-0.8,0.1-0.8-0.6c0-2.2,0-4.3,0-6.5c0-2.2,0-4.4,0-6.6
		c0-0.3-0.1-0.7,0.5-0.6c1.3,0.3,2.5,0.7,3.5,1.5c0.4,0.3,0.8,0.5,0.7,1.1c-0.1,0.2,0,0.3,0.2,0.4c0.2,0.1,0.3-0.1,0.4-0.2
		c0.6-1.1,1.3-2.2,1.9-3.4c0.1-0.1,0.2-0.3,0-0.5c-0.1-0.1-0.3-0.1-0.4-0.1c-0.5,0.3-1,0.1-1.5-0.2c-1.2-0.5-2.4-0.9-3.6-1.2
		c-1.8-0.4-1.8-0.4-1.8-2.2c0-1.3,0-1.3-1.3-1.3c-0.5,0-0.7,0.1-0.7,0.7c0,0.6,0,1.2,0,1.9c0,0.2,0.1,0.4-0.2,0.6
		c-0.9,0.4-1.3,0.1-1.3-0.8c0-0.4,0-0.9,0-1.3c0.1-0.7-0.2-0.9-0.9-0.9c-1.1,0-1.1,0-1.1,1.1c0,0.4,0,0.8,0,1.2
		c0.1,0.9-0.2,1.2-1.1,1.5c-5.8,1.9-8.4,6.8-6.5,12.4C1.8,46.1,4.3,48,7.6,49c0.5,0.2,0.7,0.4,0.7,0.9c0,0.7,0,1.3,0,2
		c0,1.3,0,1.2,1.3,1.2c0.5,0,0.7-0.2,0.7-0.7c0-0.8,0-1.6,0-2.4c0-0.3,0-0.7,0.4-0.6c0.4,0.1,1.1-0.3,1.1,0.6c0,0.8,0,1.6,0,2.4
		c0,0.4,0.1,0.6,0.6,0.6c0.3,0,0.5,0,0.8,0C13.7,53.2,13.8,53,13.8,52.5z M7.8,46.1c-2.4-0.9-4.5-3.7-4.6-6.2
		c-0.1-3.2,1.4-5.6,4.2-6.8c0.9-0.4,0.9-0.4,0.9,0.6c0,2,0,3.9,0,5.9c0,2,0,4,0,6.1C8.3,45.9,8.4,46.3,7.8,46.1z M11.3,47.1
		c-0.4-0.1-1.1,0.1-1.1-0.7c0-4.5,0-9,0-13.5c0-0.8,0.6-0.5,1-0.6c0.6-0.1,0.6,0.3,0.6,0.7c0,2.2,0,4.5,0,6.7c0,2.2,0,4.4,0,6.6
		C11.8,46.7,11.9,47.2,11.3,47.1z"/>
	<path class="st0" d="M199.7,47.1c-0.5-0.3-0.5-0.8-0.5-1.2c0-3.6,0-7.2,0-10.9c0-0.5,0-1,0.5-1.2c0.1-0.1,0.2-0.2,0.2-0.3
		c0-0.2-0.2-0.2-0.3-0.2c-1.5,0-3.1,0-4.6,0c-0.4,0-0.4,0.3-0.2,0.5c0.6,0.4,0.3,0.9,0.1,1.4c-1.1,2.2-2.2,4.4-3.3,6.5
		c-0.1,0.1-0.1,0.2-0.2,0.5c-1.2-2.5-2.4-4.8-3.5-7.1c-0.2-0.4-0.2-0.9,0.2-1.2c0.3-0.2,0.4-0.5-0.1-0.5c-1.6,0-3.2,0-4.8,0
		c-0.1,0-0.2,0-0.3,0.1c-0.1,0.1,0,0.3,0.1,0.3c0.5,0.2,0.5,0.7,0.5,1.1c0,3.7,0,7.4,0,11.1c0,0.4,0,0.8-0.5,1.1
		c-0.1,0.1-0.2,0.2-0.2,0.3c0.1,0.2,0.2,0.2,0.4,0.2c1.1,0,2.3,0,3.4,0c0.1,0,0.3,0,0.4-0.2c0.1-0.2,0-0.3-0.2-0.3
		c-0.5-0.3-0.5-0.7-0.5-1.2c0-2.2,0-4.4,0-6.6c0-0.2-0.1-0.4,0.2-0.6c1.5,2.9,2.9,5.8,4.5,8.9c1.7-3.1,3.3-6.1,4.8-9
		c0.2,2.6,0.2,5,0.2,7.5c0,0.4-0.1,0.8-0.5,1c-0.1,0.1-0.3,0.2-0.2,0.3c0,0.1,0.2,0.1,0.3,0.1c1.3,0,2.6,0,3.9,0
		c0.1,0,0.3,0,0.3-0.2C199.9,47.3,199.8,47.2,199.7,47.1z"/>
	<path class="st0" d="M87.8,31c0.4,0.1,0.4,0.5,0.4,0.8c0,4.5,0,9.1,0,13.6c0,0.3-0.1,0.6-0.4,0.8c-0.2,0.1-0.5,0-0.4,0.4
		c0.1,0.3,0.4,0.2,0.7,0.2c3,0,6,0.1,9,0c2.4-0.1,4.6-0.9,6.1-2.9c1.3-1.7,1.6-3.8,1.5-5.9c-0.1-3.8-2.3-6.5-5.8-7.3
		c-2-0.5-4.1-0.2-5.8-0.3c-2,0-3.6,0-5.2,0c-0.2,0-0.5-0.1-0.5,0.2C87.3,30.9,87.6,30.9,87.8,31z M90.6,38.5c0-1.8,0-3.5,0-5.3
		c0-0.3-0.1-0.7,0.4-0.7c2,0,3.9-0.1,5.9,0.1c4,0.4,5.6,3.4,5.3,7c-0.3,3-2.4,4.9-5.4,5c-1.8,0.1-3.6,0-5.5,0.1
		c-0.6,0-0.7-0.3-0.7-0.8C90.6,42.1,90.6,40.3,90.6,38.5z"/>
	<path class="st0" d="M50.1,46.5c-0.2,0-0.3,0.1-0.3,0.3c0,0.2,0.2,0.2,0.3,0.2c1.1,0,2.2,0,3.4,0c0.1,0,0.3,0,0.3-0.2
		c0-0.1,0-0.3-0.1-0.3c-1.1-0.3-0.8-1.1-0.8-1.8c0-2.9,0-5.7,0-8.6c0-0.7,0-1.5,0-2.5c0.3,0.3,0.4,0.3,0.5,0.4
		c3.4,3.9,6.8,7.7,10.1,11.6c0.5,0.5,0.4,0.8-0.3,0.8c-0.2,0-0.4,0-0.3,0.3c0,0.2,0.2,0.2,0.4,0.2c1.4,0,2.7,0,4.1,0
		c0.2,0,0.4,0,0.4-0.2c0.1-0.2-0.1-0.3-0.3-0.3c-0.6-0.1-0.7-0.6-0.7-1.1c0-4.4,0-8.8,0-13.2c0-0.5,0.1-1,0.7-1.1
		c0.2,0,0.3-0.1,0.3-0.3c0-0.2-0.2-0.2-0.3-0.2c-1.1,0-2.3,0-3.4,0c-0.1,0-0.3,0-0.3,0.2c0,0.2,0,0.3,0.2,0.3
		c0.9,0.1,0.8,0.7,0.8,1.3c0,3.4,0,6.9,0,10.3c0,0.2,0.1,0.4-0.2,0.5c-1-1.2-2.1-2.4-3.1-3.5c-2.2-2.6-4.5-5.1-6.7-7.7
		c-0.4-0.4-0.7-0.9,0.2-1c0.2,0,0.3-0.1,0.3-0.3c0-0.2-0.2-0.2-0.3-0.2c-1.6,0-3.2,0-4.8,0c-0.1,0-0.3,0-0.3,0.2
		c0,0.2,0.1,0.3,0.2,0.3c0.7,0.1,0.8,0.6,0.8,1.2c0,4.3,0,8.7,0,13C50.8,45.9,50.8,46.4,50.1,46.5z"/>
	<path class="st0" d="M174.1,47.9c4.5,0,7.6-3,7.6-7.4c0-4.5-3-7.5-7.6-7.5c-4.5,0-7.6,3-7.6,7.5C166.5,44.9,169.6,47.9,174.1,47.9z
		 M174.1,35.8c2.7,0,4.4,1.9,4.4,4.8c0,2.7-1.8,4.6-4.4,4.6c-2.6,0-4.4-1.9-4.4-4.7C169.7,37.7,171.5,35.8,174.1,35.8z"/>
	<path class="st0" d="M115.7,46.9c1.1,0,2.1-0.1,3-0.3c3.2-0.8,5.5-2.7,6.3-6.1c0.7-3.3-0.2-6.1-2.8-8.3c-3.1-2.6-8.5-2.7-12-0.5
		c-4.1,2.7-5,8.3-1.8,12.1C110.3,46.1,112.9,46.9,115.7,46.9z M109.5,36.1c1-2.4,3-3.5,5.5-3.8c0.3,0,0.6,0,0.9,0
		c2.8,0.1,5.1,1,6.3,3.7c1.7,3.8-0.7,8.1-4.9,8.7c-2.7,0.4-5.1-0.1-7-2.2C108.8,40.6,108.5,38.4,109.5,36.1z"/>
	<path class="st0" d="M40.2,40.4c0.5-3.1-0.3-5.8-2.8-7.8c-2.6-2.1-5.6-2.5-8.7-1.9c-6.2,1-9.2,8.1-5.6,13c1.9,2.6,4.7,3.5,7.8,3.5
		c1.4,0,2.8-0.2,4.1-0.7C37.9,45.4,39.7,43.4,40.2,40.4z M37.6,40.5c-0.7,2.4-2.4,3.8-4.8,4.4c-0.6,0.2-1.3,0.2-1.7,0.2
		c-3.6,0-6.2-1.8-6.9-4.7c-0.9-3.7,1.4-7.1,5.2-7.7c2.4-0.4,4.6-0.1,6.5,1.6C37.7,36,38.3,38.1,37.6,40.5z"/>
	<path class="st0" d="M157.9,35.9c1.9-0.4,3.6,0.2,5,1.4c0.2,0.1,0.2,0.4,0.2,0.6c0,0.2,0,0.4,0.2,0.4c0.2,0,0.2-0.1,0.3-0.3
		c0.5-0.8,0.9-1.6,1.4-2.4c0.1-0.2,0.2-0.6-0.1-0.5c-0.7,0.2-1.1-0.3-1.6-0.7c-2.1-1.4-4.3-1.9-6.7-1.3c-3.2,0.7-5.2,3.5-5.1,7.2
		c0,0.3,0,0.7,0,1c0.3,3.2,2.4,5.7,5.4,6.3c2.3,0.4,4.4,0,6.3-1.3c0.5-0.3,0.9-0.9,1.7-0.7c0.3,0.1,0.3-0.2,0.2-0.4
		c-0.5-0.9-1-1.7-1.5-2.6c-0.1-0.2-0.4-0.4-0.4,0c-0.1,1.2-1.1,1.5-2,1.9c-1.8,0.8-3.6,0.8-5.2-0.5c-1.6-1.3-2-3-1.5-4.9
		C155,37.5,156.1,36.3,157.9,35.9z"/>
	<path class="st0" d="M46.4,59.1c1.3-1.1,1.6-2.4,1-3.8c-0.6-1.4-1.8-2-3.3-2c-2.5,0-5,0-7.6,0c-0.2,0-0.4-0.1-0.5,0.2
		c0,0.2-0.1,0.4,0.2,0.5c0.4,0.2,0.4,0.5,0.4,0.8c0,3.1,0,6.1,0,9.2c0,0.3,0.1,0.6-0.3,0.8C36,64.9,36,65.2,36,65.4
		c0.1,0.2,0.3,0.2,0.5,0.2c2.7,0,5.4,0.1,8.2-0.1c1.7-0.1,2.8-1,3.2-2.4C48.4,61.5,47.9,60.3,46.4,59.1z M38.6,55.1
		c0.6-0.6,1.8-0.1,2.6-0.2c1.1,0,2-0.1,3,0.1c1.1,0.2,1.7,0.8,1.7,1.7c0,0.9-0.6,1.5-1.7,1.6c-1.8,0.2-3.5,0-5.3,0.1
		c-0.3,0-0.5-0.1-0.4-0.4c0-0.1,0-0.1,0-0.2C38.4,56.8,38.1,55.6,38.6,55.1z M44.3,63.9c-0.9,0.1-1.8,0-2.8,0c0,0,0,0,0,0
		c-0.8,0-1.6,0-2.4,0c-0.4,0-0.7-0.1-0.7-0.6c0-0.9,0-1.9,0-2.9c0-0.4,0.1-0.6,0.5-0.6c1.8,0.1,3.6-0.1,5.4,0.1
		c1.1,0.1,1.8,0.8,1.8,1.9C46.2,63.1,45.5,63.8,44.3,63.9z"/>
	<path class="st0" d="M127.9,46.3c-0.2,0-0.4,0.1-0.3,0.3c0,0.2,0.2,0.2,0.4,0.2c0.2,0,0.4,0,0.6,0c4.5,0,8.9,0,13.4,0
		c0.5,0,1.1-0.1,1.4,0.5c0.2,0.3,0.4,0.2,0.4-0.1c0-1.1,0-2.1,0-3.2c0-0.1,0-0.3-0.2-0.3c-0.2,0-0.2,0.1-0.2,0.3
		c-0.1,0.7-0.6,0.7-1.2,0.7c-3.5,0-7.1,0-10.6,0c-0.7,0-0.8-0.2-0.8-0.8c0-2,0-3.9,0-5.9c0-2,0-4,0-6c0-0.5,0-1,0.7-1.1
		c0.2,0,0.3-0.1,0.2-0.3c0-0.2-0.2-0.2-0.3-0.2c-1.1,0-2.3,0-3.4,0c-0.1,0-0.3,0-0.3,0.2c-0.1,0.2,0.1,0.3,0.3,0.3
		c0.5,0.1,0.6,0.5,0.6,0.9c0,0.4,0,0.8,0,1.3c0,4,0,8,0,12C128.5,45.6,128.6,46.1,127.9,46.3z"/>
	<path class="st0" d="M164.8,64.9c-0.5-0.2-0.4-0.6-0.4-1c0-3,0-5.9,0-8.9c0-0.4-0.1-0.7,0.4-0.9c0.2-0.1,0.2-0.3,0.2-0.5
		c-0.1-0.3-0.3-0.2-0.5-0.2c-0.6,0-1.2,0-1.9,0c-0.2,0-0.4,0-0.5,0.3c0,0.2,0,0.4,0.2,0.5c0.3,0.1,0.3,0.3,0.3,0.6c0,2.5,0,5,0,7.6
		c-0.1,0-0.1,0-0.2,0.1c-2.2-2.6-4.4-5.1-6.6-7.7c-0.2-0.2-0.2-0.3,0-0.6c0.3-0.3,0.2-0.7-0.4-0.7c-1,0-2,0-2.9,0
		c-0.2,0-0.4,0-0.4,0.2c-0.1,0.2-0.1,0.4,0.1,0.5c0.4,0.2,0.4,0.5,0.4,0.8c0,3.1,0,6.2,0,9.3c0,0.3,0.1,0.6-0.3,0.8
		c-0.2,0.1-0.2,0.3-0.2,0.5c0,0.3,0.3,0.2,0.5,0.2c0.6,0,1.2,0,1.9,0c0.5,0,0.6-0.4,0.4-0.6c-0.6-0.4-0.4-1-0.4-1.5
		c0-1.5,0-2.9,0-4.4c0-1.1,0-2.1,0-3.2c0.2,0.1,0.3,0.1,0.3,0.2c2.4,2.7,4.7,5.5,7.1,8.2c0.2,0.2,0.4,0.3,0.1,0.7
		c-0.3,0.3-0.2,0.7,0.4,0.7c0.7,0,1.5,0,2.2,0c0.2,0,0.4,0,0.4-0.2C165,65.2,165,65,164.8,64.9z"/>
	<path class="st0" d="M62.3,63.2c1.5,2,3.7,2.6,6,2.6c0.9,0,1.7-0.1,2.6-0.3c2.8-0.7,4.7-3.1,4.8-5.7c0.1-3.1-1.6-5.4-4.5-6.3
		c-2-0.6-4-0.6-5.9,0.1C61.2,55,59.7,59.8,62.3,63.2z M72.5,56.2c2.2,2.2,1.7,5.9-1.1,7.3c-0.9,0.5-1.9,0.6-2.8,0.6
		c-1.5,0-2.9-0.3-4-1.2c-2.6-2.2-2-6.3,1.1-7.7C67.9,54.3,71,54.7,72.5,56.2z"/>
	<path class="st0" d="M122.4,58.4c-0.4,0-0.5-0.1-0.5-0.5c0-1.1,0-2.1,0-3.2c0-0.3,0-0.6,0.3-0.7c0.3-0.1,0.2-0.4,0.2-0.6
		c-0.1-0.3-0.3-0.2-0.5-0.2c-0.6,0-1.3,0-1.9,0c-0.2,0-0.4-0.1-0.5,0.2c0,0.2-0.1,0.4,0.2,0.5c0.4,0.2,0.4,0.6,0.4,0.9c0,3,0,6,0,9
		c0,0.4,0.1,0.7-0.4,0.9c-0.2,0.1-0.2,0.3-0.2,0.5c0.1,0.2,0.3,0.2,0.5,0.2c0.6,0,1.3,0,1.9,0c0.2,0,0.4,0.1,0.5-0.2
		c0.1-0.2,0.1-0.5-0.2-0.6c-0.3-0.1-0.3-0.4-0.3-0.7c0-1.2,0-2.4,0-3.5c0-0.4,0.1-0.6,0.5-0.6c2.2,0,4.4,0,6.6,0
		c0.2,0,0.5,0,0.5,0.3c0,1.3,0,2.7,0,4c0,0.2-0.2,0.3-0.3,0.4c-0.2,0.1-0.2,0.3-0.2,0.5c0.1,0.3,0.3,0.2,0.5,0.2c0.7,0,1.3,0,2,0
		c0.2,0,0.4,0,0.4-0.2c0.1-0.2,0.1-0.4-0.1-0.5c-0.5-0.2-0.4-0.6-0.4-0.9c0-3,0-6.1,0-9.1c0-0.3-0.1-0.7,0.4-0.9
		c0.2-0.1,0.2-0.3,0.2-0.5c0-0.3-0.3-0.2-0.5-0.2c-0.7,0-1.3,0-2,0c-0.2,0-0.4,0-0.4,0.2c0,0.2-0.1,0.4,0.1,0.5
		c0.4,0.2,0.4,0.5,0.4,0.8c0,1,0,2,0,3c0,0.4-0.1,0.6-0.6,0.6c-1.1,0-2.1,0-3.2,0C124.6,58.4,123.5,58.4,122.4,58.4z"/>
	<path class="st0" d="M101.2,65.1c-0.1,0.2,0,0.5,0.3,0.5c0.9,0,1.7,0,2.6,0c0.2,0,0.4-0.1,0.4-0.3c0-0.2,0-0.4-0.3-0.4
		c-0.5,0-0.7-0.4-0.9-0.7c-1.2-1.5-2.4-3-3.5-4.5c-0.4-0.5-1.1-1.1-1.1-1.6c0-0.6,0.9-0.9,1.5-1.3c1.3-0.9,2.3-2.1,3.8-2.7
		c0.2-0.1,0.2-0.3,0.2-0.5c0-0.2-0.2-0.2-0.4-0.2c-0.7,0-1.3-0.1-2,0c-0.5,0-1.5-0.5-1.1,0.8c0,0.1-0.2,0.2-0.3,0.3
		c-1.9,1.5-3.7,2.9-5.8,4.6c0-1.5,0-2.9,0-4.2c0-0.3,0-0.6,0.3-0.7c0.3-0.1,0.3-0.3,0.2-0.6c-0.1-0.3-0.3-0.2-0.5-0.2
		c-0.7,0-1.3,0-2,0c-0.2,0-0.4-0.1-0.4,0.2c0,0.2-0.1,0.4,0.2,0.5c0.4,0.2,0.4,0.5,0.4,0.8c0,3.1,0,6.1,0,9.2c0,0.3,0,0.6-0.4,0.8
		c-0.3,0.2-0.4,0.6,0.1,0.7c0.8,0.1,1.6,0,2.4,0c0.4,0,0.4-0.5,0.2-0.6c-0.7-0.4-0.5-1.1-0.5-1.7c0-2.4,0-2.4,1.9-3.8
		c0.4-0.3,0.6-0.3,0.9,0.1c1.2,1.5,2.3,3,3.5,4.5C101.2,64.4,101.5,64.6,101.2,65.1z"/>
	<path class="st0" d="M141.1,53.9c0.3-0.3,0.2-0.6-0.3-0.6c-0.8,0-1.6,0-2.4,0c-0.5,0-0.6,0.4-0.4,0.6c0.4,0.4,0.1,0.7,0,1
		c-1.4,3-2.8,5.9-4.1,8.9c-0.2,0.4-0.3,0.8-0.8,1c-0.2,0.1-0.2,0.3-0.2,0.5c0,0.3,0.2,0.3,0.4,0.3c0.7,0,1.5,0,2.2,0
		c0.6,0,0.5-0.5,0.3-0.7c-0.5-0.3-0.3-0.5-0.1-0.8c0.8-1.8,0.8-1.8,2.8-1.8c0.4,0,0.7,0,1.1,0c0.5,0,1,0.1,1.4,0
		c1.2-0.2,2,0.2,2.3,1.5c0.1,0.4,0.6,0.8,0,1.3c-0.2,0.2-0.1,0.6,0.4,0.6c0.8,0,1.6,0,2.4,0c0.2,0,0.4,0,0.5-0.3
		c0-0.2,0-0.5-0.3-0.5c-0.4-0.1-0.5-0.4-0.7-0.7c-1.4-3.1-2.9-6.3-4.3-9.4C140.9,54.4,140.8,54.2,141.1,53.9z M137.2,60.6
		c0.7-1.6,1.5-3.2,2.3-5c0.8,1.7,1.5,3.3,2.3,5C140.1,60.6,138.7,60.6,137.2,60.6z"/>
	<path class="st0" d="M116.5,64.2c0.3-0.2,0.5-0.6,0.9-0.3c0.2,0.1,0.4-0.1,0.5-0.3c0.2-0.2,0-0.3-0.1-0.4c-0.4-0.5-0.9-1-1.3-1.6
		c-0.1-0.1-0.2-0.3-0.5-0.2c-0.1,0.1-0.3,0.2-0.3,0.4c0.3,0.6-0.2,0.7-0.5,1c-1.4,1.1-3,1.4-4.7,1.2c-2.3-0.3-4-2.1-4.2-4.2
		c-0.2-2.1,0.9-4,2.9-4.7c2-0.7,4-0.5,5.9,0.6c0.3,0.2,0.6,0.3,0.5,0.8c-0.1,0.2,0.1,0.3,0.3,0.4c0.3,0.1,0.4-0.1,0.5-0.2
		c0.4-0.6,0.7-1.2,1.1-1.8c0.1-0.1,0.2-0.3,0.1-0.4c-0.1-0.1-0.4-0.2-0.4-0.2c-0.5,0.5-0.9,0-1.3-0.2c-1.9-0.9-3.9-1.1-5.9-0.8
		c-3.3,0.5-5.6,3-5.6,6.2c0,2.7,1.5,5,4.1,5.8C111.3,66.2,114,65.9,116.5,64.2z"/>
	<path class="st0" d="M80,64.6c2.5,1.7,6.5,1.5,9.3-0.4c0.3-0.2,0.5-0.6,1-0.3c0.2,0.1,0.3-0.1,0.5-0.3c0.2-0.2,0-0.3-0.1-0.4
		c-0.4-0.5-0.8-1-1.3-1.6c-0.1-0.1-0.2-0.4-0.5-0.2c-0.1,0.1-0.4,0.2-0.3,0.4c0.2,0.7-0.3,0.8-0.7,1.1c-1.1,0.8-2.3,1.2-3.8,1.2
		c-0.4,0-0.9,0-1.4-0.2c-1.9-0.6-3.2-1.8-3.6-3.8c-0.4-2,0.5-3.7,2.1-4.7c1.9-1.1,5.2-1,6.9,0.3c0.2,0.2,0.4,0.3,0.3,0.6
		c-0.1,0.3,0.1,0.4,0.4,0.5c0.3,0.1,0.3-0.2,0.4-0.3c0.4-0.6,0.7-1.1,1-1.7c0.1-0.1,0.2-0.3,0.1-0.4c-0.2-0.1-0.4-0.4-0.6-0.2
		c-0.3,0.3-0.6,0.1-0.8-0.1c-1.9-1-4-1.3-6.1-1c-2.7,0.4-4.9,2.2-5.5,4.7C76.8,60.6,77.8,63.1,80,64.6z"/>
	<path class="st0" d="M83.7,28.6c0.1,0,0.3-0.1,0.3-0.3c0-0.2-0.2-0.2-0.4-0.2c-1,0-2.1,0-3.1,0c-0.1,0-0.3,0-0.3,0.2
		c0,0.2,0.1,0.3,0.3,0.3c0.5,0.1,0.5,0.5,0.5,0.9c0,5.6,0,11.1,0,16.7c0,0.4-0.1,0.8-0.5,0.9c-0.2,0.1-0.3,0.1-0.3,0.3
		c0.1,0.2,0.3,0.2,0.4,0.2c0.5,0,1,0,1.4,0c0.5,0,1,0,1.5,0c0.2,0,0.4,0,0.4-0.2c0.1-0.2-0.1-0.3-0.3-0.3c-0.5-0.2-0.5-0.6-0.5-1
		c0-5.5,0-11,0-16.5C83.2,29.1,83.2,28.7,83.7,28.6z"/>
	<path class="st0" d="M86.8,68.9c0-0.2-0.2-0.2-0.4-0.2c-0.4,0-0.8,0-1.2,0c-0.5,0-0.9,0.1-0.4,0.7c0.2,0.2,0,0.4-0.1,0.6
		c-0.4,1.3-0.8,2.5-1.2,3.8c-0.1,0.2-0.1,0.5-0.4,0.6c-0.5-1.5-1.1-3-1.6-4.5c-0.1-0.2-0.1-0.3,0-0.5c0.4-0.5,0.1-0.7-0.4-0.7
		c-0.3,0-0.6,0-0.8,0c-0.4,0.1-1.5-0.4-0.8,0.8c0,0.1,0,0.2,0,0.2c-0.6,1.6-1.1,3.2-1.7,5c-0.6-1.8-1.2-3.4-1.7-5
		c0-0.1-0.1-0.2,0-0.3c0.6-0.9-0.1-0.8-0.6-0.8c-0.4,0-0.7,0-1.1,0c-0.5,0-0.5,0.4-0.2,0.6c0.5,0.4,0.6,0.9,0.8,1.4
		c0.6,1.5,1.1,3,1.7,4.6c0.1,0.4,0.5,0.8,0.1,1.3c-0.1,0.2,0,0.4,0.3,0.4c0.2,0,0.5,0,0.7,0c0.6-0.1,1.3,0.5,1.3-1
		c0-1.6,1-3.2,1.6-5c0.6,1.6,1.1,3,1.6,4.4c0.1,0.3,0.4,0.7,0,1.1c-0.2,0.2,0,0.5,0.3,0.5c0.5,0,1.1,0,1.6,0c0.3,0,0.4-0.3,0.3-0.4
		c-0.4-0.5-0.1-1,0.1-1.4c0.6-1.6,1.1-3.2,1.7-4.8c0.1-0.4,0.2-0.8,0.6-1C86.8,69.2,86.8,69.1,86.8,68.9z"/>
	<path class="st0" d="M43.3,31.1c0.6,0.1,0.6,0.6,0.6,1.1c0,4.4,0,8.8,0,13.2c0,0.5,0,1-0.6,1.1c-0.1,0-0.3,0.1-0.2,0.3
		c0,0.2,0.2,0.2,0.3,0.2c1.1,0,2.3,0,3.4,0c0.1,0,0.3,0,0.3-0.2c0.1-0.2-0.1-0.3-0.3-0.3c-0.6-0.1-0.6-0.5-0.6-1c0-4.4,0-8.9,0-13.3
		c0-0.5,0-1,0.7-1.1c0.2,0,0.3-0.1,0.3-0.3c0-0.2-0.2-0.2-0.4-0.2c-0.6,0-1.1,0-1.7,0c-0.6,0-1.2,0-1.8,0c-0.1,0-0.3,0-0.3,0.2
		C43.1,31,43.2,31.1,43.3,31.1z"/>
	<path class="st0" d="M60.1,66c0.1,0.2,0.3,0.1,0.5,0.1c0.2,0,0.2-0.2,0.2-0.4c0-0.6,0-1.3,0-1.9c0-0.2,0-0.4-0.2-0.4
		c-0.2,0-0.4-0.1-0.5,0.2C59.9,64,59.6,64,59.3,64c-2.1,0-4.3,0-6.4,0c-0.5,0-0.7-0.1-0.7-0.7c0-2.8,0-5.5,0-8.3
		c0-0.4-0.1-0.7,0.4-0.9c0.2-0.1,0.2-0.3,0.2-0.5c0-0.3-0.3-0.2-0.5-0.2c-0.3,0-0.7,0-1,0c-0.3,0-0.6,0-0.9,0
		c-0.2,0-0.5-0.1-0.5,0.2c0,0.2-0.1,0.4,0.2,0.5c0.3,0.1,0.3,0.4,0.3,0.7c0,3.1,0,6.2,0,9.3c0,0.2,0.1,0.5-0.2,0.6
		c-0.3,0.1-0.5,0.3-0.4,0.6c0.1,0.4,0.5,0.2,0.8,0.2c2.8,0,5.5,0,8.3,0C59.4,65.6,59.9,65.4,60.1,66z"/>
	<path class="st0" d="M64.9,68.7c-0.6-0.1-1.2-0.1-1.7,0C63,68.8,63,69,63,69.1c0.7,1.1,0.2,2.3,0.3,3.5c0,0.6,0.1,1.2-0.1,1.9
		c-1.4-1.6-2.7-3.1-4-4.7c-0.1-0.1-0.2-0.3-0.2-0.3c0.4-1-0.4-0.8-0.9-0.8c-0.3,0-0.6,0-0.8,0c-0.6,0-1.4-0.1-0.6,0.9
		c0.1,0.1,0,0.4,0,0.7c0,1.7,0,3.4,0,5c0,0.4,0.1,0.8-0.3,1.2c-0.1,0.1-0.1,0.5,0.1,0.5c0.6,0.1,1.2,0.2,1.7,0
		c0.4-0.2-0.1-0.5-0.2-0.8c0-0.1,0-0.2,0-0.3c0-1.6,0-3.3,0-4.9c0.1,0,0.1,0,0.2-0.1c1.5,1.7,3,3.4,4.4,5.1c0.1,0.1,0.2,0.3,0.1,0.5
		c-0.2,0.6,0.1,0.6,0.6,0.6c0.2,0,0.4,0,0.7,0c1,0,0.9,0,0.7-0.9c-0.1-0.2,0-0.4,0-0.6c0-1.1-0.1-2.2,0-3.4c0.1-1-0.3-2.1,0.3-3.1
		C65,69,65,68.8,64.9,68.7z"/>
	<path class="st0" d="M92.3,72.2c-0.2,0-0.4,0-0.7,0c-0.8,0-1.6-0.1-2.3-0.2c-0.5,0-0.9-0.2-1-0.8c-0.1-0.5,0.3-0.8,0.7-1
		c1.3-0.6,2.7-0.5,4,0.1c0.1,0,0.2,0.1,0.2,0.2c0,0.3,0.1,0.6,0.4,0.6c0.3,0,0.3-0.4,0.5-0.6c0.1-0.1,0.2-0.3,0.3-0.4
		c0.4-0.8,0.4-0.8-0.5-0.8c-0.2,0-0.5-0.2-0.7-0.2c-1.7-0.6-3.5-0.7-5.1,0.2c-0.8,0.4-1.3,1.2-1.2,2.1c0.1,1,0.7,1.6,1.6,1.8
		c0.5,0.1,1,0.2,1.5,0.2c0.8,0.1,1.6,0.1,2.3,0.2c0.5,0,0.9,0.2,1,0.8c0.1,0.5-0.2,0.8-0.6,1.1c-0.3,0.2-0.6,0.3-0.9,0.3
		c-1.1,0.2-2.2,0-3.3-0.5c-0.3-0.1-0.6-0.2-0.6-0.7c0-0.3-0.3-0.5-0.6-0.1c-0.3,0.4-0.5,0.8-0.7,1.2c-0.3,0.5,0.1,0.7,0.4,0.5
		c0.4-0.2,0.6,0.1,0.9,0.2c1,0.5,1.9,0.7,3,0.7c0.7,0,1.3-0.1,2-0.3c1.4-0.5,2.1-1.5,1.9-2.8C94.6,72.9,93.8,72.3,92.3,72.2z"/>
	<path class="st0" d="M105,68.8c-1.3-0.4-2.5-0.3-3.8,0.1c-1.6,0.5-2.7,1.9-2.8,3.5c-0.1,1.8,0.6,3.2,2.3,4.1
		c0.8,0.5,1.8,0.6,2.9,0.6c0.3,0,0.8-0.1,1.3-0.2c2-0.5,3.3-2.1,3.3-4C108.3,71,107,69.3,105,68.8z M103.3,75.8c-2,0-3.5-1.2-3.5-3
		c0-1.8,1.4-3,3.4-3c2.1,0,3.5,1.2,3.5,3C106.8,74.6,105.4,75.8,103.3,75.8z"/>
	<path class="st0" d="M141.3,75.4c-0.9,0.7-1.8,0.2-2.6,0.3c-0.4,0-0.6,0-0.9,0c-1.9,0-2-0.1-1.7-2c0-0.2,0-0.4,0.2-0.4
		c1,0.1,2.1-0.3,3.1,0.2c0.2,0.1,0.5,0.2,0.5-0.2c0-0.4,0-0.9,0-1.3c0-0.3-0.3-0.4-0.5-0.3c-0.6,0.5-1.2,0.3-1.8,0.3
		c-1.6,0-1.6,0-1.6-1.6c0-0.6,0.2-0.6,0.7-0.6c1,0,2,0,3,0c0.4,0,1-0.2,1.3,0.3c0.1,0.1,0.3,0.1,0.5,0c0.1-0.1,0.1-1.6,0-1.7
		c-0.1-0.1-0.4-0.1-0.5,0c-0.4,0.5-0.9,0.3-1.3,0.3c-1.5,0-3,0-4.5,0c-0.6,0-1.4-0.1-0.6,0.9c0.1,0.1,0,0.4,0,0.6c0,1.8,0,3.6,0,5.4
		c0,0.2,0.1,0.5-0.1,0.7c-0.6,0.7-0.1,0.7,0.4,0.7c1.7,0,3.4,0,5.1,0c0.4,0,0.8-0.1,1.1,0.3c0.1,0.2,0.5,0.2,0.5-0.1
		c0.1-0.5,0-1,0-1.5C141.6,75.4,141.4,75.3,141.3,75.4z"/>
	<path class="st0" d="M72.8,75.7c-0.2,0.1-0.4,0-0.6,0c-0.8,0-1.6,0-2.4,0c-1.9,0-2-0.1-1.7-2c0-0.2,0-0.4,0.2-0.4
		c1,0,2-0.3,2.8,0.1c0.9,0.4,0.9,0.1,0.8-0.6c0-0.3,0-0.5,0-0.8c0-0.4-0.3-0.5-0.5-0.3c-0.6,0.5-1.2,0.3-1.8,0.3
		c-1.7,0-1.6,0-1.6-1.7c0-0.5,0.2-0.6,0.6-0.6c1.2,0,2.5,0,3.7,0c0.2,0,0.4,0,0.6,0.1c0.6,0.5,0.7,0.1,0.7-0.4c0-0.3,0-0.6,0-0.8
		c0-0.5-0.3-0.6-0.6-0.3c-0.3,0.3-0.7,0.2-1,0.3c-1.5,0-3.1,0-4.6,0c-1,0-1,0-0.8,0.9c0,0.2,0,0.3,0,0.5c0,1.8,0,3.6,0,5.4
		c0,0.3,0,0.5-0.2,0.8C66,76.8,66.3,77,66.8,77c0.9,0,1.8,0,2.9,0c1,0.2,2.3-0.4,3.5,0.3c0.1,0.1,0.3,0.1,0.4-0.1
		c0.1-0.5,0.2-1.2,0-1.6C73.4,75.1,73,75.6,72.8,75.7z"/>
	<path class="st0" d="M115.6,68.8c-0.4,0.3,0.3,0.6,0.3,1.1c0,1.5,0,3.1,0,4.6c0,0.6-0.3,1-0.8,1.1c-1.1,0.3-2.2,0.3-3.3,0
		c-0.4-0.1-0.7-0.4-0.7-0.8c0-1.7-0.1-3.4,0-5c0.1-1,0.2-1-0.9-1c-0.1,0-0.3,0-0.4,0c-0.5,0-0.6,0.3-0.3,0.6c0.3,0.3,0.2,0.7,0.2,1
		c0,1.4,0,2.7,0,4.1c0,1.3,0.6,2.1,1.7,2.4c1.4,0.4,2.8,0.4,4.1,0c1-0.3,1.7-1,1.7-2.1c0-1.5,0-3.1,0.1-4.6c0-0.3-0.1-0.6,0.3-0.7
		c0-0.2,0-0.4,0-0.6C116.8,68.7,116.1,68.5,115.6,68.8z"/>
	<path class="st0" d="M186.7,59.5c-6,0-12,0-18,0c-0.6,0-0.6,0.3-0.7,0.7c0,0.5,0.1,0.7,0.7,0.7c3,0,5.9,0,8.9,0c3,0,6.1,0,9.1,0
		c0.5,0,0.7-0.1,0.7-0.7C187.4,59.7,187.3,59.5,186.7,59.5z"/>
	<path class="st0" d="M31.7,59.5c-6,0-11.9,0-17.9,0c-0.6,0-0.7,0.2-0.8,0.7c0,0.7,0.3,0.7,0.8,0.7c3,0,5.9,0,8.9,0c3,0,5.9,0,8.9,0
		c0.5,0,0.8,0,0.8-0.7C32.5,59.7,32.3,59.5,31.7,59.5z"/>
	<path class="st0" d="M149.9,64.9c-0.5-0.2-0.4-0.6-0.4-1c0-2.9,0-5.9,0-8.8c0-0.4-0.1-0.9,0.4-1.1c0.2-0.1,0.2-0.3,0.1-0.5
		c-0.1-0.2-0.3-0.2-0.4-0.2c-0.7,0-1.3,0-2,0c-0.2,0-0.4,0-0.5,0.2c0,0.2,0,0.4,0.2,0.5c0.4,0.2,0.3,0.5,0.3,0.9c0,3,0,6.1,0,9.1
		c0,0.3,0.1,0.7-0.3,0.9c-0.2,0.1-0.2,0.3-0.2,0.5c0,0.3,0.3,0.2,0.5,0.2c0.3,0,0.7,0,1,0c0.3,0,0.7,0,1,0c0.2,0,0.4,0,0.4-0.2
		C150.1,65.2,150.1,64.9,149.9,64.9z"/>
	<path class="st0" d="M125.4,68.3c-0.1,0-0.1,0-0.2,0c-0.3,0.5-0.8,0.3-1.1,0.3c-2.1-0.1-4.2,0.3-6.3-0.3c0,0.4,0,0.9,0,1.3
		c-0.1,0.6,0.2,0.7,0.7,0.5c0.6-0.6,1.4-0.1,2.1-0.2c0.5-0.1,0.6,0.2,0.6,0.6c0,1.3,0,2.5,0,3.8c0,0.7,0.3,1.6-0.3,2.2
		c-0.1,0.1-0.1,0.3,0.1,0.4c0.6,0.2,1.3,0.2,1.8,0c0.6-0.2-0.1-0.6-0.1-0.9c0-0.1,0-0.2,0-0.3c0-1.8,0-3.6,0-5.4
		c0-0.2,0-0.5,0.3-0.5c0.8,0.1,1.7-0.3,2.4,0.2c0.2,0.1,0.5,0.2,0.5,0c0.1-0.5,0.1-1.1,0.1-1.6C125.8,68.3,125.6,68.3,125.4,68.3z"
		/>
	<path class="st0" d="M149.1,68.6c-0.2,0.1-0.4,0-0.6,0c-1.7,0-3.4,0-5.1,0c-0.3,0-0.6,0.1-0.8-0.2c-0.1-0.2-0.5-0.2-0.6,0.1
		c-0.1,0.5,0,1,0,1.5c0,0.3,0.4,0.3,0.5,0.2c0.7-0.6,1.6-0.2,2.3-0.3c0.4-0.1,0.5,0.1,0.5,0.5c0,1.2,0,2.5,0,3.7
		c0,0.8,0.3,1.7-0.3,2.4c-0.1,0.2,0,0.4,0.3,0.4c0.3,0,0.6,0,0.8,0c0.9,0,0.9,0,0.6-0.9c-0.1-0.2,0-0.4,0-0.6c0-0.8,0-1.6,0-2.4
		c0-0.4,0-0.8,0-1.3c0-2.1,0-2.1,2.1-2c0.2,0,0.4,0,0.6,0.2c0.1,0.2,0.5,0.2,0.5,0.1c0.2-0.6,0.2-1.2,0-1.7
		C149.8,68,149.4,68.5,149.1,68.6z"/>
	<path class="st0" d="M133.3,75.4c-0.8,0.6-1.8,0.1-2.5,0.3c-0.8,0-1.4,0-2.1,0c-0.5,0-0.6-0.1-0.6-0.6c0-1.5,0-3,0-4.5
		c0-0.3-0.1-0.7,0-1c0.2-0.9,0.2-0.9-0.7-0.9c-0.2,0-0.4,0-0.6,0c-0.5,0-0.5,0.3-0.3,0.6c0.3,0.3,0.2,0.7,0.2,1c0,1.7,0,3.4,0,5.1
		c0,0.3,0.1,0.6-0.1,0.8c-0.5,0.6-0.2,0.8,0.4,0.8c1.7,0,3.4,0,5.1,0c0.3,0,0.7-0.1,1,0.2c0.3,0.2,0.6,0.2,0.6-0.3
		c0-0.4,0-0.7,0-1.1C133.8,75.5,133.5,75.3,133.3,75.4z"/>
	<path class="st0" d="M79.5,25.9c0.8,0.5,1.7,0.6,2.5,0.6c0.9,0,1.8-0.1,2.5-0.6c1-0.6,1.1-2,0.1-2.7c-1.2-0.9-4-0.9-5.2,0
		C78.5,24,78.5,25.3,79.5,25.9z M80.2,24.3c1.3-0.6,2.6-0.6,3.9,0c0.5,0.2,0.3,0.4,0,0.6c-0.6,0.3-1.3,0.4-1.9,0.4
		c-0.6,0-1.3-0.1-1.9-0.4c-0.2-0.1-0.3-0.1-0.4-0.3C79.8,24.4,80,24.4,80.2,24.3z"/>
	<path class="st0" d="M148,47.5c1.2,0,2-0.8,2-1.9c0-1-0.9-1.9-2-1.9c-1.1,0-2,0.8-2,1.9C145.9,46.7,146.8,47.5,148,47.5z"/>
</g>
</svg>
