<?xml version="1.0" encoding="utf-8"?>
<!-- Generator: Adobe Illustrator 19.2.0, SVG Export Plug-In . SVG Version: 6.00 Build 0)  -->
<svg version="1.1" id="Слой_1" xmlns="http://www.w3.org/2000/svg" xmlns:xlink="http://www.w3.org/1999/xlink" x="0px" y="0px"
	 viewBox="0 0 200 100" style="enable-background:new 0 0 200 100;" xml:space="preserve">
<style type="text/css">
	.st0{fill:#015673;}
</style>
<g>
	<path class="st0" d="M10.7,43.3c1,0.5,1.8,1.1,2.4,2c0.6,0.8,1,1.8,1.3,2.9h-4.3c-0.2-0.6-0.6-1-1.1-1.4c-0.5-0.3-1.1-0.5-1.7-0.5
		c-0.9,0-1.6,0.3-2.2,1C4.6,48,4.3,48.9,4.3,50c0,1.1,0.3,2,0.8,2.7c0.6,0.7,1.3,1,2.2,1c0.6,0,1.2-0.2,1.7-0.5
		c0.5-0.3,0.9-0.8,1.1-1.4h4.3c-0.3,1.7-1.1,3.1-2.3,4.1c-1.2,1-2.8,1.5-4.7,1.5c-1.4,0-2.7-0.3-3.8-0.9c-1.1-0.6-1.9-1.5-2.5-2.6
		c-0.6-1.1-0.9-2.4-0.9-3.9c0-1.4,0.3-2.7,0.9-3.9c0.6-1.1,1.4-2,2.5-2.6c1.1-0.6,2.3-0.9,3.8-0.9C8.6,42.6,9.7,42.8,10.7,43.3z"/>
	<path class="st0" d="M23.7,57.4l-3-5.4h-0.4v5.4h-4.1V42.7h6.4c1.2,0,2.2,0.2,3,0.6c0.8,0.4,1.4,1,1.9,1.7c0.4,0.7,0.6,1.5,0.6,2.4
		c0,1-0.3,1.9-0.8,2.7c-0.6,0.8-1.4,1.3-2.4,1.6l3.3,5.7H23.7z M20.3,49.2h2c1.1,0,1.7-0.5,1.7-1.5c0-0.5-0.1-0.9-0.4-1.1
		c-0.3-0.3-0.7-0.4-1.3-0.4h-2V49.2z"/>
	<path class="st0" d="M33.8,42.7v14.7h-4.1V42.7H33.8z"/>
	<path class="st0" d="M40.1,52.5v4.9h-4.1V42.7h6.1c1.8,0,3.1,0.4,4,1.3c0.9,0.9,1.4,2.1,1.4,3.6c0,0.9-0.2,1.8-0.6,2.5
		c-0.4,0.7-1,1.3-1.9,1.7c-0.8,0.4-1.8,0.6-3,0.6H40.1z M43.5,47.6c0-1.1-0.6-1.6-1.8-1.6h-1.6v3.2h1.6
		C42.9,49.3,43.5,48.7,43.5,47.6z"/>
	<path class="st0" d="M60.2,42.7V46h-4v11.4h-4.1V46h-3.9v-3.2H60.2z"/>
	<path class="st0" d="M72.4,43.5c1.1,0.6,2,1.5,2.7,2.7c0.7,1.1,1,2.4,1,3.9s-0.3,2.7-1,3.9c-0.7,1.1-1.6,2-2.7,2.7
		c-1.1,0.6-2.4,1-3.8,1c-1.4,0-2.6-0.3-3.8-1c-1.1-0.6-2-1.5-2.7-2.7c-0.7-1.1-1-2.4-1-3.9s0.3-2.7,1-3.9c0.7-1.1,1.6-2,2.7-2.7
		c1.1-0.6,2.4-1,3.8-1C70,42.5,71.2,42.8,72.4,43.5z M66.2,47.3c-0.6,0.7-0.9,1.6-0.9,2.7c0,1.1,0.3,2,0.9,2.7c0.6,0.7,1.4,1,2.4,1
		c1,0,1.8-0.3,2.4-1c0.6-0.7,0.9-1.6,0.9-2.7c0-1.2-0.3-2.1-0.9-2.7c-0.6-0.7-1.4-1-2.4-1C67.6,46.3,66.8,46.6,66.2,47.3z"/>
	<path class="st0" d="M92.7,42.7V46h-4v11.4h-4.1V46h-3.9v-3.2H92.7z"/>
	<path class="st0" d="M98.1,46v2.4h4.7v3.1h-4.7v2.6h5.4v3.2h-9.4V42.7h9.4V46H98.1z"/>
	<path class="st0" d="M118.9,57.4h-4.1l-5.4-8.2v8.2h-4.1V42.7h4.1l5.4,8.3v-8.3h4.1V57.4z"/>
	<path class="st0" d="M133.7,53.8c-0.6,1.1-1.5,2-2.6,2.6c-1.1,0.6-2.5,1-4,1h-5.8V42.7h5.8c1.5,0,2.9,0.3,4,0.9
		c1.2,0.6,2,1.5,2.6,2.6c0.6,1.1,0.9,2.4,0.9,3.8C134.6,51.4,134.3,52.7,133.7,53.8z M129.5,52.8c0.7-0.6,1-1.6,1-2.8
		c0-1.2-0.3-2.1-1-2.7s-1.6-1-2.8-1h-1.4v7.4h1.4C127.8,53.7,128.8,53.4,129.5,52.8z"/>
	<path class="st0" d="M140.5,46v2.4h4.7v3.1h-4.7v2.6h5.4v3.2h-9.4V42.7h9.4V46H140.5z"/>
	<path class="st0" d="M161.3,57.4h-4.1l-5.4-8.2v8.2h-4.1V42.7h4.1l5.4,8.3v-8.3h4.1V57.4z"/>
	<path class="st0" d="M173.6,43.3c1,0.5,1.8,1.1,2.4,2c0.6,0.8,1,1.8,1.3,2.9H173c-0.2-0.6-0.6-1-1.1-1.4c-0.5-0.3-1.1-0.5-1.7-0.5
		c-0.9,0-1.6,0.3-2.2,1c-0.6,0.7-0.8,1.6-0.8,2.7c0,1.1,0.3,2,0.8,2.7c0.6,0.7,1.3,1,2.2,1c0.6,0,1.2-0.2,1.7-0.5
		c0.5-0.3,0.9-0.8,1.1-1.4h4.3c-0.3,1.7-1.1,3.1-2.3,4.1c-1.2,1-2.8,1.5-4.7,1.5c-1.4,0-2.7-0.3-3.8-0.9c-1.1-0.6-1.9-1.5-2.5-2.6
		c-0.6-1.1-0.9-2.4-0.9-3.9c0-1.4,0.3-2.7,0.9-3.9c0.6-1.1,1.4-2,2.5-2.6c1.1-0.6,2.3-0.9,3.8-0.9C171.5,42.6,172.7,42.8,173.6,43.3
		z"/>
	<path class="st0" d="M183.2,42.7v14.7h-4.1V42.7H183.2z"/>
	<path class="st0" d="M194.7,54.9h-5.2l-0.8,2.4h-4.3l5.4-14.6h4.7l5.3,14.6h-4.3L194.7,54.9z M193.7,51.9l-1.6-4.8l-1.6,4.8H193.7z
		"/>
</g>
</svg>
