<?xml version="1.0" encoding="utf-8"?>
<!-- Generator: Adobe Illustrator 19.2.0, SVG Export Plug-In . SVG Version: 6.00 Build 0)  -->
<svg version="1.1" id="Слой_1" xmlns="http://www.w3.org/2000/svg" xmlns:xlink="http://www.w3.org/1999/xlink" x="0px" y="0px"
	 viewBox="0 0 200 100" style="enable-background:new 0 0 200 100;" xml:space="preserve">
<style type="text/css">
	.st0{fill:#015673;}
</style>
<g>
	<g>
		<path class="st0" d="M82.5,67.7c0.6-1,1.7-1.6,3.1-1.6c2.3,0,3.9,2.1,3.9,5.2c0,3.7-2.2,5.5-4.3,5.5c-1.3,0-2.3-0.5-3-1.7h-0.1
			l-0.1,1.5h-1.8c0-0.7,0.1-1.8,0.1-2.7V61.7h2.1L82.5,67.7L82.5,67.7z M82.5,72.5c0,1.3,0.9,2.5,2.3,2.5c1.6,0,2.6-1.5,2.6-3.6
			c0-1.9-0.8-3.5-2.5-3.5c-1.3,0-2.3,1.3-2.3,2.7V72.5z"/>
		<path class="st0" d="M93.8,76.5h-2.1V61.7h2.1V76.5z"/>
		<path class="st0" d="M105.3,71.3c0,3.8-2.5,5.4-4.8,5.4c-2.6,0-4.7-1.9-4.7-5.2c0-3.4,2.1-5.4,4.8-5.4
			C103.5,66.1,105.3,68.2,105.3,71.3z M100.6,67.7c-1.8,0-2.5,2-2.5,3.7c0,2,0.9,3.7,2.5,3.7c1.6,0,2.5-1.7,2.5-3.7
			C103.1,69.7,102.4,67.7,100.6,67.7z"/>
		<path class="st0" d="M114.3,76.2c-0.5,0.2-1.4,0.5-2.6,0.5c-2.9,0-4.9-2-4.9-5.2c0-3.1,2-5.4,5.3-5.4c1,0,1.8,0.2,2.3,0.5
			l-0.4,1.6c-0.4-0.2-1-0.4-1.8-0.4c-2,0-3.1,1.6-3.1,3.6c0,2.2,1.3,3.6,3.1,3.6c0.9,0,1.4-0.2,1.9-0.4L114.3,76.2z"/>
		<path class="st0" d="M124.7,76.5h-2.6l-2.9-4.7l-0.8,1v3.7h-2.1V61.7h2.1v9.2h0c0.2-0.4,0.5-0.8,0.8-1.2l2.5-3.4h2.5l-3.6,4.2
			L124.7,76.5z"/>
		<path class="st0" d="M132.8,76.2c-0.5,0.2-1.4,0.5-2.6,0.5c-2.9,0-4.9-2-4.9-5.2c0-3.1,2-5.4,5.3-5.4c1,0,1.8,0.2,2.3,0.5
			l-0.4,1.6c-0.4-0.2-1-0.4-1.8-0.4c-2,0-3.1,1.6-3.1,3.6c0,2.2,1.3,3.6,3.1,3.6c0.9,0,1.4-0.2,1.9-0.4L132.8,76.2z"/>
		<path class="st0" d="M135.8,64.7c-0.7,0-1.2-0.6-1.2-1.2c0-0.7,0.5-1.3,1.3-1.3c0.7,0,1.2,0.5,1.2,1.3
			C137,64.2,136.6,64.7,135.8,64.7z M136.9,76.5h-2.1V66.3h2.1V76.5z"/>
		<path class="st0" d="M144.7,68.2c-0.2,0-0.4-0.1-0.6-0.1c-1.4,0-2.3,1.2-2.3,3v5.4h-2.1v-7.1c0-1.2,0-2.2-0.1-3.1h1.9l0.1,1.9h0.1
			c0.5-1.3,1.5-2.1,2.6-2.1c0.2,0,0.4,0,0.5,0.1V68.2z"/>
		<path class="st0" d="M153.2,76.2c-0.5,0.2-1.4,0.5-2.6,0.5c-2.9,0-4.9-2-4.9-5.2c0-3.1,2-5.4,5.3-5.4c1,0,1.8,0.2,2.3,0.5
			l-0.4,1.6c-0.4-0.2-1-0.4-1.8-0.4c-2,0-3.1,1.6-3.1,3.6c0,2.2,1.3,3.6,3.1,3.6c0.9,0,1.4-0.2,1.9-0.4L153.2,76.2z"/>
		<path class="st0" d="M157.3,76.5h-2.1V61.7h2.1V76.5z"/>
		<path class="st0" d="M167.5,76.1c-0.7,0.3-1.8,0.6-3.2,0.6c-3.1,0-4.8-2.1-4.8-5.2c0-3,1.7-5.5,4.6-5.5c2.9,0,4,2.4,4,4.9
			c0,0.4,0,0.6-0.1,0.9h-6.5c0.1,2.3,1.5,3.2,3.1,3.2c1.1,0,1.9-0.2,2.6-0.5L167.5,76.1z M166,70.3c0-1.2-0.5-2.7-2.1-2.7
			c-1.6,0-2.2,1.6-2.3,2.7H166z"/>
		<path class="st0" d="M175.2,68.2c-0.4-0.3-1.1-0.6-1.9-0.6c-1,0-1.5,0.6-1.5,1.2c0,0.7,0.5,1.1,1.7,1.6c1.7,0.7,2.6,1.6,2.6,3.1
			c0,2-1.5,3.1-3.8,3.1c-1.1,0-2.1-0.3-2.8-0.7l0.5-1.6c0.5,0.3,1.5,0.7,2.3,0.7c1.1,0,1.7-0.6,1.7-1.3c0-0.8-0.4-1.2-1.6-1.7
			c-1.8-0.7-2.6-1.7-2.6-2.9c0-1.7,1.4-3.1,3.5-3.1c1,0,1.9,0.3,2.4,0.6L175.2,68.2z"/>
		<path class="st0" d="M177.8,75.2c0-0.9,0.6-1.5,1.4-1.5c0.8,0,1.4,0.6,1.4,1.5c0,0.9-0.5,1.5-1.4,1.5S177.8,76,177.8,75.2z"/>
		<path class="st0" d="M189.5,76.2c-0.5,0.2-1.4,0.5-2.6,0.5c-2.9,0-4.9-2-4.9-5.2c0-3.1,2-5.4,5.3-5.4c1,0,1.8,0.2,2.3,0.5
			l-0.4,1.6c-0.4-0.2-1-0.4-1.8-0.4c-2,0-3.1,1.6-3.1,3.6c0,2.2,1.3,3.6,3.1,3.6c0.9,0,1.4-0.2,1.9-0.4L189.5,76.2z"/>
		<path class="st0" d="M199.8,76.5h-2.1v-6c0-1.4-0.5-2.7-1.9-2.7c-1.1,0-2.2,0.9-2.2,2.5v6.1h-2.1v-7.3c0-1.1,0-2-0.1-2.9h1.9
			l0.1,1.5h0.1c0.5-0.9,1.6-1.7,3.1-1.7c1.6,0,3.4,1,3.4,4.2V76.5z"/>
	</g>
	<polygon class="st0" points="79.3,24.7 110.3,24.7 110.3,27 84.7,27 84.7,55.6 110.4,55.6 110.4,58 79.3,58 	"/>
	<polygon class="st0" points="85.9,29.6 92.6,29.6 97.6,36.8 102.4,29.6 109,29.6 100.9,41.3 109.3,53.3 103.1,53.3 97.8,46 
		92.7,53.5 86.2,53.5 94.3,41.4 	"/>
	<g>
		<polygon class="st0" points="124,24.1 129.2,24.1 129.2,32.4 132.1,32.4 132.1,35.2 129.2,35.2 129.2,53.7 131.9,53.7 131.9,56.4 
			121,56.4 121,53.6 124.1,53.6 124.1,35.1 121.3,35.1 121.3,32.5 124.1,32.5 		"/>
		<path class="st0" d="M146.6,44.8h9.2v-2.4H154V29.5c0,0-0.6-2.4-2.6-2.4c-2,0-5.7,0-5.7,0v-3.2h-4.9v3.2l-6.6,0.1v2.5h6.5v12.7
			h-7.3v2.4h7.3v1l-8.3,12.5h5.7l5.2-7.7l6.6,7.8h6.2L146.6,44.8z M145.7,41.9c0-0.1,0-12.2,0-12.2h2.7c0,0,0.5,0,0.8,0.8
			c0,0.1,0,11.7,0,11.7l-3.2,0.1C146,42.2,145.8,42.2,145.7,41.9z"/>
	</g>
	<g>
		<path class="st0" d="M193.3,42.9h4.1v-16c0,0-0.4-2.2-2.6-2.3c-0.4,0-26.9,0-26.9,0v18.3h4.2l-5.7,4.4h7.6l5.4-4.4l6.2,0l5.4,4.5
			h7.8L193.3,42.9z M179.9,40.3h-7v-5.2h7V40.3z M179.9,32.5h-7v-5.2h7V32.5z M192.1,40.3h-7v-5.2h7V40.3z M192.1,32.5h-7v-5.2h6
			c0.6,0,1,0.5,1,1V32.5z"/>
		<polygon class="st0" points="170.1,48.9 175.4,48.9 175.4,54 173.1,58.4 167.3,58.4 170.1,53.7 		"/>
		<rect x="189.6" y="49" class="st0" width="5.3" height="9.4"/>
	</g>
	<path class="st0" d="M30.8,40.2c0,0-3.1-0.4-3.4,2.8c0,0.7,0.1,7.7,0.1,7.7s0.2,3.1,3.3,3.1c0.3,0,7.1-0.8,7.1-0.8s2.8-0.4,2.5-3.3
		c0-0.3-1-7.3-1-7.3s-0.1-2.3-2.7-2.5C36.6,39.8,31.3,40,30.8,40.2z"/>
	<path class="st0" d="M48,37.9c0,0-3,0.1-2.5,3.3c0.3,1.3,1.5,7.5,1.5,7.5s0.9,2.6,3.7,2.3c1.2-0.3,6.5-1.5,6.5-1.5s2.2-0.6,1.6-3.5
		c-0.2-0.8-2-6.7-2.4-7.2c0,0-1.1-2.8-3.7-2C52,36.9,49.5,37.7,48,37.9z"/>
	<path class="st0" d="M61.8,34.1c0,0-1.5,0.2-1.2,1.9c0.1,0.6,3.2,8.5,3.4,9.3c0.2,0.4,0.9,1.8,2.8,1.2c0.7-0.2,3.5-1.5,3.8-1.9
		c0.2-0.3,0.7-0.8,0.2-2.4c-0.2-0.7-1.9-5.8-4.1-8.6c-0.4-0.4-0.8-1-2.2-0.7C64.1,33,61.8,34.1,61.8,34.1z"/>
	<path class="st0" d="M4.6,60l-2.8-1c0,0-1.2-0.6-1.1,0.7c0,0.4,0.2,2.4,1.5,6.6c0.5,1.5,1.7,4.4,3.1,5.3c0.3,0.1,2.9,0.9,2.9,0.9
		s1.3,0.4,0.8-1.9c-0.1-0.3-0.7-2.1-0.7-2.1s-1.2-4.3-1.5-6.1C6.8,62.4,6.4,60.5,4.6,60z"/>
	<path class="st0" d="M16.2,61.3c0,0-4.1-0.9-4.6,1.3c0,0.5,0.6,5.8,2.2,9c0.3,0.4,1.2,1.7,2.6,1.8c0.8,0.1,4.2,0.3,6.3,0.1
		c0.2,0,1.7-0.6,1.2-2.4c-0.3-1.4-1-4.9-1.1-6.2c0-0.4-0.4-3.3-2.9-3.6C19.7,61.3,18.9,61.5,16.2,61.3z"/>
	<path class="st0" d="M32.2,60.7c0,0-3.1-0.4-3.3,2.6c0,0.8,0.4,3.6,0.7,4.8c0.2,1,0.6,3.3,0.6,3.3s0.6,1.6,2.9,1.7
		c0.5,0,3.9-0.1,7.3-0.6c0.4-0.1,2.4-0.7,2.2-2.7c-0.1-1.1-0.7-5.5-0.6-6.2c0-0.2,0.4-3.9-3.9-3.5C36.8,60.3,32.2,60.7,32.2,60.7z"
		/>
	<path class="st0" d="M58.4,56.6c0,0-6.1,1.1-6.8,1.4c-0.2,0-2.5,0.4-2.9,3c0,0.5,0.5,8.1,0.5,8.1s0.7,2.5,3.7,1.4
		c0.7-0.1,5.7-1.2,5.7-1.2s2.2-0.8,2.4-3.8c0-2.3,0-6.8,0-6.8S60.5,56,58.4,56.6z"/>
	<path class="st0" d="M8.1,77.1c0,0,5.8,7.8,11.7,8.7c0,0-5.6-5.2-6.3-6.6C13.4,79.2,12.1,77.7,8.1,77.1z"/>
	<path class="st0" d="M18.8,79c0,0-1.5-0.3-0.8,1.3c0.3,0.6,3.3,5.3,6.8,6.3c0.6,0,4.7,0,4.7,0s1.1,0,0-1.7
		c-0.7-1.1-2.3-4.1-2.3-4.1s-0.6-1.6-3.1-1.7C22.2,79,18.8,79,18.8,79z"/>
	<path class="st0" d="M34.6,78.6c0,0-2.3,0.1-2,2.1c0.2,0.9,1.6,4.5,1.6,4.5s0.7,1.3,2.3,1.2c1.4-0.1,4.9-0.3,4.9-0.3s2-0.3,2.1-1.5
		c0-0.4-0.1-4.9-0.1-4.9s-0.1-1.5-2-1.5C41.1,78.1,35.6,78.4,34.6,78.6z"/>
	<path class="st0" d="M4.5,38.9c0,0-0.5-0.5-1.4,0.2c-0.5,0.5-2.4,4.7-2.9,10.1c0,0.5-0.1,2,0.8,2.4c0.8,0.4,2.8,1,2.8,1
		s2.2,0.8,2.6-2.2c0-0.7,0.3-5.1,1.2-7.5c0.1-0.4,0.9-2.6-1-3.5C6.7,39.6,5.7,39.5,4.5,38.9z"/>
	<path class="st0" d="M21,15.7c0,0,3.8-2.5,10.9-2.3c0,0-4.1,0.4-11.9,4.1c-0.1,0.1-0.9,0.2-0.5-0.4c0.1-0.2,0.5-1.3,8.4-3
		C28,14,28.1,13.5,21,15.7z"/>
	<path class="st0" d="M32.3,13.4c0,0-9.1,2.3-11.7,4.7c0,0-0.2,0.4,0.6,0.4c1.5,0,1.2-0.1,1.5-0.1C23,18.4,27.4,14.9,32.3,13.4z"/>
	<path class="st0" d="M32.4,13.5c0,0-6.7,3-7.8,5.5c0,0,2.1,0.5,3.1,0c0.2-0.1,0.6-0.8,0.6-0.8S30.3,15.4,32.4,13.5z"/>
	<path class="st0" d="M32.9,13.5c0,0-3.3,4.6-2.2,5.4c0.4,0.1,2.2,0.2,3-0.1c0.2-0.1,0.6-0.2,0.6-0.7C34.3,17.6,34.3,16.5,32.9,13.5
		z"/>
	<path class="st0" d="M33.8,13.4c0,0,6.3-0.5,11.5,2.4c0,0-0.7,0.7-1.7,0.7c-0.2,0-0.6,0-1.7-0.5C41.6,15.9,36.5,13.6,33.8,13.4z"/>
	<path class="st0" d="M13.6,20.4c0,0-9,7.4-8.9,10.3c0,0,8.3-9.3,8.8-9.3C13.5,21.4,13.7,21,13.6,20.4z"/>
	<path class="st0" d="M15.2,22.6c0,0-0.7,0-1.9,1c-0.3,0.2-3,2.3-6.4,7.9c-0.1,0.2-0.5,0.9,0.2,1.3c0.3,0.1,2.7,0.7,2.7,0.7
		s0.7,0,1.5-0.9c0.1-0.1,4.9-7.3,5.5-8.3c0.1-0.2,0.6-0.9-0.2-1.1C16.5,22.9,15.2,22.6,15.2,22.6z"/>
	<path class="st0" d="M21.8,23.7c0,0-0.9-0.2-2.2,1.1c-0.3,0.3-1.2,1.2-2.9,4.4c-0.3,0.5-1.4,2.5-1.4,3.4c0,0.4,0,1.2,0.9,1.5
		c0.1,0,4.5,0.1,4.5,0.1s1.1,0,2.1-1.3c0.2-0.3,0.5-0.6,0.7-1.6c0.2-0.7,1.5-5.6,1.5-5.6s0.3-1.2,0-1.7c-0.2-0.2-0.3-0.4-1.2-0.4
		L21.8,23.7z"/>
	<path class="st0" d="M31.3,23.3c0,0-2.2-0.1-2.7,2c-0.1,0.5-0.6,5.3-0.6,6.5c0,0.3,0.1,2.4,2.1,2c0.4,0,4.5-0.1,5.2-0.3
		c0.4-0.1,1.8-0.1,1.9-2.1c0-0.4,0.2-1.4-0.9-5.6c-0.2-0.8-0.3-2.4-1.9-2.7C34.2,23,33.8,22.9,31.3,23.3z"/>
	<path class="st0" d="M41.4,21.8c0,0-1.8,0.1-1.5,1.4c0.2,0.7,1.9,6.1,2.5,6.9c0.3,0.4,1.4,2.1,3.6,1.8c0.6-0.1,4.4-1,4.4-1
		s1.6-0.3,1-1.8c-0.1-0.2,0-0.2-0.5-0.8s-4-5.5-4-5.5S46,21.5,45,21.4S43.8,21.3,41.4,21.8z"/>
	<path class="st0" d="M49.4,19.7c0,0-1,0.3-0.5,1c0.5,0.5,3.8,4.2,3.8,4.2l2.7,2.9c0,0,1.6,1.8,3.3,0.4c0.3-0.1,2.3-0.7,2.2-1.4
		c0-0.5,0-0.6-0.9-1.7c-0.3-0.3-1-1.3-4.4-3.8c-0.5-0.4-2.9-2-2.9-2s-0.7-0.4-1.5-0.3C50.9,19,49.4,19.7,49.4,19.7z"/>
	<path class="st0" d="M53.3,16.7l-0.2,0.4c0,0-0.1,0.3,0.1,0.5c0.3,0.2,7.4,4.6,8.6,6.3c0.2,0.2,1.1,0.7,1.1,0.7s1,0.6,1.2,0
		c0.1-0.3,0.4-0.9-0.5-1.9c-0.2-0.2-5.4-4.2-8.9-5.9C54.6,16.8,53.7,16.4,53.3,16.7z"/>
	<path class="st0" d="M15.4,40.7c0,0-2.3-0.7-3.2,1.5C11.9,42.8,10.7,48,11,51c0,0.3,0.3,2.4,1.8,2.7c0.8,0.1,5.2,0.4,6.9,0.2
		c0.3,0,1.5-0.4,1.8-3.2c0-1,0.1-4.6,0.2-6.6c0-0.2,0.4-3.3-2.3-3.4C19,40.7,15.4,40.7,15.4,40.7z"/>
</g>
</svg>
